<?xml version="1.0" encoding="utf-8"?>
<!-- Generator: Adobe Illustrator 14.0.0, SVG Export Plug-In  -->
<!DOCTYPE svg PUBLIC "-//W3C//DTD SVG 1.1//EN" "http://www.w3.org/Graphics/SVG/1.1/DTD/svg11.dtd" [
	<!ENTITY ns_flows "http://ns.adobe.com/Flows/1.0/">
]>
<svg version="1.1"
	 xmlns="http://www.w3.org/2000/svg" xmlns:xlink="http://www.w3.org/1999/xlink" xmlns:a="http://ns.adobe.com/AdobeSVGViewerExtensions/3.0/"
	 x="0px" y="0px" width="1307px" height="48px" viewBox="-11.063 -3.956 1307 48" enable-background="new -11.063 -3.956 1307 48"
	 xml:space="preserve">
<defs>
</defs>
<path fill="#DF2000" d="M77.98,8.286v28c0,1.104-0.896,2-2,2H51.979c-1.104,0-2-0.896-2-2v-34c0-1.104,0.896-2,2-2H69.98"/>
<polygon fill="#A01705" points="72.005,8.222 70.559,7.604 78.005,15.05 78.005,8.222 "/>
<path fill="#F26253" d="M78.005,8.222h-6c-1.104,0-2-0.895-2-2v-6"/>
<path fill="#FFFFFF" d="M60.086,27.396c-0.195-0.172-0.442-0.305-0.742-0.396c-0.301-0.092-0.657-0.139-1.07-0.139h-1.782v6.426
	h1.36v-2.285h0.313c0.469,0,0.859-0.059,1.18-0.176c0.317-0.117,0.574-0.272,0.771-0.471c0.191-0.195,0.334-0.424,0.419-0.682
	c0.085-0.26,0.128-0.527,0.128-0.811c0-0.313-0.047-0.595-0.143-0.843C60.426,27.776,60.28,27.567,60.086,27.396z M58.987,29.657
	c-0.194,0.15-0.483,0.229-0.868,0.229h-0.27v-1.908h0.35c0.369,0,0.645,0.076,0.816,0.229c0.175,0.152,0.262,0.391,0.262,0.709
	C59.278,29.256,59.182,29.504,58.987,29.657z M66.004,27.663c-0.271-0.266-0.595-0.465-0.976-0.602
	c-0.38-0.134-0.806-0.201-1.274-0.201h-1.881v6.426h1.689c0.521,0,0.98-0.067,1.389-0.207c0.403-0.137,0.748-0.344,1.025-0.616
	c0.28-0.272,0.494-0.615,0.645-1.022c0.146-0.41,0.222-0.886,0.222-1.429c0-0.515-0.073-0.969-0.218-1.36
	C66.479,28.26,66.271,27.929,66.004,27.663z M65.028,31.635c-0.287,0.353-0.72,0.526-1.294,0.526h-0.502v-4.186h0.63
	c0.256,0,0.479,0.041,0.681,0.123c0.197,0.082,0.362,0.209,0.5,0.379c0.137,0.17,0.24,0.385,0.313,0.645
	c0.071,0.261,0.107,0.566,0.107,0.925C65.463,30.754,65.316,31.282,65.028,31.635z M69.514,27.978v1.656h2.181v1.111h-2.181v2.539
	h-1.34V26.86h3.684v1.114h-2.344V27.978z"/>
<path fill="none" stroke="#FFFFFF" d="M57.395,23.681c1.146,0.988,10.185-10.59,6.009-14.855
	c-4.176-4.268,2.781,14.094,7.141,10.107c4.355-3.988-17.248,1.02-13.168,4.729L57.395,23.681z"/>
<path fill="#96DB2A" d="M128.021,8.286v28c0,1.104-0.896,2-2,2h-24.001c-1.104,0-2-0.896-2-2v-34c0-1.104,0.896-2,2-2h18.001"/>
<polygon fill="#77AD1A" points="122.043,8.222 120.598,7.604 128.043,15.05 128.043,8.222 "/>
<path fill="#B4E85B" d="M128.043,8.222h-6c-1.104,0-2-0.895-2-2v-6"/>
<path fill="#FFFFFF" d="M111.429,26.799h1.361v6.19c0,0.369-0.054,0.688-0.159,0.955c-0.106,0.267-0.258,0.486-0.449,0.66
	c-0.19,0.176-0.42,0.303-0.688,0.385c-0.266,0.082-0.562,0.123-0.883,0.123c-0.19,0-0.357-0.01-0.501-0.027
	c-0.145-0.021-0.266-0.042-0.364-0.067v-1.135c0.107,0.022,0.222,0.045,0.34,0.063c0.119,0.018,0.248,0.024,0.391,0.024
	c0.135,0,0.26-0.015,0.377-0.043c0.114-0.028,0.216-0.08,0.303-0.151c0.086-0.072,0.154-0.168,0.201-0.287
	c0.049-0.121,0.072-0.271,0.072-0.453L111.429,26.799L111.429,26.799z M117.508,30.278c-0.134-0.147-0.291-0.283-0.478-0.404
	c-0.185-0.122-0.387-0.241-0.604-0.358c-0.183-0.096-0.336-0.183-0.466-0.258c-0.127-0.076-0.229-0.152-0.311-0.226
	s-0.142-0.151-0.177-0.235c-0.036-0.082-0.057-0.179-0.057-0.287c0-0.201,0.063-0.363,0.184-0.485
	c0.121-0.121,0.298-0.183,0.524-0.183c0.105,0,0.209,0.008,0.314,0.022c0.104,0.019,0.209,0.041,0.317,0.072
	c0.106,0.033,0.219,0.072,0.334,0.119c0.112,0.047,0.235,0.102,0.368,0.162l0.439-1.061c-0.156-0.072-0.308-0.138-0.453-0.191
	c-0.146-0.057-0.293-0.104-0.438-0.143c-0.146-0.037-0.291-0.066-0.438-0.088c-0.147-0.021-0.3-0.029-0.455-0.029
	c-0.312,0-0.59,0.041-0.842,0.123c-0.25,0.082-0.464,0.201-0.64,0.356c-0.177,0.156-0.313,0.349-0.406,0.576
	c-0.096,0.228-0.144,0.483-0.144,0.771c0,0.293,0.05,0.545,0.148,0.754c0.1,0.209,0.224,0.389,0.37,0.535
	c0.147,0.147,0.308,0.272,0.474,0.371c0.168,0.102,0.317,0.188,0.453,0.256c0.161,0.086,0.307,0.166,0.438,0.242
	c0.13,0.075,0.241,0.153,0.334,0.233c0.092,0.08,0.164,0.168,0.215,0.26c0.052,0.093,0.077,0.199,0.077,0.318
	c0,0.1-0.016,0.19-0.046,0.274c-0.031,0.082-0.08,0.154-0.146,0.215c-0.066,0.062-0.153,0.105-0.261,0.142
	c-0.106,0.032-0.234,0.051-0.385,0.051c-0.146,0-0.295-0.016-0.44-0.045c-0.148-0.028-0.298-0.067-0.443-0.119
	c-0.147-0.049-0.295-0.104-0.438-0.168c-0.146-0.063-0.285-0.129-0.427-0.194v1.266c0.245,0.129,0.513,0.227,0.802,0.291
	c0.289,0.063,0.589,0.096,0.897,0.096c0.354,0,0.669-0.043,0.943-0.131c0.272-0.088,0.506-0.213,0.692-0.377
	c0.188-0.162,0.333-0.357,0.433-0.588c0.098-0.229,0.146-0.488,0.146-0.775c0-0.252-0.036-0.473-0.109-0.658
	C117.735,30.594,117.643,30.426,117.508,30.278z M111.092,18.094l-3.696-1.616l3.696-1.822v-1.381l-5.476,2.854v0.822l5.476,2.52
	V18.094z M114.813,12.229l-3.136,8.407h1.595l3.134-8.407H114.813z M116.969,13.274v1.381l3.697,1.822l-3.697,1.616v1.375
	l5.476-2.521v-0.821L116.969,13.274z"/>
<path fill="#23C8CC" d="M177.982,8.286v28c0,1.104-0.896,2-2,2h-24.001c-1.104,0-2-0.896-2-2v-34c0-1.104,0.896-2,2-2h18.001"/>
<polygon fill="#298C89" points="172.004,8.222 170.559,7.604 178.004,15.05 178.004,8.222 "/>
<path fill="#6BDBDB" d="M178.004,8.222h-6c-1.104,0-2-0.895-2-2v-6"/>
<path fill="#FFFFFF" d="M157.895,29.118c-0.068,0.271-0.104,0.576-0.104,0.912c0,0.342,0.031,0.646,0.094,0.914
	c0.063,0.269,0.16,0.49,0.29,0.674c0.13,0.185,0.298,0.322,0.501,0.418c0.203,0.097,0.446,0.144,0.729,0.144
	c0.261,0,0.521-0.028,0.782-0.088c0.264-0.06,0.549-0.142,0.855-0.25v1.144c-0.141,0.061-0.28,0.108-0.418,0.147
	c-0.138,0.043-0.278,0.075-0.422,0.103c-0.146,0.026-0.291,0.047-0.441,0.061c-0.149,0.014-0.313,0.02-0.484,0.02
	c-0.494,0-0.926-0.078-1.287-0.236c-0.363-0.157-0.664-0.381-0.9-0.668c-0.238-0.287-0.414-0.633-0.527-1.037
	c-0.113-0.403-0.172-0.854-0.172-1.35c0-0.484,0.066-0.932,0.197-1.338c0.133-0.404,0.326-0.756,0.58-1.049
	c0.256-0.293,0.57-0.521,0.945-0.684s0.806-0.243,1.292-0.243c0.317,0,0.64,0.04,0.96,0.12s0.628,0.19,0.921,0.332l-0.439,1.106
	c-0.239-0.114-0.479-0.215-0.726-0.299c-0.242-0.086-0.481-0.129-0.716-0.129c-0.263,0-0.491,0.051-0.692,0.151
	c-0.201,0.102-0.369,0.246-0.505,0.437C158.069,28.618,157.965,28.847,157.895,29.118z M166.054,30.28
	c-0.134-0.147-0.293-0.283-0.477-0.404c-0.188-0.122-0.388-0.241-0.607-0.358c-0.182-0.096-0.336-0.183-0.463-0.258
	c-0.128-0.076-0.23-0.151-0.313-0.226c-0.082-0.075-0.141-0.151-0.178-0.235c-0.036-0.082-0.055-0.179-0.055-0.287
	c0-0.201,0.062-0.362,0.183-0.485c0.121-0.121,0.298-0.183,0.524-0.183c0.105,0,0.211,0.008,0.314,0.022
	c0.104,0.019,0.211,0.041,0.316,0.072c0.109,0.033,0.222,0.072,0.334,0.119c0.115,0.047,0.238,0.102,0.369,0.162l0.439-1.061
	c-0.154-0.072-0.308-0.138-0.452-0.191c-0.146-0.057-0.292-0.104-0.438-0.143c-0.145-0.037-0.292-0.066-0.438-0.088
	c-0.147-0.021-0.301-0.029-0.454-0.029c-0.313,0-0.592,0.041-0.842,0.123c-0.251,0.082-0.465,0.201-0.642,0.356
	c-0.176,0.156-0.312,0.349-0.405,0.576c-0.097,0.228-0.145,0.483-0.145,0.771c0,0.293,0.051,0.545,0.15,0.754
	s0.223,0.389,0.371,0.535c0.146,0.147,0.305,0.272,0.473,0.371c0.166,0.102-0.229,0.188-0.094,0.256
	c0.16,0.086,0.853,0.166,0.981,0.242c0.129,0.075,0.241,0.153,0.334,0.233s0.163,0.168,0.216,0.26
	c0.053,0.093,0.076,0.199,0.076,0.318c0,0.1-0.016,0.19-0.046,0.274c-0.03,0.082-0.079,0.154-0.146,0.215
	c-0.065,0.062-0.152,0.105-0.26,0.142c-0.106,0.033-0.234,0.051-0.386,0.051c-0.146,0-0.294-0.016-0.439-0.045
	c-0.148-0.028-0.297-0.067-0.444-0.119c-0.147-0.049-0.293-0.104-0.438-0.168c-0.144-0.063-0.284-0.129-0.427-0.194v1.266
	c0.246,0.129,0.516,0.227,0.803,0.291c0.288,0.063,0.59,0.096,0.898,0.096c0.354,0,0.668-0.043,0.942-0.131
	c0.271-0.088,0.505-0.213,0.692-0.377c0.188-0.162,0.332-0.357,0.433-0.588c0.098-0.229,0.146-0.488,0.146-0.775
	c0-0.252-0.037-0.473-0.108-0.658C166.285,30.595,166.188,30.428,166.054,30.28z M170.77,30.28
	c-0.134-0.147-0.293-0.283-0.478-0.404c-0.186-0.122-0.387-0.241-0.606-0.358c-0.182-0.096-0.336-0.183-0.464-0.258
	c-0.127-0.076-0.229-0.151-0.312-0.226c-0.081-0.073-0.141-0.151-0.176-0.235c-0.037-0.082-0.058-0.179-0.058-0.287
	c0-0.201,0.063-0.362,0.185-0.485c0.121-0.121,0.297-0.183,0.523-0.183c0.105,0,0.21,0.008,0.314,0.022
	c0.104,0.019,0.21,0.041,0.316,0.072c0.108,0.033,0.222,0.072,0.334,0.119c0.114,0.047,0.237,0.102,0.369,0.162l0.439-1.061
	c-0.155-0.072-0.309-0.138-0.452-0.191c-0.147-0.057-0.293-0.104-0.438-0.143c-0.145-0.037-0.291-0.066-0.438-0.088
	c-0.148-0.021-0.3-0.029-0.455-0.029c-0.312,0-0.591,0.041-0.842,0.123c-0.25,0.082-0.463,0.201-0.641,0.356
	c-0.176,0.156-0.313,0.349-0.405,0.576c-0.097,0.228-0.145,0.483-0.145,0.771c0,0.293,0.05,0.545,0.149,0.754
	s0.223,0.389,0.371,0.535c0.146,0.147,0.306,0.272,0.473,0.371c0.167,0.102,0.317,0.188,0.453,0.256
	c0.16,0.086,0.307,0.166,0.438,0.242c0.131,0.075,0.241,0.153,0.334,0.233c0.094,0.08,0.163,0.168,0.217,0.26
	c0.051,0.093,0.074,0.199,0.074,0.318c0,0.1-0.015,0.19-0.046,0.274c-0.028,0.082-0.079,0.154-0.145,0.215
	c-0.066,0.062-0.152,0.105-0.26,0.142c-0.106,0.033-0.235,0.051-0.386,0.051c-0.146,0-0.294-0.016-0.44-0.045
	c-0.147-0.028-0.296-0.067-0.443-0.119c-0.146-0.049-0.294-0.104-0.438-0.168c-0.146-0.063-0.286-0.129-0.429-0.194v1.266
	c0.246,0.129,0.516,0.227,0.805,0.291c0.288,0.063,0.588,0.096,0.896,0.096c0.354,0,0.123-0.043,0.396-0.131
	c0.272-0.088,1.052-0.213,1.238-0.377c0.189-0.162,0.334-0.357,0.433-0.588c0.099-0.229,0.146-0.488,0.146-0.775
	c0-0.252-0.037-0.473-0.107-0.658C171.005,30.595,170.904,30.428,170.77,30.28z M156.811,18.34c0.094-0.08,0.164-0.183,0.221-0.306
	c0.053-0.121,0.08-0.27,0.08-0.441c0-0.182-0.027-0.333-0.08-0.457c-0.057-0.125-0.127-0.227-0.221-0.302
	c-0.092-0.077-0.197-0.134-0.318-0.167c-0.121-0.035-0.248-0.053-0.384-0.053c-0.142,0-0.272,0.018-0.396,0.053
	c-0.123,0.033-0.229,0.09-0.322,0.167c-0.092,0.075-0.163,0.177-0.215,0.302c-0.053,0.124-0.078,0.275-0.078,0.457
	c0,0.173,0.025,0.32,0.078,0.441c0.052,0.123,0.123,0.226,0.215,0.306c0.096,0.081,0.199,0.14,0.322,0.176s0.256,0.056,0.396,0.056
	c0.136,0,0.263-0.02,0.384-0.056S156.719,18.421,156.811,18.34z M162.493,16.862v1.813c0,0.283,0.035,0.527,0.107,0.73
	s0.203,0.369,0.395,0.496c0.189,0.129,0.449,0.225,0.771,0.285c0.326,0.061,0.74,0.092,1.242,0.092v-1.3
	c-0.151-0.004-0.291-0.018-0.416-0.04c-0.125-0.023-0.229-0.064-0.314-0.123c-0.086-0.061-0.152-0.142-0.199-0.244
	c-0.045-0.104-0.068-0.237-0.068-0.402v-1.721c0.013-0.359-0.1-0.646-0.334-0.855c-0.23-0.211-0.569-0.35-1.012-0.414V15.11
	c0.875-0.135,1.322-0.561,1.346-1.277v-1.719c0-0.166,0.023-0.3,0.068-0.402c0.047-0.104,0.113-0.186,0.199-0.245
	s0.189-0.101,0.314-0.123s0.265-0.036,0.416-0.04v-1.296c-0.502,0-0.916,0.03-1.242,0.092c-0.322,0.062-0.582,0.156-0.771,0.284
	c-0.189,0.129-0.32,0.294-0.395,0.495c-0.072,0.2-0.107,0.442-0.107,0.728v1.828c0.008,0.186-0.021,0.342-0.084,0.473
	c-0.063,0.131-0.158,0.236-0.285,0.318c-0.125,0.083-0.281,0.143-0.469,0.18c-0.188,0.035-0.396,0.055-0.636,0.055v1.373
	c0.479,0,0.845,0.078,1.097,0.236C162.366,16.226,162.493,16.491,162.493,16.862z M170.912,16.069
	c0.252-0.158,0.618-0.236,1.097-0.236V14.46c-0.239,0-0.448-0.02-0.636-0.055c-0.188-0.037-0.344-0.097-0.469-0.18
	c-0.127-0.082-0.222-0.188-0.285-0.318c-0.063-0.131-0.092-0.287-0.084-0.473v-1.828c0-0.285-0.035-0.527-0.107-0.728
	c-0.074-0.201-0.205-0.366-0.395-0.495c-0.189-0.128-0.449-0.223-0.771-0.284c-0.326-0.062-0.74-0.092-1.242-0.092v1.296
	c0.151,0.004,0.291,0.018,0.416,0.04s0.229,0.063,0.314,0.123s0.152,0.142,0.199,0.245c0.045,0.103,0.068,0.236,0.068,0.402v1.719
	c0.023,0.717,0.471,1.143,1.346,1.277v0.068c-0.442,0.064-0.781,0.203-1.012,0.414c-0.234,0.21-0.347,0.496-0.334,0.855v1.721
	c0,0.165-0.023,0.298-0.068,0.402c-0.047,0.103-0.113,0.184-0.199,0.244c-0.086,0.059-0.189,0.1-0.314,0.123
	c-0.125,0.022-0.265,0.036-0.416,0.04v1.3c0.502,0,0.916-0.031,1.242-0.092c0.322-0.061,0.582-0.156,0.771-0.285
	c0.191-0.127,0.322-0.293,0.395-0.496s0.107-0.447,0.107-0.73v-1.813C170.535,16.491,170.662,16.226,170.912,16.069z"/>
<path fill="#254EB7" d="M227.982,8.286v28c0,1.104-0.896,2-2,2h-24.001c-1.104,0-2-0.896-2-2v-34c0-1.104,0.896-2,2-2h18.001"/>
<polygon fill="#163270" points="222.004,8.222 220.559,7.604 228.004,15.05 228.004,8.222 "/>
<path fill="#5B7FCE" d="M228.004,8.222h-6c-1.104,0-2-0.895-2-2v-6"/>
<path fill="#FFFFFF" d="M209.512,27.663c-0.271-0.266-0.596-0.465-0.975-0.602c-0.379-0.134-0.805-0.201-1.275-0.201h-1.881v6.426
	h1.691c0.519,0,0.979-0.067,1.387-0.207c0.404-0.137,0.748-0.344,1.027-0.616c0.278-0.272,0.494-0.615,0.644-1.022
	c0.146-0.41,0.221-0.886,0.221-1.429c0-0.515-0.071-0.969-0.217-1.36S209.781,27.929,209.512,27.663z M208.537,31.635
	c-0.289,0.353-0.72,0.526-1.294,0.526h-0.501v-4.186h0.629c0.254,0,0.48,0.041,0.679,0.123c0.199,0.082,0.364,0.209,0.502,0.379
	s0.239,0.385,0.313,0.645c0.07,0.261,0.106,0.566,0.106,0.925C208.972,30.754,208.826,31.282,208.537,31.635z M216.457,27.663
	c-0.235-0.289-0.534-0.512-0.895-0.668c-0.361-0.156-0.787-0.235-1.279-0.235c-0.495,0-0.924,0.079-1.285,0.235
	s-0.661,0.379-0.896,0.666c-0.238,0.287-0.414,0.634-0.529,1.039c-0.117,0.404-0.174,0.857-0.174,1.355s0.057,0.951,0.174,1.357
	c0.115,0.41,0.291,0.76,0.526,1.051c0.233,0.289,0.533,0.514,0.896,0.672c0.361,0.158,0.788,0.236,1.28,0.236
	s0.919-0.078,1.279-0.236c0.361-0.158,0.662-0.383,0.897-0.672c0.238-0.291,0.414-0.641,0.531-1.049
	c0.114-0.404,0.172-0.855,0.172-1.354c0-0.5-0.058-0.953-0.172-1.357C216.867,28.299,216.693,27.952,216.457,27.663z
	 M215.666,30.972c-0.059,0.27-0.146,0.496-0.264,0.682c-0.119,0.188-0.271,0.33-0.457,0.43c-0.188,0.101-0.41,0.148-0.671,0.148
	c-0.255,0-0.476-0.051-0.659-0.148c-0.185-0.1-0.338-0.241-0.459-0.43c-0.122-0.186-0.212-0.412-0.271-0.682
	s-0.088-0.568-0.088-0.908c0-0.336,0.028-0.639,0.088-0.906s0.147-0.494,0.271-0.684c0.121-0.188,0.274-0.33,0.463-0.432
	c0.188-0.1,0.409-0.148,0.664-0.148c0.258,0,0.479,0.051,0.664,0.148c0.185,0.102,0.336,0.244,0.455,0.432
	c0.117,0.188,0.205,0.416,0.264,0.684c0.058,0.271,0.086,0.57,0.086,0.906C215.752,30.403,215.724,30.704,215.666,30.972z
	 M221.998,32.153c0.263-0.061,0.548-0.143,0.855-0.25v1.144c-0.142,0.059-0.281,0.106-0.419,0.147
	c-0.139,0.041-0.278,0.074-0.422,0.103c-0.146,0.024-0.291,0.045-0.44,0.059c-0.149,0.015-0.313,0.021-0.485,0.021
	c-0.494,0-0.925-0.079-1.287-0.237s-0.664-0.381-0.899-0.668c-0.238-0.287-0.414-0.633-0.527-1.037
	c-0.114-0.402-0.172-0.854-0.172-1.35c0-0.484,0.065-0.932,0.197-1.338c0.133-0.404,0.325-0.756,0.58-1.049
	c0.256-0.293,0.569-0.521,0.944-0.685c0.375-0.162,0.806-0.243,1.291-0.243c0.319,0,0.642,0.04,0.961,0.12
	c0.319,0.082,0.627,0.19,0.92,0.332l-0.438,1.106c-0.24-0.112-0.479-0.213-0.726-0.299c-0.241-0.084-0.481-0.127-0.717-0.127
	c-0.261,0-0.489,0.051-0.69,0.15c-0.201,0.102-0.369,0.246-0.506,0.436c-0.136,0.189-0.238,0.42-0.311,0.689
	c-0.068,0.271-0.104,0.576-0.104,0.912c0,0.342,0.03,0.646,0.094,0.914c0.063,0.268,0.16,0.49,0.291,0.674
	c0.129,0.186,0.297,0.322,0.5,0.418s0.445,0.145,0.728,0.145C221.476,32.241,221.738,32.211,221.998,32.153z M222.983,15.26h-17.98
	v-2.065h17.98V15.26z M222.983,19.343h-17.98v-2.066h17.98V19.343z M222.983,23.259h-17.98v-2.066h17.98V23.259z"/>
<path fill="#254EB7" d="M328.042,8.215v28c0,1.104-0.896,2-2,2h-24.001c-1.104,0-2-0.896-2-2v-34c0-1.104,0.896-2,2-2h18.001"/>
<polygon fill="#163270" points="322.064,8.151 320.619,7.532 328.064,14.979 328.064,8.151 "/>
<path fill="#5B7FCE" d="M328.064,8.151h-6c-1.104,0-2-0.896-2-2v-6"/>
<path fill="#FFFFFF" d="M310.749,27.661c-0.235-0.287-0.535-0.512-0.896-0.668c-0.359-0.155-0.785-0.234-1.277-0.234
	c-0.496,0-0.924,0.079-1.285,0.234c-0.362,0.156-0.661,0.379-0.897,0.666c-0.238,0.287-0.414,0.635-0.529,1.039
	c-0.117,0.406-0.174,0.857-0.174,1.355s0.057,0.951,0.174,1.359c0.115,0.408,0.291,0.758,0.527,1.049
	c0.233,0.289,0.533,0.514,0.896,0.672c0.359,0.158,0.787,0.236,1.279,0.236s0.92-0.078,1.279-0.236
	c0.362-0.158,0.661-0.383,0.899-0.672c0.236-0.291,0.412-0.639,0.529-1.047c0.115-0.406,0.174-0.857,0.174-1.354
	c0-0.5-0.059-0.954-0.174-1.358C311.16,28.297,310.984,27.95,310.749,27.661z M309.958,30.97c-0.059,0.268-0.146,0.495-0.264,0.682
	c-0.119,0.188-0.271,0.328-0.457,0.43c-0.189,0.1-0.41,0.148-0.672,0.148c-0.256,0-0.475-0.051-0.658-0.148
	c-0.186-0.1-0.338-0.242-0.459-0.43c-0.123-0.187-0.213-0.414-0.271-0.682c-0.06-0.27-0.089-0.57-0.089-0.908
	c0-0.336,0.029-0.639,0.089-0.906c0.059-0.269,0.147-0.496,0.271-0.684c0.121-0.188,0.273-0.33,0.463-0.432
	c0.188-0.1,0.408-0.148,0.664-0.148c0.258,0,0.479,0.051,0.664,0.148c0.185,0.102,0.336,0.244,0.455,0.432
	c0.115,0.188,0.203,0.415,0.264,0.684c0.058,0.27,0.084,0.57,0.084,0.906C310.042,30.399,310.016,30.702,309.958,30.97z"/>
<path fill="#FFFFFF" d="M316.908,27.661c-0.271-0.266-0.596-0.465-0.975-0.6c-0.381-0.136-0.806-0.203-1.275-0.203h-1.881v6.426
	h1.689c0.521,0,0.979-0.068,1.387-0.207c0.408-0.137,0.748-0.344,1.029-0.617c0.278-0.273,0.491-0.615,0.641-1.023
	s0.225-0.884,0.225-1.427c0-0.515-0.071-0.97-0.219-1.36C317.384,28.256,317.178,27.927,316.908,27.661z M315.936,31.632
	c-0.289,0.354-0.722,0.525-1.295,0.525h-0.502v-4.184h0.629c0.256,0,0.481,0.041,0.68,0.123s0.365,0.208,0.5,0.379
	c0.137,0.17,0.24,0.385,0.313,0.643c0.071,0.262,0.106,0.568,0.106,0.927C316.367,30.753,316.223,31.28,315.936,31.632z"/>
<polygon fill="#FFFFFF" points="318.184,27.993 319.794,27.993 319.794,33.284 321.154,33.284 321.154,27.993 322.762,27.993 
	322.762,26.86 318.184,26.86 "/>
<rect x="305.063" y="13.122" fill="#FFFFFF" width="17.981" height="2.066"/>
<rect x="305.063" y="17.206" fill="#FFFFFF" width="17.981" height="2.065"/>
<rect x="305.063" y="21.122" fill="#FFFFFF" width="17.981" height="2.065"/>
<path fill="#4DBC4D" d="M277.997,8.286v28c0,1.104-0.896,2-2,2h-24c-1.104,0-2-0.896-2-2v-34c0-1.104,0.896-2,2-2h18"/>
<polygon fill="#1F6D1F" points="272.02,8.222 270.574,7.604 278.02,15.05 278.02,8.222 "/>
<path fill="#76D376" d="M278.02,8.222h-6c-1.104,0-2-0.895-2-2v-6"/>
<path fill="#FFFFFF" d="M260.56,29.985l1.991,3.238h-1.557l-1.313-2.43l-1.313,2.43h-1.459l1.951-3.313l-1.814-3.111h1.504
	l1.203,2.313l1.179-2.313h1.468L260.56,29.985z M264.721,26.8h-1.361v6.424h3.699v-1.125h-2.338V26.8L264.721,26.8z M271.275,30.278
	c-0.133-0.147-0.292-0.283-0.477-0.404c-0.187-0.12-0.389-0.239-0.606-0.356c-0.182-0.098-0.336-0.184-0.464-0.26
	c-0.127-0.076-0.23-0.149-0.313-0.226c-0.08-0.072-0.141-0.149-0.177-0.233s-0.055-0.181-0.055-0.289
	c0-0.201,0.062-0.363,0.182-0.483c0.122-0.121,0.298-0.185,0.525-0.185c0.104,0,0.21,0.01,0.313,0.024
	c0.104,0.017,0.21,0.041,0.317,0.072c0.108,0.031,0.22,0.07,0.334,0.117s0.237,0.102,0.369,0.164l0.438-1.061
	c-0.154-0.072-0.308-0.14-0.452-0.193c-0.146-0.055-0.292-0.104-0.438-0.141c-0.146-0.039-0.292-0.067-0.438-0.088
	c-0.148-0.021-0.302-0.031-0.455-0.031c-0.313,0-0.592,0.041-0.844,0.123c-0.25,0.082-0.464,0.201-0.639,0.356
	c-0.176,0.158-0.313,0.351-0.407,0.576c-0.095,0.228-0.143,0.483-0.143,0.771c0,0.293,0.05,0.545,0.148,0.754
	c0.101,0.209,0.224,0.39,0.37,0.535c0.148,0.148,0.308,0.271,0.475,0.371c0.167,0.103,0.315,0.187,0.452,0.256
	c0.159,0.086,0.308,0.166,0.438,0.242c0.131,0.074,0.242,0.152,0.334,0.234c0.093,0.08,0.164,0.166,0.216,0.258
	c0.052,0.094,0.077,0.199,0.077,0.32c0,0.1-0.016,0.189-0.047,0.273c-0.03,0.082-0.079,0.153-0.146,0.215
	c-0.065,0.061-0.151,0.106-0.261,0.141c-0.104,0.035-0.232,0.051-0.385,0.051c-0.146,0-0.293-0.014-0.44-0.043
	c-0.146-0.029-0.297-0.068-0.442-0.119c-0.148-0.049-0.294-0.105-0.438-0.17c-0.144-0.063-0.285-0.127-0.427-0.193v1.267
	c0.246,0.129,0.515,0.226,0.803,0.289s0.589,0.098,0.898,0.098c0.354,0,0.669-0.045,0.941-0.133
	c0.273-0.088,0.507-0.213,0.693-0.375c0.189-0.162,0.333-0.358,0.432-0.59c0.1-0.229,0.146-0.488,0.146-0.775
	c0-0.252-0.037-0.471-0.11-0.657C271.508,30.594,271.41,30.426,271.275,30.278z M258.999,13.194h-6.001v2.065h6.001V13.194z
	 M258.999,17.276h-6.001v2.066h6.001V17.276z M258.999,21.192h-6.001v2.066h6.001V21.192z M267.01,13.194h-6.002v2.065h6.002V13.194
	z M267.01,17.276h-6.002v2.066h6.002V17.276z M267.01,21.192h-6.002v2.066h6.002V21.192z M269.016,13.194v2.065h6.002v-2.065
	H269.016z M269.016,19.343h6.002v-2.066h-6.002V19.343z M269.016,23.259h6.002v-2.066h-6.002V23.259z"/>
<path fill="#FF681D" d="M378.041,8.286v28c0,1.104-0.896,2-2,2H352.04c-1.104,0-2-0.896-2-2v-34c0-1.104,0.896-2,2-2h18.002"/>
<polygon fill="#B54615" points="372.065,8.222 370.62,7.604 378.065,15.05 378.065,8.222 "/>
<path fill="#EF8C60" d="M378.065,8.222h-6c-1.104,0-2-0.895-2-2v-6"/>
<path fill="#FFFFFF" d="M360.604,27.271c-0.195-0.172-0.443-0.305-0.742-0.396c-0.301-0.092-0.658-0.139-1.068-0.139h-1.784v6.426
	h1.36v-2.285h0.313c0.469,0,0.862-0.059,1.18-0.176c0.318-0.117,0.574-0.272,0.771-0.471c0.192-0.195,0.334-0.424,0.418-0.682
	c0.086-0.26,0.129-0.527,0.129-0.811c0-0.313-0.047-0.595-0.144-0.843C360.944,27.651,360.8,27.442,360.604,27.271z M359.507,29.532
	c-0.194,0.15-0.483,0.229-0.868,0.229h-0.269v-1.908h0.349c0.37,0,0.645,0.076,0.817,0.229c0.173,0.154,0.262,0.391,0.262,0.709
	C359.798,29.131,359.7,29.379,359.507,29.532z M365.987,27.271c-0.193-0.172-0.441-0.305-0.742-0.396s-0.656-0.139-1.067-0.139
	h-1.785v6.426h1.362v-2.285h0.313c0.469,0,0.861-0.059,1.18-0.176c0.316-0.117,0.574-0.272,0.771-0.471
	c0.195-0.197,0.334-0.424,0.42-0.682c0.084-0.26,0.127-0.527,0.127-0.811c0-0.313-0.047-0.595-0.141-0.843
	C366.327,27.651,366.184,27.442,365.987,27.271z M364.891,29.532c-0.195,0.15-0.484,0.229-0.869,0.229h-0.269v-1.908h0.349
	c0.371,0,0.645,0.076,0.819,0.229s0.261,0.391,0.261,0.709C365.182,29.131,365.083,29.379,364.891,29.532z M367.146,26.737h4.58
	v1.133h-1.609v5.291h-1.354V27.87h-1.613v-1.133H367.146z M372.932,13.019v2.066h-6.101v-2.066H372.932z M366.833,16.647h6.101
	v2.066h-6.101V16.647z M366.833,20.278h6.101v2.065h-6.101V20.278z M364.956,17.583c0-2.703-2.188-4.893-4.891-4.893
	c-2.701,0-4.891,2.188-4.891,4.893c0,2.701,2.188,4.89,4.891,4.89S364.956,20.284,364.956,17.583z M360.124,13.534
	c2.246,0,4.066,1.818,4.066,4.064h-4.066V13.534z"/>
<path fill="#DDC703" d="M478.021,8.222v28c0,1.104-0.896,2-2,2h-24c-1.104,0-2-0.896-2-2v-34c0-1.104,0.896-2,2-2h18"/>
<polygon fill="#A58E08" points="472.021,8.206 470.577,7.59 478.021,15.034 478.021,8.206 "/>
<path fill="#F2DD64" d="M478.021,8.222h-6c-1.104,0-2-0.895-2-2v-6"/>
<path fill="#FFFFFF" d="M459.78,32.133h2.799v1.125h-4.422v-0.886l2.721-4.416h-2.637v-1.125h4.254v0.88L459.78,32.133z
	 M463.489,27.604l0.78,0.359v4.156l-0.78,0.36v0.773h2.922V32.48l-0.783-0.36v-4.156l0.783-0.359v-0.773h-2.922V27.604z
	 M471.876,28.836c0,0.28-0.043,0.551-0.127,0.809c-0.086,0.259-0.225,0.486-0.42,0.683c-0.193,0.197-0.449,0.354-0.771,0.471
	c-0.315,0.117-0.711,0.176-1.18,0.176h-0.313v2.285h-1.36v-6.425h1.785c0.411,0,0.77,0.046,1.067,0.14
	c0.301,0.092,0.549,0.225,0.744,0.396c0.191,0.17,0.338,0.381,0.432,0.627C471.829,28.241,471.876,28.521,471.876,28.836z
	 M470.497,28.885c0-0.317-0.088-0.556-0.262-0.707c-0.175-0.151-0.447-0.229-0.82-0.229h-0.346v1.907h0.268
	c0.385,0,0.674-0.075,0.867-0.229C470.399,29.472,470.497,29.226,470.497,28.885z M461.021,18.222v3h6v-3h-3v-3h-3V18.222z
	 M467.021,15.222v-3h-3v3H467.021z M461.021,12.222h3v-3h-3V12.222z M467.021,9.222v-3h-3v3H467.021z M461.021,6.222h3v-3h-3V6.222z
	 M464.021,3.222h3v-3h-3V3.222z"/>
<path fill="#D32093" d="M528.003,8.222v28c0,1.104-0.896,2-2,2h-24c-1.105,0-2-0.896-2-2v-34c0-1.104,0.895-2,2-2h18"/>
<polygon fill="#931172" points="522.003,8.206 520.556,7.59 528.003,15.034 528.003,8.206 "/>
<path fill="#E567BE" d="M528.003,8.222h-6c-1.105,0-2-0.895-2-2v-6"/>
<path fill="#FFFFFF" d="M510.702,26.862h1.854v6.426h-1.27v-3.041c0-0.075,0-0.163,0.002-0.26c0-0.098,0.004-0.199,0.006-0.309
	c0.004-0.107,0.008-0.219,0.012-0.33c0.004-0.109,0.008-0.219,0.01-0.324c0.013-0.246,0.023-0.502,0.031-0.77h-0.035l-1.52,5.031
	h-1.254l-1.41-5.041h-0.039c0.018,0.271,0.031,0.531,0.043,0.781c0.006,0.108,0.012,0.221,0.016,0.334
	c0.007,0.114,0.011,0.229,0.015,0.34c0.004,0.11,0.01,0.219,0.012,0.32c0,0.104,0.002,0.194,0.002,0.276v2.987h-1.221v-6.426h1.854
	l1.39,4.913h0.024L510.702,26.862z M518.204,28.024c0.096,0.248,0.143,0.527,0.143,0.842c0,0.281-0.043,0.552-0.127,0.81
	c-0.086,0.258-0.227,0.485-0.42,0.683c-0.195,0.196-0.451,0.354-0.771,0.471c-0.313,0.117-0.711,0.176-1.18,0.176h-0.313v2.285
	h-1.361v-6.426h1.783c0.414,0,0.771,0.047,1.07,0.141c0.301,0.092,0.549,0.223,0.743,0.396
	C517.966,27.567,518.109,27.778,518.204,28.024z M516.966,28.915c0-0.317-0.088-0.555-0.262-0.707
	c-0.177-0.151-0.447-0.229-0.82-0.229h-0.348v1.908h0.27c0.383,0,0.672-0.076,0.867-0.229
	C516.868,29.505,516.966,29.258,516.966,28.915z M522.96,30.403c-0.269-0.252-0.66-0.408-1.178-0.475v-0.025
	c0.194-0.047,0.379-0.115,0.547-0.203c0.168-0.09,0.313-0.201,0.438-0.334c0.125-0.135,0.224-0.289,0.295-0.467
	c0.07-0.178,0.107-0.377,0.107-0.6c0-0.244-0.053-0.461-0.152-0.648c-0.102-0.188-0.244-0.35-0.428-0.479
	c-0.188-0.131-0.406-0.229-0.666-0.301c-0.262-0.067-0.547-0.103-0.863-0.103c-0.223,0-0.434,0.017-0.629,0.048
	c-0.197,0.032-0.379,0.077-0.549,0.135c-0.17,0.059-0.328,0.123-0.475,0.199c-0.146,0.075-0.277,0.159-0.4,0.252l0.686,0.903
	c0.07-0.049,0.148-0.101,0.234-0.151c0.088-0.051,0.182-0.099,0.287-0.142c0.104-0.041,0.217-0.076,0.338-0.104
	c0.121-0.025,0.252-0.041,0.394-0.041c0.309,0,0.532,0.063,0.676,0.192c0.141,0.13,0.213,0.31,0.213,0.537
	c0,0.125-0.023,0.244-0.066,0.354c-0.045,0.11-0.119,0.209-0.227,0.291c-0.107,0.084-0.25,0.148-0.428,0.199
	c-0.181,0.047-0.404,0.07-0.675,0.07h-0.446v0.953h0.457c0.287,0,0.528,0.021,0.725,0.063c0.197,0.041,0.355,0.1,0.477,0.174
	c0.123,0.074,0.211,0.166,0.265,0.271c0.057,0.106,0.082,0.228,0.082,0.358c0,0.142-0.021,0.271-0.063,0.39
	c-0.041,0.119-0.113,0.222-0.213,0.306c-0.102,0.086-0.232,0.151-0.4,0.196c-0.166,0.049-0.375,0.07-0.627,0.07
	c-0.127,0-0.26-0.009-0.401-0.024c-0.143-0.016-0.287-0.046-0.435-0.082c-0.146-0.035-0.293-0.081-0.438-0.134
	c-0.146-0.054-0.285-0.114-0.418-0.187v1.156c0.264,0.117,0.549,0.204,0.854,0.262c0.306,0.058,0.629,0.086,0.976,0.086
	c0.434,0,0.809-0.049,1.123-0.147c0.317-0.099,0.581-0.233,0.791-0.409c0.211-0.177,0.364-0.384,0.467-0.621
	c0.104-0.24,0.149-0.5,0.149-0.781C523.357,30.991,523.226,30.653,522.96,30.403z M519.368,19.587v-0.078
	c0-0.007,0.002-0.014,0.002-0.02c0-0.008-0.002-0.014-0.002-0.021l-0.006-8.093h-7.828l-0.009,6.572
	c-0.299-0.211-0.659-0.338-1.055-0.338c-1.016,0-1.838,0.823-1.838,1.838s0.822,1.838,1.838,1.838c0.967,0,1.75-0.752,1.822-1.699
	h0.016v-5.859h6.275v4.26c-0.299-0.209-0.66-0.336-1.053-0.336c-1.015,0-1.839,0.823-1.839,1.838s0.824,1.838,1.839,1.838
	c0.979,0,1.774-0.771,1.827-1.739L519.368,19.587L519.368,19.587z"/>
<path fill="#7A52A0" d="M578.021,8.222v28c0,1.104-0.896,2-2,2h-24c-1.104,0-2-0.896-2-2v-34c0-1.104,0.896-2,2-2h18"/>
<polygon fill="#4C2C70" points="572.021,8.206 570.576,7.59 578.021,15.034 578.021,8.206 "/>
<path fill="#A287C1" d="M578.021,8.222h-6c-1.104,0-2-0.895-2-2v-6"/>
<rect x="557.32" y="11.926" fill="none" stroke="#FFFFFF" width="13.404" height="10.548"/>
<path fill="#FFFFFF" d="M557.969,26.681l-2.089,6.452h1.375l0.443-1.529h2.215l0.439,1.529h1.375l-2.097-6.452H557.969z
	 M558.029,30.461l0.408-1.406c0.01-0.03,0.022-0.082,0.043-0.147c0.02-0.066,0.039-0.146,0.063-0.232
	c0.023-0.086,0.05-0.182,0.074-0.281c0.025-0.099,0.053-0.197,0.076-0.297c0.025-0.1,0.047-0.189,0.066-0.277
	c0.02-0.09,0.034-0.164,0.047-0.229c0.014,0.104,0.039,0.229,0.073,0.373c0.035,0.147,0.072,0.293,0.111,0.438
	c0.039,0.145,0.076,0.277,0.111,0.396c0.035,0.12,0.063,0.207,0.08,0.26l0.412,1.406h-1.566L558.029,30.461L558.029,30.461z
	 M565.766,26.708h1.377l-2.004,6.425h-1.486l-2-6.425h1.377l1.09,3.867c0.014,0.049,0.033,0.134,0.06,0.25
	c0.024,0.117,0.051,0.246,0.08,0.388c0.026,0.141,0.055,0.28,0.079,0.422c0.027,0.142,0.048,0.26,0.063,0.354
	c0.014-0.098,0.035-0.215,0.063-0.354c0.024-0.142,0.055-0.281,0.084-0.42c0.026-0.14,0.057-0.269,0.086-0.386
	c0.024-0.116,0.049-0.2,0.063-0.254L565.766,26.708z M570.059,27.842v4.157l0.78,0.359v0.773h-2.922v-0.773l0.779-0.359v-4.157
	l-0.779-0.358V26.71h2.922v0.773L570.059,27.842z M566.693,17.315l-4.082,2.897v-5.796L566.693,17.315z"/>
<path fill="#47B1A3" d="M28,8.286v28c0,1.104-0.896,2-2,2H2c-1.104,0-2-0.896-2-2v-34c0-1.104,0.896-2,2-2h18"/>
<polygon fill="#298273" points="22.023,8.222 20.579,7.604 28.023,15.05 28.023,8.222 "/>
<path fill="#7DD1C3" d="M28.023,8.222h-6c-1.104,0-2-0.895-2-2v-6"/>
<path fill="#FFFFFF" d="M13.888,12.276c-4.351,0-7.875,3.525-7.875,7.875s3.524,7.875,7.875,7.875c4.349,0,7.874-3.525,7.874-7.875
	S18.235,12.276,13.888,12.276z M14.904,24.81c-0.063,0.141-0.146,0.258-0.252,0.35c-0.104,0.094-0.229,0.16-0.365,0.203
	c-0.141,0.041-0.286,0.063-0.438,0.063c-0.163,0-0.314-0.021-0.459-0.063c-0.145-0.043-0.268-0.109-0.373-0.203
	c-0.104-0.092-0.188-0.209-0.247-0.35c-0.06-0.141-0.09-0.311-0.09-0.509c0-0.206,0.029-0.381,0.09-0.524
	c0.06-0.143,0.143-0.259,0.247-0.347c0.105-0.088,0.229-0.151,0.373-0.19s0.296-0.061,0.459-0.061c0.152,0,0.3,0.021,0.438,0.061
	s0.261,0.104,0.365,0.19s0.188,0.204,0.252,0.347c0.062,0.145,0.093,0.318,0.093,0.524C14.997,24.499,14.965,24.669,14.904,24.81z
	 M16.904,18.593c-0.063,0.218-0.152,0.42-0.272,0.607s-0.272,0.367-0.457,0.541c-0.182,0.174-0.396,0.356-0.637,0.552
	c-0.186,0.146-0.336,0.271-0.453,0.379c-0.114,0.108-0.207,0.212-0.272,0.308c-0.065,0.098-0.11,0.198-0.136,0.301
	c-0.024,0.104-0.036,0.227-0.036,0.367v0.396h-1.742v-0.489c0-0.226,0.021-0.429,0.067-0.61c0.048-0.184,0.117-0.356,0.212-0.521
	c0.096-0.165,0.218-0.326,0.366-0.48c0.148-0.158,0.33-0.318,0.541-0.486c0.187-0.146,0.342-0.274,0.471-0.389
	c0.128-0.115,0.23-0.229,0.31-0.342c0.08-0.111,0.138-0.229,0.173-0.354c0.034-0.123,0.053-0.267,0.053-0.43
	c0-0.25-0.084-0.457-0.254-0.621c-0.17-0.162-0.428-0.244-0.774-0.244c-0.306,0-0.631,0.063-0.979,0.192
	c-0.352,0.127-0.713,0.283-1.086,0.47l-0.675-1.461c0.188-0.109,0.396-0.215,0.617-0.313c0.223-0.1,0.453-0.188,0.692-0.266
	c0.24-0.076,0.481-0.137,0.729-0.182c0.246-0.044,0.488-0.064,0.727-0.064c0.449,0,0.854,0.054,1.217,0.16
	c0.359,0.108,0.667,0.267,0.917,0.474c0.252,0.207,0.442,0.458,0.577,0.752C16.935,17.135,17,17.473,17,17.852
	C16.997,18.127,16.965,18.374,16.904,18.593z"/>
<path fill="#FF681D" d="M428.041,8.286v28c0,1.104-0.895,2-2,2h-24c-1.104,0-2-0.896-2-2v-34c0-1.104,0.896-2,2-2h18"/>
<polygon fill="#B54615" points="422.064,8.222 420.619,7.604 428.064,15.05 428.064,8.222 "/>
<path fill="#EF8C60" d="M428.064,8.222h-6c-1.105,0-2-0.895-2-2v-6"/>
<path fill="#FFFFFF" d="M411.093,30.057c0,0.496-0.059,0.947-0.174,1.354c-0.115,0.408-0.291,0.756-0.528,1.047
	c-0.236,0.289-0.537,0.514-0.898,0.672s-0.789,0.236-1.281,0.236s-0.92-0.078-1.281-0.236c-0.36-0.158-0.659-0.383-0.896-0.672
	c-0.236-0.291-0.412-0.641-0.527-1.049c-0.114-0.408-0.174-0.861-0.174-1.359s0.06-0.95,0.174-1.355
	c0.115-0.406,0.293-0.752,0.529-1.039c0.238-0.287,0.537-0.51,0.898-0.666c0.362-0.156,0.791-0.235,1.286-0.235
	c0.492,0,0.918,0.079,1.277,0.235c0.361,0.156,0.658,0.379,0.896,0.668c0.235,0.289,0.411,0.636,0.526,1.041
	C411.035,29.103,411.093,29.557,411.093,30.057z M406.734,30.057c0,0.338,0.028,0.64,0.088,0.908
	c0.059,0.269,0.147,0.495,0.27,0.681c0.123,0.188,0.275,0.329,0.461,0.43c0.185,0.1,0.404,0.148,0.658,0.148
	c0.263,0,0.484-0.05,0.67-0.148c0.187-0.1,0.338-0.242,0.457-0.43c0.119-0.186,0.207-0.412,0.265-0.681
	c0.057-0.269,0.086-0.57,0.086-0.908c0-0.336-0.029-0.639-0.086-0.907c-0.058-0.268-0.146-0.494-0.265-0.683
	s-0.27-0.331-0.455-0.433c-0.184-0.099-0.403-0.147-0.662-0.147c-0.256,0-0.477,0.05-0.664,0.147
	c-0.188,0.102-0.342,0.244-0.465,0.433c-0.121,0.188-0.211,0.415-0.27,0.683C406.763,29.418,406.734,29.721,406.734,30.057z"/>
<path fill="#FFFFFF" d="M417.391,30.004c0,0.543-0.074,1.018-0.222,1.427c-0.147,0.408-0.362,0.75-0.643,1.023
	c-0.279,0.273-0.623,0.479-1.027,0.617c-0.406,0.139-0.869,0.207-1.387,0.207h-1.691v-6.426h1.881c0.472,0,0.896,0.067,1.275,0.202
	c0.379,0.136,0.705,0.335,0.973,0.601c0.271,0.266,0.479,0.594,0.623,0.986C417.317,29.034,417.391,29.489,417.391,30.004z
	 M416.011,30.038c0-0.355-0.036-0.664-0.106-0.924c-0.072-0.26-0.176-0.475-0.313-0.645c-0.137-0.17-0.303-0.296-0.502-0.378
	c-0.196-0.082-0.424-0.123-0.678-0.123h-0.629v4.185h0.502c0.574,0,1.004-0.177,1.293-0.527
	C415.866,31.274,416.011,30.745,416.011,30.038z"/>
<path fill="#FFFFFF" d="M422.893,28.858c0,0.28-0.041,0.551-0.127,0.809c-0.084,0.258-0.226,0.484-0.421,0.682
	c-0.192,0.196-0.45,0.354-0.768,0.471c-0.318,0.116-0.713,0.176-1.182,0.176h-0.312v2.285h-1.363v-6.426h1.785
	c0.412,0,0.771,0.047,1.07,0.139c0.299,0.093,0.547,0.225,0.742,0.396c0.195,0.171,0.338,0.381,0.432,0.628
	C422.845,28.264,422.893,28.544,422.893,28.858z M420.086,29.877h0.269c0.383,0,0.674-0.076,0.866-0.229
	c0.195-0.152,0.294-0.4,0.294-0.742c0-0.318-0.089-0.556-0.263-0.707c-0.174-0.152-0.447-0.229-0.819-0.229h-0.347V29.877z"/>
<rect x="416.834" y="13.019" fill="#FFFFFF" width="6.099" height="2.066"/>
<rect x="416.834" y="16.647" fill="#FFFFFF" width="6.099" height="2.066"/>
<rect x="416.834" y="20.278" fill="#FFFFFF" width="6.099" height="2.065"/>
<path fill="#FFFFFF" d="M410.066,12.692c-2.701,0-4.892,2.188-4.892,4.892c0,2.7,2.189,4.89,4.892,4.89
	c2.703,0,4.891-2.188,4.891-4.89C414.957,14.88,412.77,12.692,410.066,12.692z M410.125,17.6v-4.065
	c2.246,0,4.066,1.819,4.066,4.065H410.125z"/>
<path fill="#96DB2A" d="M628.03,8.286v28c0,1.104-0.896,2-2,2h-24c-1.104,0-2-0.896-2-2v-34c0-1.104,0.896-2,2-2h18"/>
<polygon fill="#77AD1A" points="622.054,8.222 620.607,7.604 628.054,15.05 628.054,8.222 "/>
<path fill="#B4E85B" d="M628.054,8.222h-6c-1.104,0-2-0.895-2-2v-6"/>
<path fill="#FFFFFF" d="M607.95,33.224h-1.357v-2.771h-2.186v2.771h-1.361v-6.425h1.361v2.519h2.186v-2.519h1.357V33.224z"/>
<path fill="#FFFFFF" d="M611.913,33.224h-1.357v-5.291h-1.613v-1.134h4.58v1.134h-1.608L611.913,33.224L611.913,33.224z"/>
<path fill="#FFFFFF" d="M617.095,33.224l-1.41-5.04h-0.039c0.019,0.271,0.031,0.53,0.043,0.781c0.006,0.108,0.013,0.221,0.017,0.334
	c0.004,0.114,0.01,0.228,0.014,0.339s0.008,0.219,0.008,0.32c0.002,0.104,0.004,0.195,0.004,0.277v2.987h-1.219v-6.425h1.855
	l1.389,4.913h0.025l1.477-4.913h1.854v6.425h-1.27v-3.041c0-0.076,0-0.163,0.002-0.259c0-0.098,0.002-0.199,0.006-0.309
	c0.002-0.107,0.006-0.219,0.012-0.33c0.005-0.11,0.009-0.22,0.011-0.324c0.012-0.246,0.022-0.502,0.03-0.77h-0.034l-1.521,5.031
	h-1.254V33.224z"/>
<path fill="#FFFFFF" d="M622.729,33.224v-6.425h1.361v5.3h2.338v1.125H622.729z"/>
<path fill="#FFFFFF" d="M611.102,19.469l-5.475-2.521v-0.821l5.475-2.853v1.381l-3.696,1.821l3.696,1.616V19.469z"/>
<path fill="#FFFFFF" d="M616.415,12.229l-3.133,8.407h-1.595l3.136-8.407H616.415z"/>
<path fill="#FFFFFF" d="M616.979,18.094l3.697-1.616l-3.697-1.822v-1.381l5.476,2.854v0.822l-5.476,2.52V18.094z"/>
<path fill="#96DB2A" d="M1028.004,8.286v28c0,1.104-0.896,2-2,2h-24.002c-1.105,0-2-0.896-2-2v-34c0-1.104,0.895-2,2-2h18.002"/>
<polygon fill="#77AD1A" points="1022.023,8.221 1020.58,7.604 1028.023,15.05 1028.023,8.221 "/>
<path fill="#B4E85B" d="M1028.023,8.221h-6c-1.104,0-2-0.896-2-2v-6"/>
<path fill="#FFFFFF" d="M1011.354,21.718l-5.475-2.52v-0.822l5.475-2.854v1.381l-3.697,1.822l3.697,1.616V21.718z"/>
<path fill="#FFFFFF" d="M1016.668,14.478l-3.135,8.407h-1.596l3.137-8.407H1016.668z"/>
<path fill="#FFFFFF" d="M1017.23,20.343l3.699-1.616l-3.699-1.821v-1.381l5.475,2.853v0.821l-5.475,2.521V20.343z"/>
<path fill="#7A52A0" d="M678.047,8.286v28c0,1.104-0.895,2-2,2h-24c-1.104,0-2-0.896-2-2v-34c0-1.104,0.896-2,2-2h18"/>
<polygon fill="#4C2C70" points="672.047,8.271 670.602,7.653 678.047,15.099 678.047,8.271 "/>
<path fill="#A287C1" d="M678.047,8.286h-6c-1.105,0-2-0.896-2-2v-6"/>
<path fill="#FFFFFF" d="M657.1,33.196l-1.412-5.039h-0.039c0.019,0.27,0.033,0.529,0.045,0.78c0.007,0.109,0.011,0.222,0.015,0.334
	c0.006,0.115,0.01,0.228,0.014,0.339s0.009,0.219,0.011,0.321c0,0.103,0.002,0.194,0.002,0.276v2.988h-1.218v-6.426h1.854
	l1.389,4.913h0.027l1.477-4.913h1.854v6.426h-1.271v-3.041c0-0.076,0-0.164,0.002-0.26c0.002-0.098,0.004-0.199,0.006-0.309
	c0.004-0.107,0.009-0.219,0.013-0.329c0.004-0.111,0.008-0.22,0.012-0.325c0.012-0.246,0.021-0.502,0.029-0.77h-0.035l-1.521,5.031
	H657.1V33.196z"/>
<path fill="#FFFFFF" d="M668.321,29.975c0,0.496-0.057,0.947-0.172,1.354c-0.116,0.408-0.293,0.756-0.53,1.047
	c-0.236,0.289-0.535,0.514-0.898,0.672c-0.361,0.158-0.789,0.236-1.281,0.236c-0.49,0-0.918-0.078-1.279-0.236
	c-0.362-0.158-0.661-0.383-0.896-0.672c-0.236-0.291-0.412-0.641-0.527-1.049c-0.116-0.408-0.174-0.861-0.174-1.359
	s0.058-0.95,0.174-1.355c0.115-0.406,0.291-0.752,0.529-1.039c0.236-0.287,0.537-0.51,0.898-0.666
	c0.36-0.156,0.791-0.235,1.284-0.235c0.492,0,0.918,0.079,1.279,0.235c0.359,0.156,0.658,0.379,0.896,0.668
	c0.233,0.289,0.41,0.636,0.526,1.041C668.266,29.021,668.321,29.475,668.321,29.975z M663.965,29.975
	c0,0.338,0.029,0.64,0.088,0.908s0.148,0.495,0.27,0.681c0.121,0.188,0.275,0.329,0.459,0.43c0.187,0.1,0.404,0.148,0.658,0.148
	c0.262,0,0.484-0.05,0.672-0.148c0.187-0.101,0.338-0.242,0.457-0.43c0.117-0.186,0.205-0.412,0.265-0.681
	c0.057-0.269,0.084-0.57,0.084-0.908c0-0.336-0.027-0.639-0.084-0.907c-0.06-0.268-0.146-0.494-0.265-0.683
	c-0.119-0.188-0.271-0.331-0.455-0.433c-0.186-0.099-0.405-0.147-0.663-0.147c-0.255,0-0.478,0.05-0.664,0.147
	c-0.188,0.102-0.343,0.244-0.463,0.433c-0.121,0.188-0.212,0.415-0.271,0.683C663.994,29.336,663.965,29.639,663.965,29.975z"/>
<path fill="#FFFFFF" d="M673.008,26.771h1.375l-2.004,6.425h-1.484l-2-6.425h1.375l1.09,3.867c0.017,0.05,0.035,0.134,0.062,0.25
	c0.024,0.118,0.051,0.246,0.078,0.388c0.028,0.141,0.055,0.28,0.082,0.422c0.024,0.141,0.047,0.26,0.061,0.355
	c0.017-0.098,0.035-0.216,0.063-0.355c0.024-0.142,0.055-0.28,0.084-0.42c0.028-0.14,0.057-0.268,0.086-0.385
	c0.026-0.117,0.049-0.201,0.063-0.255L673.008,26.771z"/>
<rect x="657.346" y="11.989" fill="none" stroke="#FFFFFF" width="13.404" height="10.549"/>
<polygon fill="#FFFFFF" points="662.637,14.481 666.719,17.379 662.637,20.278 "/>
<path fill="#7A52A0" d="M728.043,8.286v28c0,1.104-0.896,2-2,2h-24c-1.105,0-2-0.896-2-2v-34c0-1.104,0.895-2,2-2h18"/>
<polygon fill="#4C2C70" points="722.043,8.271 720.598,7.653 728.043,15.099 728.043,8.271 "/>
<path fill="#A287C1" d="M728.043,8.286h-6c-1.105,0-2-0.896-2-2v-6"/>
<path fill="#FFFFFF" d="M708.084,33.196l-1.412-5.039h-0.039c0.018,0.27,0.033,0.529,0.045,0.78c0.006,0.109,0.01,0.222,0.014,0.334
	c0.006,0.115,0.01,0.228,0.014,0.339s0.008,0.219,0.01,0.321c0,0.103,0.002,0.194,0.002,0.276v2.988H705.5v-6.426h1.854l1.391,4.913
	h0.025l1.479-4.913h1.854v6.426h-1.27v-3.041c0-0.076,0-0.164,0.002-0.26c0.002-0.098,0.004-0.199,0.006-0.309
	c0.004-0.107,0.008-0.219,0.012-0.329c0.004-0.111,0.008-0.22,0.012-0.325c0.012-0.246,0.021-0.502,0.029-0.77h-0.035l-1.52,5.031
	h-1.254V33.196z"/>
<path fill="#FFFFFF" d="M717.992,28.776c0,0.28-0.043,0.551-0.127,0.809c-0.086,0.258-0.225,0.484-0.42,0.682
	s-0.451,0.354-0.77,0.471c-0.318,0.116-0.711,0.176-1.18,0.176h-0.313v2.285h-1.361v-6.426h1.783c0.414,0,0.77,0.047,1.07,0.139
	c0.301,0.093,0.549,0.225,0.74,0.396c0.195,0.171,0.34,0.381,0.436,0.628C717.947,28.182,717.992,28.462,717.992,28.776z
	 M715.186,29.795h0.27c0.383,0,0.672-0.076,0.867-0.229c0.195-0.152,0.291-0.4,0.291-0.742c0-0.318-0.086-0.556-0.26-0.707
	c-0.176-0.152-0.447-0.229-0.82-0.229h-0.348V29.795z"/>
<path fill="#FFFFFF" d="M723.205,31.866h-0.771v1.33h-1.322v-1.33h-2.654v-0.945l2.729-4.148h1.248v4.039h0.773v1.055H723.205z
	 M721.111,30.811v-1.09c0-0.038,0-0.094,0.002-0.165c0.002-0.072,0.004-0.152,0.006-0.244c0.004-0.091,0.008-0.185,0.012-0.281
	c0.004-0.096,0.008-0.188,0.014-0.275c0.004-0.088,0.008-0.165,0.012-0.23c0.006-0.065,0.008-0.113,0.012-0.144h-0.037
	c-0.055,0.123-0.113,0.254-0.18,0.392c-0.064,0.139-0.143,0.275-0.227,0.412l-1.072,1.627L721.111,30.811L721.111,30.811z"/>
<rect x="707.342" y="11.989" fill="none" stroke="#FFFFFF" width="13.402" height="10.549"/>
<polygon fill="#FFFFFF" points="712.633,14.481 716.715,17.379 712.633,20.278 "/>
<path fill="#7A52A0" d="M778.004,8.286v28c0,1.104-0.895,2-2,2h-24c-1.104,0-2-0.896-2-2v-34c0-1.104,0.896-2,2-2h18"/>
<polygon fill="#4C2C70" points="772.004,8.271 770.559,7.653 778.004,15.099 778.004,8.271 "/>
<path fill="#A287C1" d="M778.004,8.286h-6c-1.105,0-2-0.896-2-2v-6"/>
<path fill="#FFFFFF" d="M758.656,33.196h-1.34v-6.425h3.682v1.116h-2.342v1.657h2.18v1.11h-2.18V33.196z"/>
<path fill="#FFFFFF" d="M762.287,33.196v-6.425h1.363v5.3h2.338v1.125H762.287z"/>
<path fill="#FFFFFF" d="M770.125,26.771h1.375l-2.004,6.425h-1.486l-2-6.425h1.377l1.09,3.867c0.014,0.05,0.033,0.134,0.059,0.25
	c0.025,0.118,0.051,0.246,0.08,0.388c0.027,0.141,0.055,0.28,0.08,0.422c0.027,0.141,0.047,0.26,0.063,0.355
	c0.016-0.098,0.035-0.216,0.063-0.355c0.025-0.142,0.055-0.28,0.084-0.42s0.059-0.268,0.086-0.385s0.049-0.201,0.063-0.255
	L770.125,26.771z"/>
<rect x="757.303" y="11.989" fill="none" stroke="#FFFFFF" width="13.404" height="10.549"/>
<polygon fill="#FFFFFF" points="762.594,14.481 766.676,17.379 762.594,20.278 "/>
<path fill="#7A52A0" d="M828.004,8.286v28c0,1.104-0.896,2-2,2h-24c-1.105,0-2-0.896-2-2v-34c0-1.104,0.895-2,2-2h18"/>
<polygon fill="#4C2C70" points="822.004,8.271 820.559,7.653 828.004,15.099 828.004,8.271 "/>
<path fill="#A287C1" d="M828.004,8.286h-6c-1.105,0-2-0.896-2-2v-6"/>
<path fill="#FFFFFF" d="M809.236,31.411c0,0.287-0.049,0.547-0.146,0.775c-0.098,0.23-0.24,0.428-0.43,0.59
	s-0.422,0.287-0.695,0.375s-0.588,0.133-0.941,0.133c-0.311,0-0.611-0.032-0.898-0.098c-0.289-0.064-0.557-0.16-0.803-0.29v-1.266
	c0.141,0.067,0.283,0.133,0.426,0.194c0.145,0.063,0.289,0.121,0.438,0.17c0.148,0.051,0.297,0.09,0.443,0.119
	c0.148,0.028,0.297,0.043,0.443,0.043c0.148,0,0.277-0.017,0.383-0.051c0.107-0.033,0.193-0.08,0.26-0.141s0.115-0.132,0.146-0.215
	c0.029-0.084,0.047-0.176,0.047-0.274c0-0.12-0.025-0.228-0.076-0.319c-0.053-0.092-0.123-0.179-0.217-0.258
	c-0.094-0.082-0.203-0.16-0.334-0.236c-0.131-0.075-0.275-0.155-0.438-0.24c-0.135-0.07-0.287-0.155-0.453-0.256
	c-0.168-0.1-0.324-0.223-0.473-0.371c-0.148-0.146-0.271-0.326-0.371-0.536c-0.1-0.209-0.15-0.46-0.15-0.753
	c0-0.287,0.049-0.545,0.145-0.771c0.096-0.228,0.23-0.418,0.406-0.576c0.178-0.155,0.391-0.274,0.641-0.356s0.531-0.123,0.842-0.123
	c0.154,0,0.307,0.011,0.455,0.03c0.145,0.021,0.293,0.05,0.438,0.088c0.146,0.038,0.291,0.085,0.439,0.141
	c0.146,0.057,0.297,0.12,0.451,0.193l-0.439,1.061c-0.131-0.063-0.254-0.117-0.369-0.164c-0.113-0.047-0.225-0.086-0.334-0.117
	c-0.107-0.032-0.215-0.058-0.318-0.073c-0.104-0.017-0.209-0.024-0.314-0.024c-0.229,0-0.4,0.063-0.523,0.184
	c-0.121,0.121-0.184,0.283-0.184,0.484c0,0.109,0.02,0.205,0.057,0.288c0.037,0.084,0.096,0.162,0.176,0.235
	c0.08,0.072,0.186,0.148,0.313,0.225c0.127,0.077,0.281,0.162,0.463,0.26c0.221,0.116,0.422,0.235,0.607,0.357
	c0.184,0.121,0.344,0.256,0.477,0.404c0.133,0.146,0.236,0.314,0.311,0.503C809.201,30.94,809.236,31.159,809.236,31.411z"/>
<path fill="#FFFFFF" d="M816.826,33.196h-1.547l-0.791-3.168c-0.012-0.043-0.025-0.105-0.043-0.185
	c-0.016-0.08-0.031-0.169-0.055-0.269c-0.02-0.101-0.041-0.203-0.061-0.313c-0.021-0.107-0.041-0.214-0.059-0.316
	c-0.018-0.102-0.033-0.197-0.045-0.283c-0.014-0.086-0.023-0.155-0.029-0.209c-0.006,0.054-0.016,0.123-0.029,0.209
	c-0.012,0.086-0.027,0.181-0.045,0.281c-0.018,0.102-0.037,0.205-0.055,0.313c-0.02,0.108-0.039,0.213-0.059,0.312
	c-0.02,0.102-0.037,0.191-0.057,0.273c-0.018,0.082-0.029,0.146-0.043,0.193l-0.781,3.158h-1.553l-1.547-6.425h1.34l0.73,3.507
	c0.008,0.047,0.021,0.115,0.037,0.205s0.035,0.189,0.055,0.301c0.021,0.111,0.041,0.229,0.064,0.352
	c0.021,0.123,0.043,0.244,0.063,0.361c0.021,0.117,0.041,0.226,0.059,0.326c0.02,0.102,0.029,0.185,0.039,0.248
	c0.01-0.063,0.021-0.146,0.037-0.246c0.018-0.1,0.033-0.205,0.051-0.317c0.02-0.113,0.037-0.229,0.061-0.351
	c0.021-0.121,0.043-0.231,0.061-0.336c0.018-0.104,0.033-0.195,0.049-0.276c0.018-0.08,0.029-0.138,0.039-0.173l0.891-3.601h1.195
	l0.893,3.601c0.01,0.035,0.021,0.093,0.037,0.173c0.016,0.081,0.033,0.173,0.053,0.276c0.02,0.104,0.039,0.217,0.061,0.336
	c0.021,0.121,0.039,0.236,0.061,0.351c0.02,0.112,0.037,0.219,0.053,0.317c0.016,0.1,0.029,0.183,0.037,0.246
	c0.01-0.063,0.02-0.146,0.037-0.248c0.016-0.102,0.035-0.209,0.055-0.326c0.021-0.117,0.043-0.238,0.064-0.361
	c0.02-0.123,0.043-0.239,0.063-0.352c0.021-0.11,0.037-0.211,0.055-0.301s0.027-0.158,0.037-0.205l0.73-3.507h1.34L816.826,33.196z"
	/>
<path fill="#FFFFFF" d="M820.764,33.196h-1.34v-6.425h3.684v1.116h-2.344v1.657h2.18v1.11h-2.18V33.196z"/>
<rect x="807.301" y="11.989" fill="none" stroke="#FFFFFF" width="13.404" height="10.549"/>
<polygon fill="#FFFFFF" points="812.592,14.481 816.674,17.379 812.592,20.278 "/>
<path fill="#7A52A0" d="M1128.029,8.286v28c0,1.104-0.896,2-2,2h-24c-1.105,0-2-0.896-2-2v-34c0-1.104,0.895-2,2-2h18"/>
<polygon fill="#4C2C70" points="1122.029,8.271 1120.584,7.653 1128.029,15.099 1128.029,8.271 "/>
<path fill="#A287C1" d="M1128.029,8.286h-6c-1.105,0-2-0.896-2-2v-6"/>
<rect x="1107.328" y="14.239" fill="none" stroke="#FFFFFF" width="13.404" height="10.549"/>
<polygon fill="#FFFFFF" points="1112.619,16.731 1116.701,19.629 1112.619,22.528 "/>
<path fill="#254EB7" d="M877.979,8.286v28c0,1.104-0.896,2-2,2h-24.002c-1.105,0-2-0.896-2-2v-34c0-1.104,0.895-2,2-2h18.002"/>
<polygon fill="#163270" points="872,8.222 870.553,7.604 878,15.05 878,8.222 "/>
<path fill="#5B7FCE" d="M878,8.222h-6c-1.104,0-2-0.895-2-2v-6"/>
<path fill="#FFFFFF" d="M859.379,33.355h-1.357v-5.29h-1.613v-1.135h4.578v1.135h-1.607V33.355L859.379,33.355z"/>
<path fill="#FFFFFF" d="M866.811,33.355h-1.559l-1.313-2.431l-1.314,2.431h-1.459l1.951-3.313l-1.816-3.111h1.506l1.201,2.312
	l1.18-2.312h1.469l-1.838,3.187L866.811,33.355z"/>
<path fill="#FFFFFF" d="M869.961,33.355h-1.359v-5.29h-1.611v-1.135h4.578v1.135h-1.607V33.355L869.961,33.355z"/>
<rect x="854.998" y="13.194" fill="#FFFFFF" width="17.982" height="2.065"/>
<rect x="854.998" y="17.276" fill="#FFFFFF" width="17.982" height="2.066"/>
<rect x="854.998" y="21.192" fill="#FFFFFF" width="17.982" height="2.066"/>
<path fill="#D32093" d="M928.004,8.222v28c0,1.104-0.896,2-2,2h-24c-1.105,0-2-0.896-2-2v-34c0-1.104,0.895-2,2-2h18"/>
<polygon fill="#931172" points="922.004,8.206 920.559,7.589 928.004,15.034 928.004,8.206 "/>
<path fill="#E567BE" d="M928.004,8.222h-6c-1.105,0-2-0.895-2-2v-6"/>
<path fill="#FFFFFF" d="M911.184,33.286h-1.547l-0.791-3.168c-0.012-0.043-0.025-0.105-0.041-0.185
	c-0.02-0.08-0.035-0.169-0.059-0.269c-0.02-0.1-0.041-0.203-0.061-0.313c-0.021-0.107-0.039-0.214-0.057-0.316
	c-0.018-0.102-0.033-0.196-0.047-0.283c-0.014-0.086-0.023-0.155-0.029-0.208c-0.006,0.053-0.014,0.122-0.027,0.208
	c-0.014,0.087-0.029,0.181-0.047,0.281c-0.018,0.102-0.035,0.205-0.055,0.313s-0.039,0.213-0.057,0.312
	c-0.02,0.102-0.037,0.191-0.055,0.273c-0.02,0.082-0.033,0.146-0.045,0.193l-0.781,3.158h-1.553l-1.547-6.424h1.342l0.729,3.506
	c0.01,0.047,0.021,0.115,0.037,0.205s0.035,0.189,0.055,0.301c0.021,0.111,0.043,0.229,0.064,0.352s0.043,0.244,0.064,0.361
	c0.02,0.117,0.037,0.226,0.057,0.326c0.018,0.102,0.031,0.185,0.039,0.248c0.01-0.063,0.02-0.146,0.037-0.246
	c0.016-0.1,0.031-0.205,0.051-0.317c0.018-0.112,0.037-0.229,0.061-0.351c0.021-0.119,0.041-0.231,0.059-0.336
	c0.018-0.104,0.033-0.195,0.051-0.276c0.016-0.08,0.027-0.138,0.037-0.173l0.893-3.6h1.195l0.891,3.6
	c0.012,0.035,0.021,0.093,0.039,0.173c0.018,0.081,0.033,0.173,0.053,0.276c0.02,0.104,0.037,0.217,0.061,0.336
	c0.02,0.121,0.039,0.236,0.059,0.351c0.02,0.112,0.037,0.22,0.053,0.317c0.016,0.1,0.029,0.183,0.037,0.246
	c0.01-0.063,0.021-0.146,0.039-0.248c0.016-0.102,0.033-0.209,0.055-0.326c0.02-0.117,0.041-0.238,0.063-0.361
	c0.023-0.123,0.043-0.238,0.064-0.352c0.02-0.11,0.039-0.211,0.055-0.301s0.029-0.158,0.037-0.205l0.73-3.506h1.34L911.184,33.286z"
	/>
<path fill="#FFFFFF" d="M917.023,33.286l-0.439-1.528h-2.215l-0.443,1.528h-1.375l2.086-6.45h1.666l2.096,6.45H917.023z
	 M916.268,30.616l-0.412-1.406c-0.018-0.053-0.045-0.139-0.08-0.26c-0.035-0.119-0.072-0.252-0.111-0.397s-0.078-0.29-0.113-0.438
	c-0.035-0.146-0.059-0.271-0.074-0.373c-0.012,0.064-0.027,0.142-0.045,0.229c-0.02,0.088-0.043,0.181-0.066,0.278
	c-0.023,0.099-0.051,0.197-0.078,0.298c-0.023,0.1-0.051,0.192-0.072,0.28c-0.023,0.088-0.045,0.166-0.064,0.232
	c-0.02,0.067-0.033,0.117-0.043,0.148l-0.408,1.406h1.568V30.616z"/>
<path fill="#FFFFFF" d="M922.242,26.862h1.375l-2.004,6.426h-1.482l-2-6.426h1.375l1.09,3.867c0.016,0.051,0.035,0.135,0.061,0.25
	c0.025,0.118,0.051,0.246,0.078,0.387c0.029,0.142,0.055,0.281,0.082,0.422c0.025,0.142,0.047,0.261,0.061,0.356
	c0.016-0.097,0.035-0.216,0.063-0.356c0.025-0.141,0.057-0.279,0.084-0.418c0.029-0.141,0.059-0.269,0.086-0.385
	c0.027-0.117,0.049-0.203,0.064-0.256L922.242,26.862z"/>
<polygon fill="#FFFFFF" points="912.313,19.586 911.527,19.586 911.527,12.532 912.313,12.532 "/>
<polygon fill="#FFFFFF" points="919.369,19.586 918.588,19.586 918.588,12.532 919.369,12.532 "/>
<circle fill="#FFFFFF" cx="910.473" cy="19.449" r="1.837"/>
<circle fill="#FFFFFF" cx="917.533" cy="19.489" r="1.838"/>
<polygon fill="#FFFFFF" points="919.363,13.727 911.535,13.727 911.535,11.376 919.363,11.376 "/>
<path fill="#D32093" d="M978.029,8.222v28c0,1.104-0.895,2-2,2h-24c-1.104,0-2-0.896-2-2v-34c0-1.104,0.896-2,2-2h18"/>
<polygon fill="#931172" points="972.029,8.206 970.584,7.589 978.029,15.034 978.029,8.206 "/>
<path fill="#E567BE" d="M978.029,8.222h-6c-1.105,0-2-0.895-2-2v-6"/>
<path fill="#FFFFFF" d="M959.254,33.286l-0.439-1.528H956.6l-0.445,1.528h-1.375l2.088-6.45h1.666l2.096,6.45H959.254z
	 M958.498,30.616l-0.414-1.406c-0.018-0.053-0.043-0.139-0.078-0.26c-0.033-0.119-0.072-0.252-0.111-0.397s-0.076-0.29-0.111-0.438
	c-0.035-0.146-0.061-0.271-0.074-0.373c-0.012,0.064-0.027,0.142-0.047,0.229s-0.041,0.181-0.066,0.278
	c-0.025,0.099-0.051,0.197-0.076,0.298c-0.027,0.1-0.051,0.192-0.074,0.28s-0.045,0.166-0.064,0.232
	c-0.018,0.067-0.031,0.117-0.041,0.148l-0.408,1.406h1.566V30.616z"/>
<path fill="#FFFFFF" d="M964.326,33.286h-2.922v-0.772l0.781-0.36v-4.156l-0.781-0.36v-0.772h2.922v0.772l-0.783,0.36v4.156
	l0.783,0.36V33.286z"/>
<path fill="#FFFFFF" d="M966.943,33.286h-1.34v-6.424h3.684v1.115h-2.344v1.657h2.18v1.11h-2.18V33.286z"/>
<path fill="#FFFFFF" d="M971.916,33.286h-1.34v-6.424h3.682v1.115h-2.342v1.657h2.18v1.11h-2.18V33.286z"/>
<polygon fill="#FFFFFF" points="962.336,19.586 961.553,19.586 961.553,12.532 962.336,12.532 "/>
<polygon fill="#FFFFFF" points="969.396,19.586 968.611,19.586 968.611,12.532 969.396,12.532 "/>
<circle fill="#FFFFFF" cx="960.498" cy="19.448" r="1.838"/>
<circle fill="#FFFFFF" cx="967.561" cy="19.488" r="1.837"/>
<polygon fill="#FFFFFF" points="969.389,13.727 961.561,13.727 961.561,11.376 969.389,11.376 "/>
<path fill="#D32093" d="M1078.029,8.222v28c0,1.104-0.895,2-2,2h-24c-1.104,0-2-0.896-2-2v-34c0-1.104,0.896-2,2-2h18"/>
<polygon fill="#931172" points="1072.029,8.206 1070.584,7.589 1078.029,15.034 1078.029,8.206 "/>
<path fill="#E567BE" d="M1078.029,8.222h-6c-1.105,0-2-0.895-2-2v-6"/>
<polygon fill="#FFFFFF" points="1062.336,22.829 1061.553,22.829 1061.553,15.776 1062.336,15.776 "/>
<polygon fill="#FFFFFF" points="1069.396,22.829 1068.611,22.829 1068.611,15.776 1069.396,15.776 "/>
<circle fill="#FFFFFF" cx="1060.498" cy="22.69" r="1.838"/>
<circle fill="#FFFFFF" cx="1067.561" cy="22.73" r="1.837"/>
<polygon fill="#FFFFFF" points="1069.389,16.97 1061.561,16.97 1061.561,14.618 1069.389,14.618 "/>
<path fill="#4DBC4D" d="M1177.996,8.3v28c0,1.104-0.895,2-2,2h-24c-1.104,0-2-0.896-2-2v-34c0-1.104,0.896-2,2-2h18"/>
<polygon fill="#1F6D1F" points="1172.02,8.235 1170.574,7.618 1178.02,15.063 1178.02,8.235 "/>
<path fill="#76D376" d="M1178.02,8.235h-6c-1.105,0-2-0.895-2-2v-6"/>
<path fill="#FFFFFF" d="M1161.381,30.017c0,0.496-0.059,0.947-0.174,1.354c-0.115,0.408-0.291,0.757-0.529,1.048
	c-0.236,0.288-0.537,0.514-0.898,0.672c-0.361,0.157-0.789,0.237-1.281,0.237s-0.918-0.08-1.279-0.237
	c-0.361-0.158-0.66-0.384-0.896-0.672c-0.236-0.291-0.412-0.64-0.527-1.05c-0.115-0.407-0.174-0.86-0.174-1.358
	s0.059-0.95,0.174-1.356c0.115-0.404,0.293-0.752,0.529-1.039c0.238-0.287,0.537-0.509,0.898-0.666
	c0.361-0.155,0.791-0.234,1.287-0.234c0.49,0,0.918,0.079,1.277,0.234c0.359,0.157,0.658,0.381,0.895,0.668
	c0.234,0.289,0.412,0.637,0.527,1.043C1161.324,29.063,1161.381,29.517,1161.381,30.017z M1157.021,30.017
	c0,0.338,0.029,0.641,0.088,0.908s0.148,0.495,0.271,0.681c0.121,0.188,0.273,0.329,0.459,0.429
	c0.186,0.101,0.404,0.149,0.658,0.149c0.262,0,0.484-0.05,0.672-0.149c0.186-0.1,0.338-0.241,0.457-0.429
	c0.117-0.186,0.205-0.413,0.264-0.681c0.057-0.27,0.086-0.57,0.086-0.908c0-0.336-0.029-0.639-0.086-0.906
	c-0.059-0.269-0.146-0.496-0.264-0.684c-0.119-0.188-0.271-0.331-0.455-0.432c-0.186-0.1-0.404-0.148-0.662-0.148
	s-0.479,0.05-0.664,0.148c-0.189,0.101-0.344,0.244-0.465,0.432s-0.213,0.415-0.271,0.684
	C1157.051,29.378,1157.021,29.681,1157.021,30.017z"/>
<path fill="#FFFFFF" d="M1167.68,29.964c0,0.543-0.074,1.018-0.223,1.427c-0.148,0.408-0.363,0.75-0.643,1.022
	c-0.279,0.274-0.623,0.48-1.027,0.619c-0.406,0.138-0.869,0.205-1.387,0.205h-1.691v-6.425h1.881c0.471,0,0.896,0.067,1.275,0.202
	s0.705,0.335,0.973,0.6c0.271,0.267,0.479,0.596,0.623,0.987C1167.607,28.995,1167.68,29.448,1167.68,29.964z M1166.299,29.999
	c0-0.356-0.035-0.665-0.107-0.926c-0.072-0.258-0.176-0.474-0.313-0.644s-0.303-0.296-0.502-0.378
	c-0.195-0.082-0.424-0.123-0.678-0.123h-0.629v4.184h0.502c0.574,0,1.004-0.176,1.293-0.526S1166.299,30.706,1166.299,29.999z"/>
<path fill="#FFFFFF" d="M1172.531,31.454c0,0.287-0.049,0.545-0.146,0.774c-0.1,0.23-0.242,0.427-0.432,0.589
	c-0.188,0.163-0.42,0.288-0.693,0.377c-0.273,0.088-0.59,0.131-0.943,0.131c-0.311,0-0.609-0.031-0.898-0.097
	c-0.287-0.063-0.555-0.161-0.801-0.29v-1.266c0.141,0.066,0.281,0.133,0.426,0.195s0.289,0.119,0.438,0.168
	c0.148,0.052,0.297,0.091,0.443,0.119c0.148,0.029,0.297,0.045,0.441,0.045c0.15,0,0.277-0.018,0.385-0.051s0.193-0.08,0.26-0.142
	c0.066-0.06,0.113-0.132,0.146-0.215c0.029-0.084,0.045-0.175,0.045-0.274c0-0.119-0.023-0.227-0.076-0.318
	c-0.051-0.092-0.123-0.18-0.215-0.26c-0.094-0.08-0.205-0.158-0.334-0.234c-0.131-0.076-0.275-0.156-0.438-0.241
	c-0.137-0.07-0.285-0.155-0.453-0.256c-0.166-0.099-0.324-0.224-0.473-0.371s-0.271-0.326-0.371-0.536
	c-0.102-0.209-0.148-0.46-0.148-0.753c0-0.287,0.047-0.545,0.143-0.771c0.096-0.229,0.23-0.42,0.406-0.576s0.389-0.275,0.641-0.357
	c0.25-0.082,0.529-0.123,0.84-0.123c0.154,0,0.309,0.01,0.455,0.03c0.148,0.021,0.295,0.05,0.439,0.088
	c0.146,0.038,0.291,0.085,0.438,0.141s0.297,0.12,0.453,0.193l-0.439,1.06c-0.133-0.063-0.256-0.115-0.369-0.162
	c-0.115-0.047-0.227-0.086-0.334-0.119c-0.109-0.031-0.215-0.057-0.318-0.072s-0.209-0.024-0.313-0.024
	c-0.23,0-0.404,0.063-0.525,0.183c-0.123,0.123-0.184,0.285-0.184,0.486c0,0.108,0.02,0.204,0.055,0.287
	c0.037,0.084,0.098,0.162,0.178,0.235s0.184,0.147,0.313,0.225c0.127,0.076,0.281,0.162,0.463,0.259
	c0.219,0.117,0.422,0.236,0.605,0.358c0.186,0.121,0.344,0.256,0.479,0.404c0.133,0.147,0.236,0.315,0.311,0.503
	S1172.531,31.202,1172.531,31.454z"/>
<rect x="1152.998" y="13.206" fill="#FFFFFF" width="6" height="2.066"/>
<rect x="1152.998" y="17.29" fill="#FFFFFF" width="6" height="2.065"/>
<rect x="1152.998" y="21.206" fill="#FFFFFF" width="6" height="2.065"/>
<rect x="1161.008" y="13.206" fill="#FFFFFF" width="6.002" height="2.066"/>
<rect x="1161.008" y="17.29" fill="#FFFFFF" width="6.002" height="2.065"/>
<rect x="1161.008" y="21.206" fill="#FFFFFF" width="6.002" height="2.065"/>
<rect x="1169.016" y="13.206" fill="#FFFFFF" width="6.002" height="2.066"/>
<rect x="1169.016" y="17.29" fill="#FFFFFF" width="6.002" height="2.065"/>
<rect x="1169.016" y="21.206" fill="#FFFFFF" width="6.002" height="2.065"/>
<path fill="#96DB2A" d="M1228.123,8.344v28c0,1.104-0.896,2-2,2h-24.002c-1.104,0-2-0.896-2-2v-34c0-1.104,0.896-2,2-2h18.002"/>
<polygon fill="#77AD1A" points="1222.145,8.279 1220.699,7.662 1228.145,15.107 1228.145,8.279 "/>
<path fill="#B4E85B" d="M1228.145,8.279h-6c-1.104,0-2-0.895-2-2v-6"/>
<path fill="#FFFFFF" d="M1210.439,33.281h-1.557l-1.314-2.431l-1.313,2.431h-1.459l1.951-3.313l-1.816-3.111h1.504l1.203,2.312
	l1.178-2.312h1.469l-1.838,3.186L1210.439,33.281z"/>
<path fill="#FFFFFF" d="M1213.832,33.281l-1.412-5.04h-0.039c0.018,0.27,0.033,0.53,0.045,0.781c0.006,0.109,0.01,0.221,0.014,0.334
	c0.006,0.115,0.01,0.228,0.014,0.339s0.008,0.219,0.01,0.321c0,0.103,0.002,0.194,0.002,0.276v2.988h-1.217v-6.425h1.854
	l1.389,4.913h0.027l1.477-4.913h1.854v6.425h-1.27V30.24c0-0.076,0-0.163,0.002-0.259c0.002-0.098,0.004-0.199,0.006-0.309
	c0.004-0.107,0.008-0.218,0.012-0.329s0.008-0.22,0.01-0.325c0.012-0.246,0.023-0.502,0.031-0.77h-0.035l-1.52,5.032H1213.832z"/>
<path fill="#FFFFFF" d="M1219.465,33.281v-6.425h1.363v5.3h2.338v1.125H1219.465z"/>
<g>
	<g>
		<path fill="#FFFFFF" d="M1211.193,19.526l-5.475-2.52v-0.822l5.475-2.853v1.381l-3.697,1.822l3.697,1.616V19.526z"/>
		<path fill="#FFFFFF" d="M1216.508,12.286l-3.135,8.407h-1.594l3.135-8.407H1216.508z"/>
		<path fill="#FFFFFF" d="M1217.07,18.151l3.699-1.616l-3.699-1.822v-1.381l5.475,2.853v0.822l-5.475,2.52V18.151z"/>
	</g>
</g>
<path fill="#96DB2A" d="M1278.002,8.064v28c0,1.104-0.896,2-2,2H1252c-1.104,0-2-0.896-2-2v-34c0-1.104,0.896-2,2-2h18.002"/>
<polygon fill="#77AD1A" points="1272.023,8 1270.578,7.383 1278.023,14.828 1278.023,8 "/>
<path fill="#B4E85B" d="M1278.023,8h-6c-1.104,0-2-0.895-2-2V0"/>
<path fill="#FFFFFF" d="M1260.344,28.581c0,0.281-0.041,0.551-0.127,0.809c-0.084,0.258-0.225,0.485-0.42,0.682
	s-0.451,0.353-0.77,0.47c-0.316,0.117-0.711,0.176-1.18,0.176h-0.311v2.285h-1.363v-6.425h1.785c0.412,0,0.77,0.046,1.068,0.139
	c0.301,0.092,0.549,0.224,0.744,0.396c0.193,0.171,0.338,0.381,0.432,0.628C1260.297,27.987,1260.344,28.268,1260.344,28.581z
	 M1257.537,29.601h0.268c0.383,0,0.672-0.076,0.867-0.229s0.293-0.4,0.293-0.742c0-0.319-0.088-0.556-0.262-0.708
	s-0.447-0.229-0.82-0.229h-0.346V29.601z"/>
<path fill="#FFFFFF" d="M1266.461,33.002h-1.357v-2.772h-2.184v2.772h-1.363v-6.425h1.363v2.518h2.184v-2.518h1.357V33.002z"/>
<path fill="#FFFFFF" d="M1272.254,28.581c0,0.281-0.043,0.551-0.127,0.809c-0.086,0.258-0.225,0.485-0.42,0.682
	s-0.451,0.353-0.77,0.47s-0.711,0.176-1.18,0.176h-0.313v2.285h-1.361v-6.425h1.783c0.414,0,0.77,0.046,1.07,0.139
	c0.301,0.092,0.549,0.224,0.742,0.396c0.195,0.171,0.34,0.381,0.434,0.628C1272.207,27.987,1272.254,28.268,1272.254,28.581z
	 M1269.445,29.601h0.27c0.383,0,0.672-0.076,0.867-0.229s0.293-0.4,0.293-0.742c0-0.319-0.088-0.556-0.262-0.708
	c-0.176-0.152-0.449-0.229-0.82-0.229h-0.348V29.601z"/>
<g>
	<g>
		<path fill="#FFFFFF" d="M1260.803,19.247l-5.475-2.52v-0.822l5.475-2.853v1.381l-3.697,1.822l3.697,1.616V19.247z"/>
		<path fill="#FFFFFF" d="M1262.826,17.625v-0.426c0-0.195,0.02-0.373,0.061-0.532c0.041-0.158,0.102-0.311,0.184-0.454
			s0.189-0.283,0.32-0.42c0.129-0.136,0.287-0.276,0.471-0.422c0.16-0.127,0.297-0.24,0.408-0.34s0.201-0.198,0.27-0.296
			c0.07-0.098,0.119-0.2,0.15-0.308s0.047-0.232,0.047-0.374c0-0.219-0.074-0.398-0.223-0.54c-0.146-0.143-0.373-0.213-0.676-0.213
			c-0.264,0-0.549,0.056-0.854,0.166c-0.305,0.111-0.619,0.248-0.945,0.409l-0.588-1.271c0.166-0.096,0.346-0.187,0.539-0.273
			c0.193-0.086,0.395-0.162,0.604-0.229s0.42-0.12,0.635-0.158s0.426-0.058,0.633-0.058c0.391,0,0.744,0.047,1.059,0.141
			c0.314,0.095,0.58,0.231,0.799,0.411c0.219,0.181,0.387,0.399,0.504,0.656s0.176,0.55,0.176,0.88c0,0.241-0.027,0.457-0.082,0.646
			c-0.053,0.189-0.133,0.366-0.238,0.529s-0.238,0.32-0.396,0.472c-0.16,0.151-0.344,0.312-0.555,0.479
			c-0.162,0.127-0.293,0.237-0.395,0.331s-0.182,0.184-0.238,0.268c-0.059,0.084-0.098,0.172-0.117,0.262
			c-0.021,0.09-0.033,0.196-0.033,0.319v0.345H1262.826z M1262.637,19.592c0-0.181,0.025-0.333,0.078-0.457
			c0.051-0.125,0.123-0.226,0.215-0.302c0.092-0.077,0.201-0.133,0.324-0.167c0.125-0.035,0.258-0.052,0.4-0.052
			c0.135,0,0.262,0.017,0.383,0.052c0.121,0.034,0.227,0.09,0.318,0.167c0.092,0.076,0.166,0.177,0.219,0.302
			c0.055,0.124,0.08,0.276,0.08,0.457c0,0.173-0.025,0.32-0.08,0.442c-0.053,0.123-0.127,0.225-0.219,0.305
			c-0.092,0.081-0.197,0.14-0.318,0.176s-0.248,0.055-0.383,0.055c-0.143,0-0.275-0.019-0.4-0.055
			c-0.123-0.036-0.232-0.095-0.324-0.176c-0.092-0.08-0.164-0.182-0.215-0.305C1262.662,19.912,1262.637,19.765,1262.637,19.592z"/>
		<path fill="#FFFFFF" d="M1267.221,17.872l3.697-1.616l-3.697-1.822v-1.381l5.475,2.853v0.822l-5.475,2.52V17.872z"/>
	</g>
</g>
</svg>
