<?xml version="1.0" encoding="iso-8859-1"?>
<!-- Generator: Adobe Illustrator 16.0.0, SVG Export Plug-In . SVG Version: 6.00 Build 0)  -->
<!DOCTYPE svg PUBLIC "-//W3C//DTD SVG 1.1//EN" "http://www.w3.org/Graphics/SVG/1.1/DTD/svg11.dtd">
<svg version="1.1" id="Capa_1" xmlns="http://www.w3.org/2000/svg" xmlns:xlink="http://www.w3.org/1999/xlink" x="0px" y="0px"
	 width="519.479px" height="519.479px" viewBox="0 0 519.479 519.479" style="enable-background:new 0 0 519.479 519.479;"
	 xml:space="preserve">
<g>
	<g>
		<path d="M193.441,0h-75.484c-16.897,0-30.6,13.703-30.6,30.6v458.277c0,16.898,13.703,30.602,30.6,30.602h75.484
			c16.897,0,30.6-13.703,30.6-30.602V30.6C224.042,13.703,210.339,0,193.441,0z"/>
		<path d="M401.521,0h-75.484c-16.896,0-30.6,13.703-30.6,30.6v458.277c0,16.898,13.703,30.602,30.6,30.602h75.484
			c16.896,0,30.6-13.703,30.6-30.602V30.6C432.121,13.703,418.418,0,401.521,0z"/>
	</g>
</g>
<g>
</g>
<g>
</g>
<g>
</g>
<g>
</g>
<g>
</g>
<g>
</g>
<g>
</g>
<g>
</g>
<g>
</g>
<g>
</g>
<g>
</g>
<g>
</g>
<g>
</g>
<g>
</g>
<g>
</g>
</svg>
