<?xml version="1.0" standalone="no"?>
<!DOCTYPE svg PUBLIC "-//W3C//DTD SVG 1.1//EN" "http://www.w3.org/Graphics/SVG/1.1/DTD/svg11.dtd" >
<svg xmlns="http://www.w3.org/2000/svg">
<metadata></metadata>
<defs>
<font id="coustardregular" horiz-adv-x="1536" >
<font-face units-per-em="2048" ascent="1638" descent="-410" />
<missing-glyph horiz-adv-x="500" />
<glyph unicode="&#xfb01;" horiz-adv-x="1519" d="M34 991q0 -86 50 -86q3 2 35.5 4t64.5 3h31h14v-663q0 -30 -12 -46.5t-51 -16.5q-46 0 -79 -12t-33 -36q0 -116 33 -146q88 8 266 8q147 0 256 -8q33 29 33 146q0 24 -36 36t-86 12q-22 0 -36 5.5t-19.5 16.5t-7 19.5t-1.5 23.5v661h83q332 2 530 4q21 -5 28 -24t7 -77 v-566q0 -30 -12 -46.5t-51 -16.5q-38 0 -65 -12t-27 -36q0 -116 33 -146q117 8 252 8q130 0 220 -8q33 29 33 146q0 24 -27 36t-65 12q-22 0 -36 5.5t-19.5 16.5t-7 19.5t-1.5 23.5v729q0 63 -10.5 80.5t-45.5 17.5q-3 0 -56 -5.5t-101 -5.5h-566h-96q-12 72 -12 152t30 131 t96 51q46 0 98 -26q0 -36 -0.5 -92.5t-0.5 -76.5q0 -18 13 -26t51 -8q66 0 111.5 33.5t45.5 98.5q0 107 -89 174.5t-211 67.5q-55 0 -103.5 -11t-96.5 -40.5t-82.5 -76t-55.5 -122.5t-21 -175v-55h-33q-107 0 -129 2q-33 -12 -33 -77zM996 1366q0 123 166 123q47 0 79.5 -12 t48 -32t21.5 -39t6 -41q0 -45 -28 -74t-59.5 -37.5t-63.5 -8.5q-24 0 -49 4.5t-54.5 16.5t-48 38t-18.5 62z" />
<glyph unicode="&#xfb02;" horiz-adv-x="1381" d="M34 991q0 -86 50 -86q3 2 35.5 4t64.5 3h31h14v-663q0 -30 -12 -46.5t-51 -16.5q-46 0 -79 -12t-33 -36q0 -116 33 -146q88 8 266 8q147 0 256 -8q33 29 33 146q0 24 -36 36t-86 12q-22 0 -36 5.5t-19.5 16.5t-7 19.5t-1.5 23.5v661h83q119 0 125 -5q50 0 50 86 q0 65 -33 77q-33 -3 -129 -3h-96q-12 72 -12 152t52 131t168 51h27q60 0 93.5 -0.5t83 -3.5t74 -11.5t24.5 -21.5v-1115q0 -30 -12 -46.5t-51 -16.5q-38 0 -65 -12t-27 -36q0 -116 33 -146q88 8 242 8q144 0 230 -8q33 29 33 146q0 24 -27 36t-65 12q-22 0 -36 5.5 t-19.5 16.5t-7 19.5t-1.5 23.5q0 1051 1 1199v7q0 19 -18.5 34t-56 24.5t-81.5 16t-107 9.5t-119.5 4t-131.5 1q-83 0 -148 -11.5t-123 -40.5t-96.5 -76t-61 -122t-22.5 -175v-55h-33q-107 0 -129 2q-33 -12 -33 -77z" />
<glyph horiz-adv-x="2048" />
<glyph horiz-adv-x="2048" />
<glyph unicode="&#xd;" horiz-adv-x="2048" />
<glyph unicode=" "  horiz-adv-x="500" />
<glyph unicode="&#x09;" horiz-adv-x="500" />
<glyph unicode="&#xa0;" horiz-adv-x="500" />
<glyph unicode="!" horiz-adv-x="437" d="M45 137q0 69 46 116t135 47q87 0 131 -47.5t44 -115.5q0 -67 -44 -115t-131 -48q-89 0 -135 47.5t-46 115.5zM65 1438q0 42 21.5 60t68.5 18h116q47 0 68.5 -18t21.5 -60q0 -17 -12.5 -155t-30 -329.5t-25.5 -301.5q-3 -35 -4.5 -71.5t-2 -56.5t-1.5 -40.5t-3.5 -30 t-6.5 -19t-12.5 -12.5t-19.5 -4.5t-29 -1.5q-19 0 -30 1.5t-20 4.5t-13.5 12.5t-7.5 18.5t-4 30t-2 41t-2.5 56.5t-4.5 71.5q-8 109 -24.5 301.5t-28.5 330t-12 154.5z" />
<glyph unicode="&#x22;" horiz-adv-x="940" d="M44 1340q0 76 52.5 124t135.5 48q80 0 135.5 -52.5t55.5 -128.5q0 -87 -35.5 -174.5t-95 -144.5t-122.5 -57q-48 0 -48 31q0 26 49.5 95.5t49.5 73.5q0 10 -18 18t-44 18t-52.5 25.5t-44.5 47.5t-18 76zM505 1340q0 76 52.5 124t135.5 48q80 0 135.5 -52.5t55.5 -128.5 q0 -87 -35.5 -174.5t-95 -144.5t-122.5 -57q-48 0 -48 31q0 26 49.5 95.5t49.5 73.5q0 10 -18 18t-44 18t-52.5 25.5t-44.5 47.5t-18 76z" />
<glyph unicode="#" horiz-adv-x="1118" d="M38 778q0 11 1 17q2 24 22.5 55.5t60.5 42.5q39 6 101 8q11 35 30.5 99.5t27.5 90.5q-12 0 -36 -0.5t-35 -0.5h-16q-33 0 -48.5 9t-15.5 39q0 11 1 17q2 24 22.5 55.5t60.5 42.5q14 2 119 9q40 132 52 182q13 52 99 52q101 0 101 -62q0 -14 -7.5 -40.5t-21.5 -67 t-20 -61.5h206q34 113 51 179q13 52 99 52q101 0 101 -62q0 -11 -16 -63l-33 -103h100q37 0 37 -45v-6q0 -14 -3 -30t-11.5 -37.5t-29.5 -35.5t-52 -14h-90l-55 -192h112q37 0 37 -45v-6q0 -14 -3 -30t-11.5 -37.5t-29.5 -35.5t-52 -14h-100l-58 -207q-8 -29 -13 -41.5 t-16.5 -28.5t-30.5 -21.5t-49 -5.5q-17 0 -36.5 6t-39 25.5t-19.5 50.5q0 11 2 18q12 67 51 199h-200q-16 -54 -57 -202q-8 -29 -13 -41.5t-16.5 -28.5t-30.5 -21.5t-49 -5.5q-17 0 -36.5 6t-39 25.5t-19.5 50.5q0 13 2.5 30t8.5 40.5t11 41.5t14.5 51t14.5 50 q-10 0 -28.5 -0.5t-27.5 -0.5h-16q-33 0 -48.5 9t-15.5 39zM432 905h200l59 190h-205z" />
<glyph unicode="$" horiz-adv-x="999" d="M44 440q0 143 175 143q28 0 37 -11t9 -42v-136q37 -20 109.5 -31t146.5 -11q88 0 145.5 36.5t57.5 100.5q0 45 -29 80.5t-76 57.5t-107.5 44.5t-123 41.5t-123 48t-107.5 63t-76 89t-29 124q0 89 66 154t161.5 94t204.5 29q448 0 448 -260q0 -16 -5.5 -34t-21 -42 t-51.5 -39.5t-88 -15.5q-20 0 -31.5 3t-16.5 11t-6 15.5t-1 23.5v140q-14 14 -86.5 31t-124.5 17q-102 0 -151.5 -38t-49.5 -96q0 -42 36.5 -74t94.5 -54.5t128 -44.5t140 -52.5t128 -69.5t94.5 -103.5t36.5 -147.5q0 -101 -61.5 -167.5t-162.5 -95.5t-239 -29 q-212 0 -331.5 61t-119.5 187zM266 1251v190q0 36 15.5 55.5t36.5 19.5t34 -12.5t18.5 -42t7 -55.5t2 -76.5t2.5 -80.5zM284 48v190l116 2q-2 -30 -2.5 -81t-2 -76.5t-7 -55t-18.5 -42t-34 -12.5t-36.5 19.5t-15.5 55.5zM479 1250q1 26 2 60t1.5 57t2 48.5t5 42t9 31 t15.5 21t24 6.5q23 0 40 -20t17 -55v-191h-116zM497 239h116v-191q0 -35 -17 -55t-40 -20q-19 0 -31 12t-16.5 41t-6 54t-2.5 76.5t-3 82.5z" />
<glyph unicode="%" horiz-adv-x="1733" d="M34 1053q0 106 52 187.5t130.5 122t166.5 40.5q68 0 128.5 -21t109.5 -62.5t78 -110.5t29 -157q0 -84 -31 -153t-82 -112.5t-114.5 -67t-130.5 -23.5q-65 0 -124.5 22t-107 64.5t-76 112.5t-28.5 158zM201 1060q0 -116 53 -180t126 -64q70 0 122 60t52 166q0 120 -51 184 t-123 64t-125.5 -62.5t-53.5 -167.5zM366 78q0 2 2 8q54 88 410 688t377 635q38 63 124 63q15 0 31.5 -19t16.5 -49q0 -13 -15 -39q-65 -116 -380 -649t-358 -611q-48 -87 -143 -87q-13 0 -39 19.5t-26 40.5zM1000 440q0 106 52 187.5t130.5 122t166.5 40.5q68 0 128.5 -21 t109.5 -62.5t78 -110.5t29 -157q0 -84 -31 -153t-82 -112.5t-114.5 -67t-130.5 -23.5q-65 0 -124.5 22t-107 64.5t-76 112.5t-28.5 158zM1167 447q0 -116 53 -180t126 -64q70 0 122 60t52 166q0 120 -51 184t-123 64t-125.5 -62.5t-53.5 -167.5z" />
<glyph unicode="&#x26;" horiz-adv-x="1588" d="M37 357q0 86 45.5 162.5t118.5 134.5t161 111t176 101.5t161 96.5t118.5 106t45.5 120q0 69 -76.5 114t-173.5 45q-100 0 -169 -48.5t-69 -146.5q0 -95 187 -283q47 -47 204 -209.5t266 -271.5q4 -4 42.5 -44t49 -49t45.5 -40.5t54.5 -42t52.5 -28t64 -23.5t65 -6 q86 0 138 19q3 -152 3 -177q-99 -25 -210 -25q-109 0 -182 36t-207 163q-74 72 -141 139t-137.5 141t-101.5 106t-107 114t-79 85q-117 118 -173 214.5t-56 185.5q0 67 22 122t56.5 91t81 64t90 42.5t90 24t75.5 12t51 2.5q93 0 176.5 -21t150 -61t106 -104.5t39.5 -143.5 q0 -74 -27.5 -139t-73.5 -115t-106 -95t-126.5 -82.5t-132.5 -73.5t-126 -72.5t-106 -74.5t-73.5 -85.5t-27.5 -99.5q0 -91 78 -141t193 -50q129 0 242.5 37t195 100.5t138.5 143t85 170.5l-81 12q-15 2 -22.5 4t-17 8t-13.5 17.5t-4 30.5q0 39 6 111h4q-3 0 91.5 1.5t200 3 t130.5 1.5q11 0 11 -101q0 -45 -7 -53q-13 -16 -52 -27.5t-45 -14.5l-18 -18q-75 -295 -301.5 -453t-560.5 -158q-105 0 -197 25.5t-161 73t-109 121.5t-40 165z" />
<glyph unicode="'" horiz-adv-x="479" d="M44 1340q0 76 52.5 124t135.5 48q80 0 135.5 -52.5t55.5 -128.5q0 -87 -35.5 -174.5t-95 -144.5t-122.5 -57q-48 0 -48 31q0 26 49.5 95.5t49.5 73.5q0 10 -18 18t-44 18t-52.5 25.5t-44.5 47.5t-18 76z" />
<glyph unicode="(" horiz-adv-x="664" d="M51 726q0 270 123.5 511.5t356.5 387.5q32 -4 70.5 -49t40.5 -72q-171 -124 -261.5 -330t-90.5 -439t90.5 -439t261.5 -330q-2 -27 -40.5 -72t-70.5 -49q-232 135 -356 372t-124 509z" />
<glyph unicode=")" horiz-adv-x="666" d="M24 -34q171 124 261.5 330t90.5 439t-90.5 439t-261.5 330q2 27 40.5 72t70.5 49q233 -146 356.5 -387.5t123.5 -511.5q0 -272 -124 -509t-356 -372q-32 4 -70.5 49t-40.5 72z" />
<glyph unicode="*" horiz-adv-x="1164" d="M32 1058q0 62 39 109.5t94 47.5q24 0 46 -10l299 -164l-93 323q-2 12 -2 17q0 51 45.5 91t105.5 40q61 0 109 -35t49 -87q0 -1 -0.5 -7.5t-0.5 -11.5l1 3l-73 -329l286 181q30 13 47 13q54 0 98 -44t44 -105q0 -45 -24.5 -83t-65.5 -47l-358 -39q34 -23 142 -99t154 -108 q36 -50 36 -81q0 -70 -48.5 -120t-122.5 -50q-29 0 -55 11.5t-37 33.5l-162 319l-142 -328q-10 -23 -39 -37t-59 -14q-70 0 -122 47t-52 114q0 36 23 72l9 11l285 223l-357 19q-42 7 -70.5 43.5t-28.5 80.5z" />
<glyph unicode="+" horiz-adv-x="947" d="M46 747q0 71 36 85q39 -3 143 -3h159v14q-1 254 -6 267q0 25 26.5 40.5t78.5 15.5q69 0 85 -37q-3 -39 -3 -143v-156q84 1 157 1q104 0 143 3q36 -14 36 -85q0 -105 -55 -105q-6 2 -72.5 3.5t-130.5 2.5h-64h-13q1 -74 1 -234q0 -37 3 -69q-16 -37 -85 -37 q-105 0 -105 55q2 6 3.5 73t2.5 130v64v16h-18q-254 -1 -267 -6q-55 0 -55 105z" />
<glyph unicode="," horiz-adv-x="514" d="M69 128q0 76 52.5 124t135.5 48q80 0 135.5 -52.5t55.5 -128.5q0 -75 -34 -150.5t-91.5 -125.5t-117.5 -50q-48 0 -48 31q0 16 44.5 63.5t44.5 55.5q0 14 -18 24t-44 19t-52.5 23t-44.5 44.5t-18 74.5z" />
<glyph unicode="-" horiz-adv-x="913" d="M56 716q0 90 76 90q58 0 197.5 -0.5t223.5 -0.5h236q37 0 52.5 -7.5t15.5 -29.5q0 -146 -67 -146h-429q-162 0 -237 -4q-68 0 -68 98z" />
<glyph unicode="." horiz-adv-x="491" d="M70 137q0 69 46 116t135 47q87 0 131 -47.5t44 -115.5q0 -67 -44 -115t-131 -48q-89 0 -135 47.5t-46 115.5z" />
<glyph unicode="/" horiz-adv-x="1030" d="M30 43q0 30 19 64q74 127 226 404.5t330 607t209 386.5q37 68 109 68q32 0 55 -22.5t23 -59.5q0 -32 -20 -66q-175 -310 -767 -1399q-39 -73 -108 -73q-35 0 -55.5 24.5t-20.5 65.5z" />
<glyph unicode="0" horiz-adv-x="1422" d="M51 747q0 186 56.5 335.5t150.5 242.5t210.5 142t242.5 49t242.5 -49t210.5 -142t150.5 -242.5t56.5 -335.5q0 -187 -56.5 -337.5t-150.5 -244t-210.5 -143t-242.5 -49.5t-242.5 49.5t-210.5 143t-150.5 244t-56.5 337.5zM306 743q0 -142 34.5 -257.5t92 -186.5 t129 -108.5t149.5 -37.5t149.5 37.5t129 108.5t92 186.5t34.5 257.5q0 143 -34.5 258.5t-92 187t-129 109.5t-149.5 38t-149.5 -38t-129 -109.5t-92 -187t-34.5 -258.5z" />
<glyph unicode="1" horiz-adv-x="658" d="M46 152q0 24 33 36t79 12q39 0 51 16.5t12 46.5v964q0 30 -12 46.5t-51 16.5q-46 0 -79 12t-33 36q0 105 23 160q99 -8 190 -8q85 0 168 8q25 0 25 -23v-1210q0 -15 1.5 -23.5t7 -19.5t19.5 -16.5t36 -5.5q46 0 79 -12t33 -36q0 -130 -43 -160q-104 8 -247 8 q-137 0 -239 -8q-27 16 -40 62.5t-13 97.5z" />
<glyph unicode="2" horiz-adv-x="1175" d="M32 1039q0 43 31 190.5t52 203.5q264 78 443 78q108 0 200.5 -19.5t170 -61.5t122 -116t44.5 -174q0 -54 -16.5 -108t-59 -121t-97.5 -134.5t-150 -165.5t-197.5 -197t-258.5 -244h356q58 0 97.5 8t62.5 19.5t40 38.5t25 49t23.5 69.5t29.5 82.5q16 13 48 13q28 0 65 -9 t61 -18l23 -9q0 -46 -44.5 -195.5t-64.5 -180.5q-54 -38 -419 -38h-492q-20 14 -40 79.5t-23 127.5q57 66 168 173.5t210 204t196 200t155 196.5t58 158q0 102 -72.5 154t-183.5 52q-97 0 -160 -16.5t-107.5 -58.5t-70.5 -105.5t-48 -167.5q-50 0 -113.5 14t-63.5 28z" />
<glyph unicode="3" horiz-adv-x="1231" d="M34 1080q4 38 10 76t10.5 64.5t13 61.5t12.5 50.5t13 50t11 42.5l4 12q244 57 467 57q106 0 192.5 -20.5t143 -54.5t95 -80.5t55 -96.5t16.5 -103q0 -105 -77 -193t-200 -116q177 -24 286.5 -135t109.5 -260q0 -151 -75.5 -257t-201 -155.5t-288.5 -49.5q-236 0 -497 57 l-4 12q-2 8 -11 42.5t-13 50t-12.5 50.5t-13 61.5t-10.5 64.5t-10 76q0 8 60 19t96 11q19 0 19 -4q20 -90 77 -152t130 -89t158 -27q48 0 95.5 10.5t92.5 33t79.5 54.5t55.5 78.5t21 101.5q0 64 -16.5 113t-50 80t-72 51t-94 29.5t-103 12.5t-111.5 3q-32 0 -91.5 -2.5 t-85.5 -2.5q-13 7 -13 100q0 72 25 95q23 -2 174 -2q157 0 241.5 70t84.5 165q0 86 -69 149.5t-186 63.5q-51 0 -95.5 -8t-90.5 -28.5t-81 -52.5t-62 -84.5t-39 -120.5q0 -4 -19 -4q-36 0 -96 11t-60 19z" />
<glyph unicode="4" horiz-adv-x="1224" d="M39 695q0 21 12 47q187 306 492 703q35 44 168 44q12 0 44 -0.5t55 -0.5q92 0 92 -72q0 -69 -1.5 -224.5t-1.5 -240.5v-298q0 -10 9 -10q48 0 116 0.5t87 0.5q43 0 61 -11t23 -35q-1 -64 -35 -115q-10 -18 -47 -22.5t-135 -4.5h-79v-191q0 -15 1.5 -23.5t7 -19.5 t19.5 -16.5t36 -5.5q46 0 79 -12t33 -36q0 -130 -43 -160q-104 8 -247 8q-137 0 -239 -8q-27 16 -40 62.5t-13 97.5q0 24 33 36t79 12q39 0 51 16.5t12 46.5v193h-299q-196 0 -242 23q-40 34 -64 109t-24 107zM265 658q0 -14 57.5 -18t186.5 -4q110 0 158 3q1 44 1 181v235 q0 198 2 248q-25 -37 -73.5 -114t-72.5 -114q-67 -89 -247 -387q-12 -21 -12 -30z" />
<glyph unicode="5" horiz-adv-x="1200" d="M44 407q0 8 60 19t96 11q19 0 19 -4q34 -90 103.5 -155.5t152.5 -97t170 -31.5q68 0 124.5 26.5t92 70.5t55 98t19.5 111q0 76 -31 139.5t-100 106t-164 42.5q-69 0 -207.5 -34.5t-211.5 -34.5q-62 0 -124 13q-13 3 -13 122v529q0 50 13 97t40 63q170 -8 373 -8 q96 0 202 3.5t194 7.5t112 5q10 -12 34 -158t24 -175q0 -3 -4.5 -9t-16 -13.5t-28 -13.5t-44 -10.5t-60.5 -4.5q-5 13 -14 36t-14 35t-15 31t-20 29.5t-27.5 23t-38 19t-50 11t-65.5 4.5q-76 0 -155 -0.5t-195 -0.5q-14 0 -14 -24v-434q161 69 366 69q110 0 196.5 -30.5 t138 -78t85 -111.5t46 -124t12.5 -122q0 -109 -31 -193t-83.5 -138t-128.5 -88.5t-158.5 -48.5t-180.5 -14q-206 0 -460 77l-4 12q-2 8 -11 42.5t-13 50t-12.5 50.5t-13 61.5t-10.5 64.5t-10 76z" />
<glyph unicode="6" horiz-adv-x="1208" d="M56 675q0 213 48 375t136.5 262t206.5 150t265 50q159 0 317 -57l4 -12q2 -8 11 -42.5t13 -50t12.5 -50.5t13 -61.5t10.5 -64.5t10 -76q0 -8 -60 -19t-96 -11q-19 0 -19 4q-36 294 -258 294q-66 0 -131 -39t-118 -109t-85.5 -179t-32.5 -237q181 91 376 91 q118 0 213.5 -39t155 -104.5t91.5 -147.5t32 -171q0 -87 -36 -167.5t-103.5 -146t-178.5 -105t-248 -39.5q-268 0 -408.5 187.5t-140.5 514.5zM303 631q0 -143 27 -247t73.5 -160t99 -81t114.5 -25q74 0 132.5 18.5t94.5 48t60 69t33.5 77.5t9.5 78q0 85 -25.5 149.5 t-69 101t-95 54.5t-110.5 18q-121 0 -209.5 -28t-134.5 -73z" />
<glyph unicode="7" horiz-adv-x="1134" d="M30 1116q0 48 30.5 177.5t65.5 222.5q224 -28 465 -28q242 0 477 28q7 0 16 -20.5t9 -41.5v-56q0 -67 -23 -108q-130 -231 -223 -420t-137 -295.5t-68 -193.5t-27 -115.5t-3 -60.5q0 -48 77 -56v-66q0 -49 -56.5 -79.5t-129.5 -30.5q-84 0 -133 52t-49 157 q0 146 107.5 380.5t411.5 748.5h-554q-17 -44 -36 -114.5t-32 -107t-28 -36.5q-58 0 -109 15.5t-51 47.5z" />
<glyph unicode="8" horiz-adv-x="1368" d="M38 358q0 75 37.5 147t99.5 128t131.5 99.5t145.5 74.5q-171 54 -265 153.5t-94 209.5q0 67 35.5 128t104 109.5t179.5 77t250 28.5q70 0 134.5 -5.5t138 -18.5t133 -38.5t109 -62t77 -92.5t27.5 -126q0 -115 -101.5 -213t-253.5 -151q205 -95 307 -208t102 -256 q0 -77 -36.5 -142t-110.5 -116.5t-197.5 -81t-285.5 -29.5q-59 0 -115.5 3.5t-125 14t-126.5 27.5t-115 47t-96.5 69t-64 96.5t-24.5 127.5zM305 374q0 -94 98.5 -152t314.5 -58q179 0 265 59t86 153q0 70 -60.5 140.5t-144 120t-177.5 82.5q-89 -30 -174 -81t-146.5 -123 t-61.5 -141zM318 1169q0 -41 27.5 -79.5t81 -72.5t118 -63.5t152.5 -60.5q7 3 20 8t50 21t71 33t75 42.5t70.5 50.5t50 55.5t20.5 59.5q0 92 -102 148t-266 56q-178 0 -273 -57t-95 -141z" />
<glyph unicode="9" horiz-adv-x="1217" d="M35 1045q0 89 34.5 171.5t98.5 149t167.5 106.5t230.5 40q199 0 334.5 -96.5t198.5 -267t63 -408.5q0 -197 -45.5 -345.5t-130 -240t-199 -136.5t-258.5 -45q-154 0 -340 57l-13 38q-62 176 -81 329q0 10 61.5 25t98.5 15q18 0 19 -4q24 -82 54.5 -140t60 -89.5t67.5 -49 t67.5 -22t70.5 -4.5q131 0 226 139t95 361v45q-180 -71 -376 -71q-122 0 -220 37.5t-159 100.5t-93 141.5t-32 163.5zM272 1064q0 -121 79.5 -211t219.5 -90q121 0 209 22.5t135 58.5q0 116 -21.5 207t-56.5 148t-84 94.5t-99 52.5t-106 15q-67 0 -121 -25t-87 -67.5 t-50.5 -94.5t-17.5 -110z" />
<glyph unicode=":" horiz-adv-x="466" d="M54 201q0 69 46 116t135 47q87 0 131 -47.5t44 -115.5q0 -67 -44 -115t-131 -48q-89 0 -135 47.5t-46 115.5zM54 932q0 69 46 116t135 47q87 0 131 -47.5t44 -115.5q0 -67 -44 -115t-131 -48q-89 0 -135 47.5t-46 115.5z" />
<glyph unicode=";" horiz-adv-x="472" d="M50 309q0 76 52.5 124t135.5 48q80 0 135.5 -52.5t55.5 -128.5q0 -75 -34 -150.5t-91.5 -125.5t-117.5 -50q-48 0 -48 31q0 16 44.5 63.5t44.5 55.5q0 14 -18 24t-44 19t-52.5 23t-44.5 44.5t-18 74.5zM50 932q0 69 46 116t135 47q87 0 131 -47.5t44 -115.5 q0 -67 -44 -115t-131 -48q-89 0 -135 47.5t-46 115.5z" />
<glyph unicode="&#x3c;" horiz-adv-x="765" d="M37 534q0 40 134.5 171.5t268.5 243.5l135 112q11 8 21 8q22 0 71.5 -60t49.5 -94q0 -16 -13 -29l-398 -352l408 -352q13 -13 13 -29q0 -34 -53.5 -94t-77.5 -60q-10 0 -21 8q-11 9 -30.5 25t-75.5 63.5t-106.5 91.5t-113 101.5t-107 103t-75 85t-30.5 57.5z" />
<glyph unicode="=" horiz-adv-x="1130" d="M76 477q0 71 36 85q39 -3 143 -3q50 1 623 1q91 0 143 4q36 -14 36 -85q0 -95 -55 -95q-5 2 -61.5 3.5t-110.5 2.5h-55h-499q-138 -4 -145 -8q-55 0 -55 95zM76 809q0 71 36 85q26 -2 143 -2q52 1 625 1q104 0 143 3q36 -14 36 -85q0 -95 -55 -95q-5 2 -62 3.5t-111 2.5 h-54h-501q-138 -4 -145 -8q-55 0 -55 95z" />
<glyph unicode="&#x3e;" horiz-adv-x="760" d="M37 153q0 16 13 29l408 352l-398 352q-13 13 -13 29q0 34 49.5 94t71.5 60q10 0 21 -8q11 -9 30.5 -25t75.5 -63.5t106.5 -91.5t113 -101.5t107 -103t75 -85t30.5 -57.5q0 -40 -134.5 -171.5t-268.5 -243.5l-135 -112q-11 -8 -21 -8q-24 0 -77.5 60t-53.5 94z" />
<glyph unicode="?" horiz-adv-x="912" d="M32 1246q0 116 102.5 191t320.5 75q188 0 302.5 -85.5t114.5 -238.5q0 -75 -22.5 -137.5t-58.5 -104.5t-79.5 -77t-87 -63.5t-79.5 -56t-58.5 -61t-22.5 -71.5q0 -20 1 -49.5t1 -41.5q0 -61 -58 -61q-20 0 -51.5 1t-32.5 1q-31 0 -52 49.5t-21 119.5q0 22 2.5 40.5 t4.5 32t12 29t14.5 23.5t22 24.5t25 23.5t34 29.5t38.5 32.5q16 13 58.5 45.5t68.5 56.5t58 60.5t48 79t16 91.5q0 63 -52.5 104t-150.5 41q-58 0 -107 -10.5t-69 -20.5l-21 -10v-153q0 -47 -10 -58.5t-51 -11.5q-81 0 -120.5 50t-39.5 111zM221 137q0 69 46 116t135 47 q87 0 131 -47.5t44 -115.5q0 -67 -44 -115t-131 -48q-89 0 -135 47.5t-46 115.5z" />
<glyph unicode="@" horiz-adv-x="1676" d="M53 547q0 120 33 234t102.5 215t167 177.5t235 121t298.5 44.5q203 0 370.5 -81t268 -234t100.5 -350q0 -111 -29.5 -206.5t-78.5 -159.5t-111.5 -100.5t-129.5 -36.5q-62 0 -102.5 13.5t-62 33.5t-45.5 58q-59 -69 -147.5 -107.5t-179.5 -38.5q-110 0 -182 58.5 t-72 170.5q0 124 129 186q93 44 331 81q27 4 89 13q0 131 -33.5 181t-127.5 50q-70 0 -157 -31.5t-139 -85.5q-63 53 -63 103q0 43 61 76.5t144 49.5t166 16q158 0 241.5 -87.5t83.5 -296.5v-228q0 -32 6.5 -47.5t14.5 -19t26 -5.5q62 0 104 26t63.5 76.5t30 109.5t8.5 140 q0 125 -48.5 226.5t-129.5 165.5t-183 98.5t-213 34.5q-206 0 -356.5 -84t-226 -229t-75.5 -334q0 -118 37 -221.5t111.5 -188.5t201.5 -135t293 -50q260 0 495 112q32 -29 32 -86q0 -28 -41.5 -60t-108.5 -58.5t-163 -44.5t-194 -18q-194 0 -354 58t-266.5 159.5t-165 239 t-58.5 296.5zM670 361q0 -93 108 -93q73 0 158 39t102 71v137q-216 -38 -292 -68.5t-76 -85.5z" />
<glyph unicode="A" d="M-11 38q0 39 6 103q7 24 35 36t63 12q39 0 57 16.5t30 46.5l370 984q8 22 8 33q0 20 -21 26.5t-45.5 4.5t-45.5 6.5t-21 30.5q0 2 2 10q14 112 35 139q123 -8 282 -7q125 0 170 7v-3q6 -42 36.5 -143t40.5 -124l370 -964q12 -30 30 -46.5t57 -16.5q35 0 64 -12t36 -36 q-4 -64 -4 -103q0 -38 -17 -49q-150 11 -252 11q-204 0 -279 -11q-17 58 -17 160q0 24 35.5 31t71 12t35.5 25q0 14 -9 37l-95 269h-525l-91 -269q-9 -27 -9 -37q0 -20 36 -25t72 -12t36 -31q-12 -128 -27 -160q-158 11 -263 11q-61 0 -240 -11q-17 11 -17 49zM544 675h420 q-48 145 -100 290t-80 218l-27 73q-105 -256 -213 -581z" />
<glyph unicode="B" horiz-adv-x="1479" d="M69 152q0 24 33 36t79 12q39 0 51 16.5t12 46.5v966q0 30 -12 46.5t-51 16.5q-112 0 -112 52q0 49 13 96.5t40 62.5q132 -13 368 -13q87 0 218 8t173 8q108 0 196 -35.5t142 -94.5t83 -132.5t29 -152.5q0 -81 -50.5 -159t-141.5 -114q100 -31 169 -95.5t98 -138 t29 -153.5q0 -84 -35.5 -162t-101.5 -141t-171.5 -101t-234.5 -38q-24 0 -183 5.5t-275 5.5q-121 0 -312 -11q-27 16 -40 64t-13 99zM475 215q0 -39 14 -39h422q141 0 222 78t81 184q0 112 -92 194t-261 82h-386v-499zM475 873h386q115 0 182 63t67 148q0 96 -58 167 t-161 71h-416v-449z" />
<glyph unicode="C" horiz-adv-x="1336" d="M29 734q0 157 51 299t141 248t223 168.5t287 62.5q98 0 198.5 -43.5t162.5 -128.5q0 150 39 150h112q48 0 48 -104v-267q0 -57 -5.5 -83.5t-14 -33t-28.5 -8.5h-83q-9 0 -23 18.5t-32.5 47.5t-42.5 64.5t-56.5 70.5t-69 64t-86 47.5t-102.5 18.5q-93 0 -172 -33.5 t-134 -90t-94.5 -132t-58 -159.5t-18.5 -172q0 -84 22.5 -163.5t69 -150.5t112 -124.5t158.5 -85t202 -31.5q233 0 430 147q39 -52 39 -102q0 -72 -77.5 -132.5t-190.5 -91.5t-228 -31q-154 0 -283.5 43t-219.5 116t-153.5 170.5t-93 206.5t-29.5 225z" />
<glyph unicode="D" horiz-adv-x="1621" d="M60 152q0 24 33 36t79 12q39 0 51 16.5t12 46.5v966q0 30 -12 46.5t-51 16.5q-112 0 -112 52q0 49 13 96.5t40 62.5q132 -13 368 -13q76 0 191.5 6.5t151.5 6.5q149 0 273 -42.5t209 -115.5t144.5 -170t86.5 -205t27 -223q0 -117 -26.5 -225.5t-83 -206t-138.5 -169.5 t-201 -114.5t-261 -42.5q-42 0 -157.5 5.5t-204.5 5.5q-42 0 -102 -2t-143 -5t-134 -4q-27 16 -40 64t-13 99zM466 173h388q85 0 158.5 32t126.5 86.5t90.5 127.5t56 155.5t18.5 168.5q0 109 -31.5 211t-90 185t-152 133t-206.5 50h-358v-1149z" />
<glyph unicode="E" horiz-adv-x="1324" d="M60 152q0 24 33 36t79 12q39 0 51 16.5t12 46.5v966q0 30 -12 46.5t-51 16.5q-112 0 -112 52q0 49 13 96.5t40 62.5q400 -13 538 -13q95 0 197 2.5t192 6.5t109 4q17 -15 62.5 -204t45.5 -226q0 -7 -7.5 -19.5t-23 -27t-45 -24.5t-67.5 -10q-15 0 -34 64t-38 148.5 t-27 106.5q-73 0 -243.5 -0.5t-271.5 -0.5q-15 0 -23 -11t-9.5 -22.5t-1.5 -30.5v-377q58 20 143.5 36t156.5 16q60 0 96 -30.5t36 -97.5q0 -56 -38.5 -93.5t-90.5 -37.5q-72 91 -206 91q-39 0 -97 -7v-502q0 -20 1.5 -31.5t9.5 -22.5t23 -11q109 0 293 -0.5t262 -0.5 q10 24 35 119.5t50 167.5t44 72q38 0 67.5 -10t45 -24.5t23 -27t7.5 -19.5q0 -41 -54.5 -246.5t-73.5 -220.5q-185 11 -548 11q-317 0 -538 -11q-27 16 -40 64t-13 99z" />
<glyph unicode="F" horiz-adv-x="1244" d="M60 152q0 24 33 36t79 12q39 0 51 16.5t12 46.5v966q0 30 -12 46.5t-51 16.5q-112 0 -112 52q0 49 13 96.5t40 62.5q125 -13 558 -13q228 0 428 13q22 -15 85 -195t63 -215q0 -7 -7.5 -19.5t-23 -27t-45 -24.5t-67.5 -10q-21 0 -47.5 60t-53.5 139.5t-38 99.5 q-66 0 -220.5 -0.5t-244.5 -0.5q-15 0 -23 -4t-9.5 -8.5t-1.5 -11.5v-409q58 20 143.5 36t156.5 16q162 0 162 -128q0 -56 -38.5 -93.5t-90.5 -37.5q-71 92 -186 92q-71 0 -147 -17v-480q0 -15 1.5 -23.5t7 -19.5t19.5 -16.5t36 -5.5q46 0 79 -12t33 -36q0 -52 -10.5 -99.5 t-32.5 -63.5q-143 11 -247 11q-98 0 -239 -11q-27 16 -40 64t-13 99z" />
<glyph unicode="G" horiz-adv-x="1615" d="M57 734q0 157 51 299t141 248t223 168.5t287 62.5q122 0 249.5 -43.5t201.5 -128.5q0 150 39 150h112q48 0 48 -104v-247q0 -57 -5.5 -83.5t-14 -33t-28.5 -8.5h-83q-8 0 -28.5 23t-47.5 57.5t-70.5 75t-92.5 75t-118.5 57.5t-144.5 23q-93 0 -172 -33.5t-134 -90 t-94.5 -132t-58 -159.5t-18.5 -172q0 -84 21.5 -163.5t66.5 -150.5t108.5 -124.5t153 -85t194.5 -31.5q193 0 377 46v206q0 34 -5 57.5t-19.5 47.5t-47 36t-81.5 12q-19 0 -25.5 17t-6.5 61q0 67 33 120q129 -11 254 -11q51 0 101 2.5t82 5.5t39 3q8 -8 15.5 -37.5 t7.5 -52.5q0 -39 -13 -61.5t-31.5 -32.5t-37 -21t-31.5 -37.5t-13 -71.5l1 -419q-36 -36 -81 -36q-11 0 -22.5 2.5t-24.5 8t-21 9t-23.5 12t-19.5 10.5q-90 -37 -209.5 -61.5t-224.5 -24.5q-150 0 -276 43t-214 116t-149.5 170.5t-90.5 206.5t-29 225z" />
<glyph unicode="H" horiz-adv-x="1759" d="M60 152q0 24 33 36t79 12q39 0 51 16.5t12 46.5v966q0 30 -12 46.5t-51 16.5q-112 0 -112 52q0 49 13 96.5t40 62.5q166 -13 239 -13q91 0 247 12q22 -16 32.5 -64t10.5 -100q0 -24 -33 -36t-79 -12q-22 0 -36 -5.5t-19.5 -16.5t-7 -19.5t-1.5 -23.5v-341q0 -21 19 -21 h788q19 0 19 21v343q0 30 -12 46.5t-51 16.5q-46 0 -79 12t-33 36q0 52 13 100t40 64q154 -12 239 -12q91 0 247 12q22 -16 32.5 -64t10.5 -100q0 -24 -33 -36t-79 -12q-22 0 -36 -5.5t-19.5 -16.5t-7 -19.5t-1.5 -23.5v-960q0 -15 1.5 -23.5t7 -19.5t19.5 -16.5t36 -5.5 q46 0 79 -12t33 -36q0 -52 -10.5 -99.5t-32.5 -63.5q-143 11 -247 11q-98 0 -239 -11q-27 16 -40 64t-13 99q0 24 33 36t79 12q39 0 51 16.5t12 46.5v423q0 21 -19 21h-788q-19 0 -19 -21v-421q0 -15 1.5 -23.5t7 -19.5t19.5 -16.5t36 -5.5q46 0 79 -12t33 -36 q0 -52 -10.5 -99.5t-32.5 -63.5q-143 11 -247 11q-98 0 -239 -11q-27 16 -40 64t-13 99z" />
<glyph unicode="I" horiz-adv-x="702" d="M60 152q0 24 33 36t79 12q39 0 51 16.5t12 46.5v966q0 30 -12 46.5t-51 16.5q-112 0 -112 52q0 49 13 96.5t40 62.5q166 -13 239 -13q78 0 247 13q22 -16 32.5 -64.5t10.5 -100.5q0 -24 -33 -36t-79 -12q-22 0 -36 -5.5t-19.5 -16.5t-7 -19.5t-1.5 -23.5v-960 q0 -15 1.5 -23.5t7 -19.5t19.5 -16.5t36 -5.5q46 0 79 -12t33 -36q0 -52 -10.5 -99.5t-32.5 -63.5q-143 11 -247 11q-98 0 -239 -11q-27 16 -40 64t-13 99z" />
<glyph unicode="J" horiz-adv-x="957" d="M57 134q0 43 36 69t83 26q38 0 60.5 -12.5t32 -30.5t18 -36.5t28 -31t53.5 -12.5q37 0 60.5 17.5t35 54t15 75t3.5 98.5l-1 876q0 30 -12 46.5t-51 16.5q-46 0 -79 12t-33 36q0 51 13 97.5t40 62.5q102 -8 239 -8q143 0 247 8q43 -30 43 -160q0 -24 -33 -36t-79 -12 q-22 0 -36 -5.5t-19.5 -16.5t-7 -19.5t-1.5 -23.5v-850q0 -76 -7 -137t-28.5 -123.5t-57.5 -104.5t-98 -68.5t-145 -26.5q-52 0 -104 11t-102 35t-81.5 68.5t-31.5 104.5z" />
<glyph unicode="K" horiz-adv-x="1598" d="M60 152q0 24 33 36t79 12q39 0 51 16.5t12 46.5v966q0 30 -12 46.5t-51 16.5q-112 0 -112 52q0 49 13 96.5t40 62.5q166 -13 239 -13q78 0 247 13q22 -16 32.5 -64.5t10.5 -100.5q0 -24 -33 -36t-79 -12q-22 0 -36 -5.5t-19.5 -16.5t-7 -19.5t-1.5 -23.5v-433l559 435 q22 17 22 31q0 20 -15 28t-32.5 7.5t-32.5 5.5t-15 22q0 12 17 77q5 13 17 54.5t19 50.5q174 -13 254 -13q67 0 252 13q17 -22 23.5 -75t6.5 -90q0 -25 -24.5 -36.5t-51.5 -11.5q-38 0 -67 -8.5t-43.5 -17.5t-34.5 -26l-534 -445q63 -78 130 -172t106 -152t89 -118.5 t93.5 -93.5t104 -54t135.5 -21q122 0 122 -26v-37q0 -34 -4.5 -55t-20.5 -44.5t-53 -35t-95 -11.5q-96 0 -169 16t-129 51.5t-97 77.5t-84.5 109t-80 131t-95 158.5t-117.5 176.5l-155 -117v-311q0 -15 1.5 -23.5t7 -19.5t19.5 -16.5t36 -5.5q46 0 79 -12t33 -36 q0 -52 -10.5 -99.5t-32.5 -63.5q-143 11 -247 11q-98 0 -239 -11q-27 16 -40 64t-13 99z" />
<glyph unicode="L" horiz-adv-x="1320" d="M69 152q0 24 33 36t79 12q39 0 51 16.5t12 46.5v966q0 30 -12 46.5t-51 16.5q-112 0 -112 52q0 49 13 96.5t40 62.5q48 -13 238 -13q167 0 218 13q27 -15 40 -56.5t13 -87.5q0 -24 -27 -36t-65 -12q-22 0 -36 -5.5t-19.5 -16.5t-7 -19.5t-1.5 -23.5v-1032q0 -35 14 -35 q90 0 244.5 -0.5t220.5 -0.5q13 23 48 119t70 168t61 72q38 0 67.5 -10t45 -24.5t23 -27t7.5 -19.5q0 -41 -84.5 -246.5t-113.5 -220.5q-273 11 -501 11q-213 0 -455 -11q-27 16 -40 64t-13 99z" />
<glyph unicode="M" horiz-adv-x="2034" d="M69 152q0 24 33 36t79 12q39 0 51 16.5t12 46.5v966q0 30 -12 46.5t-51 16.5q-112 0 -112 52q0 49 13 96.5t40 62.5q17 -1 55.5 -5t70.5 -6t72 -2q39 0 96.5 3.5t69.5 3.5q3 0 7 -0.5t5 -0.5q5 -1 28 -46.5t63.5 -134.5l81 -178t98 -219.5t94 -214.5t90.5 -207.5 t68 -156.5q118 288 308.5 721t206.5 436q6 1 12 1q10 0 63 -3.5t88 -3.5q139 0 208 13q43 -31 43 -168q0 -24 -33 -36t-79 -12q-39 0 -51 -16.5t-12 -46.5v-963q0 -30 12 -46.5t51 -16.5q46 0 79 -12t33 -36q0 -50 -13 -97.5t-40 -63.5q-134 11 -229 11q-109 0 -252 -11 q-22 16 -32.5 64t-10.5 99q0 24 33 36t79 12q22 0 36 5.5t19.5 16.5t7 19.5t1.5 23.5v881q0 1 -47 -108t-114 -265l-134 -312t-114 -265l-47 -110q0 -2 -16 -14.5t-43 -25.5t-49 -13q-52 0 -87 78q-13 28 -65.5 148t-116.5 265.5t-127 288.5t-105.5 238.5t-42.5 94.5v-881 q0 -15 1.5 -23.5t7 -19.5t19.5 -16.5t36 -5.5q46 0 79 -12t33 -36q0 -51 -10.5 -99t-32.5 -64q-123 11 -223 11q-95 0 -229 -11q-27 16 -40 64t-13 99z" />
<glyph unicode="N" horiz-adv-x="1714" d="M69 152q0 24 33 36t79 12q39 0 51 16.5t12 46.5v966q0 30 -12 46.5t-51 16.5q-112 0 -112 52q0 49 13 96.5t40 62.5q17 -1 55.5 -5t70.5 -6t72 -2q32 0 79 3.5t57 3.5q3 0 7 -0.5t5 -0.5q17 -1 127 -142t266.5 -357t242.5 -337t155 -218v784q0 30 -12 46.5t-51 16.5 q-46 0 -79 12t-33 36q0 51 10.5 97.5t32.5 62.5q90 -7 239 -7q150 0 237 7q22 -16 32.5 -62.5t10.5 -97.5q0 -24 -33 -36t-79 -12q-22 0 -36 -5.5t-19.5 -16.5t-7 -19.5t-1.5 -23.5v-810q0 -69 6.5 -220.5t6.5 -179.5q-51 -51 -108 -51q-12 0 -22.5 4t-19.5 13.5t-14.5 16 t-15.5 22t-15 22.5q-91 128 -462 642.5t-371 512.5v-931q0 -15 1.5 -23.5t7 -19.5t19.5 -16.5t36 -5.5q46 0 79 -12t33 -36q0 -51 -10.5 -99t-32.5 -64q-136 11 -237 11q-95 0 -229 -11q-27 16 -40 64t-13 99z" />
<glyph unicode="O" horiz-adv-x="1634" d="M57 747q0 117 30 227.5t92.5 208t151 171t214 116t272.5 42.5t272.5 -42.5t214 -116t151 -171t92.5 -208t30 -227.5t-30 -228.5t-93 -210.5t-151.5 -173.5t-213.5 -118t-272 -43.5t-272 43.5t-213.5 118t-151.5 173.5t-93 210.5t-30 228.5zM312 743q0 -90 20 -174.5 t61.5 -160t100.5 -132t142 -90t181 -33.5t181 33.5t142 90t100.5 132t61.5 160t20 174.5q0 113 -32.5 217t-93.5 188t-159.5 134.5t-219.5 50.5t-219.5 -50.5t-159.5 -134.5t-93.5 -188t-32.5 -217z" />
<glyph unicode="P" horiz-adv-x="1462" d="M69 152q0 24 33 36t79 12q39 0 51 16.5t12 46.5v966q0 30 -12 46.5t-51 16.5q-112 0 -112 52q0 49 13 96.5t40 62.5q132 -13 368 -13q83 0 207.5 8t163.5 8q108 0 199 -26t155 -70.5t108.5 -104.5t66 -126.5t21.5 -137.5q0 -88 -35.5 -168.5t-102 -145.5t-173.5 -104 t-239 -39h-386v-319q0 -15 1.5 -23.5t7 -19.5t19.5 -16.5t36 -5.5q46 0 79 -12t33 -36q0 -52 -10.5 -99.5t-32.5 -63.5q-143 11 -247 11q-98 0 -239 -11q-27 16 -40 64t-13 99zM475 753h386q149 0 234 83.5t85 197.5q0 117 -83.5 202.5t-235.5 85.5h-386v-569z" />
<glyph unicode="Q" horiz-adv-x="1628" d="M55 747q0 117 30 227.5t92.5 208t151 171t214 116t272.5 42.5t272.5 -42.5t214 -116t151 -171t92.5 -208t30 -227.5t-30 -228.5t-93 -210.5t-151.5 -173.5t-213.5 -118t-272 -43.5t-272 43.5t-213.5 118t-151.5 173.5t-93 210.5t-30 228.5zM310 743q0 -90 20 -174.5 t61.5 -160t100.5 -132t142 -90t181 -33.5t181 33.5t142 90t100.5 132t61.5 160t20 174.5q0 113 -32.5 217t-93.5 188t-159.5 134.5t-219.5 50.5t-219.5 -50.5t-159.5 -134.5t-93.5 -188t-32.5 -217zM883 -11l145 25q21 -111 67 -164t143 -53q74 0 183 31q5 -47 5 -71 q0 -34 -15 -44q-106 -63 -219 -63q-132 0 -220.5 87.5t-88.5 251.5z" />
<glyph unicode="R" horiz-adv-x="1572" d="M60 152q0 24 33 36t79 12q39 0 51 16.5t12 46.5v966q0 30 -12 46.5t-51 16.5q-112 0 -112 52q0 49 13 96.5t40 62.5q132 -13 368 -13q85 0 212.5 8t168.5 8q126 0 227.5 -36.5t164 -97t95.5 -135.5t33 -156q0 -51 -15.5 -102.5t-48.5 -99t-78.5 -85t-111 -62 t-140.5 -27.5q76 -25 130 -87.5t81.5 -133t51 -138t56.5 -112t81 -44.5q142 0 142 -26v-37q0 -34 -5 -55t-23 -44.5t-59 -35t-106 -11.5q-64 0 -112.5 21.5t-80 58t-55.5 84.5t-43.5 102t-39 109t-47 107.5t-63 95t-91 73.5t-127.5 42h-212v-409q0 -15 1.5 -23.5t7 -19.5 t19.5 -16.5t36 -5.5q46 0 79 -12t33 -36q0 -133 -33 -163q-150 11 -257 11q-92 0 -239 -11q-27 16 -40 64t-13 99zM466 843h416q125 0 197 69t72 162q0 101 -75.5 174.5t-213.5 73.5h-396v-479z" />
<glyph unicode="S" horiz-adv-x="1295" d="M53 1127q0 123 76 212.5t191.5 131t251.5 41.5q212 0 360 -106q10 20 15.5 39t5.5 26t8.5 13t21.5 6.5t47 0.5q30 0 95 -5q63 -279 63 -397q0 -16 -52.5 -26t-102.5 -10h-25q-37 131 -147 215.5t-277 84.5q-141 0 -212 -56t-71 -153q0 -57 32.5 -101t87.5 -72.5 t126 -51.5t150 -45t158 -47t150 -62t126 -85t87.5 -122.5t32.5 -168.5q0 -107 -42 -189.5t-114.5 -130.5t-162 -72t-192.5 -24q-110 0 -218.5 37t-196.5 103l-17 -99q-2 -9 -5.5 -13.5t-16.5 -8t-37 -3.5h-97q-65 283 -65 427q0 23 45 38t94 15q20 0 32 -3q32 -81 89 -144 t124.5 -99t135 -54.5t130.5 -18.5q115 0 187.5 51.5t72.5 151.5q0 67 -32.5 117.5t-87 82t-125 55.5t-149 45t-157 44t-149 58t-125 81.5t-87 120.5t-32.5 170z" />
<glyph unicode="T" horiz-adv-x="1326" d="M6 1114q0 34 37 206t51 186q3 0 6 -0.5t6 -0.5q297 -25 557 -25q259 0 556 25q3 0 6 0.5t6 0.5q14 -14 51 -186t37 -206q0 -7 -7.5 -19.5t-23 -27t-45 -24.5t-67.5 -10q-17 0 -38 60t-41.5 139.5t-29.5 99.5q-39 0 -128.5 -0.5t-136.5 -0.5q-16 0 -20 -9t-4 -26v-1031 q0 -15 1.5 -23.5t7 -19.5t19.5 -16.5t36 -5.5q46 0 79 -12t33 -36q0 -133 -33 -163q-150 11 -257 11q-105 0 -259 -11q-33 30 -33 163q0 24 33 36t79 12q39 0 51 16.5t12 46.5v1033q0 11 -1 17t-6.5 12t-16.5 6q-47 0 -136.5 0.5t-128.5 0.5q-9 -20 -29.5 -99.5 t-41.5 -139.5t-38 -60q-38 0 -67.5 10t-45 24.5t-23 27t-7.5 19.5z" />
<glyph unicode="U" horiz-adv-x="1846" d="M60 1338q0 130 43 160q104 -8 247 -8q137 0 239 8q27 -16 40 -62.5t13 -97.5q0 -24 -33 -36t-79 -12q-39 0 -51 -16.5t-12 -46.5v-714q0 -69 29 -132.5t83.5 -115t142.5 -82t196 -30.5t196 30.5t142.5 82t83.5 115t29 132.5v714q0 30 -12 46.5t-51 16.5q-46 0 -79 12 t-33 36q0 51 13 97.5t40 62.5q102 -8 239 -8q143 0 247 8q43 -30 43 -160q0 -24 -33 -36t-79 -12q-22 0 -36 -5.5t-19.5 -16.5t-7 -19.5t-1.5 -23.5v-708q0 -103 -44.5 -199.5t-127.5 -174t-215.5 -124t-294.5 -46.5t-294.5 46.5t-215.5 124t-127.5 174t-44.5 199.5v708 q0 15 -1.5 23.5t-7 19.5t-19.5 16.5t-36 5.5q-46 0 -79 12t-33 36z" />
<glyph unicode="V" horiz-adv-x="1640" d="M8 1345q4 70 4 114q0 35 17 46q118 -8 272 -8t269 8q18 -40 27 -168q0 -24 -35.5 -31t-71 -12t-35.5 -25q0 -14 9 -37q253 -717 357 -983q109 270 364 983q9 13 9 37q0 20 -36 25t-72 12t-36 31q12 134 27 168q106 -8 257 -8q157 0 280 8q17 -11 17 -46q0 -44 -16 -114 q-8 -24 -42 -36t-76 -12q-38 0 -56.5 -16.5t-30.5 -46.5l-392 -991q-13 -33 -28 -72t-22 -58.5t-17.5 -43t-15.5 -33t-16.5 -21.5t-19 -15t-24 -6.5t-31.5 -4t-42 -0.5q-34 0 -51.5 0.5t-36 8.5t-25 14t-20 31t-19.5 44t-24 68.5t-33 89.5l-378 989q-12 30 -30 46.5 t-57 16.5q-42 0 -77 12t-43 36z" />
<glyph unicode="W" horiz-adv-x="2333" d="M8 1345q1 13 1 44.5t1 50.5t5.5 39t13.5 26q118 -8 272 -8t269 8q18 -40 27 -168q0 -24 -35.5 -31t-71 -12t-35.5 -25q0 -14 9 -37q211 -751 277 -950q26 79 143 482.5t131 458.5q16 46 20 93q3 38 3 60v10q-1 23 10.5 43t46 26.5t106.5 6.5q55 0 82 -7.5t36 -28t9 -43.5 t5.5 -67.5t21.5 -86.5q19 -65 149.5 -492.5t138.5 -454.5q23 83 128.5 488t108.5 422q1 4 5.5 22.5t7.5 34t3 20.5q0 20 -36 25t-72 12t-36 31q12 134 27 168q101 -8 247 -8q157 0 280 8q17 -11 17 -46q0 -44 -16 -114q-8 -24 -42 -36t-76 -12q-38 0 -56.5 -16.5 t-30.5 -46.5l-262 -991q-14 -54 -22 -84t-20 -62t-18 -46t-20.5 -29.5t-22 -19.5t-29.5 -8.5t-36.5 -4.5h-47.5h-44.5t-34 5t-26.5 7t-20 17.5t-17.5 24.5t-16 39.5t-17.5 51t-21 70.5l-258 876l-258 -887q-17 -57 -26 -86t-23 -56t-22.5 -36.5t-31 -17t-39.5 -8t-57 -0.5 h-41t-31 4.5t-24.5 7t-19 16.5t-16 22.5t-15 36t-16 46.5t-18.5 64q-4 10 -9.5 31.5t-8.5 30.5l-298 986q-13 31 -31 47t-56 16q-42 0 -77 12t-43 36z" />
<glyph unicode="X" horiz-adv-x="1508" d="M7 38q0 44 16 114q6 24 31.5 36t56.5 12q29 0 50 7.5t30.5 15.5t24.5 25l424 497l-416 489q-53 63 -137 63q-31 0 -47 11t-23 37q4 70 4 114q0 35 17 46q128 -8 292 -8q149 0 259 8q9 -19 18 -73t9 -95q0 -24 -37 -30.5t-74 -11t-37 -24.5q0 -19 15 -39q13 -18 83.5 -105 t135.5 -165l64 -79q131 157 287 348q9 12 9 37q0 20 -33.5 25t-67 12t-33.5 31q12 134 27 168q101 -8 237 -8q122 0 270 8q17 -11 17 -57q0 -71 -8 -103q-6 -26 -25.5 -37t-61.5 -11q-72 0 -114 -48l-405 -478l428 -507q53 -63 137 -63q31 0 47 -11t23 -37q-4 -70 -4 -114 q0 -38 -17 -49q-163 11 -272 11q-117 0 -289 -11q-9 19 -18 74t-9 97q0 24 37 30.5t74 11t37 24.5q0 19 -15 39q-12 17 -83 106.5t-136 170.5l-65 81q-131 -161 -287 -358q-9 -13 -9 -37q0 -20 33.5 -25t67 -12t33.5 -31q-12 -138 -27 -171q-152 11 -257 11q-107 0 -270 -11 q-17 11 -17 49z" />
<glyph unicode="Y" horiz-adv-x="1474" d="M11 1481q0 19 9 24q126 -8 282 -8q154 0 255 8q3 -9 25 -168q0 -1 0.5 -3t0.5 -3q0 -19 -32.5 -25.5t-65.5 -11t-33 -20.5q0 -10 18 -42l244 -425q28 -46 33 -49q7 2 32 49q168 296 245 425q18 30 18 42q0 16 -33 20.5t-65.5 11t-32.5 25.5q0 1 0.5 3t0.5 3 q22 159 25 168q94 -8 235 -8q156 0 282 8q9 -5 9 -24q0 -10 -3 -22v-15q0 -10 0.5 -32t0.5 -33q0 -12 -2 -34q-14 -24 -50 -36t-78 -12q-65 0 -101 -63l-377 -642l-1 -327q0 -15 1.5 -23.5t7 -19.5t19.5 -16.5t36 -5.5q46 0 79 -12t33 -36q0 -133 -33 -163q-150 11 -257 11 q-102 0 -249 -11q-22 16 -32.5 64t-10.5 99q0 24 33 36t79 12q39 0 51 16.5t12 46.5v329l-377 642q-38 63 -101 63q-42 0 -78 12t-50 36q0 21 -2 69t-2 67z" />
<glyph unicode="Z" horiz-adv-x="1327" d="M57 205q0 10 5 20q92 123 112 148l740 893q26 30 26 39q0 -4 -606 -4q-6 -17 -24.5 -94t-36.5 -134.5t-30 -57.5q-54 0 -113 22.5t-59 45.5q0 9 1 9q13 86 44 205t65 206q256 -15 640 -15q136 0 369 15q16 -29 20.5 -62t4.5 -127q0 -9 -7 -25.5t-22 -40t-29.5 -45 t-37 -52t-37.5 -50t-38.5 -50t-31.5 -41.5q-122 -154 -683 -826q34 7 657 7q3 9 28 105.5t43.5 151.5t29.5 55q57 0 127 -20t70 -50q-3 -47 -56 -221t-78 -223q-198 11 -523 11q-329 0 -509 -11q-6 2 -20.5 37t-27.5 87t-13 92z" />
<glyph unicode="[" horiz-adv-x="623" d="M93 -74v1541q0 31 30 31q79 -8 201 -8q132 0 233 8q23 -31 23 -160q0 -19 -15.5 -28.5t-61.5 -14.5t-135 -5q-20 0 -30.5 -6t-12 -12t-1.5 -17v-1117q0 -10 1.5 -16t12 -12.5t30.5 -6.5q89 0 135 -5t61.5 -14.5t15.5 -28.5q0 -129 -23 -160q-110 7 -233 7q-118 0 -201 -7 q-30 0 -30 31z" />
<glyph unicode="\" horiz-adv-x="1036" d="M28 1491q0 37 26 59.5t62 22.5q72 0 109 -68q31 -57 209 -386.5t330 -607t226 -404.5q19 -34 19 -64q0 -41 -23.5 -65.5t-62.5 -24.5q-69 0 -108 73q-592 1089 -767 1399q-20 34 -20 66z" />
<glyph unicode="]" horiz-adv-x="623" d="M41 55q0 19 15.5 28.5t61.5 14.5t135 5q20 0 30.5 6.5t12 12.5t1.5 16v1117q0 11 -1.5 17t-12 12t-30.5 6q-89 0 -135 5t-61.5 14.5t-15.5 28.5q0 129 23 160q101 -8 233 -8q122 0 201 8q30 0 30 -31v-1541q0 -31 -30 -31q-83 7 -201 7q-123 0 -233 -7q-23 31 -23 160z " />
<glyph unicode="^" horiz-adv-x="864" d="M43 1060q0 9 4 18.5t13 22t18 23t24.5 29.5t27.5 34q33 42 113.5 136t138.5 152h100q57 -59 139 -154t113 -134q12 -15 27.5 -34t24.5 -29.5t18 -23t13 -22t4 -18.5q0 -32 -17 -46.5t-60 -14.5q-33 0 -56 9.5t-34.5 21.5t-35.5 42l-181 231l-181 -231q-24 -30 -35.5 -42 t-34.5 -21.5t-56 -9.5q-48 0 -67.5 14.5t-19.5 46.5z" />
<glyph unicode="_" horiz-adv-x="1269" d="M43 -110q0 71 36 85q26 -2 143 -2q52 1 825 1q104 0 143 3q36 -14 36 -85q0 -95 -55 -95q-5 2 -62 3.5t-111 1.5l-54 1h-701q-138 -4 -145 -8q-55 0 -55 95z" />
<glyph unicode="`" horiz-adv-x="656" d="M43 1564q0 32 33.5 46.5t113.5 14.5q69 0 103 -19.5t68 -73.5q109 -173 252 -383h-111q-79 60 -192.5 157.5t-148.5 131.5q-21 20 -56 51t-48.5 46t-13.5 29z" />
<glyph unicode="a" horiz-adv-x="1157" d="M32 269q0 154 149 232q112 60 384 104q51 9 166 26q0 170 -43 234t-165 64q-89 0 -198 -40t-174 -111q-81 68 -81 133q0 56 77 99.5t181.5 64t209.5 20.5q99 0 173.5 -24.5t131.5 -80.5t86.5 -154t29.5 -238v-320q0 -41 6.5 -61.5t14.5 -25t26 -6.5q31 -3 46 -5.5 t35 -7.5t28.5 -13t8.5 -20q0 -118 -33 -147q-48 8 -125 8q-70 0 -130 -7q-7 5 -17.5 14t-28.5 46t-18 83q-73 -77 -184.5 -120t-226.5 -43q-143 0 -236 76t-93 220zM268 272q0 -121 139 -121q91 0 197 50.5t128 91.5v177q-273 -49 -368.5 -88t-95.5 -110z" />
<glyph unicode="b" horiz-adv-x="1318" d="M28 1366q0 51 11 90t22 45q83 -11 159 -11q45 0 95 5.5t53 5.5q35 0 45.5 -17.5t10.5 -80.5q0 -7 -0.5 -25.5t-0.5 -29.5v-420q49 80 140.5 123.5t186.5 43.5q101 0 195 -36t169.5 -103.5t121 -176.5t45.5 -244t-45 -244.5t-120.5 -177.5t-168.5 -104t-194 -36 q-225 0 -402 168l-100 -100q-54 -48 -104 -48q-40 0 -66 26t-26 65q0 60 56 112l85 78v935q0 53 -30.5 75t-117.5 26q-13 3 -16.5 13t-3.5 43zM423 343q32 -84 122 -141.5t204 -57.5q121 0 209 103.5t88 287.5t-94 287t-223 103q-56 0 -110 -20.5t-98 -59.5t-71 -101.5 t-27 -139.5v-261z" />
<glyph unicode="c" horiz-adv-x="1043" d="M34 545q0 129 48.5 235.5t128.5 174t179.5 104t204.5 36.5q107 0 186.5 -21.5t125 -59.5t67 -84.5t22.5 -101.5q0 -59 -42 -100t-131 -41q-21 0 -25.5 9.5t-8.5 50.5l-15 143q-7 5 -19.5 11.5t-56 18t-91.5 11.5q-152 0 -245.5 -117.5t-93.5 -279.5q0 -175 91 -273 t263 -98q80 0 174.5 34t154.5 87q57 -67 57 -128q0 -50 -59 -93t-151.5 -66.5t-192.5 -23.5q-116 0 -218.5 36.5t-181.5 106t-125 180t-46 249.5z" />
<glyph unicode="d" horiz-adv-x="1316" d="M34 533q0 135 45 244t120.5 176.5t168.5 103.5t194 37h6q197 0 324 -147v262q0 53 -30.5 75t-117.5 26q-13 3 -16.5 13t-3.5 43q0 51 11 90t22 45q83 -11 159 -11q45 0 95 5.5t53 5.5q35 0 45.5 -17.5t10.5 -80.5q0 -7 -0.5 -25.5t-0.5 -29.5v-1097q0 -14 2 -23.5 t8.5 -20t21.5 -16.5t39 -7q94 -4 94 -42q0 -120 -34 -150q-55 8 -119 8q-90 0 -176 -8q-63 29 -63 139v9q-54 -80 -153 -123.5t-204 -43.5q-96 0 -184 36t-159.5 103.5t-114.5 176.5t-43 244zM269 533q0 -184 94 -287t223 -103q56 0 110 20.5t98 59.5t71 101.5t27 139.5v261 q-53 95 -140 148t-180 53q-128 0 -215.5 -100.5t-87.5 -292.5z" />
<glyph unicode="e" horiz-adv-x="1107" d="M34 555q0 126 48 231t127 171.5t176.5 102.5t200.5 36q76 0 146 -19t132 -59.5t108 -99t72.5 -142.5t26.5 -185q0 -46 -23.5 -70.5t-88.5 -24.5h-690q4 -91 32 -157t74 -103.5t101 -55t120 -17.5q91 0 186 32t172 90q57 -67 57 -132q0 -43 -57 -84.5t-154 -68.5t-202 -27 q-86 0 -163.5 17t-152 59.5t-128.5 107.5t-87 167t-33 231zM275 651h594q-9 139 -87.5 211.5t-187.5 72.5q-116 0 -210.5 -77.5t-108.5 -206.5z" />
<glyph unicode="f" horiz-adv-x="920" d="M34 991q0 65 33 77q22 -2 129 -2h33v55q0 99 21 175t55.5 122.5t82.5 76t96.5 40.5t103.5 11q122 0 211 -65t89 -167q0 -70 -45.5 -106t-111.5 -36q-26 0 -35 8t-9 26l-19 169q-52 26 -98 26q-66 0 -96 -51t-30 -131t12 -152h96q96 0 129 3q33 -12 33 -77q0 -86 -50 -86 q-3 2 -34 3.5t-61 1.5h-30h-83v-661q0 -15 1.5 -23.5t7 -19.5t19.5 -16.5t36 -5.5q50 0 86 -12t36 -36q0 -117 -33 -146q-109 8 -256 8q-178 0 -266 -8q-33 30 -33 146q0 24 33 36t79 12q39 0 51 16.5t12 46.5v663h-14q-125 -2 -131 -7q-50 0 -50 86z" />
<glyph unicode="g" horiz-adv-x="1159" d="M39 681q0 78 35 152.5t96 132.5t151 93.5t193 35.5q87 0 147 -15t116 -49q1 1 21 23t37.5 37t46.5 35t66.5 30.5t78.5 10.5q66 0 83 -14.5t17 -57.5v-17q0 -22 -0.5 -36t-5.5 -26.5t-9 -19.5t-17 -13t-23.5 -8.5t-36 -4.5t-46 -2h-60.5q-9 0 -29.5 1t-31.5 1 q68 -46 108 -127t40 -176q0 -159 -127.5 -266t-351.5 -107q-50 0 -97 7.5t-86 18t-40 10.5q-33 -66 -33 -131q0 -31 45 -44t117 -14q48 -1 102 -1h57q4 1 8 1q82 0 165 -10q87 -10 159 -34t117 -81.5t45 -145.5q0 -89 -30 -154.5t-79 -105t-124.5 -63.5t-154 -32.5 t-180.5 -8.5q-188 0 -320.5 42.5t-132.5 113.5q0 146 82 330q-115 39 -115 162q0 118 146 238q-74 55 -111.5 131t-37.5 158zM255 687q0 -94 65.5 -158.5t205.5 -64.5q78 0 135 18.5t88 51t45.5 70t14.5 82.5q0 99 -70.5 170t-208.5 71q-137 0 -206 -69.5t-69 -170.5z M260 -25q0 -43 0.5 -64.5t3 -57t8 -54.5t15.5 -40.5t26 -32.5t38 -15q126 -23 229 -23q84 0 140.5 11.5t86 33.5t41 48.5t11.5 63.5q0 112 -253 112h-195q-108 7 -151 18z" />
<glyph unicode="h" horiz-adv-x="1341" d="M30 1366q0 51 11 90t22 45q83 -11 159 -11q45 0 95 5.5t53 5.5q35 0 45.5 -17.5t10.5 -80.5q0 -7 -0.5 -25.5t-0.5 -29.5v-423q71 75 170 123t212 48q65 0 119.5 -22t100 -68t71.5 -128t26 -193v-407q0 -95 50 -99q8 -1 22.5 -2t23 -2t20.5 -2.5t19 -3t16.5 -4t14.5 -5.5 t10 -7t7 -9.5t2 -12.5q0 -110 -43 -139q-85 8 -166 8q-41 0 -92 -4t-77 -4q-11 0 -17.5 3.5t-11.5 19.5t-5 46v606q0 130 -44.5 190.5t-117.5 60.5q-70 0 -153.5 -42t-156.5 -108v-517q0 -15 1.5 -23.5t7 -19.5t19.5 -16.5t36 -5.5q38 0 65 -12t27 -36q0 -117 -33 -146 q-94 8 -231 8q-145 0 -241 -8q-33 30 -33 146q0 24 27 36t65 12q39 0 51 16.5t12 46.5v960q0 53 -30.5 75t-117.5 26q-13 3 -16.5 13t-3.5 43z" />
<glyph unicode="i" horiz-adv-x="621" d="M38 943q0 51 11 90t22 45q77 -11 149 -11q48 0 101 5.5t56 5.5q35 0 45.5 -17.5t10.5 -80.5v-729q0 -15 1.5 -23.5t7 -19.5t19.5 -16.5t36 -5.5q38 0 65 -12t27 -36q0 -117 -33 -146q-90 8 -220 8q-135 0 -252 -8q-33 30 -33 146q0 24 27 36t65 12q39 0 51 16.5t12 46.5 v537q0 53 -30.5 75t-117.5 26q-13 3 -16.5 13t-3.5 43zM98 1366q0 123 166 123q47 0 79.5 -12t48 -32t21.5 -39t6 -41q0 -45 -28 -74t-59.5 -37.5t-63.5 -8.5q-24 0 -49 4.5t-54.5 16.5t-48 38t-18.5 62z" />
<glyph unicode="j" horiz-adv-x="705" d="M27 -131q0 41 34 65.5t79 24.5q36 0 57 -12t30 -29t17 -34t26.5 -29t51.5 -12q32 0 52.5 16.5t30 51t12.5 71t3 93.5v711q0 53 -32.5 75t-125.5 26q-13 3 -16.5 13t-3.5 43q0 50 11.5 89.5t21.5 45.5q93 -11 179 -11q42 0 88 5.5t49 5.5q35 0 45.5 -17.5t10.5 -80.5v-826 q0 -67 -4.5 -122.5t-16.5 -114t-34.5 -102.5t-55.5 -79.5t-83 -54.5t-114 -19q-51 0 -101.5 10.5t-100 33t-80 65t-30.5 98.5zM312 1366q0 123 166 123q47 0 79.5 -12t48 -32t21.5 -39t6 -41q0 -45 -28 -74t-59.5 -37.5t-63.5 -8.5q-24 0 -49 4.5t-54.5 16.5t-48 38 t-18.5 62z" />
<glyph unicode="k" horiz-adv-x="1301" d="M30 1366q0 51 11 90t22 45q83 -11 159 -11q45 0 95 5.5t53 5.5q35 0 45.5 -17.5t10.5 -80.5q0 -7 -0.5 -25.5t-0.5 -29.5v-679l316 188q51 37 53 41q1 1 1 4q0 5 -11.5 6.5t-26 2.5t-26 15.5t-11.5 43.5q0 81 27 110q67 -13 233 -13q121 0 202 13q32 -14 32 -120 q0 -37 -7 -52t-27 -21t-45.5 -9.5t-73 -22.5t-98.5 -54l-242 -158q255 -318 290 -367q10 -14 25.5 -36.5t20 -27.5t17.5 -14t27 -10.5t40 -1.5q125 0 125 -48q0 -116 -33 -146q-93 8 -215 8q-98 0 -230 -8q-4 20 -11.5 53.5t-11 55t-3.5 36.5q0 37 86 45q-15 24 -50 71 t-111 146.5t-120 157.5l-142 -88v-218q0 -15 1.5 -23.5t7 -19.5t19.5 -16.5t36 -5.5q38 0 65 -12t27 -36q0 -117 -33 -146q-94 8 -234 8q-150 0 -238 -8q-33 30 -33 146q0 24 27 36t65 12q39 0 51 16.5t12 46.5v960q0 53 -30.5 75t-117.5 26q-13 3 -16.5 13t-3.5 43z" />
<glyph unicode="l" horiz-adv-x="613" d="M30 1366q0 51 11 90t22 45q83 -11 159 -11q45 0 95 5.5t53 5.5q35 0 45.5 -17.5t10.5 -80.5v-6q-1 -141 -1 -1146q0 -15 1.5 -23.5t7 -19.5t19.5 -16.5t36 -5.5q38 0 65 -12t27 -36q0 -117 -33 -146q-86 8 -230 8q-154 0 -242 -8q-33 30 -33 146q0 24 27 36t65 12 q39 0 51 16.5t12 46.5v960q0 53 -30.5 75t-117.5 26q-13 3 -16.5 13t-3.5 43z" />
<glyph unicode="m" horiz-adv-x="2029" d="M37 943q0 51 11 90t22 45q77 -11 149 -11q45 0 95 5.5t53 5.5q35 0 45.5 -17.5t10.5 -80.5v-55q72 75 172.5 122.5t198.5 47.5q89 0 161.5 -44t116.5 -136q89 80 199.5 129.5t211.5 49.5q136 0 221 -99t85 -310v-429q0 -65 51 -69q10 -1 27.5 -2t27.5 -2l25 -2.5t24 -3 t20 -4t17.5 -5.5t12.5 -7t8.5 -9.5t2.5 -12.5q0 -117 -33 -147q-117 8 -202 8q-49 0 -101 -4t-72 -4q-35 0 -35 77v598q0 130 -42 190.5t-110 60.5t-150 -40.5t-154 -104.5q5 -45 5 -88v-429q0 -65 50 -69q10 -1 26.5 -2t26 -2t23.5 -2.5t22 -3t18.5 -4t16.5 -5.5t11.5 -7 t8 -9.5t2.5 -12.5q0 -117 -33 -147q-96 8 -176 8q-50 0 -110 -4t-79 -4q-34 0 -34 77v598q0 130 -42 190.5t-110 60.5t-149 -42t-151 -108v-517q0 -14 2 -23.5t8 -20t20.5 -16t36.5 -5.5q38 0 65 -12t27 -36q0 -117 -33 -146q-98 8 -242 8q-155 0 -230 -8q-33 30 -33 146 q0 24 27 36t65 12q35 0 47.5 14t12.5 49v537q0 53 -30.5 75t-117.5 26q-13 3 -16.5 13t-3.5 43z" />
<glyph unicode="n" horiz-adv-x="1352" d="M39 943q0 51 11 90t22 45q66 -11 129 -11q45 0 95 5.5t53 5.5q35 0 45.5 -17.5t10.5 -80.5q0 -7 -0.5 -25.5t-0.5 -29.5q86 76 195 123t210 47q140 0 227 -99t87 -311v-430q0 -65 50 -69q10 -1 26.5 -2t26 -2t23.5 -2.5t22 -3t18.5 -4t16.5 -5.5t11.5 -7t8 -9.5 t2.5 -12.5q0 -116 -33 -146q-97 8 -175 8q-51 0 -111 -4t-79 -4q-34 0 -34 76v599q0 130 -42 190.5t-110 60.5q-70 0 -153.5 -39.5t-156.5 -100.5v-527q0 -15 1.5 -23.5t7 -19.5t19.5 -16.5t36 -5.5q38 0 65 -12t27 -36q0 -117 -33 -146q-61 8 -229 8t-243 -8 q-33 30 -33 146q0 24 27 36t65 12q39 0 51 16.5t12 46.5v537q0 53 -30.5 75t-117.5 26q-13 3 -16.5 13t-3.5 43z" />
<glyph unicode="o" horiz-adv-x="1194" d="M34 535q0 135 48 244t128 176.5t179 103.5t207 36q107 0 206 -36t178.5 -103.5t127.5 -176.5t48 -244t-48 -244.5t-127.5 -177.5t-178.5 -104t-206 -36q-108 0 -207 36t-179 104t-128 177.5t-48 244.5zM268 535q0 -184 97 -287.5t229 -103.5q63 0 121 25t104.5 72.5 t74.5 123.5t28 170t-28 170t-74.5 123t-104.5 72t-121 25q-132 0 -229 -103t-97 -287z" />
<glyph unicode="p" horiz-adv-x="1284" d="M4 943q0 51 11 90t22 45q77 -11 149 -11q45 0 95 5.5t53 5.5q35 0 45.5 -17.5t10.5 -80.5v-72q52 90 147 138.5t197 48.5q99 0 189.5 -36t163.5 -103.5t116.5 -176.5t43.5 -244t-44 -244.5t-117.5 -177.5t-165.5 -104t-192 -36q-199 0 -329 118v-246q0 -15 1.5 -23.5 t7 -19.5t19.5 -16.5t36 -5.5q38 0 65 -12t27 -36q0 -117 -33 -146q-67 15 -226 15q-171 0 -246 -15q-33 30 -33 146q0 24 27 36t65 12q39 0 51 16.5t12 46.5v943q0 53 -30.5 75t-117.5 26q-13 3 -16.5 13t-3.5 43zM399 283q53 -67 138.5 -104t178.5 -37q127 0 211.5 100 t84.5 293q0 185 -91.5 287.5t-219.5 102.5q-120 0 -211 -90.5t-91 -250.5v-301z" />
<glyph unicode="q" horiz-adv-x="1310" d="M34 534q0 135 45 244t120.5 176.5t168.5 103.5t194 37h6q222 -2 396 -167l110 95q49 48 104 48q40 0 66 -26t26 -65q0 -56 -56 -112l-96 -83v-940q0 -15 1.5 -23.5t7 -19.5t19.5 -16.5t36 -5.5q38 0 65 -12t27 -36q0 -117 -33 -146q-67 15 -226 15q-171 0 -246 -15 q-33 30 -33 146q0 24 27 36t65 12q39 0 51 16.5t12 46.5v298q-49 -80 -140 -124t-186 -44q-101 0 -195 36t-169.5 104t-121 177t-45.5 244zM269 534q0 -184 94 -287t223 -103q56 0 109.5 20.5t97.5 59.5t71 101.5t27 139.5v271q-32 80 -121.5 134.5t-203.5 54.5 q-121 0 -209 -103.5t-88 -287.5z" />
<glyph unicode="r" horiz-adv-x="967" d="M38 943q0 51 11 90t22 45q71 -11 139 -11q42 0 88.5 5.5t49.5 5.5q35 0 45 -17.5t10 -80.5v-65q45 72 134 126t170 54q53 0 101 -17.5t83.5 -62.5t35.5 -110q0 -178 -189 -178q-4 0 -8 1t-6.5 3t-4.5 4t-3.5 6t-2.5 7t-2 9.5t-1.5 10.5t-1 11.5t-1.5 12.5l-12 104 q-27 13 -59 13q-58 0 -116.5 -42.5t-86.5 -98.5v-506q0 -15 1.5 -23.5t7 -19.5t19.5 -16.5t36 -5.5q38 0 65 -12t27 -36q0 -48 -16 -95t-47 -62q-70 8 -205 8t-207 -8q-33 15 -48 61.5t-15 95.5q0 24 27 36t65 12q39 0 51 16.5t12 46.5v526q0 53 -30.5 75t-117.5 26 q-13 3 -16.5 13t-3.5 43z" />
<glyph unicode="s" horiz-adv-x="978" d="M32 221q0 143 175 143q28 0 37 -11t9 -42v-136q37 -20 109.5 -31t146.5 -11q88 0 145.5 36.5t57.5 100.5q0 45 -29 80.5t-76 57.5t-107.5 44.5t-123 41.5t-123 48t-107.5 63t-76 89t-29 124q0 89 66 154t161.5 94t204.5 29q448 0 448 -260q0 -16 -5.5 -34t-21 -42 t-52 -39.5t-89.5 -15.5q-10 0 -16.5 2t-10 4.5t-6 9t-3 9.5t-2 13.5t-1.5 14.5l-14 140q-14 14 -86.5 31t-124.5 17q-102 0 -151.5 -38t-49.5 -96q0 -42 36.5 -74t94.5 -54.5t128 -44.5t140 -52.5t128 -69.5t94.5 -103.5t36.5 -147.5q0 -101 -61.5 -167.5t-162.5 -95.5 t-239 -29q-212 0 -331.5 61t-119.5 187z" />
<glyph unicode="t" horiz-adv-x="818" d="M34 988q0 79 50 79h155q4 32 7.5 83.5t6.5 81.5t9.5 71t18 64.5t29.5 46.5t46.5 33.5t67.5 10.5q27 0 42 -9v-382h133q119 0 125 5q50 0 50 -86q0 -65 -33 -77q-33 3 -129 3h-146v-574q0 -166 108 -166q70 0 166 28q30 -57 30 -107q0 -28 -24.5 -48.5t-63.5 -31.5 t-78 -16t-76 -5q-56 0 -104 16t-91.5 52.5t-68.5 106t-25 165.5v580h-43q-118 0 -129 -1q-33 12 -33 77z" />
<glyph unicode="u" horiz-adv-x="1315" d="M-2 932q0 116 33 146q94 -11 173 -11q55 0 112.5 5.5t59.5 5.5q34 0 34 -72v-634q0 -110 57 -165t146 -55q76 0 151.5 40t124.5 109v484q0 95 -50 99q-8 1 -22.5 2t-23 2t-20.5 2.5t-19 3t-16.5 4t-14.5 5.5t-10 7t-7 9.5t-2 12.5q0 117 33 146q94 -11 173 -11 q66 0 134.5 5.5t70.5 5.5q1 0 1 -72v-733q0 -26 1 -37t5.5 -24.5t15 -18t28.5 -8t48 -3.5q45 0 57.5 -11t12.5 -45q0 -50 -11.5 -88.5t-21.5 -45.5q-73 8 -135 8q-41 0 -85.5 -4t-54.5 -4q-40 0 -48.5 24t-8.5 128q-70 -81 -168.5 -126t-200.5 -45q-74 0 -138.5 24.5 t-116.5 72.5t-82 129t-30 185v401q0 95 -50 99q-8 1 -22.5 2t-23 2t-20.5 2.5t-19 3t-16.5 4t-14.5 5.5t-10 7t-7 9.5t-2 12.5z" />
<glyph unicode="v" horiz-adv-x="1331" d="M36 1000q0 63 39 78q96 -11 221 -11q126 0 231 11q22 -23 34 -140v-7q0 -41 -63 -41q-57 0 -57 -38q0 -14 6 -27l227 -550l203 548q5 15 5 27q0 38 -46 38q-53 0 -53 41v7q12 119 34 142q93 -11 211 -11q125 0 221 11q39 -19 39 -95q0 -23 -7 -47q-5 -24 -34.5 -36 t-66.5 -12q-12 0 -21.5 -1.5t-16.5 -6t-11.5 -7t-9.5 -11t-6.5 -11t-5.5 -13.5t-5 -13l-240 -583q-8 -20 -22 -55.5t-21 -53t-19.5 -43.5t-23 -38.5t-26 -26.5t-34 -19.5t-41.5 -5.5q-30 0 -52.5 7.5t-36.5 17.5t-28 34.5t-22.5 45t-25.5 63t-31 74.5l-261 585q-1 3 -6 15 t-7 15.5t-8.5 12t-13 11.5t-17 6t-24.5 3q-37 0 -66.5 12t-34.5 36q-7 33 -7 62z" />
<glyph unicode="w" horiz-adv-x="1831" d="M36 997q0 66 35 83q72 -12 195 -13q135 0 221 13q22 -23 34 -145v-7q0 -41 -63 -41q-57 0 -57 -35q0 -14 6 -27l207 -570l173 570q5 15 5 27q0 35 -66 35q-53 0 -53 41v7q0 2 0.5 6t0.5 6q7 114 13 133q114 -12 231 -13q106 0 196 13q34 -16 34 -83q0 -29 -7 -62 q-3 -24 -23.5 -36t-47.5 -12q-23 0 -38 -7.5t-20.5 -15.5t-12.5 -24q45 -113 126.5 -328.5t97.5 -256.5l173 570q5 15 5 27q0 35 -46 35q-53 0 -53 41v7q15 123 34 145q90 -12 191 -13q121 0 232 13q28 -15 28 -80q0 -30 -7 -65q-5 -24 -34.5 -36t-66.5 -12q-10 0 -19 -1.5 t-15 -3.5t-11.5 -6.5t-8.5 -7t-7 -9.5t-5.5 -10t-5 -11.5t-4.5 -10.5l-210 -585q-7 -18 -19.5 -55t-18.5 -53t-17.5 -43t-21 -39.5t-23.5 -26.5t-30.5 -19.5t-36.5 -5.5q-30 0 -52.5 7.5t-36.5 17t-28.5 35t-22.5 44.5t-25.5 63t-30.5 75l-140 355l-106 -355 q-7 -18 -19.5 -55t-18.5 -53t-17.5 -43t-21 -39.5t-23.5 -26.5t-30.5 -19.5t-36.5 -5.5q-23 0 -41 4t-31.5 9.5t-26 19t-20.5 24.5t-18.5 34.5t-17 40.5t-19.5 51.5t-22 58.5l-234 593q-7 18 -12 26.5t-20.5 17t-40.5 8.5q-27 0 -48 12t-23 36q-7 27 -7 62z" />
<glyph unicode="x" horiz-adv-x="1213" d="M42 90q0 48 20.5 68.5t64.5 20.5q12 0 22.5 1.5t19 3t17 5t14 6t13 8t10.5 7.5t9.5 9t8 8.5t7 8.5t6.5 8l250 291l-231 292q-29 36 -48 47q-28 16 -68 16q-50 0 -71.5 24.5t-21.5 85.5q0 76 39 95q81 -26 206 -26q130 0 224 26q12 -15 23.5 -69.5t11.5 -94.5 q0 -19 -12.5 -28.5t-28 -10t-28 -6.5t-12.5 -21q0 -20 16 -40l120 -152l130 152q16 20 16 40q0 15 -12.5 21t-28 6.5t-28 10t-12.5 28.5q0 40 11.5 94.5t23.5 69.5q83 -26 186 -26q125 0 206 26q39 -19 39 -95q0 -61 -21.5 -85.5t-71.5 -24.5q-30 0 -53.5 -10t-33.5 -20 t-25 -28q-1 -1 -2 -2.5t-2 -2.5l-230 -270l249 -313q1 -1 6.5 -8t7 -8.5t8 -8.5t9.5 -9t10.5 -7.5t13 -8t14 -6t17 -5t19 -3t22.5 -1.5q44 0 64.5 -20.5t20.5 -68.5q0 -35 -10 -68t-26 -48q-95 26 -203 26q-136 0 -231 -26q-16 14 -30 69t-14 95q0 18 14.5 27t32.5 10.5 t32.5 6.5t14.5 15q1 17 -21 45l-139 176l-150 -176q-22 -28 -21 -45q0 -10 14.5 -15t32.5 -6.5t32.5 -10.5t14.5 -27q0 -40 -14 -95t-30 -69q-90 26 -196 26t-201 -26q-16 15 -26 48t-10 68z" />
<glyph unicode="y" horiz-adv-x="1380" d="M35 1000q0 77 39 95q91 -26 221 -26q132 0 231 26q19 -23 34 -157v-7q0 -21 -19 -31t-41 -11t-41 -9.5t-19 -27.5q0 -16 6 -27l257 -572l223 572q5 15 5 27q0 19 -15.5 28t-34 10t-34 10.5t-15.5 30.5v7q15 134 34 157q98 -26 211 -26q120 0 221 26q39 -18 39 -95 q0 -61 -24 -85.5t-84 -24.5q-14 0 -25 -3t-17.5 -6t-12.5 -11t-8 -12.5t-6.5 -15.5t-6.5 -15l-400 -922q-59 -131 -140.5 -191.5t-199.5 -60.5q-94 0 -162 36.5t-68 82.5q0 59 10 79.5t36 20.5q10 0 69.5 -14.5t110.5 -14.5q23 0 36 1.5t27 10.5t21 17t22 34t25 48.5 t34.5 73t46.5 95.5q-37 0 -55 6.5t-27 27.5l-320 670q-1 3 -6 15t-7 15.5t-8.5 12t-13 11.5t-17 6t-24.5 3q-60 0 -84 24.5t-24 85.5z" />
<glyph unicode="z" horiz-adv-x="1009" d="M40 757q0 143 60 326q47 -2 138.5 -6.5t159 -6.5t136.5 -2q160 0 355 15q38 -4 50.5 -28.5t12.5 -78.5q0 -23 -19.5 -58.5t-41.5 -64.5t-78 -99l-363 -453l-131 -158h353q18 0 34 13.5t30.5 41.5t25 54t26 69.5t26.5 68.5q4 0 13.5 0.5t15.5 0.5q135 0 135 -51 q0 -58 -31 -180.5t-52 -174.5q-273 15 -426 15q-171 0 -336 -12q-2 -1 -12 -1q-78 0 -78 139q0 34 15 64t51 74q351 426 542 664h-354q-19 0 -41 -48.5t-35.5 -97t-14.5 -48.5q-166 0 -166 23z" />
<glyph unicode="{" horiz-adv-x="756" d="M35 685q0 40 15.5 70t41.5 30t45 4.5t32.5 10t22 20t13 25.5t6.5 37t2.5 43t0.5 54q0 128 17.5 232.5t46 173t66 115t76.5 66.5t79 20q95 0 162 -31.5t67 -78.5q0 -42 -23 -58t-63 -16q-16 0 -45 7t-38 7q-46 0 -68 -27t-33 -109t-11 -251q0 -64 -6 -114.5t-22.5 -100.5 t-49.5 -83.5t-81 -46.5q48 -13 81 -47t49.5 -84t22.5 -100.5t6 -113.5q0 -169 11 -251t33 -109t68 -27q9 0 38 6.5t45 6.5q41 0 63.5 -15.5t22.5 -57.5q0 -47 -66.5 -78.5t-162.5 -31.5q-40 0 -79 20t-76.5 66.5t-66 115t-46 173t-17.5 232.5q0 37 -0.5 54t-2.5 43t-6.5 37 t-13 25.5t-22 20t-32.5 10t-45 4.5t-41.5 30.5t-15.5 71.5z" />
<glyph unicode="|" horiz-adv-x="420" d="M94 -85v1653q0 40 30.5 54t104.5 14q54 0 75 -9.5t21 -41.5v-1648q0 -33 -8.5 -54t-27 -29.5t-35 -11t-45.5 -2.5q-20 0 -32.5 0.5t-30 4.5t-27.5 12t-17.5 22.5t-7.5 35.5z" />
<glyph unicode="}" horiz-adv-x="755" d="M28 -108q0 42 22.5 57.5t63.5 15.5q16 0 45 -6.5t38 -6.5q46 0 68 27t33 109t11 251q0 63 6 113.5t22.5 100.5t49.5 84t81 47q-48 13 -81 46.5t-49.5 83.5t-22.5 100.5t-6 114.5q0 169 -11 251t-33 109t-68 27q-9 0 -38 -7t-45 -7q-40 0 -63 16t-23 58q0 47 67 78.5 t162 31.5q40 0 79 -20t76.5 -66.5t66 -115t46 -173t17.5 -232.5q0 -37 0.5 -54t2.5 -43t6.5 -37t13 -25.5t22 -20t32.5 -10t45 -4.5t41.5 -30t15.5 -70q0 -41 -15.5 -71.5t-41.5 -30.5t-45 -4.5t-32.5 -10t-22 -20t-13 -25.5t-6.5 -37t-2.5 -43t-0.5 -54 q0 -128 -17.5 -232.5t-46 -173t-66 -115t-76.5 -66.5t-79 -20q-96 0 -162.5 31.5t-66.5 78.5z" />
<glyph unicode="~" horiz-adv-x="964" d="M43 758l3 28q9 87 51 142t124 55q77 0 181 -24t189.5 -48t118.5 -24q42 0 48 73q21 3 45 3q46 0 118 -18l-2 -25q-7 -89 -47 -142.5t-110 -53.5q-91 0 -278 45.5t-228 45.5q-23 0 -33 -18t-15 -58q-5 -8 -47 -8q-36 0 -77 8.5t-41 18.5z" />
<glyph unicode="&#xa1;" horiz-adv-x="440" d="M44 1350q0 68 46 115.5t135 47.5q87 0 131 -48t44 -115q0 -68 -44 -115.5t-131 -47.5q-89 0 -135 47t-46 116zM64 49q0 17 12 154.5t28.5 330t24.5 301.5q3 35 4.5 71.5t2.5 56.5t2 41t4 30t7.5 18.5t13.5 12.5t20 4.5t30 1.5q18 0 29 -1.5t19.5 -4.5t12.5 -12.5t6.5 -19 t3.5 -30t1.5 -40.5t2 -56.5t4.5 -71.5q8 -110 25.5 -301.5t30 -329.5t12.5 -155q0 -42 -21.5 -60t-68.5 -18h-116q-47 0 -68.5 18t-21.5 60z" />
<glyph unicode="&#xa2;" horiz-adv-x="1063" d="M50 545q0 191 111 320.5t281 176.5q-2 320 -5 331q0 33 79 33q51 0 58 -21q-8 -104 -8 -145v-177q30 2 45 2q35 0 51 -1q-2 293 -5 309q0 33 79 33q51 0 58 -21q-8 -104 -8 -145v-194q116 -28 170.5 -94t54.5 -154q0 -50 -39.5 -90.5t-120.5 -40.5q-41 0 -51 10t-10 50 v133q-7 5 -19.5 11.5t-56 18t-91.5 11.5q-152 0 -245.5 -109t-93.5 -258q0 -156 91 -243.5t263 -87.5q80 0 174.5 34t154.5 87q57 -66 57 -128q0 -54 -67 -98t-171 -67v-292q-1 -3 -2.5 -16t-3.5 -14t-10.5 -6.5t-25 -6t-45.5 -0.5q-21 0 -31.5 8.5t-10.5 33.5q0 54 -2 276 q-11 -1 -34 -1q-19 0 -55 2v-276q-1 -3 -2.5 -16t-3.5 -14t-10.5 -6.5t-25 -6t-45.5 -0.5q-21 0 -31.5 8.5t-10.5 33.5q0 57 -2 299q-174 47 -279.5 177t-105.5 331z" />
<glyph unicode="&#xa3;" horiz-adv-x="1177" d="M42 758q0 71 36 85q26 -2 143 -2h21v93q0 134 25.5 237t66.5 166.5t98.5 104t114.5 55.5t122 15q158 0 254 -145q-10 52 -10 85q0 28 21 37t77 9l57 -8q42 -238 42 -396q0 -19 -53 -31t-103 -12q-46 140 -118.5 220t-143.5 80q-103 0 -161 -95.5t-58 -286.5 q0 -19 -0.5 -61t-0.5 -66h90q104 0 143 3q36 -14 36 -85q0 -95 -55 -95q-16 6 -213 6v-471q0 -36 32 -36q74 0 129 3.5t96 13t69 20.5t48.5 31.5t33 40t24.5 52.5t21 62.5t24.5 75.5t32.5 87q13 7 39 7q38 0 75.5 -27.5t37.5 -63.5q-4 -33 -19.5 -95.5t-30 -114.5 t-36.5 -128t-28 -97q-12 -42 -35 -42q-3 0 -29 1t-72 2.5t-105.5 3.5t-143.5 3t-172 1q-282 0 -344 -11q-27 16 -40 64t-13 99q0 24 33 36t79 12q39 0 51 16.5t12 46.5v408q-137 -4 -145 -8q-55 0 -55 95z" />
<glyph unicode="&#xa4;" horiz-adv-x="1026" d="M44 651q0 3 4 9t12.5 15t17.5 18l25 25l29 29l81 82q-62 89 -62 205q0 120 65 210l-23 24q-126 124 -136 128q-11 10 -11 26q0 23 32 58t57 35q4 0 10 -3.5t15.5 -12t17.5 -17t24.5 -25.5t29.5 -30l90 -90q81 47 190 47q108 0 192 -46l90 89q14 13 29 29t24 25l18 18 t15 12.5t10 3.5q25 0 57 -34.5t32 -58.5q0 -17 -11 -26q-4 -2 -38 -34t-66 -63l-31 -31l-22 -22q70 -92 70 -212q0 -117 -67 -208l80 -79l21 -21t19.5 -19t16 -16t13.5 -14.5t9.5 -11t6.5 -9t2 -5.5q0 -26 -35 -58t-58 -32q-15 0 -26 11q-1 3 -21 25t-40 43l-19 20l-73 74 q-84 -49 -198 -49q-115 0 -196 50l-73 -75q-78 -82 -80 -88q-11 -11 -26 -11q-23 0 -58 32t-35 58zM298 1034q0 -110 63 -170t151 -60q89 0 153.5 61t64.5 169q0 109 -65 170.5t-153 61.5t-151 -61.5t-63 -170.5z" />
<glyph unicode="&#xa5;" horiz-adv-x="1524" d="M34 1481q0 19 9 24q126 -8 282 -8q154 0 255 8q3 -9 25 -168q0 -1 0.5 -3t0.5 -3q0 -19 -33 -25.5t-65.5 -11t-32.5 -20.5q0 -10 18 -42l244 -425q28 -46 33 -49q7 2 32 49q168 296 245 425q18 30 18 42q0 16 -33 20.5t-65.5 11t-32.5 25.5q0 1 0.5 3t0.5 3 q22 159 25 168q94 -8 235 -8q156 0 282 8q9 -5 9 -24q0 -10 -3 -22v-15q0 -10 0.5 -32t0.5 -33q0 -12 -2 -34q-14 -24 -50 -36t-78 -12q-65 0 -101 -63l-310 -528h151q96 0 116 2q29 -11 29 -69q0 -56 -44 -56q-4 2 -50 3t-90 1h-44h-135v-99h194q94 0 116 2q29 -10 29 -59 q0 -66 -45 -66q-4 2 -49.5 3t-89.5 1h-44h-112v-104q0 -15 1.5 -23.5t7 -19.5t19.5 -16.5t36 -5.5q46 0 79 -12t33 -36q0 -133 -33 -163q-150 11 -257 11q-102 0 -249 -11q-22 16 -32.5 64t-10.5 99q0 24 33 36t79 12q39 0 51 16.5t12 46.5v106q-318 -4 -323 -6 q-45 0 -45 67q0 48 29 59q33 -3 116 -3h39.5t84.5 0.5t99 0.5v100q-330 0 -348 -6q-44 0 -44 57t29 69q33 -3 116 -3h32t68 0.5t81 0.5l-311 529q-38 63 -101 63q-42 0 -78 12t-50 36q0 21 -2 69t-2 67z" />
<glyph unicode="&#xa6;" horiz-adv-x="408" d="M88 -84v636q0 40 30.5 54t104.5 14q54 0 75 -9.5t21 -41.5v-631q0 -33 -8.5 -54t-27 -29.5t-35 -11t-45.5 -2.5q-20 0 -32.5 0.5t-30 4.5t-27.5 12t-17.5 22.5t-7.5 35.5zM88 932v636q0 40 30.5 54t104.5 14q54 0 75 -9.5t21 -41.5v-631q0 -33 -8.5 -54t-27 -29.5 t-35 -11t-45.5 -2.5q-20 0 -32.5 0.5t-30 4.5t-27.5 12t-17.5 22.5t-7.5 35.5z" />
<glyph unicode="&#xa7;" horiz-adv-x="1036" d="M49 85q0 13 3.5 25t15 28.5t40 26.5t71.5 10q18 0 31.5 0.5t15.5 0.5q71 0 93 -21t32 -102q6 -22 69 -34.5t114 -12.5q27 0 55.5 5t62.5 18t55.5 42t21.5 71q0 33 -11.5 56.5t-46.5 51t-104.5 56.5t-180.5 63q-169 52 -248.5 129.5t-79.5 191.5q0 75 39.5 126t91.5 77 q-109 87 -109 215q0 122 120.5 200t335.5 78q117 0 204 -18t135 -49t70.5 -67.5t22.5 -78.5q0 -15 -2.5 -25t-11.5 -25.5t-33.5 -26t-62.5 -14.5q-22 -2 -51 -2q-27 0 -45 3.5t-29 7t-20 18t-12.5 22t-12 34t-13.5 41.5q-5 14 -48 22t-87 8q-56 0 -97.5 -10.5t-63 -25 t-34 -34.5t-15.5 -34t-3 -30q0 -26 14 -48t34 -37t56.5 -31.5t67 -27t82 -27.5t85.5 -30q160 -60 239.5 -141.5t79.5 -203.5q0 -134 -103 -211q43 -48 62 -92.5t19 -115.5q0 -292 -457 -292q-119 0 -221.5 27.5t-169 83.5t-66.5 129zM306 688q0 -43 32 -77.5t130 -67.5 q196 -67 231 -83q52 36 52 101q0 99 -136 153q-78 30 -128.5 48t-74.5 25.5t-26 8.5q-8 0 -25.5 -11t-36 -38t-18.5 -59z" />
<glyph unicode="&#xa8;" horiz-adv-x="975" d="M43 1372q0 57 38.5 96.5t113.5 39.5q73 0 110 -40t37 -96t-37 -96t-110 -40q-75 0 -113.5 39.5t-38.5 96.5zM633 1372q0 57 38.5 96.5t113.5 39.5q73 0 110 -39.5t37 -96.5q0 -56 -37 -96t-110 -40q-75 0 -113.5 39.5t-38.5 96.5z" />
<glyph unicode="&#xa9;" horiz-adv-x="1690" d="M49 748q0 235 105 410.5t288 266.5t417 91q173 0 320 -58t248 -159t157.5 -240.5t56.5 -300.5q0 -223 -106 -404t-286 -281t-397 -100q-159 0 -303 52.5t-256 148.5t-178 245t-66 329zM218 750q0 -148 52.5 -271t141 -202.5t202 -122.5t239.5 -43q171 0 313.5 82.5 t226.5 231.5t84 333q0 178 -76 319.5t-217.5 223t-324.5 81.5q-185 0 -329.5 -74.5t-228 -219.5t-83.5 -338zM417 761q0 64 16.5 125t51 115t83.5 94t119 63.5t152 23.5q146 0 203 -111q-3 58 -4 78q0 17 10 21.5t44 4.5q48 0 64 -11.5t22 -58.5q20 -129 20 -148 q0 -37 -10.5 -46t-49.5 -12q-41 -2 -45 -2q-21 0 -40 30q-42 59 -98 90.5t-113 31.5q-99 0 -166.5 -71.5t-67.5 -201.5q0 -144 71.5 -226.5t203.5 -82.5q166 0 319 140q21 -39 21 -79q0 -23 -23.5 -56.5t-64.5 -67.5t-110.5 -58t-149.5 -24q-113 0 -202.5 37.5t-144 100.5 t-83 140t-28.5 161z" />
<glyph unicode="&#xaa;" horiz-adv-x="886" d="M46 913q0 46 17 81t49 60t78 43.5t102.5 31.5t123.5 24t141 22h3q0 123 -31 169.5t-120 46.5q-66 0 -147.5 -29t-129.5 -80q-59 50 -59 96q0 41 57 72.5t134.5 46t155.5 14.5q72 0 126 -18t95 -58.5t62.5 -111.5t21.5 -172v-232q0 -30 4.5 -44.5t10.5 -17.5t19 -5 q23 -3 33.5 -4.5t25.5 -5t21 -9t6 -14.5q0 -86 -24 -107q-36 6 -91 6t-94 -5q-5 3 -12.5 10t-20.5 34t-13 60q-55 -56 -138 -87.5t-168 -31.5q-103 0 -170.5 55t-67.5 160zM217 915q0 -88 100 -88q68 0 147.5 36.5t96.5 66.5v129q-202 -36 -273 -64.5t-71 -79.5z" />
<glyph unicode="&#xab;" horiz-adv-x="1297" d="M37 534q0 40 134.5 171.5t268.5 243.5l135 112q11 8 21 8q22 0 71.5 -60t49.5 -94q0 -16 -13 -29l-398 -352l408 -352q13 -13 13 -29q0 -34 -53.5 -94t-77.5 -60q-10 0 -21 8q-11 9 -30.5 25t-75.5 63.5t-106.5 91.5t-113 101.5t-107 103t-75 85t-30.5 57.5zM569 534 q0 40 134.5 171.5t268.5 243.5l135 112q11 8 21 8q22 0 71.5 -60t49.5 -94q0 -16 -13 -29l-398 -352l408 -352q13 -13 13 -29q0 -34 -53.5 -94t-77.5 -60q-10 0 -21 8q-11 9 -30.5 25t-75.5 63.5t-106.5 91.5t-113 101.5t-107 103t-75 85t-30.5 57.5z" />
<glyph unicode="&#xac;" horiz-adv-x="1116" d="M55 809q0 71 36 85q26 -2 143 -2h202t349 0.5t172 0.5q25 0 36 -1t24 -6t17 -17.5t4 -33.5v-116q2 -88 2 -161t0.5 -101t2.5 -53q-14 -36 -85 -36q-95 0 -95 55q5 22 5 227v71q-113 1 -613 1q-138 -4 -145 -8q-55 0 -55 95z" />
<glyph unicode="&#xad;" horiz-adv-x="86" />
<glyph unicode="&#xae;" horiz-adv-x="1690" d="M49 748q0 235 105 410.5t288 266.5t417 91q173 0 320 -58t248 -159t157.5 -240.5t56.5 -300.5q0 -223 -106 -404t-286 -281t-397 -100q-159 0 -303 52.5t-256 148.5t-178 245t-66 329zM218 750q0 -148 52.5 -271t141 -202.5t202 -122.5t239.5 -43q171 0 313.5 82.5 t226.5 231.5t84 333q0 178 -76 319.5t-217.5 223t-324.5 81.5q-185 0 -329.5 -74.5t-228 -219.5t-83.5 -338zM521 356v813q225 9 346 9q33 0 55 -0.5t59 -5t62.5 -12.5t55.5 -24t48.5 -38t31 -56.5t12.5 -78.5q0 -151 -129 -189q42 -9 70.5 -23t46 -37t26.5 -44t11.5 -60 t2 -69.5t-1.5 -86.5t0 -98h-152v175q0 121 -27 156t-129 35h-226v-366h-162zM680 816q136 -2 226 -2q77 0 110.5 28t33.5 107q0 119 -132 119l-238 -3v-249z" />
<glyph unicode="&#xaf;" horiz-adv-x="822" d="M66 1315q0 77 46 77h587q26 0 37 -13.5t11 -51.5q0 -84 -47 -84h-596q-38 0 -38 72z" />
<glyph unicode="&#xb0;" horiz-adv-x="742" d="M44 1214q0 57 20.5 109.5t59 95.5t101.5 68.5t140 25.5q152 0 238 -89t86 -210t-85.5 -209.5t-238.5 -88.5q-102 0 -177 44t-109.5 110.5t-34.5 143.5zM175 1214q0 -94 56 -145.5t134 -51.5t135.5 52t57.5 145q0 94 -57.5 146t-135.5 52t-134 -52.5t-56 -145.5z" />
<glyph unicode="&#xb1;" horiz-adv-x="944" d="M45 747q0 71 36 85q39 -3 143 -3h159v14q-1 254 -6 267q0 25 26.5 40.5t78.5 15.5q69 0 85 -37q-3 -39 -3 -143v-156q84 1 157 1q104 0 143 3q36 -14 36 -85q0 -105 -55 -105q-6 2 -72.5 3.5t-130.5 2.5h-64h-13q1 -74 1 -234q0 -37 3 -69q-16 -37 -85 -37 q-105 0 -105 55q2 6 3.5 73t1.5 130l1 64v16h-18q-254 -1 -267 -6q-55 0 -55 105zM85 88q0 71 36 85q39 -3 143 -3q139 2 277.5 2.5t204 1t78.5 1.5q36 -14 36 -85q0 -95 -55 -95q-5 2 -61.5 3.5t-111.5 1.5l-54 1h-13q-412 -3 -425 -8q-55 0 -55 95z" />
<glyph unicode="&#xb2;" horiz-adv-x="899" d="M43 1155q0 30 22.5 137.5t36.5 149.5q54 27 140.5 44t184.5 17q62 0 117.5 -9t106.5 -29.5t87.5 -51.5t58.5 -78.5t22 -106.5q0 -113 -109.5 -247.5t-423.5 -427.5h220q38 0 66 7.5t44 18t28.5 30.5t18 36.5t14.5 44t16 45.5q19 15 46 15q20 0 49.5 -6.5t48.5 -13.5 l19 -6q0 -36 -33.5 -148.5t-48.5 -133.5q-41 -33 -303 -33h-353q-17 13 -33.5 64.5t-18.5 100.5q37 44 113 118t147.5 143.5t141 143t112 139.5t42.5 110q0 66 -48 100t-120 34q-129 0 -183 -51.5t-82 -194.5q-42 0 -94 12.5t-52 26.5z" />
<glyph unicode="&#xb3;" horiz-adv-x="936" d="M46 1202q12 125 44 227l11 36q171 43 333 43q97 0 170.5 -22.5t116 -61t63 -84t20.5 -95.5q0 -76 -52 -141.5t-134 -92.5q122 -20 197.5 -93t75.5 -167q0 -161 -116 -245.5t-300 -84.5q-167 0 -355 32l-4 12q0 7 -8 27q-32 108 -43 215q0 7 41.5 16.5t65.5 9.5 q17 0 18 -6q22 -89 95.5 -135t166.5 -46q59 0 113.5 20t94 66.5t39.5 110.5q0 42 -12 73.5t-36 51.5t-51.5 32.5t-67.5 19t-74.5 8.5t-80.5 2q-22 0 -64 -2t-58 -2h-8q-12 5 -12 67q0 53 20 73q17 -1 129 -1t172.5 53t60.5 125q0 61 -49 106t-133 45q-45 0 -84.5 -10.5 t-77 -33.5t-64.5 -66t-38 -102q-3 -6 -17 -6q-24 0 -66 9.5t-42 16.5z" />
<glyph unicode="&#xb4;" horiz-adv-x="656" d="M43 1149q143 210 252 383q34 54 68 73.5t103 19.5q80 0 113.5 -14.5t33.5 -46.5q0 -14 -13.5 -29t-48.5 -46t-56 -51q-35 -34 -148.5 -131.5t-192.5 -157.5h-111z" />
<glyph unicode="&#xb5;" horiz-adv-x="1341" d="M30 949q0 118 33 147q99 -16 173 -16q55 0 112.5 7.5t59.5 7.5q34 0 34 -76v-647q0 -110 57 -165t146 -55q73 0 147 40t122 109v501q0 95 -50 99q-8 1 -22.5 2t-23 2t-20.5 2.5t-19 3t-16.5 4t-14.5 5.5t-10 7t-7 9.5t-2 12.5q0 118 33 147q99 -16 173 -16 q55 0 112.5 7.5t59.5 7.5q34 0 34 -76v-746q0 -26 1 -37t5.5 -24.5t15 -18t28.5 -8t48 -3.5q45 0 57.5 -11t12.5 -45q0 -50 -11.5 -88.5t-21.5 -45.5q-73 8 -135 8q-41 0 -85.5 -4t-54.5 -4q-40 0 -48.5 24t-8.5 128q-67 -81 -164.5 -126t-197.5 -45q-75 0 -140 25v-93 q0 -15 1.5 -23.5t7 -19.5t19.5 -16.5t36 -5.5q38 0 65 -12t27 -36q0 -117 -33 -146q-90 8 -220 8q-135 0 -252 -8q-33 30 -33 146q0 24 27 36t65 12q39 0 51 16.5t12 46.5v899q0 95 -50 99q-8 1 -22.5 2t-23 2t-20.5 2.5t-19 3t-16.5 4t-14.5 5.5t-10 7t-7 9.5t-2 12.5z" />
<glyph unicode="&#xb6;" horiz-adv-x="1276" d="M33 1241q0 64 27 120t83 103.5t155 74.5t231 27q12 0 52 -3t140 -6t259 -3q20 0 206 12q7 0 20 -17t25.5 -58.5t12.5 -93.5q0 -21 -14.5 -31t-36.5 -10.5t-47 -5t-47 -12.5t-36.5 -35t-14.5 -71v-515q0 -151 0.5 -248.5t2.5 -172t4.5 -113.5t8 -63.5t11.5 -31.5t16 -9 q28 -3 42.5 -5.5t35 -9.5t29.5 -20t9 -32q0 -46 -20 -94t-58 -60q-65 17 -129 17q-44 0 -104 1.5t-66 1.5q-10 0 -10 360v150.5t0.5 353t0.5 590.5q0 5 -94 5h-16.5t-16.5 -0.5t-14.5 -1.5t-4.5 -3v-615q0 -227 1.5 -477t1.5 -288q0 -79 -26 -79q-5 0 -32.5 1t-48.5 1 q-103 0 -202 -17q-38 12 -58 60t-20 94q0 19 9 32t29.5 20t35 9.5t42.5 5.5q20 4 28 40q13 63 15 465q0 83 1 294v9q-228 0 -323 86.5t-95 267.5z" />
<glyph unicode="&#xb7;" horiz-adv-x="442" d="M43 932q0 69 46 116t135 47q87 0 131 -47.5t44 -115.5q0 -67 -44 -115t-131 -48q-89 0 -135 47.5t-46 115.5z" />
<glyph unicode="&#xb8;" horiz-adv-x="464" d="M43 -480l21 108q38 -12 83 -12q71 0 109.5 30t38.5 73q0 52 -52.5 91.5t-144.5 39.5v161h104v-96q106 -18 162.5 -77t56.5 -132q0 -81 -69 -141t-189 -60q-63 0 -120 15z" />
<glyph unicode="&#xb9;" horiz-adv-x="515" d="M52 519q0 19 25 29t60 10q25 0 33 10.5t8 30.5v696q0 20 -8 31t-33 11q-85 0 -85 39q0 79 18 119q81 -6 140 -6q64 0 121 6q22 0 22 -21v-874q0 -9 1 -15t4.5 -13t13 -10.5t24.5 -3.5q34 0 59 -10t25 -29q0 -95 -34 -120q-69 6 -179 6q-103 0 -172 -6q-43 23 -43 120z " />
<glyph unicode="&#xba;" horiz-adv-x="906" d="M42 1106q0 98 34.5 177t92.5 127.5t129.5 74.5t149.5 26t149.5 -26t129.5 -74.5t92.5 -127.5t34.5 -177t-34.5 -177t-92.5 -128.5t-129.5 -75.5t-149.5 -26t-149.5 26t-129.5 75.5t-92.5 128.5t-34.5 177zM212 1106q0 -133 70 -208t166 -75t166 75t70 208t-70 207.5 t-166 74.5t-166 -74.5t-70 -207.5z" />
<glyph unicode="&#xbb;" horiz-adv-x="1292" d="M37 153q0 16 13 29l408 352l-398 352q-13 13 -13 29q0 34 49.5 94t71.5 60q10 0 21 -8q11 -9 30.5 -25t75.5 -63.5t106.5 -91.5t113 -101.5t107 -103t75 -85t30.5 -57.5q0 -40 -134.5 -171.5t-268.5 -243.5l-135 -112q-11 -8 -21 -8q-24 0 -77.5 60t-53.5 94zM569 153 q0 16 13 29l408 352l-398 352q-13 13 -13 29q0 34 49.5 94t71.5 60q10 0 21 -8q11 -9 30.5 -25t75.5 -63.5t106.5 -91.5t113 -101.5t107 -103t75 -85t30.5 -57.5q0 -40 -134.5 -171.5t-268.5 -243.5l-135 -112q-11 -8 -21 -8q-24 0 -77.5 60t-53.5 94z" />
<glyph unicode="&#xbc;" horiz-adv-x="2073" d="M46 519q0 19 25 29t60 10q25 0 33 10.5t8 30.5v696q0 20 -8 31t-33 11q-85 0 -85 39q0 79 18 119q81 -6 140 -6q64 0 121 6q22 0 22 -21v-874q0 -9 1 -15t4.5 -13t13 -10.5t24.5 -3.5q34 0 59 -10t25 -29q0 -95 -34 -120q-69 6 -179 6q-103 0 -172 -6q-43 23 -43 120z M486 43q0 30 19 64q74 127 226 404.5t330 607t209 386.5q37 68 109 68q32 0 55 -22.5t23 -59.5q0 -32 -20 -66q-175 -310 -767 -1399q-39 -73 -108 -73q-35 0 -55.5 24.5t-20.5 65.5zM1199 511q0 15 9 35q133 218 361 516q25 32 123 32q9 0 32.5 -0.5t40.5 -0.5q68 0 68 -52 q0 -51 -1 -165t-1 -177v-219q0 -7 6 -7q35 0 85 0.5t64 0.5q56 0 62 -34q-1 -48 -26 -84q-8 -14 -34 -17t-99 -3h-58v-140q0 -15 1.5 -23t12.5 -16.5t33 -8.5q33 0 57.5 -9t24.5 -26q0 -95 -32 -118q-70 6 -181 6q-105 0 -176 -6q-20 12 -29.5 46.5t-9.5 71.5q0 17 24.5 26 t58.5 9q28 0 37 12t9 34v142h-220q-144 0 -177 17q-30 25 -47.5 79.5t-17.5 78.5zM1365 484q0 -16 179 -16q81 0 116 2q1 32 1 133v173q0 145 1 182q-8 -12 -46.5 -73.5t-60.5 -94.5q-53 -71 -181 -284q-9 -16 -9 -22z" />
<glyph unicode="&#xbd;" horiz-adv-x="2297" d="M46 519q0 19 25 29t60 10q25 0 33 10.5t8 30.5v696q0 20 -8 31t-33 11q-85 0 -85 39q0 79 18 119q81 -6 140 -6q64 0 121 6q22 0 22 -21v-874q0 -9 1 -15t4.5 -13t13 -10.5t24.5 -3.5q34 0 59 -10t25 -29q0 -95 -34 -120q-69 6 -179 6q-103 0 -172 -6q-43 23 -43 120z M516 43q0 30 19 64q74 127 226 404.5t330 607t209 386.5q37 68 109 68q32 0 55 -22.5t23 -59.5q0 -32 -20 -66q-175 -310 -767 -1399q-39 -73 -108 -73q-35 0 -55.5 24.5t-20.5 65.5zM1453 739q0 30 22.5 137.5t36.5 149.5q54 27 140.5 44t184.5 17q62 0 117.5 -9 t106.5 -29.5t87.5 -51.5t58.5 -78.5t22 -106.5q0 -113 -109.5 -247.5t-423.5 -427.5h220q38 0 66 7.5t44 18t28.5 30.5t18 36.5t14.5 44t16 45.5q19 15 46 15q20 0 49.5 -6.5t48.5 -13.5l19 -6q0 -36 -33.5 -148.5t-48.5 -133.5q-41 -33 -303 -33h-353q-17 13 -33.5 64.5 t-18.5 100.5q37 44 113 118t147.5 143.5t141 143t112 139.5t42.5 110q0 66 -48 100t-120 34q-129 0 -183 -51.5t-82 -194.5q-42 0 -94 12.5t-52 26.5z" />
<glyph unicode="&#xbe;" horiz-adv-x="2462" d="M39 1202q12 125 44 227l11 36q171 43 333 43q97 0 170.5 -22.5t116 -61t63 -84t20.5 -95.5q0 -76 -52 -141.5t-134 -92.5q122 -20 197.5 -93t75.5 -167q0 -161 -116 -245.5t-300 -84.5q-167 0 -355 32l-4 12q0 7 -8 27q-32 108 -43 215q0 7 41.5 16.5t65.5 9.5 q17 0 18 -6q22 -89 95.5 -135t166.5 -46q59 0 113.5 20t94 66.5t39.5 110.5q0 42 -12 73.5t-36 51.5t-51.5 32.5t-67.5 19t-74.5 8.5t-80.5 2q-22 0 -64 -2t-58 -2h-8q-12 5 -12 67q0 53 20 73q17 -1 129 -1t172.5 53t60.5 125q0 61 -49 106t-133 45q-45 0 -84.5 -10.5 t-77 -33.5t-64.5 -66t-38 -102q-3 -6 -17 -6q-24 0 -66 9.5t-42 16.5zM816 43q0 30 19 64q74 127 226 404.5t330 607t209 386.5q37 68 109 68q32 0 55 -22.5t23 -59.5q0 -32 -20 -66q-175 -310 -767 -1399q-39 -73 -108 -73q-35 0 -55.5 24.5t-20.5 65.5zM1588 510 q0 16 9 35q133 218 361 516q25 32 123 32q9 0 32.5 -0.5t40.5 -0.5q68 0 68 -52q0 -50 -1 -165t-1 -177v-219q0 -7 6 -7q35 0 85 0.5t64 0.5q56 0 62 -34q-1 -48 -26 -84q-8 -14 -34 -17t-99 -3h-58v-140q0 -15 1.5 -23t12.5 -16.5t33 -8.5q33 0 57.5 -9t24.5 -26 q0 -95 -32 -118q-71 6 -181 6q-106 0 -176 -6q-20 12 -29.5 46.5t-9.5 71.5q0 17 24.5 26t58.5 9q28 0 37 12t9 34v142h-220q-144 0 -177 17q-30 25 -47.5 79.5t-17.5 78.5zM1754 483q0 -16 179 -16q81 0 116 2q1 32 1 133v173q0 145 1 182q-8 -12 -46.5 -73.5t-60.5 -94.5 q-53 -71 -181 -284q-9 -16 -9 -22z" />
<glyph unicode="&#xbf;" horiz-adv-x="1318" d="M539 328q0 75 22.5 137.5t58.5 104.5t79.5 77t87 63.5t79.5 56t58.5 61t22.5 71.5q0 20 -1 49.5t-1 41.5q0 61 58 61q20 0 51.5 -1t32.5 -1q31 0 52 -49.5t21 -119.5q0 -22 -2.5 -40.5t-4.5 -32t-12 -29t-14.5 -23.5t-22 -24.5t-25 -23.5t-34 -29.5t-38.5 -32.5 q-16 -13 -58.5 -45.5t-68.5 -56.5t-58 -60.5t-48 -79t-16 -91.5q0 -63 52.5 -104t150.5 -41q58 0 107 10.5t70 20.5l20 10v153q0 47 10 58.5t51 11.5q81 0 120.5 -50t39.5 -111q0 -116 -102.5 -191t-320.5 -75q-188 0 -302.5 85.5t-114.5 238.5zM834 1379q0 67 44 115 t131 48q89 0 135 -47.5t46 -115.5q0 -69 -46 -116t-135 -47q-87 0 -131 47.5t-44 115.5z" />
<glyph unicode="&#xc0;" d="M-11 38q0 39 6 103q7 24 35 36t63 12q39 0 57 16.5t30 46.5l370 984q8 22 8 33q0 20 -21 26.5t-45.5 4.5t-45.5 6.5t-21 30.5q0 2 2 10q14 112 35 140q123 -8 282 -8q125 0 170 8v-4q6 -42 36.5 -143t40.5 -124l370 -964q12 -30 30 -46.5t57 -16.5q35 0 64 -12t36 -36 q-4 -64 -4 -103q0 -38 -17 -49q-150 11 -252 11q-204 0 -279 -11q-17 58 -17 160q0 24 35.5 31t71 12t35.5 25q0 14 -9 37l-95 269h-525l-91 -269q-9 -27 -9 -37q0 -20 36 -25t72 -12t36 -31q-12 -128 -27 -160q-158 11 -263 11q-61 0 -240 -11q-17 11 -17 49zM193 2029 q0 32 33.5 46.5t113.5 14.5q69 0 103 -19.5t68 -73.5q109 -173 252 -383h-111q-79 60 -192.5 157.5t-148.5 131.5q-21 20 -56 51t-48.5 46t-13.5 29zM544 675h420q-48 145 -100 290t-80 218l-27 73q-105 -256 -213 -581z" />
<glyph unicode="&#xc1;" d="M-11 38q0 39 6 103q7 24 35 36t63 12q39 0 57 16.5t30 46.5l370 984q8 22 8 33q0 20 -21 26.5t-45.5 4.5t-45.5 6.5t-21 30.5q0 2 2 10q14 112 35 140q123 -8 282 -8q125 0 170 8v-4q6 -42 36.5 -143t40.5 -124l370 -964q12 -30 30 -46.5t57 -16.5q35 0 64 -12t36 -36 q-4 -64 -4 -103q0 -38 -17 -49q-150 11 -252 11q-204 0 -279 -11q-17 58 -17 160q0 24 35.5 31t71 12t35.5 25q0 14 -9 37l-95 269h-525l-91 -269q-9 -27 -9 -37q0 -20 36 -25t72 -12t36 -31q-12 -128 -27 -160q-158 11 -263 11q-61 0 -240 -11q-17 11 -17 49zM544 675h420 q-48 145 -100 290t-80 218l-27 73q-105 -256 -213 -581zM653 1614q143 210 252 383q34 54 68 73.5t103 19.5q80 0 113.5 -14.5t33.5 -46.5q0 -14 -13.5 -29t-48.5 -46t-56 -51q-35 -34 -148.5 -131.5t-192.5 -157.5h-111z" />
<glyph unicode="&#xc2;" d="M-11 38q0 39 6 103q7 24 35 36t63 12q39 0 57 16.5t30 46.5l370 984q8 22 8 33q0 20 -21 26.5t-45.5 4.5t-45.5 6.5t-21 30.5q0 2 2 10q14 112 35 140q123 -8 282 -8q125 0 170 8v-4q6 -42 36.5 -143t40.5 -124l370 -964q12 -30 30 -46.5t57 -16.5q35 0 64 -12t36 -36 q-4 -64 -4 -103q0 -38 -17 -49q-150 11 -252 11q-204 0 -279 -11q-17 58 -17 160q0 24 35.5 31t71 12t35.5 25q0 14 -9 37l-95 269h-525l-91 -269q-9 -27 -9 -37q0 -20 36 -25t72 -12t36 -31q-12 -128 -27 -160q-158 11 -263 11q-61 0 -240 -11q-17 11 -17 49zM346 1675 q0 9 4 18.5t13 22t18 23t24.5 29.5t27.5 34q33 42 113.5 136t138.5 152h100q57 -59 139 -154t113 -134q12 -15 27.5 -34t24.5 -29.5t18 -23t13 -22t4 -18.5q0 -32 -17 -46.5t-60 -14.5q-33 0 -56 9.5t-34.5 21.5t-35.5 42l-181 231l-181 -231q-24 -30 -35.5 -42t-34.5 -21.5 t-56 -9.5q-48 0 -67.5 14.5t-19.5 46.5zM544 675h420q-48 145 -100 290t-80 218l-27 73q-105 -256 -213 -581z" />
<glyph unicode="&#xc3;" d="M-11 38q0 39 6 103q7 24 35 36t63 12q39 0 57 16.5t30 46.5l370 984q8 22 8 33q0 20 -21 26.5t-45.5 4.5t-45.5 6.5t-21 30.5q0 2 2 10q14 112 35 140q123 -8 282 -8q125 0 170 8v-4q6 -42 36.5 -143t40.5 -124l370 -964q12 -30 30 -46.5t57 -16.5q35 0 64 -12t36 -36 q-4 -64 -4 -103q0 -38 -17 -49q-150 11 -252 11q-204 0 -279 -11q-17 58 -17 160q0 24 35.5 31t71 12t35.5 25q0 14 -9 37l-95 269h-525l-91 -269q-9 -27 -9 -37q0 -20 36 -25t72 -12t36 -31q-12 -128 -27 -160q-158 11 -263 11q-61 0 -240 -11q-17 11 -17 49zM341 1648 l3 28q9 87 51 142t124 55q56 0 135 -24t144.5 -48t89.5 -24q42 0 48 73q21 3 45 3q46 0 118 -18l-2 -25q-7 -89 -47 -142.5t-110 -53.5q-71 0 -213.5 45.5t-172.5 45.5q-23 0 -33 -18t-15 -58q-5 -8 -47 -8q-36 0 -77 8.5t-41 18.5zM544 675h420q-48 145 -100 290t-80 218 l-27 73q-105 -256 -213 -581z" />
<glyph unicode="&#xc4;" d="M-11 38q0 39 6 103q7 24 35 36t63 12q39 0 57 16.5t30 46.5l370 984q8 22 8 33q0 20 -21 26.5t-45.5 4.5t-45.5 6.5t-21 30.5q0 2 2 10q14 112 35 140q123 -8 282 -8q125 0 170 8v-4q6 -42 36.5 -143t40.5 -124l370 -964q12 -30 30 -46.5t57 -16.5q35 0 64 -12t36 -36 q-4 -64 -4 -103q0 -38 -17 -49q-150 11 -252 11q-204 0 -279 -11q-17 58 -17 160q0 24 35.5 31t71 12t35.5 25q0 14 -9 37l-95 269h-525l-91 -269q-9 -27 -9 -37q0 -20 36 -25t72 -12t36 -31q-12 -128 -27 -160q-158 11 -263 11q-61 0 -240 -11q-17 11 -17 49zM278 1750 q0 57 38.5 96.5t113.5 39.5q73 0 110 -40t37 -96t-37 -96t-110 -40q-75 0 -113.5 39.5t-38.5 96.5zM544 675h420q-48 145 -100 290t-80 218l-27 73q-105 -256 -213 -581zM868 1750q0 57 38.5 96.5t113.5 39.5q73 0 110 -39.5t37 -96.5q0 -56 -37 -96t-110 -40 q-75 0 -113.5 39.5t-38.5 96.5z" />
<glyph unicode="&#xc5;" d="M-11 38q0 39 6 103q7 24 35 36t63 12q39 0 57 16.5t30 46.5l370 984q8 22 8 33q0 20 -21 26.5t-45.5 4.5t-45.5 6.5t-21 30.5q0 2 2 10q14 112 35 140q123 -8 282 -8q125 0 170 8v-4q6 -42 36.5 -143t40.5 -124l370 -964q12 -30 30 -46.5t57 -16.5q35 0 64 -12t36 -36 q-4 -64 -4 -103q0 -38 -17 -49q-150 11 -252 11q-204 0 -279 -11q-17 58 -17 160q0 24 35.5 31t71 12t35.5 25q0 14 -9 37l-95 269h-525l-91 -269q-9 -27 -9 -37q0 -20 36 -25t72 -12t36 -31q-12 -128 -27 -160q-158 11 -263 11q-61 0 -240 -11q-17 11 -17 49zM506 1762 q0 103 71 163.5t183 60.5q110 0 178 -62.5t68 -158.5q0 -99 -71.5 -164t-176.5 -65q-104 0 -178 61t-74 165zM544 675h420q-48 145 -100 290t-80 218l-27 73q-105 -256 -213 -581zM609 1761q0 -74 43 -115.5t102 -41.5t102.5 42t43.5 116q0 73 -43 113.5t-102 40.5 t-102.5 -41t-43.5 -114z" />
<glyph unicode="&#xc6;" horiz-adv-x="2288" d="M-5 11q0 13 4.5 33.5t14 55.5t10.5 41q27 48 111 48q37 0 59.5 16.5t42.5 46.5l643 995q17 32 17 42q0 17 -29 19.5t-58 6t-29 22.5q0 9 6 21q45 117 75 145q235 -13 534 -13q109 0 226.5 2.5t220.5 6t128 4.5q17 -16 84.5 -207.5t67.5 -223.5q0 -8 -6.5 -20t-20.5 -26 t-42 -24t-65 -10q-15 0 -41 64t-53.5 149t-37.5 106q-73 0 -243.5 -0.5t-271.5 -0.5q-29 0 -29 -41q0 -15 1 -23l39 -377q54 20 139 36t156 16q61 0 103 -34.5t42 -107.5q0 -50 -34 -83.5t-82 -33.5q-82 91 -215 91q-42 0 -94 -7l48 -502q1 -15 3 -23.5t6 -19.5t11.5 -16.5 t19.5 -5.5q101 0 272 -0.5t244 -0.5q8 24 23.5 119.5t33 167.5t36.5 72q49 0 85.5 -17.5t50 -35t14.5 -28.5v-9q0 -62 -31.5 -252.5t-48.5 -205.5q-172 11 -510 11q-426 0 -645 -11q0 59 28 160q6 21 33 29.5t55 8.5t51 10t23 35v6l-21 285h-525l-165 -269q-22 -37 -21 -43 q0 -16 32 -20.5t63.5 -10t31.5 -23.5q0 -5 -1 -8q-47 -129 -71 -160q-147 11 -250 11q-59 0 -240 -11q-8 8 -8 22zM718 675h420q-8 148 -19.5 296t-18.5 222l-8 74q-176 -261 -374 -592z" />
<glyph unicode="&#xc7;" horiz-adv-x="1336" d="M29 734q0 157 51 299t141 248t223 168.5t287 62.5q98 0 198.5 -43.5t162.5 -128.5q0 150 39 150h112q48 0 48 -104v-267q0 -57 -5.5 -83.5t-14 -33t-28.5 -8.5h-83q-9 0 -23 18.5t-32.5 47.5t-42.5 64.5t-56.5 70.5t-69 64t-86 47.5t-102.5 18.5q-93 0 -172 -33.5 t-134 -90t-94.5 -132t-58 -159.5t-18.5 -172q0 -84 22.5 -163.5t69 -150.5t112 -124.5t158.5 -85t202 -31.5q233 0 430 147q39 -52 39 -102q0 -72 -77.5 -132.5t-190.5 -91.5t-228 -31q-154 0 -283.5 43t-219.5 116t-153.5 170.5t-93 206.5t-29.5 225zM620 -501l21 108 q38 -12 83 -12q71 0 109.5 30t38.5 73q0 52 -52.5 91.5t-144.5 39.5v161h104v-96q106 -18 162.5 -77t56.5 -132q0 -81 -69 -141t-189 -60q-63 0 -120 15z" />
<glyph unicode="&#xc8;" horiz-adv-x="1324" d="M60 152q0 24 33 36t79 12q39 0 51 16.5t12 46.5v966q0 30 -12 46.5t-51 16.5q-112 0 -112 52q0 49 13 96.5t40 62.5q400 -13 538 -13q95 0 197 2.5t192 6.5t109 4q17 -15 62.5 -204t45.5 -226q0 -7 -7.5 -19.5t-23 -27t-45 -24.5t-67.5 -10q-15 0 -34 64t-38 148.5 t-27 106.5q-73 0 -243.5 -0.5t-271.5 -0.5q-15 0 -23 -11t-9.5 -22.5t-1.5 -30.5v-377q58 20 143.5 36t156.5 16q60 0 96 -30.5t36 -97.5q0 -56 -38.5 -93.5t-90.5 -37.5q-72 91 -206 91q-39 0 -97 -7v-502q0 -20 1.5 -31.5t9.5 -22.5t23 -11q109 0 293 -0.5t262 -0.5 q10 24 35 119.5t50 167.5t44 72q38 0 67.5 -10t45 -24.5t23 -27t7.5 -19.5q0 -41 -54.5 -246.5t-73.5 -220.5q-185 11 -548 11q-317 0 -538 -11q-27 16 -40 64t-13 99zM116 2029q0 32 33.5 46.5t113.5 14.5q69 0 103 -19.5t68 -73.5q109 -173 252 -383h-111 q-79 60 -192.5 157.5t-148.5 131.5q-21 20 -56 51t-48.5 46t-13.5 29z" />
<glyph unicode="&#xc9;" horiz-adv-x="1324" d="M60 152q0 24 33 36t79 12q39 0 51 16.5t12 46.5v966q0 30 -12 46.5t-51 16.5q-112 0 -112 52q0 49 13 96.5t40 62.5q400 -13 538 -13q95 0 197 2.5t192 6.5t109 4q17 -15 62.5 -204t45.5 -226q0 -7 -7.5 -19.5t-23 -27t-45 -24.5t-67.5 -10q-15 0 -34 64t-38 148.5 t-27 106.5q-73 0 -243.5 -0.5t-271.5 -0.5q-15 0 -23 -11t-9.5 -22.5t-1.5 -30.5v-377q58 20 143.5 36t156.5 16q60 0 96 -30.5t36 -97.5q0 -56 -38.5 -93.5t-90.5 -37.5q-72 91 -206 91q-39 0 -97 -7v-502q0 -20 1.5 -31.5t9.5 -22.5t23 -11q109 0 293 -0.5t262 -0.5 q10 24 35 119.5t50 167.5t44 72q38 0 67.5 -10t45 -24.5t23 -27t7.5 -19.5q0 -41 -54.5 -246.5t-73.5 -220.5q-185 11 -548 11q-317 0 -538 -11q-27 16 -40 64t-13 99zM576 1614q143 210 252 383q34 54 68 73.5t103 19.5q80 0 113.5 -14.5t33.5 -46.5q0 -14 -13.5 -29 t-48.5 -46t-56 -51q-35 -34 -148.5 -131.5t-192.5 -157.5h-111z" />
<glyph unicode="&#xca;" horiz-adv-x="1324" d="M60 152q0 24 33 36t79 12q39 0 51 16.5t12 46.5v966q0 30 -12 46.5t-51 16.5q-112 0 -112 52q0 49 13 96.5t40 62.5q400 -13 538 -13q95 0 197 2.5t192 6.5t109 4q17 -15 62.5 -204t45.5 -226q0 -7 -7.5 -19.5t-23 -27t-45 -24.5t-67.5 -10q-15 0 -34 64t-38 148.5 t-27 106.5q-73 0 -243.5 -0.5t-271.5 -0.5q-15 0 -23 -11t-9.5 -22.5t-1.5 -30.5v-377q58 20 143.5 36t156.5 16q60 0 96 -30.5t36 -97.5q0 -56 -38.5 -93.5t-90.5 -37.5q-72 91 -206 91q-39 0 -97 -7v-502q0 -20 1.5 -31.5t9.5 -22.5t23 -11q109 0 293 -0.5t262 -0.5 q10 24 35 119.5t50 167.5t44 72q38 0 67.5 -10t45 -24.5t23 -27t7.5 -19.5q0 -41 -54.5 -246.5t-73.5 -220.5q-185 11 -548 11q-317 0 -538 -11q-27 16 -40 64t-13 99zM314 1675q0 9 4 18.5t13 22t18 23t24.5 29.5t27.5 34q33 42 113.5 136t138.5 152h100q57 -59 139 -154 t113 -134q12 -15 27.5 -34t24.5 -29.5t18 -23t13 -22t4 -18.5q0 -32 -17 -46.5t-60 -14.5q-33 0 -56 9.5t-34.5 21.5t-35.5 42l-181 231l-181 -231q-24 -30 -35.5 -42t-34.5 -21.5t-56 -9.5q-48 0 -67.5 14.5t-19.5 46.5z" />
<glyph unicode="&#xcb;" horiz-adv-x="1324" d="M60 152q0 24 33 36t79 12q39 0 51 16.5t12 46.5v966q0 30 -12 46.5t-51 16.5q-112 0 -112 52q0 49 13 96.5t40 62.5q400 -13 538 -13q95 0 197 2.5t192 6.5t109 4q17 -15 62.5 -204t45.5 -226q0 -7 -7.5 -19.5t-23 -27t-45 -24.5t-67.5 -10q-15 0 -34 64t-38 148.5 t-27 106.5q-73 0 -243.5 -0.5t-271.5 -0.5q-15 0 -23 -11t-9.5 -22.5t-1.5 -30.5v-377q58 20 143.5 36t156.5 16q60 0 96 -30.5t36 -97.5q0 -56 -38.5 -93.5t-90.5 -37.5q-72 91 -206 91q-39 0 -97 -7v-502q0 -20 1.5 -31.5t9.5 -22.5t23 -11q109 0 293 -0.5t262 -0.5 q10 24 35 119.5t50 167.5t44 72q38 0 67.5 -10t45 -24.5t23 -27t7.5 -19.5q0 -41 -54.5 -246.5t-73.5 -220.5q-185 11 -548 11q-317 0 -538 -11q-27 16 -40 64t-13 99zM186 1750q0 57 38.5 96.5t113.5 39.5q73 0 110 -40t37 -96t-37 -96t-110 -40q-75 0 -113.5 39.5 t-38.5 96.5zM776 1750q0 57 38.5 96.5t113.5 39.5q73 0 110 -39.5t37 -96.5q0 -56 -37 -96t-110 -40q-75 0 -113.5 39.5t-38.5 96.5z" />
<glyph unicode="&#xcc;" horiz-adv-x="702" d="M-158 2029q0 32 33.5 46.5t113.5 14.5q69 0 103 -19.5t68 -73.5q109 -173 252 -383h-111q-79 60 -192.5 157.5t-148.5 131.5q-21 20 -56 51t-48.5 46t-13.5 29zM60 152q0 24 33 36t79 12q39 0 51 16.5t12 46.5v966q0 30 -12 46.5t-51 16.5q-112 0 -112 52q0 49 13 96.5 t40 62.5q166 -13 239 -13q78 0 247 13q22 -16 32.5 -64.5t10.5 -100.5q0 -24 -33 -36t-79 -12q-22 0 -36 -5.5t-19.5 -16.5t-7 -19.5t-1.5 -23.5v-960q0 -15 1.5 -23.5t7 -19.5t19.5 -16.5t36 -5.5q46 0 79 -12t33 -36q0 -52 -10.5 -99.5t-32.5 -63.5q-143 11 -247 11 q-98 0 -239 -11q-27 16 -40 64t-13 99z" />
<glyph unicode="&#xcd;" horiz-adv-x="702" d="M60 152q0 24 33 36t79 12q39 0 51 16.5t12 46.5v966q0 30 -12 46.5t-51 16.5q-112 0 -112 52q0 49 13 96.5t40 62.5q166 -13 239 -13q78 0 247 13q22 -16 32.5 -64.5t10.5 -100.5q0 -24 -33 -36t-79 -12q-22 0 -36 -5.5t-19.5 -16.5t-7 -19.5t-1.5 -23.5v-960 q0 -15 1.5 -23.5t7 -19.5t19.5 -16.5t36 -5.5q46 0 79 -12t33 -36q0 -52 -10.5 -99.5t-32.5 -63.5q-143 11 -247 11q-98 0 -239 -11q-27 16 -40 64t-13 99zM300 1614q143 210 252 383q34 54 68 73.5t103 19.5q80 0 113.5 -14.5t33.5 -46.5q0 -14 -13.5 -29t-48.5 -46 t-56 -51q-35 -34 -148.5 -131.5t-192.5 -157.5h-111z" />
<glyph unicode="&#xce;" horiz-adv-x="702" d="M-33 1675q0 9 4 18.5t13 22t18 23t24.5 29.5t27.5 34q33 42 113.5 136t138.5 152h100q57 -59 139 -154t113 -134q12 -15 27.5 -34t24.5 -29.5t18 -23t13 -22t4 -18.5q0 -32 -17 -46.5t-60 -14.5q-33 0 -56 9.5t-34.5 21.5t-35.5 42l-181 231l-181 -231q-24 -30 -35.5 -42 t-34.5 -21.5t-56 -9.5q-48 0 -67.5 14.5t-19.5 46.5zM60 152q0 24 33 36t79 12q39 0 51 16.5t12 46.5v966q0 30 -12 46.5t-51 16.5q-112 0 -112 52q0 49 13 96.5t40 62.5q166 -13 239 -13q78 0 247 13q22 -16 32.5 -64.5t10.5 -100.5q0 -24 -33 -36t-79 -12q-22 0 -36 -5.5 t-19.5 -16.5t-7 -19.5t-1.5 -23.5v-960q0 -15 1.5 -23.5t7 -19.5t19.5 -16.5t36 -5.5q46 0 79 -12t33 -36q0 -52 -10.5 -99.5t-32.5 -63.5q-143 11 -247 11q-98 0 -239 -11q-27 16 -40 64t-13 99z" />
<glyph unicode="&#xcf;" horiz-adv-x="702" d="M-88 1750q0 57 38.5 96.5t113.5 39.5q73 0 110 -40t37 -96t-37 -96t-110 -40q-75 0 -113.5 39.5t-38.5 96.5zM60 152q0 24 33 36t79 12q39 0 51 16.5t12 46.5v966q0 30 -12 46.5t-51 16.5q-112 0 -112 52q0 49 13 96.5t40 62.5q166 -13 239 -13q78 0 247 13 q22 -16 32.5 -64.5t10.5 -100.5q0 -24 -33 -36t-79 -12q-22 0 -36 -5.5t-19.5 -16.5t-7 -19.5t-1.5 -23.5v-960q0 -15 1.5 -23.5t7 -19.5t19.5 -16.5t36 -5.5q46 0 79 -12t33 -36q0 -52 -10.5 -99.5t-32.5 -63.5q-143 11 -247 11q-98 0 -239 -11q-27 16 -40 64t-13 99z M502 1750q0 57 38.5 96.5t113.5 39.5q73 0 110 -39.5t37 -96.5q0 -56 -37 -96t-110 -40q-75 0 -113.5 39.5t-38.5 96.5z" />
<glyph unicode="&#xd0;" horiz-adv-x="1713" d="M61 774q0 71 36 85q39 -3 143 -3h28v373q0 30 -12 46.5t-51 16.5q-112 0 -112 52q0 49 13 96.5t40 62.5q132 -13 368 -13q76 0 191.5 6.5t151.5 6.5q149 0 273 -42.5t209 -115.5t144.5 -170t86.5 -205t27 -223q0 -117 -26.5 -225.5t-83 -206t-138.5 -169.5t-201 -114.5 t-261 -42.5q-42 0 -157.5 5.5t-204.5 5.5q-42 0 -102 -2t-143 -5t-134 -4q-27 16 -40 64t-13 99q0 24 33 36t79 12q39 0 51 16.5t12 46.5v421q-144 -2 -152 -5q-55 0 -55 95zM499 173h388q85 0 158.5 32t126.5 86.5t90.5 127.5t56 155.5t18.5 168.5q0 109 -31.5 211t-90 185 t-152 133t-206.5 50h-358v-465h80t75.5 0.5t61.5 0.5h44h17q104 0 143 3q36 -14 36 -85q0 -95 -55 -95q-5 2 -62 3.5t-111 1.5l-54 1h-103q-29 -1 -72 -1v-513z" />
<glyph unicode="&#xd1;" horiz-adv-x="1714" d="M69 152q0 24 33 36t79 12q39 0 51 16.5t12 46.5v966q0 30 -12 46.5t-51 16.5q-112 0 -112 52q0 49 13 96.5t40 62.5q17 -1 55.5 -5t70.5 -6t72 -2q32 0 79 3.5t57 3.5q3 0 7 -0.5t5 -0.5q17 -1 127 -142t266.5 -357t242.5 -337t155 -218v784q0 30 -12 46.5t-51 16.5 q-46 0 -79 12t-33 36q0 51 10.5 97.5t32.5 62.5q90 -7 239 -7q150 0 237 7q22 -16 32.5 -62.5t10.5 -97.5q0 -24 -33 -36t-79 -12q-22 0 -36 -5.5t-19.5 -16.5t-7 -19.5t-1.5 -23.5v-810q0 -69 6.5 -220.5t6.5 -179.5q-51 -51 -108 -51q-12 0 -22.5 4t-19.5 13.5t-14.5 16 t-15.5 22t-15 22.5q-91 128 -462 642.5t-371 512.5v-931q0 -15 1.5 -23.5t7 -19.5t19.5 -16.5t36 -5.5q46 0 79 -12t33 -36q0 -51 -10.5 -99t-32.5 -64q-136 11 -237 11q-95 0 -229 -11q-27 16 -40 64t-13 99zM493 1648l3 28q9 87 51 142t124 55q56 0 135 -24t144.5 -48 t89.5 -24q42 0 48 73q21 3 45 3q46 0 118 -18l-2 -25q-7 -89 -47 -142.5t-110 -53.5q-71 0 -213.5 45.5t-172.5 45.5q-23 0 -33 -18t-15 -58q-5 -8 -47 -8q-36 0 -77 8.5t-41 18.5z" />
<glyph unicode="&#xd2;" horiz-adv-x="1634" d="M57 747q0 117 30 227.5t92.5 208t151 171t214 116t272.5 42.5t272.5 -42.5t214 -116t151 -171t92.5 -208t30 -227.5t-30 -228.5t-93 -210.5t-151.5 -173.5t-213.5 -118t-272 -43.5t-272 43.5t-213.5 118t-151.5 173.5t-93 210.5t-30 228.5zM303 2029q0 32 33.5 46.5 t113.5 14.5q69 0 103 -19.5t68 -73.5q109 -173 252 -383h-111q-79 60 -192.5 157.5t-148.5 131.5q-21 20 -56 51t-48.5 46t-13.5 29zM312 743q0 -90 20 -174.5t61.5 -160t100.5 -132t142 -90t181 -33.5t181 33.5t142 90t100.5 132t61.5 160t20 174.5q0 113 -32.5 217 t-93.5 188t-159.5 134.5t-219.5 50.5t-219.5 -50.5t-159.5 -134.5t-93.5 -188t-32.5 -217z" />
<glyph unicode="&#xd3;" horiz-adv-x="1634" d="M57 747q0 117 30 227.5t92.5 208t151 171t214 116t272.5 42.5t272.5 -42.5t214 -116t151 -171t92.5 -208t30 -227.5t-30 -228.5t-93 -210.5t-151.5 -173.5t-213.5 -118t-272 -43.5t-272 43.5t-213.5 118t-151.5 173.5t-93 210.5t-30 228.5zM312 743q0 -90 20 -174.5 t61.5 -160t100.5 -132t142 -90t181 -33.5t181 33.5t142 90t100.5 132t61.5 160t20 174.5q0 113 -32.5 217t-93.5 188t-159.5 134.5t-219.5 50.5t-219.5 -50.5t-159.5 -134.5t-93.5 -188t-32.5 -217zM761 1614q143 210 252 383q34 54 68 73.5t103 19.5q80 0 113.5 -14.5 t33.5 -46.5q0 -14 -13.5 -29t-48.5 -46t-56 -51q-35 -34 -148.5 -131.5t-192.5 -157.5h-111z" />
<glyph unicode="&#xd4;" horiz-adv-x="1634" d="M57 747q0 117 30 227.5t92.5 208t151 171t214 116t272.5 42.5t272.5 -42.5t214 -116t151 -171t92.5 -208t30 -227.5t-30 -228.5t-93 -210.5t-151.5 -173.5t-213.5 -118t-272 -43.5t-272 43.5t-213.5 118t-151.5 173.5t-93 210.5t-30 228.5zM312 743q0 -90 20 -174.5 t61.5 -160t100.5 -132t142 -90t181 -33.5t181 33.5t142 90t100.5 132t61.5 160t20 174.5q0 113 -32.5 217t-93.5 188t-159.5 134.5t-219.5 50.5t-219.5 -50.5t-159.5 -134.5t-93.5 -188t-32.5 -217zM428 1675q0 9 4 18.5t13 22t18 23t24.5 29.5t27.5 34q33 42 113.5 136 t138.5 152h100q57 -59 139 -154t113 -134q12 -15 27.5 -34t24.5 -29.5t18 -23t13 -22t4 -18.5q0 -32 -17 -46.5t-60 -14.5q-33 0 -56 9.5t-34.5 21.5t-35.5 42l-181 231l-181 -231q-24 -30 -35.5 -42t-34.5 -21.5t-56 -9.5q-48 0 -67.5 14.5t-19.5 46.5z" />
<glyph unicode="&#xd5;" horiz-adv-x="1634" d="M57 747q0 117 30 227.5t92.5 208t151 171t214 116t272.5 42.5t272.5 -42.5t214 -116t151 -171t92.5 -208t30 -227.5t-30 -228.5t-93 -210.5t-151.5 -173.5t-213.5 -118t-272 -43.5t-272 43.5t-213.5 118t-151.5 173.5t-93 210.5t-30 228.5zM312 743q0 -90 20 -174.5 t61.5 -160t100.5 -132t142 -90t181 -33.5t181 33.5t142 90t100.5 132t61.5 160t20 174.5q0 113 -32.5 217t-93.5 188t-159.5 134.5t-219.5 50.5t-219.5 -50.5t-159.5 -134.5t-93.5 -188t-32.5 -217zM438 1648l3 28q9 87 51 142t124 55q56 0 135 -24t144.5 -48t89.5 -24 q42 0 48 73q21 3 45 3q46 0 118 -18l-2 -25q-7 -89 -47 -142.5t-110 -53.5q-71 0 -213.5 45.5t-172.5 45.5q-23 0 -33 -18t-15 -58q-5 -8 -47 -8q-36 0 -77 8.5t-41 18.5z" />
<glyph unicode="&#xd6;" horiz-adv-x="1634" d="M57 747q0 117 30 227.5t92.5 208t151 171t214 116t272.5 42.5t272.5 -42.5t214 -116t151 -171t92.5 -208t30 -227.5t-30 -228.5t-93 -210.5t-151.5 -173.5t-213.5 -118t-272 -43.5t-272 43.5t-213.5 118t-151.5 173.5t-93 210.5t-30 228.5zM312 743q0 -90 20 -174.5 t61.5 -160t100.5 -132t142 -90t181 -33.5t181 33.5t142 90t100.5 132t61.5 160t20 174.5q0 113 -32.5 217t-93.5 188t-159.5 134.5t-219.5 50.5t-219.5 -50.5t-159.5 -134.5t-93.5 -188t-32.5 -217zM373 1750q0 57 38.5 96.5t113.5 39.5q73 0 110 -40t37 -96t-37 -96 t-110 -40q-75 0 -113.5 39.5t-38.5 96.5zM963 1750q0 57 38.5 96.5t113.5 39.5q73 0 110 -39.5t37 -96.5q0 -56 -37 -96t-110 -40q-75 0 -113.5 39.5t-38.5 96.5z" />
<glyph unicode="&#xd7;" horiz-adv-x="1247" d="M177 236q0 27 45 72l263 264l-275 275q-33 33 -33 61q0 25 35 67.5t76 42.5q28 0 55 -27l280 -280l275 276q33 33 61 33q25 0 67.5 -35t42.5 -76q0 -28 -27 -55l-280 -282l281 -279q26 -26 26 -54q0 -42 -43.5 -77.5t-64.5 -35.5q-27 0 -72 45q-180 180 -265 263 l-280 -280q-26 -26 -54 -26q-42 0 -77.5 43.5t-35.5 64.5z" />
<glyph unicode="&#xd8;" horiz-adv-x="1752" d="M116 747q0 117 30 227.5t92.5 208t151 171t214 116t272.5 42.5q195 0 351 -74q103 167 112 183q9 26 48 26q1 0 8 0.5t12 0.5q68 0 68 -40q0 -26 -15 -52q-17 -27 -115 -189q142 -107 216.5 -271.5t74.5 -348.5q0 -117 -30 -228.5t-93 -210.5t-151.5 -173.5t-213.5 -118 t-272 -43.5q-191 0 -344 72q-57 -92 -101 -158q-27 -47 -91 -47q-43 0 -60.5 17t-17.5 52q0 9 8.5 21t24.5 31t26 36q20 33 80 129q-138 108 -211.5 273.5t-73.5 347.5zM371 743q0 -122 37.5 -234.5t109.5 -195.5q55 87 277.5 439.5t325.5 516.5q-106 64 -245 64 q-121 0 -219.5 -50.5t-159.5 -134.5t-93.5 -188t-32.5 -217zM637 214q108 -61 239 -61q98 0 181 33.5t142 90t100.5 132t61.5 160t20 174.5q0 124 -38.5 238t-112.5 197q-311 -509 -593 -964z" />
<glyph unicode="&#xd9;" horiz-adv-x="1846" d="M60 1338q0 130 43 160q104 -8 247 -8q137 0 239 8q27 -16 40 -62.5t13 -97.5q0 -24 -33 -36t-79 -12q-39 0 -51 -16.5t-12 -46.5v-714q0 -69 29 -132.5t83.5 -115t142.5 -82t196 -30.5t196 30.5t142.5 82t83.5 115t29 132.5v714q0 30 -12 46.5t-51 16.5q-46 0 -79 12 t-33 36q0 51 13 97.5t40 62.5q102 -8 239 -8q143 0 247 8q43 -30 43 -160q0 -24 -33 -36t-79 -12q-22 0 -36 -5.5t-19.5 -16.5t-7 -19.5t-1.5 -23.5v-708q0 -103 -44.5 -199.5t-127.5 -174t-215.5 -124t-294.5 -46.5t-294.5 46.5t-215.5 124t-127.5 174t-44.5 199.5v708 q0 15 -1.5 23.5t-7 19.5t-19.5 16.5t-36 5.5q-46 0 -79 12t-33 36zM404 2029q0 32 33.5 46.5t113.5 14.5q69 0 103 -19.5t68 -73.5q109 -173 252 -383h-111q-79 60 -192.5 157.5t-148.5 131.5q-21 20 -56 51t-48.5 46t-13.5 29z" />
<glyph unicode="&#xda;" horiz-adv-x="1846" d="M60 1338q0 130 43 160q104 -8 247 -8q137 0 239 8q27 -16 40 -62.5t13 -97.5q0 -24 -33 -36t-79 -12q-39 0 -51 -16.5t-12 -46.5v-714q0 -69 29 -132.5t83.5 -115t142.5 -82t196 -30.5t196 30.5t142.5 82t83.5 115t29 132.5v714q0 30 -12 46.5t-51 16.5q-46 0 -79 12 t-33 36q0 51 13 97.5t40 62.5q102 -8 239 -8q143 0 247 8q43 -30 43 -160q0 -24 -33 -36t-79 -12q-22 0 -36 -5.5t-19.5 -16.5t-7 -19.5t-1.5 -23.5v-708q0 -103 -44.5 -199.5t-127.5 -174t-215.5 -124t-294.5 -46.5t-294.5 46.5t-215.5 124t-127.5 174t-44.5 199.5v708 q0 15 -1.5 23.5t-7 19.5t-19.5 16.5t-36 5.5q-46 0 -79 12t-33 36zM862 1614q143 210 252 383q34 54 68 73.5t103 19.5q80 0 113.5 -14.5t33.5 -46.5q0 -14 -13.5 -29t-48.5 -46t-56 -51q-35 -34 -148.5 -131.5t-192.5 -157.5h-111z" />
<glyph unicode="&#xdb;" horiz-adv-x="1846" d="M60 1338q0 130 43 160q104 -8 247 -8q137 0 239 8q27 -16 40 -62.5t13 -97.5q0 -24 -33 -36t-79 -12q-39 0 -51 -16.5t-12 -46.5v-714q0 -69 29 -132.5t83.5 -115t142.5 -82t196 -30.5t196 30.5t142.5 82t83.5 115t29 132.5v714q0 30 -12 46.5t-51 16.5q-46 0 -79 12 t-33 36q0 51 13 97.5t40 62.5q102 -8 239 -8q143 0 247 8q43 -30 43 -160q0 -24 -33 -36t-79 -12q-22 0 -36 -5.5t-19.5 -16.5t-7 -19.5t-1.5 -23.5v-708q0 -103 -44.5 -199.5t-127.5 -174t-215.5 -124t-294.5 -46.5t-294.5 46.5t-215.5 124t-127.5 174t-44.5 199.5v708 q0 15 -1.5 23.5t-7 19.5t-19.5 16.5t-36 5.5q-46 0 -79 12t-33 36zM529 1675q0 9 4 18.5t13 22t18 23t24.5 29.5t27.5 34q33 42 113.5 136t138.5 152h100q57 -59 139 -154t113 -134q12 -15 27.5 -34t24.5 -29.5t18 -23t13 -22t4 -18.5q0 -32 -17 -46.5t-60 -14.5 q-33 0 -56 9.5t-34.5 21.5t-35.5 42l-181 231l-181 -231q-24 -30 -35.5 -42t-34.5 -21.5t-56 -9.5q-48 0 -67.5 14.5t-19.5 46.5z" />
<glyph unicode="&#xdc;" horiz-adv-x="1846" d="M60 1338q0 130 43 160q104 -8 247 -8q137 0 239 8q27 -16 40 -62.5t13 -97.5q0 -24 -33 -36t-79 -12q-39 0 -51 -16.5t-12 -46.5v-714q0 -69 29 -132.5t83.5 -115t142.5 -82t196 -30.5t196 30.5t142.5 82t83.5 115t29 132.5v714q0 30 -12 46.5t-51 16.5q-46 0 -79 12 t-33 36q0 51 13 97.5t40 62.5q102 -8 239 -8q143 0 247 8q43 -30 43 -160q0 -24 -33 -36t-79 -12q-22 0 -36 -5.5t-19.5 -16.5t-7 -19.5t-1.5 -23.5v-708q0 -103 -44.5 -199.5t-127.5 -174t-215.5 -124t-294.5 -46.5t-294.5 46.5t-215.5 124t-127.5 174t-44.5 199.5v708 q0 15 -1.5 23.5t-7 19.5t-19.5 16.5t-36 5.5q-46 0 -79 12t-33 36zM474 1750q0 57 38.5 96.5t113.5 39.5q73 0 110 -40t37 -96t-37 -96t-110 -40q-75 0 -113.5 39.5t-38.5 96.5zM1064 1750q0 57 38.5 96.5t113.5 39.5q73 0 110 -39.5t37 -96.5q0 -56 -37 -96t-110 -40 q-75 0 -113.5 39.5t-38.5 96.5z" />
<glyph unicode="&#xdd;" horiz-adv-x="1474" d="M11 1481q0 19 9 24q126 -8 282 -8q154 0 255 8q3 -9 25 -168q0 -1 0.5 -3t0.5 -3q0 -19 -32.5 -25.5t-65.5 -11t-33 -20.5q0 -10 18 -42l244 -425q28 -46 33 -49q7 2 32 49q168 296 245 425q18 30 18 42q0 16 -33 20.5t-65.5 11t-32.5 25.5q0 1 0.5 3t0.5 3 q22 159 25 168q94 -8 235 -8q156 0 282 8q9 -5 9 -24q0 -10 -3 -22v-15q0 -10 0.5 -32t0.5 -33q0 -12 -2 -34q-14 -24 -50 -36t-78 -12q-65 0 -101 -63l-377 -642l-1 -327q0 -15 1.5 -23.5t7 -19.5t19.5 -16.5t36 -5.5q46 0 79 -12t33 -36q0 -133 -33 -163q-150 11 -257 11 q-102 0 -249 -11q-22 16 -32.5 64t-10.5 99q0 24 33 36t79 12q39 0 51 16.5t12 46.5v329l-377 642q-38 63 -101 63q-42 0 -78 12t-50 36q0 21 -2 69t-2 67zM681 1614q143 210 252 383q34 54 68 73.5t103 19.5q80 0 113.5 -14.5t33.5 -46.5q0 -14 -13.5 -29t-48.5 -46 t-56 -51q-35 -34 -148.5 -131.5t-192.5 -157.5h-111z" />
<glyph unicode="&#xde;" horiz-adv-x="1465" d="M93 152q0 24 33 36t79 12q39 0 51 16.5t12 46.5v964q0 30 -12 46.5t-51 16.5q-46 0 -79 12t-33 36q0 51 13 97.5t40 62.5q102 -8 239 -8q143 0 247 8q43 -30 43 -160q0 -24 -33 -36t-79 -12q-39 0 -51.5 -15t-12.5 -41v-24h416q116 0 209.5 -34.5t151.5 -91.5t88.5 -127 t30.5 -146t-31.5 -146t-89.5 -126.5t-151.5 -90.5t-207.5 -34h-416v-149q0 -15 1.5 -23.5t7 -19.5t19.5 -16.5t36 -5.5q46 0 79 -12t33 -36q0 -130 -43 -160q-104 8 -247 8q-137 0 -239 -8q-27 16 -40 62.5t-13 97.5zM499 583h416q115 0 182 66t67 155q0 96 -65.5 167 t-183.5 71h-416v-459z" />
<glyph unicode="&#xdf;" horiz-adv-x="1422" d="M96 117q0 37 17 48t65 19q44 7 58 22t14 39v735q0 536 496 536q113 0 207 -31t154 -82.5t93 -115.5t33 -133q0 -119 -91.5 -219t-270.5 -148q266 -35 395.5 -143.5t129.5 -268.5q0 -108 -50.5 -188t-140.5 -125.5t-200 -67t-243 -21.5q-60 0 -135 7v159q137 0 236 14 t153 35t84.5 55t38.5 64t8 72q0 50 -19.5 94t-68 85.5t-123 72t-192 48.5t-267.5 18q0 -232 2.5 -375t4.5 -203.5t2 -92.5q0 -38 -15 -38q-1 0 -42 6t-94 6q-69 0 -211 -12q-14 10 -21 50t-7 79zM477 872q0 -12 6 -17.5t24 -5.5q126 0 226.5 25.5t160 67.5t90.5 92t31 103 q0 92 -72 157t-198 65q-70 0 -120.5 -21.5t-78.5 -53.5t-44 -82.5t-20.5 -95.5t-4.5 -106v-128z" />
<glyph unicode="&#xe0;" horiz-adv-x="1157" d="M-47 1612q0 32 33.5 46.5t113.5 14.5q69 0 103 -19.5t68 -73.5q109 -173 252 -383h-111q-79 60 -192.5 157.5t-148.5 131.5q-21 20 -56 51t-48.5 46t-13.5 29zM32 269q0 154 149 232q112 60 384 104q51 9 166 26q0 170 -43 234t-165 64q-89 0 -198 -40t-174 -111 q-81 68 -81 133q0 56 77 99.5t181.5 64t209.5 20.5q99 0 173.5 -24.5t131.5 -80.5t86.5 -154t29.5 -238v-320q0 -41 6.5 -61.5t14.5 -25t26 -6.5q31 -3 46 -5.5t35 -7.5t28.5 -13t8.5 -20q0 -118 -33 -147q-48 8 -125 8q-70 0 -130 -7q-7 5 -17.5 14t-28.5 46t-18 83 q-73 -77 -184.5 -120t-226.5 -43q-143 0 -236 76t-93 220zM268 272q0 -121 139 -121q91 0 197 50.5t128 91.5v177q-273 -49 -368.5 -88t-95.5 -110z" />
<glyph unicode="&#xe1;" horiz-adv-x="1157" d="M32 269q0 154 149 232q112 60 384 104q51 9 166 26q0 170 -43 234t-165 64q-89 0 -198 -40t-174 -111q-81 68 -81 133q0 56 77 99.5t181.5 64t209.5 20.5q99 0 173.5 -24.5t131.5 -80.5t86.5 -154t29.5 -238v-320q0 -41 6.5 -61.5t14.5 -25t26 -6.5q31 -3 46 -5.5 t35 -7.5t28.5 -13t8.5 -20q0 -118 -33 -147q-48 8 -125 8q-70 0 -130 -7q-7 5 -17.5 14t-28.5 46t-18 83q-73 -77 -184.5 -120t-226.5 -43q-143 0 -236 76t-93 220zM268 272q0 -121 139 -121q91 0 197 50.5t128 91.5v177q-273 -49 -368.5 -88t-95.5 -110zM413 1197 q143 210 252 383q34 54 68 73.5t103 19.5q80 0 113.5 -14.5t33.5 -46.5q0 -14 -13.5 -29t-48.5 -46t-56 -51q-35 -34 -148.5 -131.5t-192.5 -157.5h-111z" />
<glyph unicode="&#xe2;" horiz-adv-x="1157" d="M32 269q0 154 149 232q112 60 384 104q51 9 166 26q0 170 -43 234t-165 64q-89 0 -198 -40t-174 -111q-81 68 -81 133q0 56 77 99.5t181.5 64t209.5 20.5q99 0 173.5 -24.5t131.5 -80.5t86.5 -154t29.5 -238v-320q0 -41 6.5 -61.5t14.5 -25t26 -6.5q31 -3 46 -5.5 t35 -7.5t28.5 -13t8.5 -20q0 -118 -33 -147q-48 8 -125 8q-70 0 -130 -7q-7 5 -17.5 14t-28.5 46t-18 83q-73 -77 -184.5 -120t-226.5 -43q-143 0 -236 76t-93 220zM106 1258q0 9 4 18.5t13 22t18 23t24.5 29.5t27.5 34q33 42 113.5 136t138.5 152h100q57 -59 139 -154 t113 -134q12 -15 27.5 -34t24.5 -29.5t18 -23t13 -22t4 -18.5q0 -32 -17 -46.5t-60 -14.5q-33 0 -56 9.5t-34.5 21.5t-35.5 42l-181 231l-181 -231q-24 -30 -35.5 -42t-34.5 -21.5t-56 -9.5q-48 0 -67.5 14.5t-19.5 46.5zM268 272q0 -121 139 -121q91 0 197 50.5t128 91.5 v177q-273 -49 -368.5 -88t-95.5 -110z" />
<glyph unicode="&#xe3;" horiz-adv-x="1157" d="M32 269q0 154 149 232q112 60 384 104q51 9 166 26q0 170 -43 234t-165 64q-89 0 -198 -40t-174 -111q-81 68 -81 133q0 56 77 99.5t181.5 64t209.5 20.5q99 0 173.5 -24.5t131.5 -80.5t86.5 -154t29.5 -238v-320q0 -41 6.5 -61.5t14.5 -25t26 -6.5q31 -3 46 -5.5 t35 -7.5t28.5 -13t8.5 -20q0 -118 -33 -147q-48 8 -125 8q-70 0 -130 -7q-7 5 -17.5 14t-28.5 46t-18 83q-73 -77 -184.5 -120t-226.5 -43q-143 0 -236 76t-93 220zM89 1231l3 28q9 87 51 142t124 55q56 0 135 -24t144.5 -48t89.5 -24q42 0 48 73q21 3 45 3q46 0 118 -18 l-2 -25q-7 -89 -47 -142.5t-110 -53.5q-71 0 -213.5 45.5t-172.5 45.5q-23 0 -33 -18t-15 -58q-5 -8 -47 -8q-36 0 -77 8.5t-41 18.5zM268 272q0 -121 139 -121q91 0 197 50.5t128 91.5v177q-273 -49 -368.5 -88t-95.5 -110z" />
<glyph unicode="&#xe4;" horiz-adv-x="1157" d="M23 1333q0 57 38.5 96.5t113.5 39.5q73 0 110 -40t37 -96t-37 -96t-110 -40q-75 0 -113.5 39.5t-38.5 96.5zM32 269q0 154 149 232q112 60 384 104q51 9 166 26q0 170 -43 234t-165 64q-89 0 -198 -40t-174 -111q-81 68 -81 133q0 56 77 99.5t181.5 64t209.5 20.5 q99 0 173.5 -24.5t131.5 -80.5t86.5 -154t29.5 -238v-320q0 -41 6.5 -61.5t14.5 -25t26 -6.5q31 -3 46 -5.5t35 -7.5t28.5 -13t8.5 -20q0 -118 -33 -147q-48 8 -125 8q-70 0 -130 -7q-7 5 -17.5 14t-28.5 46t-18 83q-73 -77 -184.5 -120t-226.5 -43q-143 0 -236 76t-93 220z M268 272q0 -121 139 -121q91 0 197 50.5t128 91.5v177q-273 -49 -368.5 -88t-95.5 -110zM613 1333q0 57 38.5 96.5t113.5 39.5q73 0 110 -39.5t37 -96.5q0 -56 -37 -96t-110 -40q-75 0 -113.5 39.5t-38.5 96.5z" />
<glyph unicode="&#xe5;" horiz-adv-x="1157" d="M32 269q0 154 149 232q112 60 384 104q51 9 166 26q0 170 -43 234t-165 64q-89 0 -198 -40t-174 -111q-81 68 -81 133q0 56 77 99.5t181.5 64t209.5 20.5q99 0 173.5 -24.5t131.5 -80.5t86.5 -154t29.5 -238v-320q0 -41 6.5 -61.5t14.5 -25t26 -6.5q31 -3 46 -5.5 t35 -7.5t28.5 -13t8.5 -20q0 -118 -33 -147q-48 8 -125 8q-70 0 -130 -7q-7 5 -17.5 14t-28.5 46t-18 83q-73 -77 -184.5 -120t-226.5 -43q-143 0 -236 76t-93 220zM218 1423q0 103 71 163.5t183 60.5q110 0 178 -62.5t68 -158.5q0 -99 -71.5 -164t-176.5 -65 q-104 0 -178 61t-74 165zM268 272q0 -121 139 -121q91 0 197 50.5t128 91.5v177q-273 -49 -368.5 -88t-95.5 -110zM321 1422q0 -74 43 -115.5t102 -41.5t102.5 42t43.5 116q0 73 -43 113.5t-102 40.5t-102.5 -41t-43.5 -114z" />
<glyph unicode="&#xe6;" horiz-adv-x="1897" d="M111 273q0 53 17.5 96t51.5 75t81 56.5t109 42.5t132.5 32.5t154 27.5t170.5 25l24 3q0 170 -49 234t-189 64q-94 0 -209.5 -40t-183.5 -111q-81 68 -81 133q0 56 80 99.5t190 64t219 20.5q267 0 366 -175q72 85 173 130.5t207 45.5q74 0 142.5 -19t129.5 -59.5t106 -99 t71 -142.5t26 -185q0 -46 -23.5 -70.5t-88.5 -24.5h-660q4 -91 30.5 -157t69.5 -103.5t94.5 -55t112.5 -17.5q88 0 183 33t175 89q81 -70 81 -127q0 -32 -37 -65t-96 -59.5t-140.5 -43.5t-163.5 -17q-124 0 -233 46.5t-182 147.5q-104 -93 -261 -143.5t-270 -50.5 q-142 0 -235.5 77.5t-93.5 222.5zM347 276q0 -125 139 -125q102 0 221.5 50t144.5 92v177q-301 -49 -403 -86.5t-102 -107.5zM1083 651h564q-9 139 -84.5 211.5t-180.5 72.5q-108 0 -197.5 -77.5t-101.5 -206.5z" />
<glyph unicode="&#xe7;" horiz-adv-x="1043" d="M34 545q0 129 48.5 235.5t128.5 174t179.5 104t204.5 36.5q107 0 186.5 -21.5t125 -59.5t67 -84.5t21.5 -101.5q0 -59 -41.5 -100t-130.5 -41q-21 0 -25.5 9.5t-8.5 50.5l-15 143q-7 5 -19.5 11.5t-56 18t-91.5 11.5q-152 0 -245.5 -117.5t-93.5 -279.5q0 -175 91 -273 t263 -98q80 0 174.5 34t154.5 87q57 -67 57 -128q0 -50 -59 -93t-151.5 -66.5t-192.5 -23.5q-116 0 -218.5 36.5t-181.5 106t-125 180t-46 249.5zM475 -501l21 108q38 -12 83 -12q71 0 109.5 30t38.5 73q0 52 -52.5 91.5t-144.5 39.5v161h104v-96q106 -18 162.5 -77 t56.5 -132q0 -81 -69 -141t-189 -60q-63 0 -120 15z" />
<glyph unicode="&#xe8;" horiz-adv-x="1107" d="M34 555q0 126 48 231t127 171.5t176.5 102.5t200.5 36q76 0 146 -19t132 -59.5t108 -99t72.5 -142.5t26.5 -185q0 -46 -23.5 -70.5t-88.5 -24.5h-690q4 -91 32 -157t74 -103.5t101 -55t120 -17.5q91 0 186 32t172 90q57 -67 57 -132q0 -43 -57 -84.5t-154 -68.5t-202 -27 q-86 0 -163.5 17t-152 59.5t-128.5 107.5t-87 167t-33 231zM72 1613q0 32 33.5 46.5t113.5 14.5q69 0 103 -19.5t68 -73.5q109 -173 252 -383h-111q-79 60 -192.5 157.5t-148.5 131.5q-21 20 -56 51t-48.5 46t-13.5 29zM275 651h594q-9 139 -87.5 211.5t-187.5 72.5 q-116 0 -210.5 -77.5t-108.5 -206.5z" />
<glyph unicode="&#xe9;" horiz-adv-x="1107" d="M34 555q0 126 48 231t127 171.5t176.5 102.5t200.5 36q76 0 146 -19t132 -59.5t108 -99t72.5 -142.5t26.5 -185q0 -46 -23.5 -70.5t-88.5 -24.5h-690q4 -91 32 -157t74 -103.5t101 -55t120 -17.5q91 0 186 32t172 90q57 -67 57 -132q0 -43 -57 -84.5t-154 -68.5t-202 -27 q-86 0 -163.5 17t-152 59.5t-128.5 107.5t-87 167t-33 231zM275 651h594q-9 139 -87.5 211.5t-187.5 72.5q-116 0 -210.5 -77.5t-108.5 -206.5zM530 1198q143 210 252 383q34 54 68 73.5t103 19.5q80 0 113.5 -14.5t33.5 -46.5q0 -14 -13.5 -29t-48.5 -46t-56 -51 q-35 -34 -148.5 -131.5t-192.5 -157.5h-111z" />
<glyph unicode="&#xea;" horiz-adv-x="1107" d="M34 555q0 126 48 231t127 171.5t176.5 102.5t200.5 36q76 0 146 -19t132 -59.5t108 -99t72.5 -142.5t26.5 -185q0 -46 -23.5 -70.5t-88.5 -24.5h-690q4 -91 32 -157t74 -103.5t101 -55t120 -17.5q91 0 186 32t172 90q57 -67 57 -132q0 -43 -57 -84.5t-154 -68.5t-202 -27 q-86 0 -163.5 17t-152 59.5t-128.5 107.5t-87 167t-33 231zM197 1259q0 9 4 18.5t13 22t18 23t24.5 29.5t27.5 34q33 42 113.5 136t138.5 152h100q57 -59 139 -154t113 -134q12 -15 27.5 -34t24.5 -29.5t18 -23t13 -22t4 -18.5q0 -32 -17 -46.5t-60 -14.5q-33 0 -56 9.5 t-34.5 21.5t-35.5 42l-181 231l-181 -231q-24 -30 -35.5 -42t-34.5 -21.5t-56 -9.5q-48 0 -67.5 14.5t-19.5 46.5zM275 651h594q-9 139 -87.5 211.5t-187.5 72.5q-116 0 -210.5 -77.5t-108.5 -206.5z" />
<glyph unicode="&#xeb;" horiz-adv-x="1107" d="M34 555q0 126 48 231t127 171.5t176.5 102.5t200.5 36q76 0 146 -19t132 -59.5t108 -99t72.5 -142.5t26.5 -185q0 -46 -23.5 -70.5t-88.5 -24.5h-690q4 -91 32 -157t74 -103.5t101 -55t120 -17.5q91 0 186 32t172 90q57 -67 57 -132q0 -43 -57 -84.5t-154 -68.5t-202 -27 q-86 0 -163.5 17t-152 59.5t-128.5 107.5t-87 167t-33 231zM142 1334q0 57 38.5 96.5t113.5 39.5q73 0 110 -40t37 -96t-37 -96t-110 -40q-75 0 -113.5 39.5t-38.5 96.5zM275 651h594q-9 139 -87.5 211.5t-187.5 72.5q-116 0 -210.5 -77.5t-108.5 -206.5zM732 1334 q0 57 38.5 96.5t113.5 39.5q73 0 110 -39.5t37 -96.5q0 -56 -37 -96t-110 -40q-75 0 -113.5 39.5t-38.5 96.5z" />
<glyph unicode="&#xec;" horiz-adv-x="683" d="M-117 1612q0 32 33.5 46.5t113.5 14.5q69 0 103 -19.5t68 -73.5q109 -173 252 -383h-111q-79 60 -192.5 157.5t-148.5 131.5q-21 20 -56 51t-48.5 46t-13.5 29zM95 943q0 51 11 90t22 45q77 -11 149 -11q48 0 101 5.5t56 5.5q35 0 45.5 -17.5t10.5 -80.5v-729 q0 -15 1.5 -23.5t7 -19.5t19.5 -16.5t36 -5.5q38 0 65 -12t27 -36q0 -117 -33 -146q-90 8 -220 8q-135 0 -252 -8q-33 30 -33 146q0 24 27 36t65 12q39 0 51 16.5t12 46.5v537q0 53 -30.5 75t-117.5 26q-13 3 -16.5 13t-3.5 43z" />
<glyph unicode="&#xed;" horiz-adv-x="683" d="M95 943q0 51 11 90t22 45q77 -11 149 -11q48 0 101 5.5t56 5.5q35 0 45.5 -17.5t10.5 -80.5v-729q0 -15 1.5 -23.5t7 -19.5t19.5 -16.5t36 -5.5q38 0 65 -12t27 -36q0 -117 -33 -146q-90 8 -220 8q-135 0 -252 -8q-33 30 -33 146q0 24 27 36t65 12q39 0 51 16.5t12 46.5 v537q0 53 -30.5 75t-117.5 26q-13 3 -16.5 13t-3.5 43zM152 1197q143 210 252 383q34 54 68 73.5t103 19.5q80 0 113.5 -14.5t33.5 -46.5q0 -14 -13.5 -29t-48.5 -46t-56 -51q-35 -34 -148.5 -131.5t-192.5 -157.5h-111z" />
<glyph unicode="&#xee;" horiz-adv-x="683" d="M-49 1258q0 9 4 18.5t13 22t18 23t24.5 29.5t27.5 34q33 42 113.5 136t138.5 152h100q57 -59 139 -154t113 -134q12 -15 27.5 -34t24.5 -29.5t18 -23t13 -22t4 -18.5q0 -32 -17 -46.5t-60 -14.5q-33 0 -56 9.5t-34.5 21.5t-35.5 42l-181 231l-181 -231q-24 -30 -35.5 -42 t-34.5 -21.5t-56 -9.5q-48 0 -67.5 14.5t-19.5 46.5zM95 943q0 51 11 90t22 45q77 -11 149 -11q48 0 101 5.5t56 5.5q35 0 45.5 -17.5t10.5 -80.5v-729q0 -15 1.5 -23.5t7 -19.5t19.5 -16.5t36 -5.5q38 0 65 -12t27 -36q0 -117 -33 -146q-90 8 -220 8q-135 0 -252 -8 q-33 30 -33 146q0 24 27 36t65 12q39 0 51 16.5t12 46.5v537q0 53 -30.5 75t-117.5 26q-13 3 -16.5 13t-3.5 43z" />
<glyph unicode="&#xef;" horiz-adv-x="683" d="M-107 1333q0 57 38.5 96.5t113.5 39.5q73 0 110 -40t37 -96t-37 -96t-110 -40q-75 0 -113.5 39.5t-38.5 96.5zM95 943q0 51 11 90t22 45q77 -11 149 -11q48 0 101 5.5t56 5.5q35 0 45.5 -17.5t10.5 -80.5v-729q0 -15 1.5 -23.5t7 -19.5t19.5 -16.5t36 -5.5q38 0 65 -12 t27 -36q0 -117 -33 -146q-90 8 -220 8q-135 0 -252 -8q-33 30 -33 146q0 24 27 36t65 12q39 0 51 16.5t12 46.5v537q0 53 -30.5 75t-117.5 26q-13 3 -16.5 13t-3.5 43zM483 1333q0 57 38.5 96.5t113.5 39.5q73 0 110 -39.5t37 -96.5q0 -56 -37 -96t-110 -40 q-75 0 -113.5 39.5t-38.5 96.5z" />
<glyph unicode="&#xf0;" horiz-adv-x="1698" d="M253 440q0 -90 32 -171.5t94 -148.5t166.5 -107t238.5 -40q155 0 270.5 54t186 157t105 242.5t34.5 318.5q0 197 -42.5 345.5t-121 240t-184.5 136.5t-240 45q-174 0 -385 -57q-9 -36 -42 -161.5t-52 -205.5q0 -10 61.5 -25t98.5 -15q18 0 19 4q24 69 39.5 109t37 79 t41 58t50 34.5t66 20t86.5 4.5q131 0 226 -139t95 -361v-45q-158 75 -331 75q-113 0 -206 -25t-156 -67.5t-106 -100t-62 -121.5t-19 -133zM490 421q0 121 79.5 211t219.5 90q121 0 209 -22.5t135 -58.5q0 -115 -20.5 -206.5t-53.5 -148.5t-79 -94.5t-93.5 -52.5t-100.5 -15 q-72 0 -130 25t-93.5 67.5t-54 94.5t-18.5 110zM800 1089q0 -26 17.5 -54t38.5 -28q13 0 24 5q86 34 277 107t285 111q28 11 28 44q0 22 -24 70q-12 26 -34 26q-17 0 -50 -12q-88 -35 -546 -216q-16 -16 -16 -53z" />
<glyph unicode="&#xf1;" horiz-adv-x="1352" d="M39 943q0 51 11 90t22 45q66 -11 129 -11q45 0 95 5.5t53 5.5q35 0 45.5 -17.5t10.5 -80.5q0 -7 -0.5 -25.5t-0.5 -29.5q86 76 195 123t210 47q140 0 227 -99t87 -311v-430q0 -65 50 -69q10 -1 26.5 -2t26 -2t23.5 -2.5t22 -3t18.5 -4t16.5 -5.5t11.5 -7t8 -9.5 t2.5 -12.5q0 -116 -33 -146q-97 8 -175 8q-51 0 -111 -4t-79 -4q-34 0 -34 76v599q0 130 -42 190.5t-110 60.5q-70 0 -153.5 -39.5t-156.5 -100.5v-527q0 -15 1.5 -23.5t7 -19.5t19.5 -16.5t36 -5.5q38 0 65 -12t27 -36q0 -117 -33 -146q-61 8 -229 8t-243 -8 q-33 30 -33 146q0 24 27 36t65 12q39 0 51 16.5t12 46.5v537q0 53 -30.5 75t-117.5 26q-13 3 -16.5 13t-3.5 43zM304 1231l3 28q9 87 51 142t124 55q56 0 135 -24t144.5 -48t89.5 -24q42 0 48 73q21 3 45 3q46 0 118 -18l-2 -25q-7 -89 -47 -142.5t-110 -53.5 q-71 0 -213.5 45.5t-172.5 45.5q-23 0 -33 -18t-15 -58q-5 -8 -47 -8q-36 0 -77 8.5t-41 18.5z" />
<glyph unicode="&#xf2;" horiz-adv-x="1194" d="M34 535q0 135 48 244t128 176.5t179 103.5t207 36q107 0 206 -36t178.5 -103.5t127.5 -176.5t48 -244t-48 -244.5t-127.5 -177.5t-178.5 -104t-206 -36q-108 0 -207 36t-179 104t-128 177.5t-48 244.5zM82 1612q0 32 33.5 46.5t113.5 14.5q69 0 103 -19.5t68 -73.5 q109 -173 252 -383h-111q-79 60 -192.5 157.5t-148.5 131.5q-21 20 -56 51t-48.5 46t-13.5 29zM268 535q0 -184 97 -287.5t229 -103.5q63 0 121 25t104.5 72.5t74.5 123.5t28 170t-28 170t-74.5 123t-104.5 72t-121 25q-132 0 -229 -103t-97 -287z" />
<glyph unicode="&#xf3;" horiz-adv-x="1194" d="M34 535q0 135 48 244t128 176.5t179 103.5t207 36q107 0 206 -36t178.5 -103.5t127.5 -176.5t48 -244t-48 -244.5t-127.5 -177.5t-178.5 -104t-206 -36q-108 0 -207 36t-179 104t-128 177.5t-48 244.5zM268 535q0 -184 97 -287.5t229 -103.5q63 0 121 25t104.5 72.5 t74.5 123.5t28 170t-28 170t-74.5 123t-104.5 72t-121 25q-132 0 -229 -103t-97 -287zM410 1197q143 210 252 383q34 54 68 73.5t103 19.5q80 0 113.5 -14.5t33.5 -46.5q0 -14 -13.5 -29t-48.5 -46t-56 -51q-35 -34 -148.5 -131.5t-192.5 -157.5h-111z" />
<glyph unicode="&#xf4;" horiz-adv-x="1194" d="M34 535q0 135 48 244t128 176.5t179 103.5t207 36q107 0 206 -36t178.5 -103.5t127.5 -176.5t48 -244t-48 -244.5t-127.5 -177.5t-178.5 -104t-206 -36q-108 0 -207 36t-179 104t-128 177.5t-48 244.5zM206 1258q0 9 4 18.5t13 22t18 23t24.5 29.5t27.5 34 q33 42 113.5 136t138.5 152h100q57 -59 139 -154t113 -134q12 -15 27.5 -34t24.5 -29.5t18 -23t13 -22t4 -18.5q0 -32 -17 -46.5t-60 -14.5q-33 0 -56 9.5t-34.5 21.5t-35.5 42l-181 231l-181 -231q-24 -30 -35.5 -42t-34.5 -21.5t-56 -9.5q-48 0 -67.5 14.5t-19.5 46.5z M268 535q0 -184 97 -287.5t229 -103.5q63 0 121 25t104.5 72.5t74.5 123.5t28 170t-28 170t-74.5 123t-104.5 72t-121 25q-132 0 -229 -103t-97 -287z" />
<glyph unicode="&#xf5;" horiz-adv-x="1194" d="M34 535q0 135 48 244t128 176.5t179 103.5t207 36q107 0 206 -36t178.5 -103.5t127.5 -176.5t48 -244t-48 -244.5t-127.5 -177.5t-178.5 -104t-206 -36q-108 0 -207 36t-179 104t-128 177.5t-48 244.5zM198 1231l3 28q9 87 51 142t124 55q56 0 135 -24t144.5 -48 t89.5 -24q42 0 48 73q21 3 45 3q46 0 118 -18l-2 -25q-7 -89 -47 -142.5t-110 -53.5q-71 0 -213.5 45.5t-172.5 45.5q-23 0 -33 -18t-15 -58q-5 -8 -47 -8q-36 0 -77 8.5t-41 18.5zM268 535q0 -184 97 -287.5t229 -103.5q63 0 121 25t104.5 72.5t74.5 123.5t28 170t-28 170 t-74.5 123t-104.5 72t-121 25q-132 0 -229 -103t-97 -287z" />
<glyph unicode="&#xf6;" horiz-adv-x="1194" d="M34 535q0 135 48 244t128 176.5t179 103.5t207 36q107 0 206 -36t178.5 -103.5t127.5 -176.5t48 -244t-48 -244.5t-127.5 -177.5t-178.5 -104t-206 -36q-108 0 -207 36t-179 104t-128 177.5t-48 244.5zM152 1333q0 57 38.5 96.5t113.5 39.5q73 0 110 -40t37 -96t-37 -96 t-110 -40q-75 0 -113.5 39.5t-38.5 96.5zM268 535q0 -184 97 -287.5t229 -103.5q63 0 121 25t104.5 72.5t74.5 123.5t28 170t-28 170t-74.5 123t-104.5 72t-121 25q-132 0 -229 -103t-97 -287zM742 1333q0 57 38.5 96.5t113.5 39.5q73 0 110 -39.5t37 -96.5q0 -56 -37 -96 t-110 -40q-75 0 -113.5 39.5t-38.5 96.5z" />
<glyph unicode="&#xf7;" horiz-adv-x="1064" d="M42 614q0 71 36 85q26 -2 143 -2q52 1 625 1q104 0 143 3q36 -14 36 -85q0 -95 -55 -95q-5 2 -62 3.5t-111 1.5l-54 1h-501q-138 -4 -145 -8q-55 0 -55 95zM342 238q0 72 49 122.5t143 50.5q93 0 139.5 -51t46.5 -122t-46.5 -122t-139.5 -51q-94 0 -143 50t-49 123z M342 978q0 73 49 123t143 50q93 0 139.5 -51t46.5 -122t-46.5 -122t-139.5 -51q-94 0 -143 50.5t-49 122.5z" />
<glyph unicode="&#xf8;" horiz-adv-x="1264" d="M71 535q0 135 48 244t127.5 176.5t178.5 103.5t207 36q128 0 238 -47q74 120 87 143q9 26 48 26q1 0 8 0.5t12 0.5q58 0 58 -40q0 -26 -15 -52q-14 -23 -45.5 -74t-41.5 -68q99 -73 155.5 -186.5t56.5 -262.5q0 -135 -48 -244.5t-128 -177.5t-179 -104t-206 -36 q-130 0 -241 49q-19 -30 -47 -75t-33 -52q-30 -47 -91 -47q-32 0 -45 17t-13 52q0 10 5.5 20.5t21 33t22.5 34.5q2 3 57 90q-197 157 -197 440zM305 535q0 -159 76 -262q39 62 120 189t149.5 235.5t121.5 193.5q-65 34 -141 34q-132 0 -229 -103t-97 -287zM489 179 q66 -35 142 -35q133 0 230 103.5t97 287.5q0 167 -84 272q-226 -371 -385 -628z" />
<glyph unicode="&#xf9;" horiz-adv-x="1315" d="M-2 932q0 116 33 146q94 -11 173 -11q55 0 112.5 5.5t59.5 5.5q34 0 34 -72v-634q0 -110 57 -165t146 -55q76 0 151.5 40t124.5 109v484q0 95 -50 99q-8 1 -22.5 2t-23 2t-20.5 2.5t-19 3t-16.5 4t-14.5 5.5t-10 7t-7 9.5t-2 12.5q0 117 33 146q94 -11 173 -11 q66 0 134.5 5.5t70.5 5.5q1 0 1 -72v-733q0 -26 1 -37t5.5 -24.5t15 -18t28.5 -8t48 -3.5q45 0 57.5 -11t12.5 -45q0 -50 -11.5 -88.5t-21.5 -45.5q-73 8 -135 8q-41 0 -85.5 -4t-54.5 -4q-40 0 -48.5 24t-8.5 128q-70 -81 -168.5 -126t-200.5 -45q-74 0 -138.5 24.5 t-116.5 72.5t-82 129t-30 185v401q0 95 -50 99q-8 1 -22.5 2t-23 2t-20.5 2.5t-19 3t-16.5 4t-14.5 5.5t-10 7t-7 9.5t-2 12.5zM233 1613q0 32 33.5 46.5t113.5 14.5q69 0 103 -19.5t68 -73.5q109 -173 252 -383h-111q-79 60 -192.5 157.5t-148.5 131.5q-21 20 -56 51 t-48.5 46t-13.5 29z" />
<glyph unicode="&#xfa;" horiz-adv-x="1315" d="M-2 932q0 116 33 146q94 -11 173 -11q55 0 112.5 5.5t59.5 5.5q34 0 34 -72v-634q0 -110 57 -165t146 -55q76 0 151.5 40t124.5 109v484q0 95 -50 99q-8 1 -22.5 2t-23 2t-20.5 2.5t-19 3t-16.5 4t-14.5 5.5t-10 7t-7 9.5t-2 12.5q0 117 33 146q94 -11 173 -11 q66 0 134.5 5.5t70.5 5.5q1 0 1 -72v-733q0 -26 1 -37t5.5 -24.5t15 -18t28.5 -8t48 -3.5q45 0 57.5 -11t12.5 -45q0 -50 -11.5 -88.5t-21.5 -45.5q-73 8 -135 8q-41 0 -85.5 -4t-54.5 -4q-40 0 -48.5 24t-8.5 128q-70 -81 -168.5 -126t-200.5 -45q-74 0 -138.5 24.5 t-116.5 72.5t-82 129t-30 185v401q0 95 -50 99q-8 1 -22.5 2t-23 2t-20.5 2.5t-19 3t-16.5 4t-14.5 5.5t-10 7t-7 9.5t-2 12.5zM361 1198q143 210 252 383q34 54 68 73.5t103 19.5q80 0 113.5 -14.5t33.5 -46.5q0 -14 -13.5 -29t-48.5 -46t-56 -51q-35 -34 -148.5 -131.5 t-192.5 -157.5h-111z" />
<glyph unicode="&#xfb;" horiz-adv-x="1315" d="M-2 932q0 116 33 146q94 -11 173 -11q55 0 112.5 5.5t59.5 5.5q34 0 34 -72v-634q0 -110 57 -165t146 -55q76 0 151.5 40t124.5 109v484q0 95 -50 99q-8 1 -22.5 2t-23 2t-20.5 2.5t-19 3t-16.5 4t-14.5 5.5t-10 7t-7 9.5t-2 12.5q0 117 33 146q94 -11 173 -11 q66 0 134.5 5.5t70.5 5.5q1 0 1 -72v-733q0 -26 1 -37t5.5 -24.5t15 -18t28.5 -8t48 -3.5q45 0 57.5 -11t12.5 -45q0 -50 -11.5 -88.5t-21.5 -45.5q-73 8 -135 8q-41 0 -85.5 -4t-54.5 -4q-40 0 -48.5 24t-8.5 128q-70 -81 -168.5 -126t-200.5 -45q-74 0 -138.5 24.5 t-116.5 72.5t-82 129t-30 185v401q0 95 -50 99q-8 1 -22.5 2t-23 2t-20.5 2.5t-19 3t-16.5 4t-14.5 5.5t-10 7t-7 9.5t-2 12.5zM259 1259q0 9 4 18.5t13 22t18 23t24.5 29.5t27.5 34q33 42 113.5 136t138.5 152h100q57 -59 139 -154t113 -134q12 -15 27.5 -34t24.5 -29.5 t18 -23t13 -22t4 -18.5q0 -32 -17 -46.5t-60 -14.5q-33 0 -56 9.5t-34.5 21.5t-35.5 42l-181 231l-181 -231q-24 -30 -35.5 -42t-34.5 -21.5t-56 -9.5q-48 0 -67.5 14.5t-19.5 46.5z" />
<glyph unicode="&#xfc;" horiz-adv-x="1315" d="M-2 932q0 116 33 146q94 -11 173 -11q55 0 112.5 5.5t59.5 5.5q34 0 34 -72v-634q0 -110 57 -165t146 -55q76 0 151.5 40t124.5 109v484q0 95 -50 99q-8 1 -22.5 2t-23 2t-20.5 2.5t-19 3t-16.5 4t-14.5 5.5t-10 7t-7 9.5t-2 12.5q0 117 33 146q94 -11 173 -11 q66 0 134.5 5.5t70.5 5.5q1 0 1 -72v-733q0 -26 1 -37t5.5 -24.5t15 -18t28.5 -8t48 -3.5q45 0 57.5 -11t12.5 -45q0 -50 -11.5 -88.5t-21.5 -45.5q-73 8 -135 8q-41 0 -85.5 -4t-54.5 -4q-40 0 -48.5 24t-8.5 128q-70 -81 -168.5 -126t-200.5 -45q-74 0 -138.5 24.5 t-116.5 72.5t-82 129t-30 185v401q0 95 -50 99q-8 1 -22.5 2t-23 2t-20.5 2.5t-19 3t-16.5 4t-14.5 5.5t-10 7t-7 9.5t-2 12.5zM183 1334q0 57 38.5 96.5t113.5 39.5q73 0 110 -40t37 -96t-37 -96t-110 -40q-75 0 -113.5 39.5t-38.5 96.5zM773 1334q0 57 38.5 96.5 t113.5 39.5q73 0 110 -39.5t37 -96.5q0 -56 -37 -96t-110 -40q-75 0 -113.5 39.5t-38.5 96.5z" />
<glyph unicode="&#xfd;" horiz-adv-x="1380" d="M35 1000q0 77 39 95q91 -26 221 -26q132 0 231 26q19 -23 34 -157v-7q0 -21 -19 -31t-41 -11t-41 -9.5t-19 -27.5q0 -16 6 -27l257 -572l223 572q5 15 5 27q0 19 -15.5 28t-34 10t-34 10.5t-15.5 30.5v7q15 134 34 157q98 -26 211 -26q120 0 221 26q39 -18 39 -95 q0 -61 -24 -85.5t-84 -24.5q-14 0 -25 -3t-17.5 -6t-12.5 -11t-8 -12.5t-6.5 -15.5t-6.5 -15l-400 -922q-59 -131 -140.5 -191.5t-199.5 -60.5q-94 0 -162 36.5t-68 82.5q0 59 10 79.5t36 20.5q10 0 69.5 -14.5t110.5 -14.5q23 0 36 1.5t27 10.5t21 17t22 34t25 48.5 t34.5 73t46.5 95.5q-37 0 -55 6.5t-27 27.5l-320 670q-1 3 -6 15t-7 15.5t-8.5 12t-13 11.5t-17 6t-24.5 3q-60 0 -84 24.5t-24 85.5zM630 1197q143 210 252 383q34 54 68 73.5t103 19.5q80 0 113.5 -14.5t33.5 -46.5q0 -14 -13.5 -29t-48.5 -46t-56 -51 q-35 -34 -148.5 -131.5t-192.5 -157.5h-111z" />
<glyph unicode="&#xfe;" horiz-adv-x="1391" d="M67 1366q0 51 11 90t22 45q77 -11 149 -11q48 0 101 5.5t56 5.5q35 0 45.5 -17.5t10.5 -80.5v-481q57 83 155.5 128t201.5 45q96 0 184 -36t159.5 -103.5t114.5 -176.5t43 -244t-43.5 -244.5t-115.5 -177.5t-162 -104t-187 -36q-212 0 -350 118v-246q0 -15 1.5 -23.5 t7 -19.5t19.5 -16.5t36 -5.5q38 0 65 -12t27 -36q0 -117 -33 -146q-67 15 -226 15q-171 0 -246 -15q-33 30 -33 146q0 24 27 36t65 12q39 0 51 16.5t12 46.5v1366q0 53 -30.5 75t-117.5 26q-13 3 -16.5 13t-3.5 43zM462 293q53 -72 140 -111.5t180 -39.5q128 0 215.5 100.5 t87.5 292.5q0 184 -94 287t-223 103q-56 0 -110 -22t-98 -63t-71 -107.5t-27 -148.5v-291z" />
<glyph unicode="&#xff;" horiz-adv-x="1380" d="M35 1000q0 77 39 95q91 -26 221 -26q132 0 231 26q19 -23 34 -157v-7q0 -21 -19 -31t-41 -11t-41 -9.5t-19 -27.5q0 -16 6 -27l257 -572l223 572q5 15 5 27q0 19 -15.5 28t-34 10t-34 10.5t-15.5 30.5v7q15 134 34 157q98 -26 211 -26q120 0 221 26q39 -18 39 -95 q0 -61 -24 -85.5t-84 -24.5q-14 0 -25 -3t-17.5 -6t-12.5 -11t-8 -12.5t-6.5 -15.5t-6.5 -15l-400 -922q-59 -131 -140.5 -191.5t-199.5 -60.5q-94 0 -162 36.5t-68 82.5q0 59 10 79.5t36 20.5q10 0 69.5 -14.5t110.5 -14.5q23 0 36 1.5t27 10.5t21 17t22 34t25 48.5 t34.5 73t46.5 95.5q-37 0 -55 6.5t-27 27.5l-320 670q-1 3 -6 15t-7 15.5t-8.5 12t-13 11.5t-17 6t-24.5 3q-60 0 -84 24.5t-24 85.5zM242 1333q0 57 38.5 96.5t113.5 39.5q73 0 110 -40t37 -96t-37 -96t-110 -40q-75 0 -113.5 39.5t-38.5 96.5zM832 1333q0 57 38.5 96.5 t113.5 39.5q73 0 110 -39.5t37 -96.5q0 -56 -37 -96t-110 -40q-75 0 -113.5 39.5t-38.5 96.5z" />
<glyph unicode="&#x152;" horiz-adv-x="2536" d="M116 747q0 117 30 227.5t92.5 208t151 171t214 116t272.5 42.5q254 0 470 -11t411 -11q95 0 198 2.5t194 6.5t110 4q21 -15 77.5 -204t56.5 -226q0 -7 -7.5 -19.5t-23 -27t-45 -24.5t-67.5 -10q-18 0 -41 64t-46 149t-32 106q-70 0 -234.5 -0.5t-260.5 -0.5 q-15 0 -23 -11t-9.5 -22.5t-1.5 -30.5v-377q58 20 143.5 36t156.5 16q60 0 96 -30.5t36 -97.5q0 -56 -38.5 -93.5t-90.5 -37.5q-72 91 -206 91q-39 0 -97 -7v-502q0 -20 1.5 -31.5t9.5 -22.5t23 -11q103 0 277 -0.5t248 -0.5q12 23 43 119t62 168t54 72q38 0 67.5 -10 t45 -24.5t23 -27t7.5 -19.5q0 -41 -76 -254t-102 -228q-280 26 -528 26q-142 0 -434 -13.5t-447 -13.5q-147 0 -272 43.5t-213.5 118t-151.5 173.5t-93 210.5t-30 228.5zM371 743q0 -90 20 -174.5t61.5 -160t100.5 -132t142 -90t181 -33.5q488 0 495 10v1160q0 10 -495 10 q-121 0 -219.5 -50.5t-159.5 -134.5t-93.5 -188t-32.5 -217z" />
<glyph unicode="&#x153;" horiz-adv-x="2043" d="M71 535q0 135 48 244t127.5 176.5t178.5 103.5t207 36q132 0 251.5 -58.5t194.5 -168.5q73 109 189.5 168.5t242.5 59.5q76 0 146 -19t132 -59.5t108 -99t72.5 -142.5t26.5 -185q0 -46 -23.5 -70.5t-88.5 -24.5h-690q4 -91 32 -157t74 -103.5t101 -55t120 -17.5 q91 0 188 33t180 89q81 -70 81 -127q0 -32 -37.5 -65t-98.5 -59.5t-144 -43.5t-167 -17q-138 0 -256 53.5t-191 169.5q-75 -109 -193 -166t-250 -57q-108 0 -207 36t-178.5 104t-127.5 177.5t-48 244.5zM305 535q0 -184 97 -287.5t229 -103.5q133 0 230 103.5t97 287.5 t-97 287t-230 103q-132 0 -229 -103t-97 -287zM1199 651h594q-9 139 -87.5 211.5t-187.5 72.5q-116 0 -210.5 -77.5t-108.5 -206.5z" />
<glyph unicode="&#x178;" horiz-adv-x="1474" d="M11 1481q0 19 9 24q126 -8 282 -8q154 0 255 8q3 -9 25 -168q0 -1 0.5 -3t0.5 -3q0 -19 -32.5 -25.5t-65.5 -11t-33 -20.5q0 -10 18 -42l244 -425q28 -46 33 -49q7 2 32 49q168 296 245 425q18 30 18 42q0 16 -33 20.5t-65.5 11t-32.5 25.5q0 1 0.5 3t0.5 3 q22 159 25 168q94 -8 235 -8q156 0 282 8q9 -5 9 -24q0 -10 -3 -22v-15q0 -10 0.5 -32t0.5 -33q0 -12 -2 -34q-14 -24 -50 -36t-78 -12q-65 0 -101 -63l-377 -642l-1 -327q0 -15 1.5 -23.5t7 -19.5t19.5 -16.5t36 -5.5q46 0 79 -12t33 -36q0 -133 -33 -163q-150 11 -257 11 q-102 0 -249 -11q-22 16 -32.5 64t-10.5 99q0 24 33 36t79 12q39 0 51 16.5t12 46.5v329l-377 642q-38 63 -101 63q-42 0 -78 12t-50 36q0 21 -2 69t-2 67zM293 1750q0 57 38.5 96.5t113.5 39.5q73 0 110 -40t37 -96t-37 -96t-110 -40q-75 0 -113.5 39.5t-38.5 96.5z M883 1750q0 57 38.5 96.5t113.5 39.5q73 0 110 -39.5t37 -96.5q0 -56 -37 -96t-110 -40q-75 0 -113.5 39.5t-38.5 96.5z" />
<glyph unicode="&#x2c6;" horiz-adv-x="930" d="M71 1210q0 9 4 18.5t13 22t18 23t24.5 29.5t27.5 34q33 42 113.5 136t138.5 152h100q57 -59 139 -154t113 -134q12 -15 27.5 -34t24.5 -29.5t18 -23t13 -22t4 -18.5q0 -32 -17 -46.5t-60 -14.5q-33 0 -56 9.5t-34.5 21.5t-35.5 42l-181 231l-181 -231q-24 -30 -35.5 -42 t-34.5 -21.5t-56 -9.5q-48 0 -67.5 14.5t-19.5 46.5z" />
<glyph unicode="&#x2dc;" horiz-adv-x="999" d="M121 1259l3 28q9 87 51 142t124 55q56 0 135 -24t144.5 -48t89.5 -24q42 0 48 73q21 3 45 3q46 0 118 -18l-2 -25q-7 -89 -47 -142.5t-110 -53.5q-71 0 -213.5 45.5t-172.5 45.5q-23 0 -33 -18t-15 -58q-5 -8 -47 -8q-36 0 -77 8.5t-41 18.5z" />
<glyph unicode="&#x2000;" horiz-adv-x="1045" />
<glyph unicode="&#x2001;" horiz-adv-x="2090" />
<glyph unicode="&#x2002;" horiz-adv-x="1045" />
<glyph unicode="&#x2003;" horiz-adv-x="2090" />
<glyph unicode="&#x2004;" horiz-adv-x="696" />
<glyph unicode="&#x2005;" horiz-adv-x="522" />
<glyph unicode="&#x2006;" horiz-adv-x="348" />
<glyph unicode="&#x2007;" horiz-adv-x="348" />
<glyph unicode="&#x2008;" horiz-adv-x="261" />
<glyph unicode="&#x2009;" horiz-adv-x="418" />
<glyph unicode="&#x200a;" horiz-adv-x="116" />
<glyph unicode="&#x2010;" horiz-adv-x="913" d="M56 716q0 90 76 90q58 0 197.5 -0.5t223.5 -0.5h236q37 0 52.5 -7.5t15.5 -29.5q0 -146 -67 -146h-429q-162 0 -237 -4q-68 0 -68 98z" />
<glyph unicode="&#x2011;" horiz-adv-x="913" d="M56 716q0 90 76 90q58 0 197.5 -0.5t223.5 -0.5h236q37 0 52.5 -7.5t15.5 -29.5q0 -146 -67 -146h-429q-162 0 -237 -4q-68 0 -68 98z" />
<glyph unicode="&#x2012;" horiz-adv-x="913" d="M56 716q0 90 76 90q58 0 197.5 -0.5t223.5 -0.5h236q37 0 52.5 -7.5t15.5 -29.5q0 -146 -67 -146h-429q-162 0 -237 -4q-68 0 -68 98z" />
<glyph unicode="&#x2013;" horiz-adv-x="1528" d="M293 646q0 71 36 85q26 -2 143 -2q52 1 625 1q104 0 143 3q36 -14 36 -85q0 -95 -55 -95q-5 2 -62 3.5t-111 1.5l-54 1h-501q-138 -4 -145 -8q-55 0 -55 95z" />
<glyph unicode="&#x2014;" horiz-adv-x="1528" d="M0 646q0 71 36 85q26 -2 143 -2q52 1 1171 1q104 0 143 3q36 -14 36 -85q0 -95 -55 -95q-5 2 -62 3.5t-111 1.5l-54 1h-1047q-138 -4 -145 -8q-55 0 -55 95z" />
<glyph unicode="&#x2018;" horiz-adv-x="497" d="M68 1136q0 87 35.5 174.5t95 144.5t122.5 57q48 0 48 -31q0 -26 -49.5 -95.5t-49.5 -73.5q0 -10 18 -18t44 -18t52.5 -25.5t44.5 -47.5t18 -76q0 -76 -52.5 -124t-135.5 -48q-80 0 -135.5 52.5t-55.5 128.5z" />
<glyph unicode="&#x2019;" horiz-adv-x="497" d="M98 1340q0 76 52.5 124t135.5 48q80 0 135.5 -52.5t55.5 -128.5q0 -87 -35.5 -174.5t-95 -144.5t-122.5 -57q-48 0 -48 31q0 26 49.5 95.5t49.5 73.5q0 10 -18 18t-44 18t-52.5 25.5t-44.5 47.5t-18 76z" />
<glyph unicode="&#x201a;" horiz-adv-x="497" d="M78 129q0 76 52.5 124t135.5 48q80 0 135.5 -52.5t55.5 -128.5q0 -87 -35.5 -174.5t-95 -144.5t-122.5 -57q-48 0 -48 31q0 26 49.5 95.5t49.5 73.5q0 10 -18 18t-44 18t-52.5 25.5t-44.5 47.5t-18 76z" />
<glyph unicode="&#x201c;" horiz-adv-x="1085" d="M120 1136q0 87 35.5 174.5t95 144.5t122.5 57q48 0 48 -31q0 -26 -49.5 -95.5t-49.5 -73.5q0 -10 18 -18t44 -18t52.5 -25.5t44.5 -47.5t18 -76q0 -76 -52.5 -124t-135.5 -48q-80 0 -135.5 52.5t-55.5 128.5zM581 1136q0 87 35.5 174.5t95 144.5t122.5 57q48 0 48 -31 q0 -26 -49.5 -95.5t-49.5 -73.5q0 -9 13 -16t33 -13t42.5 -18t42.5 -27.5t33 -44.5t13 -66q0 -76 -52.5 -124t-135.5 -48q-80 0 -135.5 52.5t-55.5 128.5z" />
<glyph unicode="&#x201d;" horiz-adv-x="1085" d="M120 1340q0 76 52.5 124t135.5 48q80 0 135.5 -52.5t55.5 -128.5q0 -87 -35.5 -174.5t-95 -144.5t-122.5 -57q-48 0 -48 31q0 26 49.5 95.5t49.5 73.5q0 10 -18 18t-44 18t-52.5 25.5t-44.5 47.5t-18 76zM581 1340q0 76 52.5 124t135.5 48q80 0 135.5 -52.5t55.5 -128.5 q0 -87 -35.5 -174.5t-95 -144.5t-122.5 -57q-48 0 -48 31q0 26 49.5 95.5t49.5 73.5q0 10 -18 18t-44 18t-52.5 25.5t-44.5 47.5t-18 76z" />
<glyph unicode="&#x201e;" horiz-adv-x="1085" d="M120 129q0 76 52.5 124t135.5 48q80 0 135.5 -52.5t55.5 -128.5q0 -87 -35.5 -174.5t-95 -144.5t-122.5 -57q-48 0 -48 31q0 26 49.5 95.5t49.5 73.5q0 10 -18 18t-44 18t-52.5 25.5t-44.5 47.5t-18 76zM581 129q0 76 52.5 124t135.5 48q80 0 135.5 -52.5t55.5 -128.5 q0 -87 -35.5 -174.5t-95 -144.5t-122.5 -57q-48 0 -48 31q0 26 49.5 95.5t49.5 73.5q0 10 -18 18t-44 18t-52.5 25.5t-44.5 47.5t-18 76z" />
<glyph unicode="&#x2022;" horiz-adv-x="1161" d="M163 690q0 73 26.5 139t77.5 120t133.5 86t185.5 32q101 0 181.5 -31.5t129.5 -85t75 -119t26 -138.5q0 -74 -27 -143.5t-77.5 -125.5t-131.5 -90t-179 -34q-100 0 -181.5 33.5t-132.5 89t-78.5 124.5t-27.5 143z" />
<glyph unicode="&#x202f;" horiz-adv-x="418" />
<glyph unicode="&#x2039;" horiz-adv-x="1024" d="M210 534q0 40 134.5 171.5t269.5 243.5l134 112q11 8 21 8q22 0 71.5 -60t49.5 -94q0 -16 -13 -29l-398 -352l408 -352q13 -13 13 -29q0 -34 -53.5 -94t-77.5 -60q-10 0 -21 8q-11 9 -30.5 25t-75.5 63.5t-106.5 91.5t-113 101.5t-107 103t-75 85t-30.5 57.5z" />
<glyph unicode="&#x203a;" horiz-adv-x="1024" d="M200 153q0 16 13 29l408 352l-398 352q-13 13 -13 29q0 34 49.5 94t71.5 60q10 0 21 -8q11 -9 30.5 -25t75.5 -63.5t106.5 -91.5t113 -101.5t107 -103t75 -85t30.5 -57.5q0 -40 -134.5 -171.5t-269.5 -243.5l-134 -112q-11 -8 -21 -8q-24 0 -77.5 60t-53.5 94z" />
<glyph unicode="&#x205f;" horiz-adv-x="522" />
<glyph unicode="&#x20ac;" horiz-adv-x="1503" d="M5 623q0 58 29 69q14 -2 60 -2h101q0 7 -0.5 21.5t-0.5 22.5q0 57 5 97h-83q-50 0 -58 -4q-45 0 -45 77q0 57 29 69q8 -1 75 -1h108q65 239 244 389.5t427 150.5q107 0 213 -28.5t179.5 -84t73.5 -122.5q0 -51 -39 -102q-93 74 -200.5 112t-209.5 38q-165 0 -277.5 -98 t-163.5 -255h253q96 0 116 2q29 -11 29 -69q0 -77 -44 -77q-4 2 -50 3t-90 1l-44 1l-201 -1q-5 -39 -5 -94q0 -16 2 -48h263q72 0 116 4q29 -12 29 -69q0 -77 -45 -77q-8 4 -138 4l-46 -1h-153q51 -162 181.5 -265t324.5 -103q233 0 430 147q39 -52 39 -102 q0 -72 -77.5 -132.5t-190.5 -91.5t-228 -31q-124 0 -232 30.5t-189.5 83.5t-145 126.5t-103 158t-60.5 179.5h-86q-70 0 -77 -5q-45 0 -45 77z" />
<glyph unicode="&#x2122;" horiz-adv-x="2227" d="M104 1261q0 21 22 128.5t30 116.5q2 0 4 -0.5t4 -0.5q149 -14 332 -14t332 14q1 0 3 0.5t5 0.5q8 -9 30 -116.5t22 -128.5q0 -7 -8 -17t-31.5 -20.5t-57.5 -10.5q-8 0 -18.5 34t-20.5 78t-15 55h-137q-14 0 -14 -21v-554q0 -12 1.5 -19t10.5 -13.5t26 -6.5q67 0 67 -28 q0 -99 -19 -119q-168 7 -176 7q-65 0 -175 -7q-20 21 -20 119q0 28 66 28q24 0 31 10t7 28v555q0 21 -14 21h-136q-5 -11 -15.5 -55t-21 -78t-18.5 -34q-33 0 -56.5 10.5t-31.5 20.5t-8 17zM972 748q0 28 65 28q23 0 30.5 10t7.5 27v507q0 20 -16 29t-35.5 9t-35.5 6.5 t-16 23.5q0 96 31 115q102 -8 160 -8q25 0 63 2t46 2q2 0 4 -0.5t3 -0.5q6 -1 54.5 -104.5t126.5 -277t90 -200.5q68 163 161.5 372t102.5 210q4 1 7 1q9 0 51.5 -2t69.5 -2q86 0 134 8q26 -23 26 -121q0 -14 -20 -21t-46 -7q-23 0 -30.5 -10t-7.5 -27v-505q0 -18 7.5 -27.5 t30.5 -9.5q26 0 46 -7.5t20 -21.5q0 -36 -8 -70.5t-24 -45.5q-72 6 -135 6q-71 0 -149 -6q-25 22 -25 118q0 28 66 28q25 0 31.5 10t6.5 28v489q0 1 -27.5 -62t-67 -154l-79 -182t-67.5 -155l-27 -63q0 -1 -9.5 -8.5t-25.5 -15t-29 -7.5q-30 0 -51 45q-11 25 -30 67.5 t-52 116.5t-63.5 143t-59.5 133.5t-46.5 103.5t-17.5 38v-489q0 -11 1 -17.5t10 -13.5t26 -7q66 0 66 -28q0 -96 -25 -118q-68 6 -131 6q-73 0 -157 -6q-31 22 -31 118z" />
<glyph unicode="&#x25fc;" horiz-adv-x="1095" d="M0 0v1095h1095v-1095h-1095z" />
</font>
</defs>
</svg>
