<?xml version="1.0" standalone="no"?>
<!DOCTYPE svg PUBLIC "-//W3C//DTD SVG 1.1//EN" "http://www.w3.org/Graphics/SVG/1.1/DTD/svg11.dtd" >
<svg xmlns="http://www.w3.org/2000/svg">
<metadata></metadata>
<defs>
<font id="coustardbold" horiz-adv-x="1890" >
<font-face units-per-em="2048" ascent="1638" descent="-410" />
<missing-glyph horiz-adv-x="442" />
<glyph unicode="&#xfb01;" horiz-adv-x="1725" d="M36 1032q0 5 40.5 14t81.5 15l40 6q11 82 34.5 146.5t56 111.5t81 81t102.5 55t127.5 33.5t149 17t173.5 4.5q242 0 347 -20q207 -41 207 -177q0 -41 -17 -72t-44 -46.5t-53 -22.5t-51 -7q-54 0 -90.5 10t-56 25.5t-33.5 34.5t-28.5 37.5t-35 34t-60.5 25.5t-97 10 q-123 0 -194 -19t-94 -47t-23 -70q0 -78 84 -147q1 0 41.5 0.5t87.5 1t66 0.5h384q52 0 117 7t82 7q45 0 59 -17t14 -71q0 -4 -1 -82t-2.5 -175.5t-1.5 -148.5q0 -45 1 -76.5t5.5 -74.5t13 -70.5t24.5 -48t39 -23.5q18 -3 27.5 -5.5t23 -9.5t19.5 -20t6 -32 q0 -75 -20.5 -155t-57.5 -99q-138 27 -302 27q-174 0 -316 -27q-37 19 -57.5 99t-20.5 155q0 19 5 32t16 20t19 9.5t23 5.5q22 3 36.5 27t20.5 65.5t8 76.5t2 84v136q0 132 -5 167.5t-28 36.5h-327v-300q0 -282 67 -290q23 -4 34 -7t26 -10t21 -20t6 -32q0 -75 -20.5 -155.5 t-57.5 -99.5q-142 27 -313 27q-181 0 -329 -27q-37 19 -57.5 99.5t-20.5 155.5q0 19 6 32t21 20t26 10t34 7q72 8 72 241q0 337 -3 337h-6q-151 0 -151 26q0 27 -1.5 69.5t-1.5 61.5z" />
<glyph unicode="&#xfb02;" horiz-adv-x="1758" d="M36 926q0 5 40.5 14t81.5 15l40 6q0 140 33.5 239.5t112 172.5t213.5 108t331 35q635 0 635 -13q42 0 57.5 -15.5t15.5 -72.5q0 -43 -5.5 -196.5t-5.5 -209.5v-422q0 -44 1 -76.5t5 -74.5t11.5 -69.5t21.5 -48t34 -22.5q23 -4 34 -7t26 -10t21 -20t6 -32 q0 -75 -20.5 -155t-57.5 -99q-145 27 -319 27q-180 0 -329 -27q-37 19 -57.5 99t-20.5 155q0 19 6 32t21 20t26 10t34 7q24 2 39.5 25.5t22 65.5t8.5 76.5t2 83.5v748q0 17 -17.5 27t-86.5 18t-194 8q-101 0 -152 -37.5t-51 -98.5q0 -134 84 -253q2 0 45.5 0.5t94.5 1 t71 0.5q48 0 65.5 -13t17.5 -58q0 -109 -88 -109h-205v-194q0 -282 83 -290q23 -4 34 -7t26 -10t21 -20t6 -32q0 -75 -20.5 -155.5t-57.5 -99.5q-148 27 -329 27t-329 -27q-37 19 -57.5 99.5t-20.5 155.5q0 19 6 32t21 20t26 10t34 7q72 8 72 241q0 231 -3 231h-6 q-151 0 -151 26q0 27 -1.5 69.5t-1.5 61.5z" />
<glyph horiz-adv-x="2048" />
<glyph horiz-adv-x="2048" />
<glyph unicode="&#xd;" horiz-adv-x="2048" />
<glyph unicode=" "  horiz-adv-x="442" />
<glyph unicode="&#x09;" horiz-adv-x="442" />
<glyph unicode="&#xa0;" horiz-adv-x="442" />
<glyph unicode="!" horiz-adv-x="670" d="M51 1438q0 42 21.5 60t68.5 18h396q47 0 68.5 -18t21.5 -60q0 -19 -26.5 -168t-62.5 -354.5t-52 -323.5q-4 -29 -6.5 -59.5t-2 -45.5t-4 -31t-10 -21.5t-22.5 -11t-39 -6.5t-62 -1q-41 0 -63 1t-39.5 6.5t-23.5 11t-10 21.5t-4 30.5t-2 45.5t-6 60q-17 117 -53 323.5 t-62 355t-26 167.5zM87 140q0 176 255 176q74 0 126 -17t76 -45.5t34 -56.5t10 -60q0 -47 -25 -81.5t-64 -51.5t-76.5 -25t-73.5 -8t-75.5 7t-84 24t-73.5 53t-29 85z" />
<glyph unicode="&#x22;" horiz-adv-x="1161" d="M63 1347q0 102 68 165t178 63q104 0 176.5 -69t72.5 -169q0 -60 -31 -132.5t-80.5 -135t-117.5 -104.5t-134 -42q-37 0 -59.5 17t-22.5 38q0 14 18 36t39.5 41.5t39.5 44.5t18 45q0 11 -26 22t-56.5 24.5t-56.5 54t-26 101.5zM612 1347q0 102 68 165t178 63 q104 0 176.5 -69t72.5 -169q0 -60 -31 -132.5t-80.5 -135t-117.5 -104.5t-134 -42q-37 0 -59.5 17t-22.5 38q0 18 29 47.5t57.5 62t28.5 57.5q0 11 -26 22t-56.5 24.5t-56.5 54t-26 101.5z" />
<glyph unicode="#" horiz-adv-x="1112" d="M40 778q0 34 19.5 68t64.5 47q39 6 101 8q11 35 30.5 99.5t27.5 90.5q-12 0 -36 -0.5t-35 -0.5h-16q-33 0 -48.5 9t-15.5 39q0 34 19.5 68t64.5 47q14 2 119 9q40 132 52 182q13 52 99 52q101 0 101 -62q0 -14 -7.5 -40.5t-21.5 -67t-20 -61.5h206q34 113 51 179 q13 52 99 52q101 0 101 -62q0 -11 -16 -63l-33 -103h100q37 0 37 -45v-6q0 -14 -3 -30t-11.5 -37.5t-29.5 -35.5t-52 -14h-90l-55 -192h112q37 0 37 -45v-6q0 -14 -3 -30t-11.5 -37.5t-29.5 -35.5t-52 -14h-100l-58 -207q-8 -29 -13 -41.5t-16.5 -28.5t-30.5 -21.5t-49 -5.5 q-17 0 -36.5 6t-39 25.5t-19.5 50.5q0 11 2 18q12 67 51 199h-200q-16 -54 -57 -202q-8 -29 -13 -41.5t-16.5 -28.5t-30.5 -21.5t-49 -5.5q-17 0 -36.5 6t-39 25.5t-19.5 50.5q0 13 2.5 30t8.5 40.5t11 41.5t14.5 51t14.5 50q-10 0 -28.5 -0.5t-27.5 -0.5h-16q-33 0 -48.5 9 t-15.5 39zM434 905h200l59 190h-205z" />
<glyph unicode="$" horiz-adv-x="1145" d="M43 987q0 80 48 144t128 103t176.5 59.5t199.5 20.5q466 0 466 -263q0 -12 -4 -23.5t-16 -26t-41 -23.5t-72 -9q-26 0 -55 -0.5t-33 -0.5q-33 0 -56 8t-37.5 28.5t-21 34t-17.5 45.5q-7 19 -37 29.5t-70 10.5q-39 0 -68 -15.5t-29 -43.5q0 -31 46.5 -65t122.5 -55 q51 -14 85.5 -24.5t84 -30t83 -39.5t71 -51t59.5 -66.5t37 -84t15 -105.5q0 -91 -41 -160t-116 -110.5t-174 -61.5t-222 -20q-129 0 -244.5 35t-191 104.5t-75.5 156.5q0 84 133 84q29 0 61.5 0.5t36.5 0.5q64 0 88.5 -23t42.5 -80q7 -33 36 -50t67 -17q46 0 82 18t36 47 q0 27 -26 52t-68.5 45t-85 35.5t-88 31t-64.5 24.5q-122 58 -187 138t-65 193zM420 1251v190q0 36 15.5 55.5t36.5 19.5t34 -12.5t18.5 -42t7 -55.5t2 -76.5t2.5 -80.5zM438 48v190l116 2q-2 -30 -2.5 -81t-2 -76.5t-7 -55t-18.5 -42t-34 -12.5t-36.5 19.5t-15.5 55.5z M633 1250q1 26 2 60t1.5 57t2 48.5t5 42t9 31t15.5 21t24 6.5q23 0 40 -20t17 -55v-191h-116zM651 239h116v-191q0 -35 -17 -55t-40 -20q-19 0 -31 12t-16.5 41t-6 54t-2.5 76.5t-3 82.5z" />
<glyph unicode="%" horiz-adv-x="1533" d="M40 1103q0 168 108 278.5t265 110.5q143 0 232 -90.5t89 -239.5q0 -169 -101.5 -281.5t-262.5 -112.5q-146 0 -238 94t-92 241zM232 111q0 1 2 5q68 83 287 441.5t367 629.5q99 182 113 252q6 32 41 47.5t83 15.5q60 0 119 -19t59 -49q0 -21 -14 -39 q-527 -717 -703 -1185q-17 -44 -26 -75q-25 -87 -143 -87q-61 0 -123 22t-62 41zM297 1140q0 -104 22.5 -177.5t54.5 -73.5q37 0 56.5 69t19.5 164q0 111 -21 184.5t-54 73.5q-38 0 -58 -71.5t-20 -168.5zM801 358q0 170 106.5 281t265.5 111q143 0 232 -91t89 -239 q0 -166 -101.5 -280t-258.5 -114q-148 0 -240.5 92.5t-92.5 239.5zM1057 395q0 -103 23 -175.5t55 -72.5q37 0 56 66.5t19 162.5q0 113 -21 187.5t-54 74.5q-38 0 -58 -73t-20 -170z" />
<glyph unicode="&#x26;" horiz-adv-x="1727" d="M35 399q0 66 17.5 123.5t46 100.5t71.5 81t87.5 65.5t100.5 53.5q-144 196 -144 327q0 10 2 30q9 62 38 113.5t68 85.5t89 60t96.5 40t94.5 23t79 11.5t55 2.5q136 0 250.5 -37.5t189.5 -118t75 -190.5q0 -68 -27 -131.5t-78 -118.5t-105 -98t-127 -90q121 -131 273 -280 q52 56 65 102q-5 1 -25.5 4.5t-26 5.5t-19 10t-18 19t-9 31t-4.5 48q0 65 8 137l12 5q353 7 466 7q18 0 28.5 -41.5t10.5 -88.5q0 -61 -12 -107q-83 -14 -160 -41q-67 -152 -141 -258q2 -3 8 -7q38 -45 143 -45q38 0 78.5 6.5t62 12.5t25.5 8q2 1 4.5 -16.5t4.5 -46t2 -55.5 q0 -128 -20 -132q-138 -36 -267 -36q-111 0 -170.5 18.5t-117.5 70.5q-173 -90 -448 -90q-130 0 -244 28t-201 80.5t-137 134.5t-50 183zM530 435q0 -89 61.5 -130t164.5 -41q64 0 129 16q-182 164 -278 260q-77 -59 -77 -105zM632 1150q0 -59 84 -179q82 40 126.5 88 t44.5 114q0 50 -34.5 74.5t-89.5 24.5q-54 0 -92.5 -35t-38.5 -87z" />
<glyph unicode="'" horiz-adv-x="612" d="M63 1347q0 102 68 165t178 63q104 0 176.5 -69t72.5 -169q0 -60 -31 -132.5t-80.5 -135t-117.5 -104.5t-134 -42q-37 0 -59.5 17t-22.5 38q0 14 18 36t39.5 41.5t39.5 44.5t18 45q0 11 -26 22t-56.5 24.5t-56.5 54t-26 101.5z" />
<glyph unicode="(" horiz-adv-x="710" d="M54 765q0 191 47.5 369t143 321.5t225.5 212.5q78 -30 139 -91t61 -120q0 -10 -1 -15q-119 -122 -176.5 -281.5t-57.5 -389.5q0 -236 57 -398t177 -285q1 -5 1 -15q0 -59 -61 -120t-139 -91q-130 69 -225.5 212.5t-143 321.5t-47.5 369z" />
<glyph unicode=")" horiz-adv-x="719" d="M47 73q0 9 1 15q120 123 177 285t57 398q0 230 -57.5 389.5t-176.5 281.5q-1 5 -1 15q0 59 61 120t139 91q130 -69 225.5 -212.5t143 -321.5t47.5 -369t-47.5 -369t-143 -321.5t-225.5 -212.5q-78 30 -139 91t-61 120z" />
<glyph unicode="*" horiz-adv-x="1178" d="M36 898q0 72 51 127t117 55q32 0 63 -17l192 -114l-55 215q-2 8 -2 24q0 64 56 110.5t127 46.5t127 -46.5t56 -110.5q0 -8 -2 -24l-55 -215l192 114q34 17 63 17q66 0 116.5 -55t50.5 -127q0 -58 -33 -104t-88 -53l-232 -19l186 -138l17 -17q31 -38 31 -91 q0 -77 -58 -135t-139 -58q-40 0 -75.5 17t-51.5 50l-106 226l-106 -226q-15 -31 -52 -49t-75 -18q-81 0 -139 57.5t-58 135.5q0 53 31 91l17 17l186 138l-230 19q-56 8 -89 53.5t-33 103.5z" />
<glyph unicode="+" horiz-adv-x="942" d="M45 747q0 71 36 85q39 -3 143 -3h159v14q-1 254 -6 267q0 25 26.5 40.5t78.5 15.5q69 0 85 -37q-3 -39 -3 -143v-156q84 1 157 1q104 0 143 3q36 -14 36 -85q0 -105 -55 -105q-6 2 -72.5 3.5t-130.5 2.5h-64h-13q1 -74 1 -234q0 -37 3 -69q-16 -37 -85 -37 q-105 0 -105 55q2 6 3.5 73t1.5 130l1 64v16h-18q-254 -1 -267 -6q-55 0 -55 105z" />
<glyph unicode="," horiz-adv-x="611" d="M58 214q0 102 68 165t178 63q104 0 176.5 -69t72.5 -169q0 -60 -31 -132.5t-80.5 -135t-117.5 -104.5t-134 -42q-37 0 -59.5 17t-22.5 38q0 18 29 47.5t57.5 62t28.5 57.5q0 9 -17 17t-41.5 18.5t-48.5 27.5t-41 53t-17 86z" />
<glyph unicode="-" horiz-adv-x="963" d="M68 679q0 125 52 197.5t164 72.5q42 0 142.5 -10.5t158.5 -10.5q48 0 132 9t104 9q37 0 52.5 -9.5t15.5 -35.5q0 -44 -2.5 -79t-9.5 -75t-21 -70t-35 -55t-54 -38t-75 -13q-50 0 -159 7t-160 7q-147 0 -237 -18q-68 0 -68 112z" />
<glyph unicode="." horiz-adv-x="637" d="M62 209q0 99 66.5 167t194.5 68q65 0 115.5 -20t79.5 -54t43.5 -74.5t14.5 -86.5q0 -97 -63.5 -166t-189.5 -69q-128 0 -194.5 68.5t-66.5 166.5z" />
<glyph unicode="/" horiz-adv-x="1011" d="M36 117q0 18 7 36q54 132 287 669t292 688q30 77 146 77q114 0 163.5 -20t49.5 -61q0 -13 -4.5 -27t-16.5 -41.5t-16 -37.5q-209 -533 -514 -1261q-14 -32 -21 -46.5t-21.5 -36t-30.5 -30.5t-42 -16t-61 -7q-33 0 -67.5 5.5t-70 17t-58 35.5t-22.5 56z" />
<glyph unicode="0" horiz-adv-x="1827" d="M64 748q0 177 65 322t181 242t275.5 150t348.5 53q186 0 344.5 -57.5t267 -158.5t169.5 -240.5t61 -300.5q0 -168 -66.5 -315t-180.5 -250t-270.5 -162.5t-331.5 -59.5q-135 0 -262 32.5t-236 98.5t-190.5 157.5t-128 217.5t-46.5 271zM747 751q0 -98 6.5 -184.5 t23.5 -175t52 -140.5t85 -52q36 0 64 25t46 70t30.5 98t18.5 119t8.5 122t2.5 117q0 533 -165 533q-37 0 -66 -22.5t-47 -65t-30.5 -91.5t-18.5 -113.5t-8 -119t-2 -120.5z" />
<glyph unicode="1" horiz-adv-x="994" d="M28 1236q0 63 27.5 153.5t60.5 112.5q205 -13 332 -13q80 0 171.5 12.5t112.5 14.5q69 0 69 -74v-867q0 -55 2.5 -93.5t10 -85t25.5 -73t46 -29.5q18 -3 27.5 -5.5t23 -9.5t19.5 -20t6 -32q0 -75 -20.5 -155t-57.5 -99q-145 27 -319 27q-234 0 -409 -27q-37 19 -57.5 99 t-20.5 155q0 19 6 32t19.5 20t23 9.5t27.5 5.5q26 3 43.5 25.5t25.5 63t11 79.5t3 93v534q0 32 -21.5 47t-52 18.5l-61 7t-52 21t-21.5 53.5z" />
<glyph unicode="2" horiz-adv-x="1496" d="M37 1095q0 119 45 222t99 139q96 26 264.5 42t356.5 16q88 0 170.5 -10.5t162.5 -36t139 -63.5t95.5 -98.5t36.5 -135.5q0 -88 -32 -172t-78.5 -147.5t-117.5 -132.5t-131 -115.5t-139 -108t-122 -99.5h48q39 0 66.5 1.5t75.5 11.5t83.5 27.5t73 53.5t60.5 86 q78 34 134 34q16 0 37.5 -5t44.5 -15t39 -30t16 -46q0 -73 -56 -227.5t-95 -226.5q-84 -61 -783 -61q-82 0 -208.5 1t-162.5 1q-34 12 -70 66.5t-40 106.5q1 15 12.5 38t36.5 55.5t47.5 60t62.5 71t64 70t69.5 74t63.5 66.5q137 145 230 290t93 257q0 136 -86 136 q-46 0 -114 -43t-125.5 -98.5t-99.5 -100.5t-47 -55q-60 0 -139.5 33t-79.5 68z" />
<glyph unicode="3" horiz-adv-x="1552" d="M45 304q0 54 70.5 105t133.5 51q6 0 35.5 -23t68.5 -50t112.5 -50t156.5 -23q258 0 258 183q0 80 -51 134.5t-120 59.5q-60 4 -93 4q-34 0 -95 -3t-81 -3q-23 2 -34.5 30.5t-11.5 100.5q0 105 55 130q29 -3 57 -3q169 1 247 48.5t78 127.5q0 69 -43 115.5t-104 46.5 t-114 -27t-88 -65.5t-63.5 -76.5t-52.5 -65t-43 -27q-88 0 -153.5 36t-65.5 65q0 143 82 255.5t180 122.5q117 11 454 11q108 0 195 -18.5t145 -50.5t97 -75t56 -90t17 -99q0 -95 -61.5 -177t-158.5 -109q109 -9 202 -72t144.5 -151.5t51.5 -177.5q0 -129 -58.5 -230 t-161 -163.5t-236 -95t-289.5 -32.5q-230 0 -501 39q-71 35 -144 127t-73 165z" />
<glyph unicode="4" horiz-adv-x="1718" d="M45 765q0 21 12 47q40 70 90 138t110.5 135t109.5 117.5t124.5 125t117.5 117.5q25 21 73 31t83.5 11t110.5 1l322 1q121 0 121 -73q-19 -272 -19 -465v-92q0 -20 18 -20h65q35 0 106.5 5t101.5 5q43 0 61 -23.5t23 -72.5q-1 -75 -18.5 -126t-66.5 -85 q-68 -22 -118.5 -28t-172.5 -9q0 -41 2.5 -70t10 -63.5t25.5 -54.5t46 -23q18 -3 27.5 -5.5t23 -9.5t19.5 -20t6 -32q0 -75 -20.5 -155t-57.5 -99q-145 27 -319 27q-234 0 -409 -27q-37 19 -57.5 99t-20.5 155q0 19 6 32t19.5 20t23 9.5t27.5 5.5q26 3 43.5 21t25.5 49 t11 60.5t3 70.5q-30 0 -119.5 -1t-118.5 -1h-28q-88 0 -135.5 1t-109 9.5t-90.5 25.5q-40 39 -64 120.5t-24 115.5zM451 854q0 -14 36.5 -18t117.5 -4q80 0 116 3q2 50 2 220v17q0 125 2 161q-8 -4 -20.5 -18.5t-37 -44t-40.5 -48.5q-95 -109 -164 -238q-12 -22 -12 -30z " />
<glyph unicode="5" horiz-adv-x="1583" d="M41 304q0 58 72 107t134 49q20 -14 54 -41t51 -37.5t52 -26.5t82 -25t116 -16q313 0 313 185q0 49 -22.5 81.5t-68.5 49.5t-102 23.5t-137 6.5q-57 0 -157 -25.5t-153 -25.5q-73 0 -99 13t-28 35q0 68 5 218t5 219q0 24 -0.5 65t-0.5 58q0 54 1 86.5t6.5 71.5t16 61.5 t29.5 41t47 25.5q227 -14 470 -14q497 0 615 27q23 -34 64.5 -177.5t41.5 -231.5q0 -35 -30 -59.5t-70.5 -34.5t-85.5 -10q-3 0 -14 21.5t-30.5 51.5t-46 60.5t-68 52t-88.5 21.5q-317 0 -425 -9q-22 -68 -22 -181q0 -94 6 -106q140 57 361 57q284 0 442.5 -138t158.5 -358 q0 -162 -90.5 -276.5t-245.5 -169.5t-360 -55q-187 0 -281 5t-232 24q-35 17 -80.5 47t-93 70.5t-80 90t-32.5 93.5z" />
<glyph unicode="6" horiz-adv-x="1739" d="M74 667q0 180 58 333t169 268.5t287 181.5t398 66q321 0 406 -30q73 -35 133.5 -138t60.5 -223q0 -35 -79 -68t-140 -33q-13 0 -31 20.5t-36 51.5t-48 67.5t-64 67.5t-87 51.5t-115 20.5t-108.5 -39t-71.5 -104.5t-37 -140t-12 -157.5v-27q151 92 359 92q80 0 159 -14 t155 -46t134 -79t93.5 -118t35.5 -158q0 -115 -43 -207t-116.5 -153t-176 -102t-216.5 -59t-244 -18q-206 3 -365 56t-258.5 146.5t-149.5 217.5t-50 274zM748 421q0 -127 47 -186.5t115 -59.5q48 0 83.5 19.5t54 47t29.5 70t13.5 76.5t2.5 78q0 112 -49 169t-126 57 q-35 0 -62.5 -9t-45 -21t-30 -36t-19 -42.5t-9.5 -52t-3.5 -53.5t-0.5 -57z" />
<glyph unicode="7" horiz-adv-x="1517" d="M27 1086q0 211 106 430q270 -28 575 -28q352 0 727 28q13 0 29 -14t16 -28v-136q0 -77 -41 -123q-454 -502 -454 -856q0 -41 9.5 -66t22.5 -32.5t26.5 -9t23 -3.5t9.5 -9v-66q0 -41 -13.5 -73t-32.5 -53t-54 -35.5t-64 -22t-77.5 -11.5t-79 -4.5t-82.5 -0.5 q-363 0 -363 214q0 108 41.5 233t105.5 236.5t143 218t152 184t135 127.5h-344q-54 0 -105 -21t-87 -50.5t-65.5 -59.5t-49.5 -51t-29 -21q-29 0 -58 5t-57.5 16t-46.5 32.5t-18 49.5z" />
<glyph unicode="8" horiz-adv-x="1744" d="M54 424q0 308 409 399q-321 85 -321 311q0 70 27.5 128t71.5 96.5t107.5 68t127.5 46t140.5 27t136.5 13.5t125 3q57 0 112 -2.5t128.5 -11.5t135.5 -24t125.5 -41.5t107.5 -62t72 -89t28 -118.5q0 -64 -22.5 -119.5t-63 -98t-85.5 -74t-103 -59.5q377 -93 377 -379 q0 -91 -34.5 -165t-96.5 -123.5t-140 -85t-174.5 -55t-189 -28t-193.5 -8.5q-74 0 -142 4t-151.5 16t-153.5 32t-138.5 55t-116 81t-77 113.5t-29.5 150.5zM708 1176q0 -43 19 -86.5t46 -75.5t54 -57t46 -38l19 -13q5 6 12.5 16t27.5 41t35 62.5t27.5 76t12.5 84.5 q0 56 -43 90.5t-110 34.5q-63 0 -104.5 -37.5t-41.5 -97.5zM720 406q0 -78 54 -128.5t128 -50.5q66 0 105 53.5t39 123.5q0 50 -19.5 99.5t-48 84.5t-56.5 62.5t-48 41.5l-19 13q-5 -3 -14.5 -9.5t-32.5 -32t-41 -56.5t-32.5 -85t-14.5 -116z" />
<glyph unicode="9" horiz-adv-x="1704" d="M32 975q0 115 44 207t119.5 153.5t180.5 103t222 59.5t250 18q201 -3 356 -56t252 -147t146 -218.5t49 -274.5q0 -180 -58 -332.5t-169 -268t-287 -181t-398 -65.5q-281 0 -386 28q-84 12 -159 124t-75 237q0 35 94 68t165 33q13 0 29.5 -20.5t33.5 -51.5t45.5 -67.5 t61 -67.5t83 -51.5t108.5 -20.5q62 0 108.5 39t71.5 104.5t37 139.5t12 157v28q-151 -92 -359 -92q-80 0 -159 14t-155 46t-134 79t-93.5 118t-35.5 158zM632 1021q0 -112 49 -169t126 -57q35 0 62.5 9t45 21t30 36t19 42.5t9.5 52t3.5 53.5t0.5 57q0 127 -47 186.5 t-115 59.5q-48 0 -83.5 -19.5t-54 -47t-29.5 -70t-13.5 -76.5t-2.5 -78z" />
<glyph unicode=":" horiz-adv-x="607" d="M61 257q0 92 62 155.5t181 63.5q117 0 176 -64.5t59 -154.5t-59 -154.5t-176 -64.5q-119 0 -181 63.5t-62 155.5zM61 969q0 92 62 155.5t181 63.5q117 0 176 -64.5t59 -154.5t-59 -154.5t-176 -64.5q-119 0 -181 63.5t-62 155.5z" />
<glyph unicode=";" horiz-adv-x="611" d="M57 254q0 102 68 165t178 63q104 0 176.5 -69t72.5 -169q0 -60 -31 -132.5t-80.5 -135t-117.5 -104.5t-134 -42q-37 0 -59.5 17t-22.5 38q0 15 18 36.5t39.5 41t39.5 44.5t18 45q0 9 -17 17t-41 18.5t-48.5 27.5t-41.5 53t-17 86zM62 969q0 92 62 155.5t181 63.5 q117 0 176 -64.5t59 -154.5t-59 -154.5t-176 -64.5q-119 0 -181 63.5t-62 155.5z" />
<glyph unicode="&#x3c;" horiz-adv-x="858" d="M39 534q0 40 134.5 171.5t268.5 243.5l135 112q11 8 21 8q21 0 69.5 -43t90 -100t41.5 -91q0 -16 -13 -29q-248 -203 -318 -272q32 -31 114 -99t148 -121l66 -52q13 -13 13 -29q0 -34 -43.5 -91t-94.5 -100t-73 -43q-10 0 -21 8q-11 9 -30.5 25t-75.5 63.5t-106.5 91.5 t-113 101.5t-107 103t-75 85t-30.5 57.5z" />
<glyph unicode="=" horiz-adv-x="1140" d="M82 477q0 71 36 85q39 -3 143 -3q50 1 623 1q91 0 143 4q36 -14 36 -85q0 -95 -55 -95q-5 2 -61.5 3.5t-110.5 2.5h-55h-499q-138 -4 -145 -8q-55 0 -55 95zM82 809q0 71 36 85q26 -2 143 -2q52 1 625 1q104 0 143 3q36 -14 36 -85q0 -95 -55 -95q-5 2 -62 3.5t-111 2.5 h-54h-501q-138 -4 -145 -8q-55 0 -55 95z" />
<glyph unicode="&#x3e;" horiz-adv-x="846" d="M46 233q0 16 13 29q256 203 328 272q-31 31 -110.5 99t-143.5 121l-64 52q-13 13 -13 29q0 34 41.5 91t90 100t69.5 43q10 0 21 -8q11 -9 30.5 -25t75.5 -63.5t106.5 -91.5t113 -101.5t107 -103t75 -85t30.5 -57.5q0 -40 -134.5 -171.5t-269.5 -243.5l-134 -112 q-11 -8 -21 -8q-22 0 -73 43t-94.5 100t-43.5 91z" />
<glyph unicode="?" horiz-adv-x="1303" d="M32 1262q1 120 47.5 187.5t112.5 85.5q41 0 74 -10t49 -22t30.5 -22t23.5 -10q20 6 63.5 22.5t70 24.5t78 16t111.5 8q125 0 227.5 -21t181.5 -63.5t123 -112.5t44 -163q0 -49 -24 -92t-62.5 -74.5t-85 -59.5t-93.5 -50.5t-85.5 -43t-62.5 -42.5t-24 -43q0 -25 17.5 -81 t17.5 -80q0 -81 -188 -81q-25 0 -61 1.5t-43 1.5q-95 0 -170.5 65.5t-75.5 152.5q0 40 19 63t64 42q36 15 61 26.5t66 37.5t66.5 53t45.5 68.5t20 87.5q0 88 -42.5 151t-107.5 63q-53 0 -107.5 -30.5t-89.5 -72.5q-24 -47 -77 -86.5t-103 -39.5q-111 0 -111 143zM323 193 q0 92 62 155.5t181 63.5q117 0 176 -64.5t59 -154.5t-59 -154.5t-176 -64.5q-119 0 -181 63.5t-62 155.5z" />
<glyph unicode="@" horiz-adv-x="1831" d="M59 652q0 130 36.5 254.5t112 235t182 194t257 132t325.5 48.5q165 0 312.5 -52t257 -145t173.5 -230t64 -299q0 -132 -37 -240t-99 -175.5t-139.5 -104t-162.5 -36.5q-162 0 -272 132q-47 -72 -120.5 -110t-149.5 -38q-77 0 -135 21.5t-91.5 59.5t-49.5 84.5t-16 101.5 q0 67 20 116t51.5 77t81.5 44.5t99.5 21.5t117.5 5q27 0 55 -2.5t42 -4.5l15 -3v123q0 44 -17 62.5t-55 18.5q-58 0 -122.5 -27.5t-100.5 -55.5l-36 -27q-73 0 -73 86q0 41 18.5 72t53 50t72.5 31.5t91 17.5t92.5 7t90.5 2q73 0 127 -12t92 -39.5t62 -63.5t37.5 -92 t18.5 -116t5 -144v-48t1 -43.5t3 -41.5t5 -34.5t8.5 -31.5t13 -23t18 -19t23.5 -10q25 0 45.5 9.5t35 23.5t26.5 38t19 45.5t12.5 55.5t8 57t4 60.5t1.5 56.5v54q0 128 -50 232.5t-134 171t-189.5 102t-220.5 35.5q-128 0 -240 -38.5t-192.5 -104t-138.5 -151.5t-86.5 -183 t-28.5 -197q0 -96 25 -184.5t79 -167.5t131.5 -138t189 -93t245.5 -34q284 0 541 144q34 -31 34 -93q0 -39 -45 -83.5t-118.5 -82t-178 -62.5t-212.5 -25q-211 0 -386 63.5t-291.5 174.5t-180 261t-63.5 324zM848 537q0 -51 18.5 -94.5t50.5 -43.5q18 0 38 14.5t25 30.5 q9 37 9 165q0 25 -9.5 32t-50.5 7q-38 0 -59.5 -28.5t-21.5 -82.5z" />
<glyph unicode="A" d="M58 196q0 47 18.5 70t49 30t63 14t66 34t52.5 78l245 641q24 63 24 92q0 23 -9 33.5t-21 13t-24.5 6t-21.5 18.5t-9 44q0 98 21 160t46 73q170 -14 376 -14q189 0 287 14q21 -7 41 -60l312 -839q45 -122 97.5 -216t86.5 -94q18 -3 27.5 -5.5t23 -9.5t19.5 -20t6 -32 q0 -71 -20.5 -146.5t-57.5 -93.5q-112 13 -319 13q-274 0 -409 -13q-37 18 -57.5 93.5t-20.5 146.5q0 19 6.5 32t19 20t23 10t27.5 5q52 1 52 88q0 75 -34 153h-428q-32 -106 -32 -141q0 -37 17 -59t41 -30t48.5 -13t41.5 -14t17 -27q0 -218 -93 -264q-99 13 -269 13 t-269 -13q-60 39 -60 209zM681 705h319q-19 59 -103 298q-4 12 -12 34q-9 27 -13.5 39t-10 25.5t-9.5 18.5t-7 5q-9 0 -40 -83z" />
<glyph unicode="B" horiz-adv-x="1617" d="M39 247q0 19 7 32t21.5 19.5t26.5 9t34 4.5q30 3 49.5 23t28.5 54.5t12 67.5t3 78v439q0 39 -1.5 65t-6.5 55t-14.5 46.5t-26.5 30t-41 15.5q-21 2 -33.5 5t-27 9.5t-21.5 19.5t-7 32q0 73 15 153t43 98q16 0 191.5 -7t264.5 -7q63 0 195.5 7t199.5 7q106 0 193 -17 t162.5 -56.5t118 -113.5t42.5 -178q0 -75 -26 -132t-75.5 -95t-107.5 -61.5t-134 -38.5q134 -13 234 -52.5t162.5 -119t62.5 -190.5q0 -129 -37 -218.5t-114.5 -143t-186 -77t-260.5 -23.5q-65 0 -218 6.5t-243 6.5q-85 0 -427 -13q-28 19 -43 101.5t-15 158.5zM786 673 q0 -263 5 -422q12 -19 35 -30t45 -11q119 0 119 283q0 94 -30.5 155t-91.5 61q-52 0 -67 -8.5t-15 -27.5zM786 892q0 -12 6 -17.5t24 -5.5q73 0 108.5 46.5t35.5 159.5q0 40 -8.5 84.5t-31.5 82t-55 37.5q-12 0 -64 -8q-15 -28 -15 -350v-29z" />
<glyph unicode="C" horiz-adv-x="1536" d="M37 759q0 115 28.5 224.5t87 206t140.5 169.5t197 115t248 42q110 0 190.5 -20t177.5 -75q-2 24 -2 31q0 31 22.5 41t96.5 10q66 0 98.5 -6t60.5 -33t41.5 -75t27.5 -139q14 -95 14 -134q0 -29 -3.5 -46.5t-9 -28t-21.5 -16t-29 -7.5t-45 -5q-97 -9 -105 -9q-48 0 -75 53 q-54 86 -124.5 130.5t-142.5 44.5q-107 0 -179.5 -90.5t-72.5 -256.5q0 -113 34 -207.5t92 -158t135.5 -98.5t164.5 -35q188 0 360 97q37 -67 37 -140q0 -72 -40 -138t-114.5 -118t-191.5 -83t-260 -31q-166 0 -306 44.5t-236.5 120t-164.5 176.5t-99.5 213.5t-31.5 231.5z " />
<glyph unicode="D" horiz-adv-x="1726" d="M65 245q0 19 7 32t21.5 19.5t26.5 9t34 4.5q30 3 49.5 23t28.5 54.5t12 67.5t3 78v439q0 39 -1.5 65t-6.5 55t-14.5 46.5t-26.5 30t-41 15.5q-21 2 -33.5 5t-27 9.5t-21.5 19.5t-7 32q0 73 15 154t43 99q378 -14 438 -14q58 0 178 7t183 7q149 0 276 -43t215.5 -116.5 t151.5 -171.5t92.5 -208t29.5 -226q0 -114 -29 -222.5t-89 -204.5t-145 -168t-205.5 -114t-261.5 -42q-55 0 -160.5 6.5t-162.5 6.5q-107 0 -514 -13q-28 18 -43 100t-15 158zM812 623q0 -128 4 -227.5t8 -135.5l3 -36q21 -2 67 -2q70 0 122.5 75t77.5 189t25 246 q0 135 -26.5 250t-86 192.5t-142.5 77.5q-32 0 -47 -3q-5 -24 -5 -459v-167z" />
<glyph unicode="E" horiz-adv-x="1513" d="M65 247q0 19 7 32t21.5 19.5t26.5 9t34 4.5q30 3 49.5 23t28.5 54.5t12 67.5t3 78v439q0 39 -1.5 65t-6.5 55t-14.5 46.5t-26.5 30t-41 15.5q-21 2 -33.5 5t-27 9.5t-21.5 19.5t-7 32q0 73 15 153t43 98q270 -14 606 -14q328 0 590 14q34 -64 70 -179t36 -187 q0 -29 -19.5 -50.5t-49.5 -32.5t-58 -16t-53 -5q-6 0 -27 25t-52.5 60.5t-70 71.5t-88.5 61t-98 25q-25 0 -37 -2.5t-26.5 -14t-21 -36.5t-11 -70.5t-4.5 -115.5v-218q126 149 272 149q82 0 130 -56.5t48 -129.5q0 -80 -56 -134.5t-130 -54.5q-37 42 -86.5 69.5t-95.5 27.5 q-50 0 -82 -49v-263q0 -184 43 -184h88q57 11 104 43.5t87 89t69.5 113.5t65.5 142q11 4 29 4q50 0 114 -24t82 -55q5 -10 5 -34q0 -49 -25 -154.5t-54 -191.5q-13 -41 -40.5 -90.5t-47.5 -49.5q-79 7 -180 11q-102 4 -171 4h-53q-59 0 -145 -1q-129 -1 -178 -1 q-287 0 -482 -13q-28 19 -43 101.5t-15 158.5z" />
<glyph unicode="F" horiz-adv-x="1408" d="M65 247q0 19 7 32t21.5 19.5t26.5 9t34 4.5q30 3 49.5 23t28.5 54.5t12 67.5t3 78v439q0 39 -1.5 65t-6.5 55t-14.5 46.5t-26.5 30t-41 15.5q-21 2 -33.5 5t-27 9.5t-21.5 19.5t-7 32q0 73 15 153t43 98q229 -14 629 -14q374 0 557 14q34 -64 70 -179t36 -187 q0 -29 -19.5 -50.5t-49.5 -32.5t-58 -16t-53 -5q-13 0 -32 30q-57 101 -128.5 157t-175.5 56q-22 0 -33 -2.5t-24 -14t-19 -36.5t-10 -70.5t-4 -115.5v-187q128 158 272 158q82 0 130 -56.5t48 -129.5q0 -80 -56 -134.5t-130 -54.5q-37 42 -86.5 69.5t-95.5 27.5 q-50 0 -82 -49v-78q0 -38 0.5 -67.5t3 -67t7.5 -65t12.5 -52.5t20.5 -39t29 -16q2 0 12 -2l12.5 -2.5t11.5 -2.5t12 -3.5t10 -4.5t10 -6t7.5 -8t6.5 -10.5t3.5 -13t1.5 -16.5q0 -71 -17.5 -146.5t-50.5 -93.5q-135 13 -409 13q-301 0 -372 -13q-28 19 -43 101.5t-15 158.5z " />
<glyph unicode="G" horiz-adv-x="1755" d="M37 769q0 180 62.5 325t168.5 235.5t240 138.5t283 48q143 0 229.5 -22.5t173.5 -72.5q0 51 20 66.5t95 15.5h33q40 0 62.5 -4t49.5 -23t43 -56.5t31.5 -105.5t25.5 -170q2 -17 2 -44q0 -19 -2 -33t-10 -23.5t-13.5 -14.5t-21.5 -9t-25 -5t-34 -3.5t-38 -4.5 q-43 -5 -64 -5q-32 0 -48 12.5t-45 53.5l-14 20q-85 145 -265 145q-129 0 -222 -109t-93 -289q0 -97 24 -178t62 -134t86.5 -90t97.5 -53.5t96 -16.5q61 0 100.5 28t39.5 76q0 63 -41.5 87.5t-173.5 33.5q-9 18 -9 64q0 42 22 100t42 77q105 -19 277 -19q180 0 321 18 q27 0 45 -3t37 -13t28.5 -32.5t9.5 -57.5q0 -44 -7 -74t-19 -45t-25.5 -26t-27.5 -22t-26 -27.5t-19 -49t-7 -80.5q0 -42 4 -122.5t4 -119.5v-34q-80 -75 -182 -75q-35 0 -92 17.5t-66 19.5q-139 -111 -386 -111q-128 0 -248.5 29.5t-228.5 93.5t-188 155.5t-127 225 t-47 292.5z" />
<glyph unicode="H" horiz-adv-x="2087" d="M65 247q0 19 7 32t21.5 19.5t26.5 9t34 4.5q30 3 49.5 23t28.5 54.5t12 67.5t3 78v439q0 39 -1.5 65t-6.5 55t-14.5 46.5t-26.5 30t-41 15.5q-21 2 -33.5 5t-27 9.5t-21.5 19.5t-7 32q0 73 15 153t43 98q93 -14 453 -14q199 0 319 14q37 -18 57.5 -95t20.5 -149 q0 -19 -6 -32t-21 -20t-26 -10t-34 -7q-76 -8 -76 -268q0 -14 2 -21t11 -13t27 -6q14 0 73 0.5t106 0.5q54 0 119.5 -1t79.5 -1q20 0 24 5t4 25q0 143 -12.5 209t-56.5 70q-23 4 -34 7t-26 10t-21 20t-6 32q0 72 20.5 149t57.5 95q146 -14 409 -14q278 0 355 14 q28 -18 43 -98t15 -153q0 -19 -7 -32t-21.5 -19.5t-27 -9.5t-33.5 -5q-24 -3 -41 -15.5t-26.5 -30t-14.5 -46.5t-6.5 -55t-1.5 -65v-439q0 -45 3 -78t12 -67.5t28.5 -54.5t49.5 -23q22 -2 34 -4.5t26.5 -9t21.5 -19.5t7 -32q0 -76 -15 -158.5t-43 -101.5q-72 13 -361 13 q-274 0 -409 -13q-37 18 -57.5 93.5t-20.5 146.5q0 19 6 32t19.5 20t23 9.5t27.5 5.5q50 5 66.5 87.5t16.5 233.5q0 29 -4.5 35.5t-27.5 6.5q-14 0 -77 -1t-115 -1q-51 0 -114 1t-77 1q-22 0 -26.5 -7t-4.5 -35q0 -49 1 -84.5t6 -82t13.5 -76.5t24.5 -52.5t39 -25.5 q18 -3 27.5 -5.5t23 -9.5t19.5 -20t6 -32q0 -71 -20.5 -146.5t-57.5 -93.5q-112 13 -319 13q-367 0 -453 -13q-28 19 -43 101.5t-15 158.5z" />
<glyph unicode="I" horiz-adv-x="1045" d="M58 247q0 19 7 32t21.5 19.5t26.5 9t34 4.5q30 3 49.5 23t28.5 54.5t12 67.5t3 78v439q0 39 -1.5 65t-6.5 55t-14.5 46.5t-26.5 30t-41 15.5q-21 2 -33.5 5t-27 9.5t-21.5 19.5t-7 32q0 73 15 153t43 98q82 -14 413 -14q282 0 394 14q28 -18 43 -98t15 -153q0 -19 -7 -32 t-21.5 -19.5t-27 -9.5t-33.5 -5q-24 -3 -41 -15.5t-26.5 -30t-14.5 -46.5t-6.5 -55t-1.5 -65v-439q0 -45 3 -78t12 -67.5t28.5 -54.5t49.5 -23q22 -2 34 -4.5t26.5 -9t21.5 -19.5t7 -32q0 -76 -15 -158t-43 -101q-71 12 -401 12q-340 0 -412 -12q-28 19 -43 101t-15 158z " />
<glyph unicode="J" horiz-adv-x="1313" d="M36 170q0 59 41.5 99t107.5 40q36 0 58 -15.5t31 -37.5t17.5 -43.5t26 -37t47.5 -15.5q31 0 54.5 15t43.5 51.5t31 108t11 175.5v464q0 39 -1.5 65t-6.5 55t-14.5 46.5t-26.5 30t-41 15.5q-21 2 -33.5 5t-27 9.5t-21.5 19.5t-7 32q0 73 15 153t43 98q82 -14 413 -14 q282 0 394 14q28 -18 43 -98t15 -153q0 -19 -7 -32t-21.5 -19.5t-27 -9.5t-33.5 -5q-24 -3 -41 -15.5t-26.5 -30t-14.5 -46.5t-6.5 -55t-1.5 -65v-484q0 -158 -33.5 -266.5t-104 -173.5t-170 -93.5t-241.5 -28.5q-240 0 -362.5 69.5t-122.5 172.5z" />
<glyph unicode="K" horiz-adv-x="1987" d="M65 247q0 19 7 32t21.5 19.5t26.5 9t34 4.5q30 3 49.5 23t28.5 54.5t12 67.5t3 78v439q0 39 -1.5 65t-6.5 55t-14.5 46.5t-26.5 30t-41 15.5q-21 2 -33.5 5t-27 9.5t-21.5 19.5t-7 32q0 73 15 153t43 98q82 -14 402 -14q249 0 389 14q28 -18 43 -93.5t15 -147.5 q0 -19 -6 -32t-19.5 -20t-23 -9.5t-27.5 -5.5q-87 -10 -87 -281v-76q38 25 120.5 91t173 140.5t96.5 79.5q23 18 23 35t-31 42.5t-31 39.5q0 2 2 8q4 10 16.5 40t19 45t18 41.5t19 41t17 30.5t16.5 23.5t12 7.5q1 0 44.5 -3.5t115 -7t141.5 -3.5q92 0 169.5 7t93.5 7 q28 0 37.5 -11t9.5 -40q0 -20 -6 -75t-6 -60q-3 -49 -17 -75.5t-41 -38t-57.5 -17.5t-79 -24t-93.5 -48l-303 -231q80 -72 136 -127q63 -62 115 -134.5t79 -124.5t60 -100.5t66 -71.5q22 -15 56.5 -23.5t58 -11.5t41 -21t17.5 -53q0 -42 -13 -63q-22 -49 -52 -82 t-63.5 -52.5t-84.5 -29.5t-98.5 -13t-120.5 -3q-60 0 -107 5.5t-83.5 19t-62.5 29t-48.5 44t-37 54.5t-31 69.5t-29 80.5t-33 96.5t-39.5 108.5q-8 21 -17 45t-14 38t-11 28.5t-9.5 22t-8 14.5t-8.5 9.5t-9 2.5q-11 0 -32 -15l-96 -69q2 -253 84 -262q18 -3 27.5 -5.5 t23 -9.5t19.5 -20t6 -32q0 -71 -17.5 -146.5t-50.5 -93.5q-133 13 -399 13q-309 0 -382 -13q-28 19 -43 101.5t-15 158.5z" />
<glyph unicode="L" horiz-adv-x="1494" d="M65 247q0 19 7 32t21.5 19.5t26.5 9t34 4.5q30 3 49.5 23t28.5 54.5t12 67.5t3 78v439q0 39 -1.5 65t-6.5 55t-14.5 46.5t-26.5 30t-41 15.5q-21 2 -33.5 5t-27 9.5t-21.5 19.5t-7 32q0 73 15 153t43 98q82 -14 413 -14q282 0 394 14q28 -18 43 -98t15 -153q0 -19 -7 -32 t-21.5 -19.5t-27 -9.5t-33.5 -5q-24 -3 -41 -15.5t-26.5 -30t-14.5 -46.5t-6.5 -55t-1.5 -65v-554q0 -216 32 -216q67 0 119.5 24t83 61t58 83t46.5 87.5t48 78.5t63 52q13 7 39 7q57 0 115 -27.5t58 -63.5q-13 -69 -72.5 -218t-111.5 -259q-19 -42 -65 -42q-2 0 -34.5 1.5 t-90 3t-132 3.5t-181.5 3.5t-218 1.5q-360 0 -446 -13q-28 19 -43 101.5t-15 158.5z" />
<glyph unicode="M" horiz-adv-x="2313" d="M57 187q0 21 17 33t35 15t50 6q40 3 67.5 27t41 65.5t19 86.5t5.5 104q0 8 -0.5 156t-0.5 352q0 60 -23.5 92t-56.5 40.5t-66.5 13.5t-57 20.5t-23.5 50.5q0 63 19.5 147t58.5 107q160 -14 405 -14q209 0 363 15q33 -8 45 -25t12 -45q0 -10 -2 -34t-2 -38q0 -42 12 -72 q83 -210 222 -498q132 355 167 549q2 14 2.5 54t6 68.5t21.5 39.5q115 -14 402 -14q269 0 368 14q24 0 50 -80.5t26 -158.5q0 -37 -10 -56t-26 -23t-35.5 -5t-39 -9t-35.5 -27t-26 -67t-10 -122v-380q0 -55 2.5 -93.5t10 -85t25.5 -73t46 -29.5q18 -3 27.5 -5.5t23 -9.5 t19.5 -20t6 -32q0 -71 -17.5 -146.5t-50.5 -93.5q-114 13 -329 13q-281 0 -419 -13q-33 18 -50.5 93.5t-17.5 146.5q0 19 6 32t19.5 20t23 9.5t27.5 5.5q26 3 43.5 29.5t25.5 75t11 95.5t3 111v151q0 104 -13 109q-12 0 -20 -15q-111 -243 -285 -696l-40 -104 q-50 -25 -113 -34q-32 2 -59 40q-50 94 -186.5 397t-192.5 392q-11 17 -20 17q-18 0 -18 -206v-77q0 -52 2 -93t9.5 -88t20 -78.5t35.5 -53.5t54 -25q23 -2 37.5 -4t31.5 -7.5t25.5 -16t8.5 -26.5q0 -59 -17 -122t-48 -78q-111 13 -258 13q-193 0 -326 -13 q-31 15 -47.5 77.5t-16.5 122.5z" />
<glyph unicode="N" horiz-adv-x="1881" d="M46 187q0 21 17 33t35 15t50 6q38 3 62.5 25t35 62.5t14 77.5t3.5 92v553q0 50 -21.5 79.5t-52.5 39t-61.5 15.5t-52 18.5t-21.5 39.5q0 32 3.5 72.5t23 102t51.5 86.5q133 -14 371 -15q74 0 128 3.5t80 7t31 4.5q13 0 24.5 -7t25.5 -22.5t27 -32.5t37 -49t48 -60 q417 -496 418 -495q9 -7 24 -7v190q0 40 -1.5 67.5t-8 57.5t-17.5 48t-31 31t-48 15q-23 2 -37 4t-31 7.5t-25.5 16t-8.5 26.5q0 62 16.5 127.5t47.5 82.5q147 -14 326 -15q130 0 253 15q31 -16 47.5 -82t16.5 -128q0 -16 -8.5 -26.5t-25.5 -16t-31.5 -7.5t-37.5 -4 q-36 -3 -59.5 -23.5t-34 -56t-14 -67t-3.5 -72.5v-91q0 -762 19 -886q-119 -71 -209 -71q-67 0 -136 39.5t-153 125.5q-89 97 -526 632q-53 64 -67 64q-12 0 -12 -31v-330q0 -223 113 -232q23 -2 37.5 -4t31.5 -7.5t25.5 -16t8.5 -26.5q0 -59 -17 -122t-48 -78 q-110 13 -252 13q-200 0 -336 -13q-31 15 -47.5 77.5t-16.5 122.5z" />
<glyph unicode="O" horiz-adv-x="1826" d="M38 748q0 360 236.5 564t650.5 204q170 0 312 -37t244 -104t172.5 -159.5t104.5 -204t34 -238.5q0 -165 -45 -299t-124 -226.5t-189.5 -155t-239.5 -91t-276 -28.5q-405 0 -642.5 204.5t-237.5 570.5zM771 733q0 -513 160 -513q27 0 49.5 13.5t38 42t27 58.5t18 77 t11 82.5t6 90.5t2 86t0.5 83q0 63 -2 113.5t-7.5 116t-17.5 114t-30 92.5t-47.5 67t-67.5 23q-140 0 -140 -546z" />
<glyph unicode="P" horiz-adv-x="1682" d="M65 247q0 19 7 32t21.5 19.5t26.5 9t34 4.5q30 3 49.5 23t28.5 54.5t12 67.5t3 78v439q0 39 -1.5 65t-6.5 55t-14.5 46.5t-26.5 30t-41 15.5q-21 2 -33.5 5t-27 9.5t-21.5 19.5t-7 32q0 73 15 153t43 98q10 0 87.5 -4t155 -7t129.5 -3q68 0 206.5 7t210.5 7q53 0 92.5 -1 t101 -5t108 -11.5t104.5 -22.5t100.5 -35t85.5 -51.5t70.5 -71t44.5 -93.5t17 -119q0 -105 -36 -188t-96.5 -137t-145.5 -89.5t-177.5 -50.5t-198.5 -15q-63 0 -173 9q0 -318 85 -326q2 0 12 -2l12.5 -2.5t11.5 -2.5t12 -3.5t10 -4.5t10 -6t7.5 -8t6.5 -10.5t3.5 -13 t1.5 -16.5q0 -78 -15.5 -150t-52.5 -90q-135 13 -419 13q-304 0 -374 -13q-28 19 -43 101.5t-15 158.5zM811 1012q0 -77 1 -139q0 -29 10 -51q6 -3 14 -6.5t11.5 -5t8.5 -3.5t7 -2.5t5.5 -1.5t7 -1.5t7 -0.5h8.5q122 0 122 301q0 236 -101 236q-32 0 -52.5 -15.5 t-30.5 -48.5t-13.5 -68.5t-3.5 -89.5q0 -4 -0.5 -34.5t-0.5 -69.5z" />
<glyph unicode="Q" horiz-adv-x="1869" d="M37 760q0 349 235 552.5t643 203.5q423 0 652 -204t229 -556q0 -208 -83.5 -364t-256.5 -272q18 -42 62.5 -72.5t96.5 -46t102.5 -26.5t87.5 -20.5t44 -20.5q-2 -47 -50 -135q-53 -97 -250 -97q-77 0 -137.5 16t-97.5 40.5t-65 63t-41.5 72.5t-26.5 81q-46 0 -184 -2 q-155 0 -293 26.5t-261.5 86.5t-212.5 149.5t-141 223.5t-52 301zM775 733q0 -502 158 -502q27 0 48.5 13t37 39.5t27 55.5t18.5 73t11 80.5t6 89t2.5 86.5t0.5 84q0 82 -2.5 146t-8.5 131.5t-18.5 116t-31 88t-46.5 59.5t-64 20q-138 0 -138 -580z" />
<glyph unicode="R" horiz-adv-x="1895" d="M65 247q0 19 7 32t21.5 19.5t26.5 9t34 4.5q30 3 49.5 23t28.5 54.5t12 67.5t3 78v439q0 39 -1.5 65t-6.5 55t-14.5 46.5t-26.5 30t-41 15.5q-21 2 -33.5 5t-27 9.5t-21.5 19.5t-7 32q0 73 15 153t43 98q213 -14 320 -14q135 0 267 7t228 7q69 0 116 -1.5t126.5 -9 t134 -21t119.5 -41.5t104.5 -66.5t66.5 -99t27 -136.5q0 -289 -289 -361q67 -18 117.5 -47t84.5 -66.5t57.5 -89.5t37 -108.5t22.5 -132.5q4 -31 25.5 -45.5t47 -15t56.5 -6.5t48 -21q0 -61 -3.5 -96.5t-17.5 -69t-36.5 -49t-67.5 -28t-103 -16t-149 -3.5q-128 0 -209 26 t-117.5 72t-52.5 103t-23.5 124.5t-20 131t-53 128t-111.5 109.5h-66q0 -47 0.5 -81t3 -80.5t8 -79t14 -64t22.5 -48t33 -18.5q2 0 12 -2l12.5 -2.5t11.5 -2.5t12 -3.5t10 -4.5t10 -6t7.5 -8t6.5 -10.5t3.5 -13t1.5 -16.5q0 -72 -17.5 -147.5t-50.5 -93.5q-134 14 -369 14 q-342 0 -420 -13q-28 19 -43 101.5t-15 158.5zM812 846q42 -10 85 -10q132 0 132 261q0 44 -5 77.5t-17 64.5t-37 47.5t-62 16.5q-55 0 -75.5 -49.5t-20.5 -142.5v-265z" />
<glyph unicode="S" horiz-adv-x="1520" d="M37 1012q0 163 79.5 277.5t219.5 170.5t330 56q116 0 207.5 -23t188.5 -63q1 4 5 16t5 14t4.5 11t6.5 10t8.5 7t11.5 6.5t15.5 3.5t21 3t26.5 1t34 1q21 0 50.5 -2.5t47.5 -4.5l19 -2q10 -23 25.5 -61.5t41 -131.5t25.5 -154q0 -38 -69 -60.5t-137 -22.5q-44 0 -51 10 q-24 37 -57.5 71.5t-81 67.5t-111 52.5t-133.5 19.5q-90 0 -147 -21.5t-57 -60.5q0 -20 18 -39.5t53.5 -36t73 -30.5t91 -27.5t92.5 -22t92 -19.5q245 -50 373.5 -182.5t128.5 -326.5q-7 -115 -46.5 -208.5t-101 -155.5t-143.5 -103.5t-171.5 -60t-188.5 -18.5 q-265 0 -420 85q-1 -4 -4 -17t-5 -17.5t-8.5 -13.5t-15.5 -12.5t-25.5 -7t-39.5 -3.5q-69 0 -147 8q-102 242 -102 372q0 43 59 71t121 28q37 0 57 -12q55 -94 189.5 -166t247.5 -72q84 0 146 27.5t62 79.5q0 18 -9 34.5t-27.5 31t-39.5 27t-53 25t-59 22t-67 20.5t-68 18 t-69.5 18t-65.5 17q-82 22 -147.5 48.5t-124.5 66.5t-98.5 90t-62.5 119t-23 152z" />
<glyph unicode="T" horiz-adv-x="1580" d="M1 1105q0 42 8 105t16.5 111.5t20 108.5t13.5 73q186 -14 737 -14q536 0 717 14q2 -13 13.5 -73t20 -108t16.5 -111.5t8 -105.5q0 -13 -5 -30q-13 -18 -95 -39.5t-136 -21.5q-12 0 -18 3q-5 11 -17 38.5t-19.5 43.5t-20 43.5t-22 44.5t-22.5 39.5t-24.5 36.5t-24.5 27.5 t-26 19.5t-25 6q-38 0 -38 -73v-638q0 -66 2.5 -111.5t10 -94.5t25 -75.5t43.5 -29.5q18 -3 27.5 -5.5t23 -9.5t19.5 -20t6 -32q0 -71 -20.5 -146.5t-57.5 -93.5q-113 13 -361 13t-361 -13q-37 18 -57.5 93.5t-20.5 146.5q0 19 6 32t19.5 20t23 9.5t27.5 5.5q26 3 43.5 29.5 t24.5 75.5t9.5 94t2.5 112v638q0 73 -37 73q-18 0 -35.5 -9.5t-36.5 -32t-33 -40.5t-34 -55t-29 -53.5t-29 -59t-24 -49.5q-7 -3 -18 -3q-54 0 -136 21.5t-95 39.5q-5 17 -5 30z" />
<glyph unicode="U" horiz-adv-x="1841" d="M52 1248q0 75 20.5 155.5t57.5 99.5q143 -14 402 -14q206 0 329 14q37 -19 57.5 -99.5t20.5 -155.5q0 -19 -6 -32t-19.5 -20t-23 -9.5t-27.5 -5.5q-90 -10 -90 -267v-291q0 -73 3.5 -125t16 -105.5t33.5 -86t58 -53t89 -20.5q33 0 61 8t48 19.5t35.5 33t25.5 40.5 t17.5 50t11 53t5 58.5t2 57.5t0.5 59v377q0 44 -2.5 73t-10 58.5t-24 45.5t-42.5 18q-17 3 -27 6t-19.5 14t-9.5 30q0 78 20 163.5t57 105.5q112 -14 314 -14q185 0 286 14q32 -20 50 -105.5t18 -163.5q0 -19 -10 -30t-20 -14t-27 -6q-84 -8 -84 -195v-291 q0 -175 -34.5 -304t-93.5 -209t-151.5 -128t-195 -66t-238.5 -18q-72 0 -126 2.5t-119 10.5t-113.5 22t-101.5 38.5t-90.5 59t-72.5 84.5t-56.5 113t-34.5 147t-13 185v279q0 61 -2.5 100.5t-10 80.5t-24 62t-43.5 24q-18 3 -27.5 5.5t-23 9.5t-19.5 20t-6 32z" />
<glyph unicode="V" horiz-adv-x="1628" d="M-10 1291q0 59 1.5 93t10 71.5t25.5 47.5q150 -14 395 -14q243 0 407 14q14 0 33 -90.5t19 -147.5q0 -22 -15 -32.5t-33 -12.5t-33 -13t-15 -34v-4q0 -16 11 -46q0 -1 9.5 -31t22 -70.5t28 -92t31 -100.5t29 -90.5t22.5 -66.5t11 -25q4 0 44.5 112t80 239t39.5 159 q0 21 -13.5 38.5t-35.5 21.5q-33 5 -49 18t-18.5 25t-2.5 38q0 182 45 205q94 -14 248 -14q69 0 323 14q28 -2 28 -132v-59q0 -39 -7.5 -59t-22 -27t-33 -9.5t-42.5 -13.5t-48 -32.5t-52 -73.5t-52 -130q-37 -117 -89.5 -264.5t-124 -340t-91.5 -246.5q-10 -27 -16 -40.5 t-20 -34.5t-35 -31t-49 -10h-205q-33 0 -59.5 8t-48 28t-37 39.5t-33 58.5t-29 68t-32.5 84.5t-36 92.5q-43 105 -100 246.5t-87 215t-65 156.5t-62 141q-10 20 -31.5 29.5t-44.5 13t-45.5 11t-36.5 32t-14 67.5z" />
<glyph unicode="W" horiz-adv-x="2316" d="M-20 1293q0 59 1.5 93t10 70.5t25.5 45.5q165 -14 395 -13q237 0 397 13q14 0 33 -89t19 -146q0 -19 -18.5 -29t-41.5 -13.5t-41.5 -19t-18.5 -45.5q0 -12 5 -35q6 -23 67 -215.5t66 -192.5q2 0 28.5 79.5t57.5 179.5t44 149q11 44 11 100q0 41 -5.5 86.5t-11 75.5 t-5.5 35q0 22 12 38.5t30 16.5q170 -17 229 -17q85 0 200 16q5 1 13 1q37 0 37 -45q0 -28 -9.5 -77.5t-9.5 -81.5q0 -47 13 -98q4 -14 19 -73.5t39 -149.5t43.5 -157.5t22.5 -67.5q8 0 66 206t58 226q0 22 -13.5 41t-35.5 19q-25 5 -40 12t-21.5 19t-7.5 21t-1 29 q0 180 45 202q131 -14 318 -13q57 0 283 13q29 -1 38.5 -35t9.5 -94v-59q0 -39 -9 -59t-25 -26.5t-37 -8.5t-47 -13t-52 -33t-55 -74t-54 -130q-179 -561 -292 -854q-10 -26 -17 -40.5t-21 -35t-35 -30.5t-48 -10h-165q-21 0 -39 6.5t-30.5 14t-25 25.5t-20 30t-17 38.5 t-13.5 39.5t-12.5 45t-12.5 44l-141 473q-144 -453 -193 -600q-9 -26 -15.5 -40t-20 -35t-34.5 -31t-49 -10h-185q-28 0 -50 8t-40.5 28t-31.5 40t-28.5 58t-26 68t-28.5 84t-32 92q-20 55 -71.5 199t-68.5 189.5t-49.5 134t-53.5 140t-42 98.5q-8 17 -24 27t-34.5 12.5 t-38.5 8.5t-35.5 14.5t-26 32t-10.5 59.5z" />
<glyph unicode="X" horiz-adv-x="1774" d="M39 59q0 80 4 119.5t12.5 58t29 28.5t45 20t69.5 44t94 90q3 4 73 80.5t120.5 136.5t100.5 127q-38 45 -135.5 167.5t-135.5 172.5q-24 32 -69 53.5t-82 30t-65.5 28t-28.5 50.5q0 90 5 143t10 67t15 28q82 -14 427 -14q267 0 381 14q15 -10 28.5 -97t13.5 -149 q0 -15 -23 -30t-23 -35q0 -8 4 -19.5t12.5 -26.5t16.5 -28.5t21.5 -33t21 -31t22 -32t19.5 -26.5q50 62 93 126t43 77q0 12 -13 19.5t-29 12.5t-29 25.5t-13 55.5q0 163 46 192q75 -14 254 -14q199 0 316 14q29 -10 29 -86v-46.5t-1 -38.5t-2.5 -34.5t-5 -26.5t-8.5 -23 t-12 -16t-16.5 -13t-22.5 -6q-22 -4 -37 -8t-29.5 -8t-30 -14.5t-28.5 -18.5t-34 -28.5t-37.5 -36.5t-49 -51t-58 -63t-75 -82t-90.5 -98q45 -65 281 -352q37 -50 75 -83t64 -44.5t49.5 -24.5t37.5 -28t22 -51t8 -98q0 -34 -1 -53t-10 -45t-27 -39q-133 13 -428 13 q-259 0 -375 -13q-21 16 -35.5 88.5t-14.5 113.5q0 33 14.5 51t31.5 21.5t31.5 12t14.5 24.5q0 29 -42 95l-114 174q-4 -6 -37 -49t-61.5 -81.5t-54 -76.5t-25.5 -48q0 -17 15.5 -27t33.5 -16t33.5 -31t15.5 -68v-9q0 -146 -46 -174q-126 13 -267 13q-162 0 -303 -13 q-29 13 -29 72z" />
<glyph unicode="Y" horiz-adv-x="1609" d="M-20 1335v14q0 49 11 101.5t31 52.5q172 -14 418 -14q174 0 370 14q14 0 33 -94.5t19 -149.5q0 -17 -12.5 -26t-28 -11t-28 -9t-12.5 -21q0 -20 18 -48l115 -178q123 183 142 212q8 12 8 22t-20 17.5t-39.5 20t-19.5 34.5v15q0 196 45 216q102 -14 265 -14q44 0 159 7 t147 7q28 0 28 -174v-34q0 -40 -16.5 -58t-45.5 -22t-61.5 -7.5t-72 -24t-69.5 -61.5q-43 -59 -101.5 -137.5t-84.5 -114.5t-52.5 -74.5t-40.5 -62.5v-128q0 -66 2.5 -111.5t10 -94.5t25 -75.5t43.5 -29.5q18 -3 27.5 -5.5t23 -9.5t19.5 -20t6 -32q0 -71 -17.5 -146.5 t-50.5 -93.5q-115 13 -371 13t-371 -13q-33 18 -50.5 93.5t-17.5 146.5q0 19 6 32t19.5 20t23 9.5t27.5 5.5q26 3 43.5 29.5t24.5 75.5t9.5 94t2.5 112v132l-134 183q-35 47 -60 78t-63.5 71.5t-80 67.5t-85.5 39q-12 3 -33.5 7.5t-29.5 7t-21.5 12t-18.5 24.5t-9.5 42 t-4.5 66z" />
<glyph unicode="Z" horiz-adv-x="1472" d="M50 1123q0 6 1 9q13 76 47.5 184.5t71.5 186.5q255 -14 680 -14q223 0 519 14q16 -29 20.5 -62t4.5 -127q0 -32 -43 -105t-125 -195q-404 -642 -477 -758q-1 -1 -1 -2q0 -13 147 -13q57 0 109 32t87.5 78t62.5 92t43 78t19 32q54 0 110 -19.5t86.5 -40.5t30.5 -30 q-5 -80 -55.5 -240.5t-88.5 -235.5q-273 13 -613 13q-331 0 -569 -13q-6 2 -20.5 37.5t-27.5 88t-13 92.5q0 10 5 20q73 118 92 148l560 873q16 30 16 39q0 16 -96 16q-54 0 -108 -28.5t-94 -69t-72.5 -81t-52.5 -69t-24 -28.5q-73 0 -152.5 33t-79.5 65z" />
<glyph unicode="[" horiz-adv-x="1033" d="M134 1345q0 142 26 151q2 0 7.5 0.5t8.5 0.5q15 0 91.5 -4t131.5 -4q247 0 429 27q37 -19 57.5 -99t20.5 -155q0 -19 -8 -32t-24 -20t-29.5 -10t-34.5 -5q-89 -6 -109.5 -28.5t-20.5 -112.5v-759q0 -25 1 -40t8 -27t12 -17t25.5 -9t35 -5t51.5 -3q18 -2 28 -4t25 -6.5 t23 -11t14 -18t6 -27.5q0 -75 -20.5 -155t-57.5 -99q-182 27 -429 27q-55 0 -131.5 -4t-91.5 -4q-3 0 -8.5 0.5t-7.5 0.5q-28 10 -28 195v1174q0 11 -0.5 39t-0.5 44z" />
<glyph unicode="\" horiz-adv-x="1214" d="M62 1512q0 38 46.5 56.5t157.5 18.5q125 0 164 -77q99 -197 691 -1322q29 -58 29 -82q0 -29 -20.5 -50.5t-52.5 -32t-63 -15.5t-60 -5q-36 0 -64 7t-46 17.5t-34.5 31.5t-26.5 39t-25 50q-133 281 -216.5 453t-204.5 401.5t-226 397.5q-49 78 -49 112z" />
<glyph unicode="]" horiz-adv-x="1033" d="M91 127q0 19 7.5 32t24.5 20t29 9.5t35 5.5q37 2 51.5 3t35 5t25.5 9t12 17t8 27t1 40v759q0 90 -20.5 112.5t-109.5 28.5q-21 2 -34.5 5t-29.5 10t-24 20t-8 32q0 75 20.5 155t57.5 99q182 -27 429 -27q55 0 131.5 4t91.5 4q3 0 8.5 -0.5t7.5 -0.5q26 -9 26 -151 q0 -16 -0.5 -44t-0.5 -39v-1174q0 -185 -28 -195q-2 0 -7.5 -0.5t-8.5 -0.5q-15 0 -91.5 4t-131.5 4q-247 0 -429 -27q-37 19 -57.5 99t-20.5 155z" />
<glyph unicode="^" horiz-adv-x="930" d="M21 681q0 9 4 18.5t13 22t18 23t25.5 29.5t27.5 33q27 33 120.5 130.5t160.5 158.5h150q67 -61 160.5 -158.5t120.5 -130.5q11 -14 27.5 -33t25.5 -29.5t18 -23t13 -22t4 -18.5q0 -32 -31.5 -46.5t-105.5 -14.5q-58 0 -86.5 15.5t-69.5 57.5l-151 191l-151 -191 q-41 -42 -69.5 -57.5t-86.5 -15.5q-74 0 -105.5 14.5t-31.5 46.5z" />
<glyph unicode="_" horiz-adv-x="1183" d="M0 -110q0 71 36 85q26 -2 143 -2q52 1 825 1q104 0 143 3q36 -14 36 -85q0 -95 -55 -95q-5 2 -62 3.5t-111 1.5l-54 1h-701q-138 -4 -145 -8q-55 0 -55 95z" />
<glyph unicode="`" horiz-adv-x="1334" d="M387 1564q0 32 36 46.5t121 14.5q80 0 118.5 -19t72.5 -74q26 -42 109 -195t103 -188h-151q-69 59 -167.5 155t-133.5 134q-19 20 -51.5 51t-44.5 46t-12 29z" />
<glyph unicode="a" horiz-adv-x="1363" d="M51 310q0 67 13.5 120.5t36 91.5t58.5 66t75 44.5t91.5 26.5t102.5 13.5t112 3.5q37 0 75.5 -3t58.5 -7l20 -3v118q0 59 -23 83t-78 24q-48 0 -101 -15t-94 -36.5t-76 -43t-54 -36.5l-18 -15q-47 0 -71.5 30t-24.5 86q0 46 19.5 82.5t50 61t78 42t92.5 27t105 15t105 7 t102 1.5q102 0 177.5 -15t127.5 -48.5t85.5 -77.5t51.5 -111.5t25 -140t7 -173.5v-46t1 -41.5t3 -40t5.5 -33t9 -30t13 -22t18.5 -17.5t25 -9q1 0 12.5 -0.5t18 -3t15.5 -9.5t13.5 -22.5t4.5 -39.5q0 -21 -5 -66.5t-25.5 -105t-51.5 -69.5q-5 1 -28 7.5t-32.5 8t-34.5 5 t-55.5 4.5t-73.5 1q-70 0 -129.5 -5t-78.5 -5q-37 0 -76 135q-60 -74 -150 -112.5t-185 -38.5q-91 0 -159 27.5t-107 76t-58 107t-19 126.5zM503 394q0 -68 24 -125t67 -57q26 0 54.5 19.5t35.5 39.5q10 49 10 221q0 32 -12.5 41t-71.5 9q-51 0 -79 -38.5t-28 -109.5z" />
<glyph unicode="b" horiz-adv-x="1486" d="M34 1285q0 69 17 140.5t47 90.5q162 -27 345 -27q52 0 119 6.5t84 6.5q45 0 59 -16.5t14 -70.5q0 -4 -2.5 -74.5t-5 -161t-2.5 -141.5q115 56 241 56q98 0 187.5 -33.5t159 -94t111 -153.5t41.5 -204q0 -149 -50 -271t-136.5 -201t-201 -121.5t-244.5 -42.5 q-206 0 -381 94q-140 -81 -236 -81q-106 0 -106 105q0 17 11.5 37.5t28 38t33.5 32.5t29 23l11 9q17 132 17 790q0 33 -1 53t-8.5 50t-21.5 48t-41.5 33.5t-67.5 19.5q-32 3 -41 15t-9 45zM709 514q0 -73 4.5 -127t16.5 -100t34 -70t55 -24q101 0 101 345q0 157 -26.5 253 t-77.5 96q-19 0 -34.5 -7t-26.5 -23t-19 -33.5t-13 -47t-8 -54t-4 -64.5t-1.5 -68.5t-0.5 -75.5z" />
<glyph unicode="c" horiz-adv-x="1154" d="M38 519q0 114 39 216t114 183t195.5 128.5t272.5 47.5q206 0 311 -71.5t105 -167.5q0 -74 -61 -127.5t-159 -53.5l-112 234q-11 11 -60 11t-82 -42.5t-46.5 -106t-13.5 -141.5q0 -152 70 -237t175 -85q161 0 303 83l31 -50q0 -175 -112 -271t-348 -96q-151 0 -272 46.5 t-196 124t-114.5 174t-39.5 201.5z" />
<glyph unicode="d" horiz-adv-x="1468" d="M38 556q0 256 134 397t369 141q164 0 252 -73q0 33 -1 53t-8.5 50t-21.5 48t-41.5 33.5t-67.5 19.5q-32 3 -41 15t-9 45q0 69 17 140.5t47 90.5q157 -27 335 -27q52 0 119 6.5t84 6.5q45 0 59 -16.5t14 -70.5q0 -4 -2.5 -74.5t-5 -161t-2.5 -141.5v-232.5t1 -229.5 q0 -51 1 -82t6 -72.5t15 -65.5t29.5 -43t46.5 -24q1 0 12.5 -0.5t18 -3t15.5 -9.5t13.5 -22.5t4.5 -39.5q0 -21 -5 -66.5t-25.5 -105t-51.5 -69.5q-6 1 -28 6t-30 6.5t-31.5 5t-44.5 5t-56 2.5t-77 1q-63 0 -127 -5t-80 -5q-45 0 -64.5 33.5t-19.5 101.5q-68 -151 -307 -151 q-90 0 -165.5 34t-126.5 91t-86.5 133t-51.5 157.5t-16 167.5zM571 514q0 -73 4.5 -127t16.5 -100t34 -70t55 -24q101 0 101 345q0 157 -26.5 253t-77.5 96q-19 0 -34.5 -7t-26.5 -23t-19 -33.5t-13 -47t-8 -54t-4 -64.5t-1.5 -68.5t-0.5 -75.5z" />
<glyph unicode="e" horiz-adv-x="1229" d="M48 538q0 262 169 409t446 147q218 0 362 -117t160 -284q-23 -154 -373 -161q-101 -3 -251 -3q10 -116 76.5 -171.5t162.5 -55.5q90 0 182 29t162 77q34 -15 34 -59q0 -69 -27.5 -146.5t-56.5 -104.5q-131 -125 -424 -125q-171 0 -311.5 66.5t-225.5 197t-85 301.5z M543 700q29 0 89 -1.5t93 -1.5q40 0 54.5 16.5t14.5 55.5q0 73 -30 112t-87 39q-82 0 -108 -51.5t-26 -168.5z" />
<glyph unicode="f" horiz-adv-x="972" d="M36 926q0 5 40.5 14t81.5 15l40 6q0 268 145 411.5t404 143.5q95 0 169.5 -22t119 -58.5t67.5 -79.5t23 -89q0 -77 -58.5 -131.5t-157.5 -54.5l-151 267q-80 0 -120 -37.5t-40 -98.5q0 -134 84 -253q2 0 45.5 0.5t94.5 1t71 0.5q48 0 65.5 -13t17.5 -58q0 -109 -88 -109 h-205v-194q0 -282 83 -290q23 -4 34 -7t26 -10t21 -20t6 -32q0 -75 -20.5 -155.5t-57.5 -99.5q-148 27 -329 27t-329 -27q-37 19 -57.5 99.5t-20.5 155.5q0 19 6 32t21 20t26 10t34 7q72 8 72 241q0 231 -3 231h-6q-151 0 -151 26q0 27 -1.5 69.5t-1.5 61.5z" />
<glyph unicode="g" horiz-adv-x="1294" d="M68 24q0 44 13 86t39.5 83t47.5 68t56 66q-149 120 -149 315q0 117 40.5 205.5t113 141.5t166.5 79t208 26q63 0 109 -6.5t111.5 -24t86.5 -22.5q2 2 19 26.5t33.5 41.5t42 39.5t59.5 34.5t72 12q46 0 78 -15.5t46.5 -40t20.5 -45t6 -38.5q0 -68 -30.5 -88.5 t-113.5 -20.5q-99 0 -99 -12q128 -132 128 -298q0 -167 -159 -281.5t-400 -114.5q-28 0 -59 4.5t-34 4.5q-23 -25 -23 -41q0 -28 43.5 -42t112.5 -17.5t152.5 -5.5t167.5 -13.5t153 -35t112.5 -75.5t43.5 -130q0 -424 -628 -424q-127 0 -233.5 18t-173 54.5t-66.5 83.5 q0 82 82 180q-195 52 -195 222zM406 -219v-19q0 -20 2.5 -33.5t11 -28.5t28 -22.5t49.5 -7.5q327 0 397.5 10t70.5 65q0 21 -45.5 26.5t-137.5 5.5h-265q-64 0 -111 4zM525 678q0 -21 3 -57t11.5 -95.5t30.5 -100.5t54 -41q55 4 74.5 69t19.5 195t-24.5 209.5t-74.5 79.5 q-27 0 -46.5 -24t-29.5 -65t-14 -82.5t-4 -87.5z" />
<glyph unicode="h" horiz-adv-x="1666" d="M32 1285q0 69 17 140.5t47 90.5q162 -27 346 -27q52 0 119 6.5t84 6.5q45 0 59 -16.5t14 -70.5q-5 -77 -10 -377l-1 -69q65 67 160 96t236 29q77 0 143 -22t118 -65t81.5 -114t29.5 -162v-169q0 -41 1 -71t6 -68.5t13 -63.5t24.5 -43.5t38.5 -21.5q18 -3 27.5 -5.5 t23 -9.5t19.5 -20t6 -32q0 -75 -20.5 -155t-57.5 -99q-122 27 -249 27q-24 0 -86.5 -7t-93.5 -7q-65 0 -102.5 22.5t-37.5 81.5q0 43 1.5 135.5t1.5 181.5q0 233 -17 333.5t-76 100.5q-60 0 -112 -29.5t-78 -93.5v-131q0 -44 1 -76.5t5 -74.5t11.5 -69.5t21.5 -48t34 -22.5 q23 -4 34 -7t26 -10t21 -20t6 -32q0 -75 -20.5 -155t-57.5 -99q-145 27 -319 27q-180 0 -329 -27q-37 19 -57.5 99t-20.5 155q0 19 6 32t21 20t26 10t34 7q20 2 33.5 19.5t21 41t11 60.5t4.5 64t1 66v474q0 34 -1 53t-8.5 50t-21 48.5t-41 33t-67.5 19.5q-32 3 -41 15t-9 45 z" />
<glyph unicode="i" horiz-adv-x="927" d="M55 863q0 69 17 140.5t47 90.5q162 -27 345 -27q52 0 117 7t82 7q45 0 59 -17t14 -71q0 -4 -1 -82t-2.5 -175.5t-1.5 -148.5q0 -45 1 -76.5t5.5 -74.5t13 -70.5t24.5 -48t39 -23.5q18 -3 27.5 -5.5t23 -9.5t19.5 -20t6 -32q0 -75 -20.5 -155t-57.5 -99q-145 27 -319 27 q-181 0 -329 -27q-37 19 -57.5 99t-20.5 155q0 19 6 32t19.5 20t23 9.5t27.5 5.5q28 3 46 27t25.5 65.5t10 76.5t2.5 84v52q0 33 -1.5 53t-9 50t-21.5 48t-41.5 33.5t-67.5 19.5q-32 3 -41 15t-9 45zM165 1340q0 176 315 176q80 0 136 -17t82.5 -45.5t37 -56.5t10.5 -60 q0 -47 -27 -81.5t-69 -51.5t-83 -25t-80 -8q-44 0 -92.5 7t-103.5 24t-90.5 53t-35.5 85z" />
<glyph unicode="j" horiz-adv-x="991" d="M21 -200q0 -51 17 -91.5t41.5 -66t65 -44t72.5 -27t79.5 -13.5t71.5 -5.5t63 -0.5q82 0 149.5 20.5t115 55t83 86.5t57.5 109.5t35 129.5t18 139.5t5 147.5v376q0 51 1.5 141.5t3 161t1.5 74.5q0 54 -14 71t-59 17q-17 0 -84 -7t-119 -7q-179 0 -341 27 q-30 -19 -47 -90.5t-17 -140.5q0 -33 9 -45t41 -15q40 -4 67.5 -19.5t41.5 -33.5t21.5 -48t8.5 -50t1 -53v-614q0 -53 -2.5 -85.5t-10.5 -64.5t-25.5 -47t-46.5 -15q-24 0 -38.5 10t-19 25t-12.5 33t-18.5 33t-36.5 25t-67 10q-48 0 -79.5 -29t-31.5 -80zM306 1340 q0 176 315 176q80 0 136 -17t82.5 -45.5t37 -56.5t10.5 -60q0 -47 -27 -81.5t-69 -51.5t-83 -25t-80 -8q-44 0 -92.5 7t-103.5 24t-90.5 53t-35.5 85z" />
<glyph unicode="k" horiz-adv-x="1622" d="M36 1285q0 69 17 140.5t47 90.5q162 -27 345 -27q52 0 119 6.5t84 6.5q45 0 59 -16.5t14 -70.5q0 -4 -2.5 -74.5t-5 -161t-2.5 -141.5v-303l221 149l10.5 7l10.5 7t8.5 6t7.5 6.5t5 6t4 7.5t1 8q0 12 -12.5 39t-12.5 39q0 60 27 85q37 -9 121.5 -18.5t164.5 -9.5 q97 0 202 28q30 -8 39.5 -33t9.5 -72q0 -40 -2 -57.5t-16.5 -33t-30.5 -22.5t-60 -31t-89 -54l-260 -149q50 -11 89.5 -25t67.5 -26t51 -30.5t36.5 -31.5t27.5 -36.5t20 -37.5t18.5 -43t19.5 -44q17 -43 39.5 -61.5t61.5 -18.5q92 0 92 -66q0 -10 -6 -59.5t-21.5 -113.5 t-35.5 -77q-3 12 -68.5 19.5t-148.5 7.5q-188 0 -232 -27q-37 6 -57 55.5t-33 131.5t-19 102q-20 66 -40 108.5t-36.5 66t-43.5 34t-45.5 12.5t-58.5 2h-27q6 -183 73 -189q23 -4 34 -7t26 -10t21 -20t6 -32q0 -75 -20.5 -155t-57.5 -99q-145 27 -319 27q-181 0 -329 -27 q-37 19 -57.5 99t-20.5 155q0 19 6 32t21 20t26 10t34 7q24 2 39.5 25.5t22 65.5t8.5 76.5t2 83.5v474q0 33 -1 53t-8.5 50t-21.5 48t-41.5 33.5t-67.5 19.5q-32 3 -41 15t-9 45z" />
<glyph unicode="l" horiz-adv-x="846" d="M19 1272q0 72 19.5 149t54.5 96q66 -28 286 -28q64 0 138 7t94 7q42 0 57.5 -15.5t15.5 -72.5q0 -43 -5 -198t-6 -208v-422q0 -44 1 -76.5t5 -74.5t11.5 -69.5t21.5 -48t34 -22.5q23 -4 34 -7t26 -10t21 -20t6 -32q0 -75 -20.5 -155t-57.5 -99q-145 27 -319 27 q-180 0 -329 -27q-37 19 -57.5 99t-20.5 155q0 19 6 32t21 20t26 10t34 7q24 2 39.5 25.5t22 65.5t8.5 76.5t2 83.5v471q0 28 -0.5 44t-4 42.5t-11 42.5t-20 33.5t-34 27.5t-49.5 13q-32 4 -41 14t-9 37z" />
<glyph unicode="m" horiz-adv-x="2258" d="M30 879q0 53 11.5 104.5t26.5 81t26 29.5q176 -27 316 -27q58 0 125.5 7t86.5 7q43 0 58 -15.5t15 -72.5l-2 -63q178 164 401 164q86 0 155.5 -40.5t110.5 -121.5q93 89 178 125.5t198 36.5q146 0 242 -97.5t96 -286.5q0 -24 -3 -73t-3 -75q0 -35 0.5 -59t2.5 -57.5 t7 -56.5t12.5 -45t20 -34t29.5 -14q2 0 12 -2l12.5 -2.5t11.5 -2.5t12 -3.5t10 -4.5t10 -6t7.5 -8t6.5 -10.5t3.5 -13t1.5 -16.5q0 -75 -20.5 -155t-57.5 -99q-121 27 -249 27q-21 0 -77.5 -8t-84.5 -8q-61 0 -95.5 22.5t-34.5 81.5q0 44 1.5 136t1.5 183q0 58 -0.5 96 t-2.5 82t-5.5 72t-9.5 57.5t-14.5 46.5t-21 32t-29 21t-37.5 6q-30 0 -52 -18t-33 -47.5t-15.5 -57t-4.5 -55.5q0 -338 42 -346q2 0 12 -2l12.5 -2.5t11.5 -2.5t12 -3.5t10 -4.5t10 -6t7.5 -8t6.5 -10.5t3.5 -13t1.5 -16.5q0 -75 -17.5 -155t-50.5 -99q-111 27 -219 27 q-24 0 -86.5 -8t-93.5 -8q-61 0 -95.5 22.5t-34.5 81.5q0 44 1.5 136t1.5 183q0 228 -18.5 320.5t-84.5 92.5q-132 0 -132 -165v-78q0 -44 0.5 -68.5t3 -61.5t7.5 -58t14 -44t24 -35t35 -16q30 0 53 -17t23 -50q0 -75 -20.5 -155t-57.5 -99q-138 27 -299 27q-181 0 -329 -27 q-37 19 -57.5 99t-20.5 155q0 33 23 50t53 17q52 10 67.5 71t15.5 182v27q0 127 -28.5 172.5t-125.5 58.5q-24 5 -30.5 18.5t-6.5 55.5z" />
<glyph unicode="n" horiz-adv-x="1618" d="M30 879q0 53 11.5 104.5t26.5 81t26 29.5q176 -27 316 -27q64 0 134 7t90 7q43 0 58 -15.5t15 -72.5l-2 -63q76 80 170 122t191 42q75 0 140.5 -23t117 -68.5t81 -120.5t29.5 -172q0 -24 -3 -73t-3 -75q0 -35 0.5 -59t2.5 -57.5t7 -56.5t12.5 -45t20 -34t29.5 -14 q2 0 12 -2l12.5 -2.5t11.5 -2.5t12 -3.5t10 -4.5t10 -6t7.5 -8t6.5 -10.5t3.5 -13t1.5 -16.5q0 -75 -20.5 -155t-57.5 -99q-121 27 -249 27q-24 0 -86.5 -8t-93.5 -8q-65 0 -102.5 22.5t-37.5 81.5q0 44 1.5 136t1.5 183q0 226 -19.5 319.5t-85.5 93.5q-132 0 -132 -165v-78 q0 -44 0.5 -68.5t2.5 -61.5t6.5 -58t12.5 -44t21 -35t31 -16q30 0 53 -17t23 -50q0 -75 -20.5 -155t-57.5 -99q-142 27 -309 27q-181 0 -329 -27q-37 19 -57.5 99t-20.5 155q0 33 23 50t53 17q52 10 67.5 71t15.5 182v27q0 127 -28.5 172.5t-125.5 58.5q-24 5 -30.5 18.5 t-6.5 55.5z" />
<glyph unicode="o" horiz-adv-x="1398" d="M60 530q0 264 161.5 414t466.5 150q148 0 266 -33t204.5 -99t133 -172t46.5 -246q0 -274 -168 -422.5t-470 -148.5q-289 0 -464.5 146t-175.5 411zM594 529q0 -189 22.5 -277t86.5 -88q23 0 40.5 13t28 41t17.5 58.5t10 79.5t4 89t1 101q0 46 -0.5 75.5t-3.5 80t-9.5 83 t-17.5 66.5t-29.5 51t-43.5 17q-66 0 -86 -89t-20 -301z" />
<glyph unicode="p" horiz-adv-x="1464" d="M43 -194q0 19 6 32t21 20t26 10t34 7q24 2 40 26t23 65t9 76.5t2 83.5v427q0 69 -9 116.5t-23 70.5t-31 36t-34.5 17t-31.5 8t-23 15.5t-9 34.5q0 34 5.5 79.5t23.5 97.5t45 67q83 -28 282 -28q56 0 127.5 7t104.5 7q23 0 27 -22.5t4 -125.5q36 88 121.5 124.5 t192.5 36.5q95 0 171 -27.5t127 -74.5t84.5 -113.5t48.5 -141.5t15 -162q0 -132 -40 -239.5t-110 -177.5t-163.5 -107.5t-200.5 -37.5q-142 0 -220 78q0 -42 2 -71.5t8.5 -65.5t22 -56.5t39.5 -22.5q23 -4 34 -7t26 -10t21 -20t6 -32q0 -75 -20.5 -155t-57.5 -99 q-145 27 -319 27q-180 0 -329 -27q-37 19 -57.5 99t-20.5 155zM680 514q0 -73 4.5 -127t16.5 -100t34 -70t55 -24q101 0 101 345q0 157 -26.5 253t-77.5 96q-19 0 -34.5 -7t-26.5 -23t-19 -33.5t-13 -47t-8 -54t-4 -64.5t-1.5 -68.5t-0.5 -75.5z" />
<glyph unicode="q" horiz-adv-x="1431" d="M36 560q0 102 30.5 189t83.5 149.5t124.5 107t153.5 66.5t170 22q235 0 431 -92q118 79 199 79q113 0 113 -103q0 -27 -23.5 -62t-46.5 -56l-23 -22q-6 -121 -6 -790q0 -28 0.5 -44t4 -42.5t11 -43t20 -34.5t34 -28t49.5 -13q32 -4 41 -15.5t9 -44.5q0 -69 -17 -140.5 t-47 -90.5q-151 27 -325 27q-180 0 -372 -30q-30 19 -47 90.5t-17 140.5q0 32 9 44.5t41 15.5q45 3 77 18t48 31.5t24 45.5t9.5 47t1.5 49q-125 -58 -261 -58q-98 0 -188 41t-159 114.5t-110.5 185.5t-41.5 246zM571 515q0 -65 3 -112.5t12 -100t29.5 -81t52.5 -28.5 q89 0 89 317v32q0 44 -0.5 71t-3 71.5t-8.5 72.5t-16 57.5t-26.5 43.5t-38.5 14q-93 0 -93 -357z" />
<glyph unicode="r" horiz-adv-x="1131" d="M26 863q0 69 17 141t47 91q157 -28 325 -28q41 0 95 7t68 7q45 0 59 -17t14 -71q0 -14 -3 -77q121 178 266 178q93 0 142 -50.5t49 -123.5q0 -85 -60 -152.5t-158 -67.5l-60 114q-45 0 -80 -33.5t-45 -111.5v-132q0 -48 2 -80.5t9.5 -73t25.5 -63.5t46 -26 q18 -3 27.5 -5.5t23 -9.5t19.5 -20t6 -32q0 -75 -20.5 -155t-57.5 -99q-145 27 -319 27q-180 0 -329 -27q-37 19 -57.5 99t-20.5 155q0 19 6 32t19.5 20t23 9.5t27.5 5.5q28 3 46 24t25.5 58t10 67.5t2.5 73.5v82q0 33 -1.5 53t-9 50t-21.5 48t-41.5 33.5t-67.5 19.5 q-32 3 -41 15t-9 45z" />
<glyph unicode="s" horiz-adv-x="1137" d="M36 768q0 80 48 144t128 102.5t176.5 59t199.5 20.5q209 0 331.5 -69t122.5 -152q0 -54 -56.5 -89t-160.5 -35l-65 123q-11 12 -58.5 22.5t-95.5 10.5q-109 0 -109 -59q0 -31 46.5 -65t122.5 -55q51 -14 85.5 -24.5t84 -30t83 -39.5t71 -51t59.5 -66.5t37 -84t15 -105.5 q0 -91 -39.5 -160t-112 -110.5t-168 -61.5t-213.5 -20q-245 0 -367.5 63t-122.5 149q0 64 65.5 111t168.5 47l78 -144q57 -15 115 -15q47 0 81 19t34 46t-26 52t-68.5 45t-85 35.5t-88 31t-64.5 24.5q-122 58 -187 138t-65 193z" />
<glyph unicode="t" horiz-adv-x="920" d="M3 881q0 65 26 139q11 33 33.5 40t97.5 8q33 0 52.5 28t47.5 117q89 229 223 229q93 0 160 -64v-260q0 -37 1.5 -44t11.5 -6h177q26 0 34.5 -27.5t8.5 -76.5q0 -77 -31 -98.5t-110 -21.5h-92v-316q0 -61 1.5 -103t6 -83.5t13.5 -67.5t23 -47t34.5 -30t48.5 -9 q33 0 110 46q37 -16 37 -93q0 -27 -12 -46q-54 -61 -156 -92t-207 -31q-70 0 -126 11t-95.5 38t-68 53.5t-46 77t-28 87t-14.5 105t-5 109.5t-1 122v269h-52q-103 0 -103 37z" />
<glyph unicode="u" horiz-adv-x="1639" d="M40 863q0 69 17 140.5t47 90.5q140 -27 306 -27q57 0 130.5 7t92.5 7q45 0 59 -17t14 -71q0 -4 -3 -72.5t-5.5 -159.5t-2.5 -147q0 -84 0.5 -123.5t4.5 -94t12.5 -78t23 -49t38 -34t56.5 -8.5q27 0 48 9t35.5 23.5t24.5 41.5t15.5 54t8.5 70t4 80.5t1 93.5q0 34 -1 53 t-8.5 50t-21 48.5t-41 33t-67.5 19.5q-32 3 -41 15t-9 45q0 69 17 140.5t47 90.5q157 -27 335 -27q55 0 125.5 7t88.5 7q44 0 55.5 -16t11.5 -72q0 -3 -1.5 -73t-3 -166t-1.5 -163q0 -60 0.5 -91.5t5 -75t13 -66.5t25 -42.5t40.5 -25.5q2 0 12.5 -1t17.5 -3.5t16 -9 t13.5 -22.5t4.5 -39q0 -21 -5 -66.5t-25.5 -105t-51.5 -69.5q-6 1 -28 6t-30 6.5t-31.5 5t-44.5 5t-56 2.5t-77 1q-66 0 -133 -5t-84 -5q-84 0 -84 135q-55 -85 -141.5 -118.5t-211.5 -33.5q-63 0 -114.5 11.5t-90 36t-68 55.5t-49.5 75.5t-33 91t-20 107.5t-9.5 118.5 t-2.5 130.5q0 42 -2.5 67t-13 59t-36.5 53t-68 24q-32 4 -41 16t-9 45z" />
<glyph unicode="v" horiz-adv-x="1299" d="M2 868q0 122 8 164t33 62q189 -27 317 -27q196 0 325 27q23 -8 32.5 -56t9.5 -167q0 -25 -14.5 -37t-31.5 -13.5t-31.5 -12t-14.5 -33.5q0 -5 49 -136.5t61 -163.5q21 -57 32 -57q12 0 27 45q24 55 75 184.5t51 138.5q0 17 -14 26.5t-30.5 13t-30.5 16.5t-14 36 q0 203 55 216q116 -28 195 -27q82 0 158 27q2 1 6 0q11 0 17.5 -16t9 -52t3 -61.5t0.5 -73.5q0 -40 -12 -57.5t-31.5 -20t-41 -4t-44 -17.5t-36.5 -52q-41 -108 -115.5 -296t-128.5 -322l-54 -134q0 -16 -241 -16q-61 0 -91.5 20.5t-59.5 94.5q-18 41 -112 264.5t-142 327.5 q-26 55 -53.5 85t-48 35.5t-37.5 8.5t-26 15t-9 45z" />
<glyph unicode="w" horiz-adv-x="2031" d="M2 878q0 117 7 157.5t29 59.5q202 -28 322 -28q196 0 325 28q23 -8 32.5 -56.5t9.5 -167.5q0 -23 -11.5 -33.5t-24.5 -11.5t-24.5 -10.5t-11.5 -30.5q0 -4 21.5 -67.5t44 -130.5t24.5 -72q10 -33 17 -33q3 0 7 8t7 16l3 9l102 278q-12 16 -28.5 21t-22.5 15.5t-6 48.5 q0 117 7 157t29 59q157 -27 252 -27q202 0 335 28q23 -8 32.5 -56.5t9.5 -167.5q0 -23 -11.5 -33.5t-24.5 -11.5t-24.5 -10.5t-11.5 -30.5q0 -4 21.5 -67.5t44 -130.5t24.5 -72q10 -33 17 -33q4 0 10 16.5t7 16.5l16 41q16 42 35 90.5t34.5 92t15.5 47.5q0 17 -11 26.5 t-23.5 13t-23.5 16.5t-11 36q0 203 55 217q116 -28 195 -28q82 0 158 27q1 1 6 1q11 0 17.5 -16.5t9 -52.5t3 -61.5t0.5 -73.5q0 -40 -12 -57.5t-31.5 -20t-40.5 -4t-44 -17.5t-37 -52q-42 -112 -298 -752q0 -16 -251 -16q-61 0 -92 20.5t-59 94.5q-24 62 -77 207.5 t-79 213.5l-194 -520q0 -16 -271 -16q-61 0 -91.5 20.5t-59.5 94.5q-20 54 -66 180.5t-86 233.5t-73 187q-22 56 -47 86t-42.5 35.5t-33 8.5t-23 15t-7.5 45z" />
<glyph unicode="x" horiz-adv-x="1513" d="M58 176q0 34 16 51t37 21t50 16t48 33q26 24 128 120t163 152q-24 22 -62 57.5t-61.5 56.5t-35.5 29q-62 48 -112 72.5t-68.5 26.5t-27 13t-8.5 44q0 122 8 164t33 62q216 -27 367 -27q177 0 292 28q23 -7 32.5 -51.5t9.5 -152.5q0 -25 -11.5 -37t-24.5 -13.5t-24.5 -12 t-11.5 -33.5q0 -1 7 -10l106 -118q132 143 132 149q0 17 -12.5 21.5t-27 2.5t-27 6.5t-12.5 31.5q0 203 55 217q133 -28 225 -28q79 0 148 27q1 1 6 1q11 0 17.5 -16.5t9 -52.5t3 -61.5t0.5 -73.5q0 -34 -16 -51t-37 -21t-50 -16t-48 -33q-102 -102 -207 -212 q202 -189 217 -202q41 -35 76.5 -58t50.5 -28t26.5 -13t13.5 -18.5t2 -39.5q0 -122 -8 -164t-33 -62q-189 27 -317 27q-196 0 -325 -28q-23 8 -32.5 56.5t-9.5 167.5q0 25 9.5 37.5t21.5 14.5t21.5 13.5t9.5 34.5l-120 123q-127 -134 -127 -138q0 -17 15.5 -26.5t34 -13 t34 -16.5t15.5 -36q0 -203 -55 -217q-166 28 -285 28q-105 0 -208 -27q-2 -1 -6 -1q-11 0 -17.5 16.5t-9 52.5t-3 61.5t-0.5 73.5z" />
<glyph unicode="y" horiz-adv-x="1422" d="M23 868q0 122 8 164t33 62q189 -27 317 -27q182 0 305 28q23 -8 32.5 -56.5t9.5 -167.5q0 -25 -11 -37t-25 -13.5t-25 -12t-11 -33.5q0 -2 13 -28l31.5 -63t37 -73.5t33.5 -65.5t17 -33q19 -37 31 -37t28 37q3 7 38 84.5t55.5 125.5t20.5 54q0 16 -15.5 25.5t-34 13 t-34 16.5t-15.5 37q0 212 65 227q149 -28 255 -28q87 0 168 27q1 1 6 1q11 0 17.5 -16.5t9 -52.5t3 -61.5t0.5 -73.5q0 -34 -7 -54t-17.5 -26.5t-25.5 -11t-30.5 -7.5t-32.5 -16.5t-30 -36.5q-43 -76 -87.5 -161t-101 -197.5t-80.5 -159.5q-142 -249 -203 -334 q-116 -164 -231 -206q-50 -19 -106 -19q-59 0 -124.5 21.5t-117 68t-51.5 105.5q0 44 15.5 81.5t49.5 37.5q126 -24 165 -24h52t38 8t32.5 16.5t31 36.5t38 56t49.5 87l-91 1q-225 389 -327 560q-26 43 -53.5 66.5t-47.5 28t-36.5 7.5t-25 13t-8.5 36z" />
<glyph unicode="z" horiz-adv-x="1163" d="M63 126q0 58 55 139q44 65 139.5 200t166.5 240t115 184h-62q-48 0 -101 -36.5t-86 -72.5t-34 -36q-166 0 -166 23q0 137 49 314q371 -14 460 -14q240 0 428 15q38 -4 50.5 -28t12.5 -78q0 -62 -107 -222l-263 -393l-91 -138h83q70 0 122 51.5t100 161.5q4 0 14 0.5 t15 0.5q145 0 145 -91q0 -61 -35 -185t-58 -176q-345 15 -546 15q-162 0 -316 -12q-4 -1 -12 -1q-78 0 -78 139z" />
<glyph unicode="{" horiz-adv-x="966" d="M44 685q0 40 15.5 70t41.5 30t45 4.5t32.5 10t22 20t13 25.5t6.5 37t2.5 43t0.5 54q0 128 29 232.5t76 173t109.5 115t128 66.5t132.5 20q95 0 162 -31.5t67 -78.5q0 -114 -116 -114q-15 0 -44 7t-39 7q-33 0 -49.5 -24.5t-24.5 -98.5t-8 -224q0 -239 -219 -345 q219 -107 219 -345q0 -150 8 -224t24.5 -98.5t49.5 -24.5q9 0 38 6.5t45 6.5q54 0 85 -24.5t31 -88.5q0 -47 -66.5 -78.5t-162.5 -31.5q-67 0 -132.5 20t-128 66.5t-109.5 115t-76 173t-29 232.5q0 37 -0.5 54t-2.5 43t-6.5 37t-13 25.5t-22 20t-32.5 10t-45 4.5t-41.5 30.5 t-15.5 71.5z" />
<glyph unicode="|" horiz-adv-x="542" d="M93 1568q0 40 44.5 54t151.5 14q83 0 120 -9.5t37 -41.5q0 -18 -1 -65t-2.5 -155t-1.5 -276v-443.5t0.5 -324t0.5 -205.5v-127.5v-51.5q0 -27 -10.5 -46t-25 -28.5t-40 -15t-45.5 -6.5t-52 -1q-38 0 -60 1.5t-49 8t-40 23t-13 42.5q0 51 -2.5 333.5t-2.5 460.5 q0 22 -4.5 429.5t-4.5 429.5z" />
<glyph unicode="}" horiz-adv-x="968" d="M40 -108q0 64 31 88.5t85 24.5q16 0 45 -6.5t38 -6.5q33 0 49.5 24.5t24.5 98.5t8 224q0 238 219 345q-219 106 -219 345q0 150 -8 224t-24.5 98.5t-49.5 24.5q-9 0 -38 -7t-45 -7q-116 0 -116 114q0 47 67 78.5t162 31.5q67 0 132.5 -20t128 -66.5t109.5 -115t76 -173 t29 -232.5q0 -37 0.5 -54t2.5 -43t6.5 -37t13 -25.5t22 -20t32.5 -10t45 -4.5t41.5 -30t15.5 -70q0 -41 -15.5 -71.5t-41.5 -30.5t-45 -4.5t-32.5 -10t-22 -20t-13 -25.5t-6.5 -37t-2.5 -43t-0.5 -54q0 -128 -29 -232.5t-76 -173t-109.5 -115t-128 -66.5t-132.5 -20 q-96 0 -162.5 31.5t-66.5 78.5z" />
<glyph unicode="~" horiz-adv-x="1024" d="M73 765q0 52 11.5 96t36 81.5t69.5 58.5t106 21q57 0 137 -24t146 -47.5t88 -23.5q28 0 43.5 20t15.5 77q0 1 14 2.5t38 3.5t45 2q60 0 97 -6q31 -98 31 -175q0 -100 -50.5 -161t-157.5 -61q-64 0 -149 24.5t-153.5 49t-92.5 24.5q-34 0 -44.5 -24t-10.5 -66 q-6 -15 -89 -15q-113 0 -116 15q-15 68 -15 128z" />
<glyph unicode="&#xa1;" horiz-adv-x="657" d="M42 49q0 19 26 167.5t62 355t53 323.5q4 29 6 60t2 45.5t4 30.5t10 21.5t23.5 11t39.5 6.5t63 1q40 0 62 -1t39 -6.5t22.5 -11t10 -21.5t4 -31t2 -45.5t6.5 -59.5q16 -118 52 -323.5t62.5 -354.5t26.5 -168q0 -42 -21.5 -60t-68.5 -18h-396q-47 0 -68.5 18t-21.5 60z M78 1347q0 49 29 85t73.5 53t84 24t75.5 7t73.5 -8t76.5 -25t64 -51.5t25 -81.5q0 -32 -10 -60t-34 -56.5t-76 -45.5t-126 -17q-255 0 -255 176z" />
<glyph unicode="&#xa2;" horiz-adv-x="1181" d="M61 609q0 99 29 189t85.5 165.5t146.5 130t204 76.5q-2 295 -5 313q0 33 79 33q51 0 58 -21q-8 -104 -8 -145v-166q10 1 32 1t64 -2q-2 281 -5 300q0 33 79 33q51 0 58 -21q-8 -104 -8 -145v-183q115 -22 175.5 -84.5t60.5 -137.5t-58.5 -129t-158.5 -54l-101 208 q-23 13 -72 13q-86 0 -129 -76.5t-43 -187.5q0 -152 75.5 -237t189.5 -85q161 0 303 83l31 -50q0 -281 -273 -347v-344q-1 -3 -2.5 -16t-3.5 -14t-10.5 -6.5t-25 -6t-45.5 -0.5q-21 0 -31.5 8.5t-10.5 33.5q0 43 -1.5 158.5t-1.5 167.5q-18 -1 -55 -1h-33v-324 q-1 -3 -2.5 -16t-3.5 -14t-10.5 -6.5t-25 -6t-45.5 -0.5q-21 0 -31.5 8.5t-10.5 33.5q0 45 -1.5 165.5t-1.5 175.5q-147 29 -252.5 111.5t-155 190t-49.5 228.5z" />
<glyph unicode="&#xa3;" horiz-adv-x="1517" d="M57 758q0 71 36 85q26 -2 143 -2h21v123q0 265 143.5 408.5t385.5 143.5q129 0 256 -86q2 4 2 6q9 31 16.5 42t33.5 17t86 6l117 -8q10 -26 25.5 -69t41 -146t25.5 -171q0 -38 -69 -60.5t-137 -22.5q-20 0 -38 19.5t-31.5 48.5t-33.5 62.5t-42.5 62.5t-61.5 48.5 t-87 19.5q-82 0 -115 -38.5t-33 -109.5q0 -44 38.5 -146t41.5 -149h90q104 0 143 3q36 -14 36 -85q0 -95 -55 -95q-16 6 -213 6v-251q0 -216 32 -216q68 0 120 17.5t83.5 47t54.5 65.5t39 75.5t31.5 74t38 64t51.5 42.5q13 7 39 7q57 0 115 -27.5t58 -63.5 q-11 -75 -62.5 -237.5t-91.5 -254.5q-18 -42 -65 -42q-2 0 -36 3t-94 7t-138 8t-190 7t-228 3q-257 0 -443 -27q-37 19 -57.5 99t-20.5 155q0 19 6 32t19.5 20t23 9.5t27.5 5.5q39 3 65 22.5t38 53.5t16 67t4 78v156q-138 -4 -145 -8q-55 0 -55 95z" />
<glyph unicode="&#xa4;" horiz-adv-x="1053" d="M56 651q0 3 4 9t12.5 15t17.5 18l25 25l29 29l81 82q-62 89 -62 205q0 120 65 210l-23 24q-126 124 -136 128q-11 10 -11 26q0 23 32 58t57 35q4 0 10 -3.5t15.5 -12t17.5 -17t24.5 -25.5t29.5 -30l90 -90q81 47 190 47q108 0 192 -46l90 89q14 13 29 29t24 25l18 18 t15 12.5t10 3.5q25 0 57 -34.5t32 -58.5q0 -17 -11 -26q-4 -2 -38 -34t-66 -63l-31 -31l-22 -22q70 -92 70 -212q0 -117 -67 -208l80 -79l21 -21t19.5 -19t16 -16t13.5 -14.5t9.5 -11t6.5 -9t2 -5.5q0 -26 -35 -58t-58 -32q-15 0 -26 11q-1 3 -21 25t-40 43l-19 20l-73 74 q-84 -49 -198 -49q-115 0 -196 50l-73 -75q-78 -82 -80 -88q-11 -11 -26 -11q-23 0 -58 32t-35 58zM310 1034q0 -110 63 -170t151 -60q89 0 153.5 61t64.5 169q0 109 -65 170.5t-153 61.5t-151 -61.5t-63 -170.5z" />
<glyph unicode="&#xa5;" horiz-adv-x="1748" d="M46 1335v14q0 49 11 101.5t31 52.5q219 -28 418 -28q118 0 370 28q14 0 33 -94.5t19 -149.5q0 -17 -12.5 -26t-28 -11t-28 -9t-12.5 -21q0 -20 18 -48l115 -178q123 183 142 212q8 12 8 22t-20 17.5t-39.5 20t-19.5 34.5v15q0 197 45 217q134 -29 265 -29q44 0 159 14 t147 14q28 0 28 -174v-34q0 -40 -16.5 -58t-45.5 -22t-61.5 -7.5t-72 -24t-69.5 -61.5q-41 -57 -101 -137.5t-71 -95.5h50q104 0 143 3q36 -14 36 -85q0 -95 -55 -95q-5 2 -62 3.5t-111 2.5h-54h-56v-111h129q104 0 143 3q36 -14 36 -85q0 -95 -55 -95q-5 2 -61.5 3.5 t-110.5 2.5h-55h-19q17 -135 76 -142q18 -3 27.5 -5.5t23 -9.5t19.5 -20t6 -32q0 -75 -20.5 -155t-57.5 -99q-140 27 -361 27t-361 -27q-37 19 -57.5 99t-20.5 155q0 19 6 32t19.5 20t23 9.5t27.5 5.5q60 7 75 140q-223 -4 -230 -6q-55 0 -55 95q0 71 36 85q39 -3 143 -3 q1 0 41.5 0.5t72.5 0.5v110q-259 -2 -268 -6q-55 0 -55 95q0 71 36 85q39 -3 143 -3h31l-24 33q-38 50 -60.5 78t-62.5 70.5t-81 69t-85 38.5q-12 3 -33.5 7.5t-29.5 7t-21.5 12t-18.5 24.5t-9.5 42t-4.5 66z" />
<glyph unicode="&#xa6;" horiz-adv-x="525" d="M92 551q0 55 33.5 70.5t149.5 15.5q83 0 120 -9.5t37 -41.5q0 -107 0.5 -322t0.5 -327q0 -27 -10.5 -46t-25 -28.5t-40 -15t-45.5 -6.5t-52 -1q-38 0 -60 1.5t-49 8t-40 23t-13 42.5q0 30 -3 266t-3 370zM92 1568q0 40 39 54t144 14q83 0 120 -9.5t37 -41.5l1 -598 q0 -27 -10.5 -46t-25 -28.5t-40 -15t-45.5 -6.5t-52 -1q-38 0 -60 1.5t-49 8t-40 23t-13 42.5q0 29 -2.5 106t-2.5 134q0 21 -0.5 181t-0.5 182z" />
<glyph unicode="&#xa7;" horiz-adv-x="1197" d="M69 620q0 133 95 233q-83 98 -83 199q0 141 151 238t389 97q466 0 466 -263q0 -12 -4 -23.5t-16 -26t-41 -23.5t-72 -9q-26 0 -55 -0.5t-33 -0.5q-33 0 -56 8t-37.5 28.5t-21 34t-17.5 45.5q-7 19 -37 29.5t-70 10.5q-39 0 -68 -15.5t-29 -43.5q0 -31 46.5 -65t122.5 -55 q51 -14 85.5 -24.5t84 -30t83 -39.5t71 -51t59.5 -66.5t37 -84t15 -105.5q0 -141 -73 -243q70 -95 70 -197q0 -66 -32 -124t-96 -105.5t-172.5 -75t-249.5 -27.5q-129 0 -244.5 35t-191 104.5t-75.5 156.5q0 84 133 84q29 0 61.5 0.5t36.5 0.5q64 0 88.5 -23t42.5 -80 q7 -33 36 -50t67 -17q46 0 82 18t36 47q0 15 -7.5 29.5t-24 28t-32.5 24.5t-43 23t-45.5 19.5t-49.5 18t-45.5 15l-43.5 13.5q-165 51 -229 127t-64 201zM387 711q0 -96 65 -123q37 -13 99 -35t94.5 -33.5t71.5 -24.5t60 -19t29 -6t14.5 14.5t6.5 35.5q0 80 -64 105 q-61 24 -156 62.5t-140.5 56t-58.5 17.5q-8 0 -14.5 -15t-6.5 -35z" />
<glyph unicode="&#xa8;" horiz-adv-x="1066" d="M75 1332q0 77 52 130t153 53q99 0 148.5 -53.5t49.5 -129.5t-49.5 -130t-148.5 -54q-101 0 -153 53.5t-52 130.5zM588 1332q0 77 52 130t153 53q99 0 148.5 -53.5t49.5 -129.5t-49.5 -130t-148.5 -54q-101 0 -153 53.5t-52 130.5z" />
<glyph unicode="&#xa9;" horiz-adv-x="1716" d="M63 748q0 235 105 410.5t288 266.5t417 91q173 0 320 -58t248 -159t157.5 -240.5t56.5 -300.5q0 -223 -106 -404t-286 -281t-397 -100q-159 0 -303 52.5t-256 148.5t-178 245t-66 329zM232 750q0 -148 52.5 -271t141 -202.5t202 -122.5t239.5 -43q171 0 313.5 82.5 t226.5 231.5t84 333q0 178 -76 319.5t-217.5 223t-324.5 81.5q-185 0 -329.5 -74.5t-228 -219.5t-83.5 -338zM431 761q0 81 26 155.5t73.5 134t123.5 95.5t168 36q62 0 107 -11t99 -41q-2 14 -2 17q0 17 12.5 22.5t54.5 5.5q48 0 69 -8t34.5 -37t23.5 -95q8 -51 8 -75 q0 -37 -10.5 -46t-49.5 -12q-55 -5 -61 -5q-21 0 -40 30q-29 47 -69 72.5t-80 25.5q-60 0 -100.5 -51t-40.5 -143q0 -125 69 -202t169 -77q104 0 201 55q21 -39 21 -79q0 -84 -90.5 -145t-247.5 -61q-115 0 -207 37.5t-147.5 100.5t-84.5 140t-29 161z" />
<glyph unicode="&#xaa;" horiz-adv-x="907" d="M49 1024q0 58 16.5 100.5t42.5 67t67.5 39t83 19t97.5 4.5q22 0 45 -2t35 -4l12 -3v74q0 37 -14 52t-45 15q-48 0 -101.5 -23t-83.5 -45l-30 -23q-60 0 -60 73q0 49 32 81t90.5 45.5t107.5 17.5t116 4q79 0 134.5 -15t90 -41t54 -72t26 -98t6.5 -129q0 -31 0.5 -46 t2.5 -37.5t7 -33.5t14 -20.5t23 -12.5q1 0 8 -0.5t11 -2t9.5 -5.5t8.5 -14t3 -25q0 -30 -12 -86t-39 -65q-4 1 -16.5 4t-17.5 4t-18.5 3t-26 3t-32.5 1.5t-44 0.5q-44 0 -81 -3t-49 -3q-25 0 -52 85q-37 -47 -92.5 -71t-113.5 -24q-110 0 -162.5 60t-52.5 151zM332 1077 q0 -42 15 -78t42 -36q15 0 31.5 12.5t20.5 24.5q7 30 7 136q0 22 -7.5 28t-41.5 6q-32 0 -49.5 -24t-17.5 -69z" />
<glyph unicode="&#xab;" horiz-adv-x="1440" d="M53 534q0 40 125.5 171.5t248 243.5t125.5 112q10 8 20 8q30 0 100.5 -79.5t70.5 -124.5q0 -16 -13 -29q-240 -224 -308 -302q31 -35 110.5 -110.5t143.5 -133.5l64 -58q13 -13 13 -29q0 -29 -37 -79t-81 -87.5t-63 -37.5q-10 0 -21 8q-10 9 -28 25t-70 63.5t-99 91.5 t-104.5 101.5t-98.5 103t-69.5 85t-28.5 57.5zM689 534q0 25 51.5 88.5t124.5 136.5t146.5 142t124.5 115l52 45q10 8 20 8q30 0 100.5 -79.5t70.5 -124.5q0 -16 -13 -29q-240 -224 -308 -302q31 -35 110.5 -110.5t143.5 -133.5l64 -58q13 -13 13 -29q0 -29 -37 -79 t-81 -87.5t-63 -37.5q-10 0 -21 8q-10 9 -28 25t-70 63.5t-99 91.5t-104.5 101.5t-98.5 103t-69.5 85t-28.5 57.5z" />
<glyph unicode="&#xac;" horiz-adv-x="1152" d="M73 809q0 71 36 85q26 -2 143 -2h202t349 0.5t172 0.5q25 0 36 -1t24 -6t17 -17.5t4 -33.5v-116q2 -88 2 -161t0.5 -101t2.5 -53q-14 -36 -85 -36q-95 0 -95 55q5 22 5 227v71q-113 1 -613 1q-138 -4 -145 -8q-55 0 -55 95z" />
<glyph unicode="&#xad;" horiz-adv-x="250" />
<glyph unicode="&#xae;" horiz-adv-x="1716" d="M63 748q0 235 105 410.5t288 266.5t417 91q173 0 320 -58t248 -159t157.5 -240.5t56.5 -300.5q0 -223 -106 -404t-286 -281t-397 -100q-159 0 -303 52.5t-256 148.5t-178 245t-66 329zM232 750q0 -148 52.5 -271t141 -202.5t202 -122.5t239.5 -43q171 0 313.5 82.5 t226.5 231.5t84 333q0 178 -76 319.5t-217.5 223t-324.5 81.5q-185 0 -329.5 -74.5t-228 -219.5t-83.5 -338zM499 356v813q238 9 366 9q37 0 62.5 -0.5t67.5 -5t71 -12t63.5 -22.5t55 -36t35 -54t14.5 -75q0 -151 -174 -189q47 -8 81.5 -21.5t56.5 -28t35.5 -39t20 -46.5 t8 -58.5t0.5 -66.5t-2 -79.5t0 -88.5h-301v175q0 127 -18.5 164t-87.5 37h-53v-376h-301zM797 826q36 -2 60 -2q40 0 63.5 29t23.5 106q0 109 -75 109l-72 -3v-239z" />
<glyph unicode="&#xaf;" horiz-adv-x="915" d="M82 1339q0 150 46 150q58 0 197.5 -1.5t223.5 -1.5h236q26 0 37 -28.5t11 -106.5q0 -145 -47 -145q-66 0 -214 -0.5t-215 -0.5q-41 0 -120.5 1t-116.5 1q-38 0 -38 132z" />
<glyph unicode="&#xb0;" horiz-adv-x="759" d="M51 1214q0 57 20.5 109.5t59 95.5t101.5 68.5t140 25.5q152 0 238 -89t86 -210t-85.5 -209.5t-238.5 -88.5q-102 0 -177 44t-109.5 110.5t-34.5 143.5zM182 1214q0 -94 56 -145.5t134 -51.5t135.5 52t57.5 145q0 94 -57.5 146t-135.5 52t-134 -52.5t-56 -145.5z" />
<glyph unicode="&#xb1;" horiz-adv-x="962" d="M54 747q0 71 36 85q39 -3 143 -3h159v14q-1 254 -6 267q0 25 26.5 40.5t78.5 15.5q69 0 85 -37q-3 -39 -3 -143v-156q84 1 157 1q104 0 143 3q36 -14 36 -85q0 -105 -55 -105q-6 2 -72.5 3.5t-130.5 2.5h-64h-13q1 -74 1 -234q0 -37 3 -69q-16 -37 -85 -37 q-105 0 -105 55q2 6 3.5 73t2.5 130v64v16h-18q-254 -1 -267 -6q-55 0 -55 105zM94 88q0 71 36 85q39 -3 143 -3q139 2 277.5 2.5t204 1t78.5 1.5q36 -14 36 -85q0 -95 -55 -95q-5 2 -61.5 3.5t-110.5 1.5l-55 1h-13q-412 -3 -425 -8q-55 0 -55 95z" />
<glyph unicode="&#xb2;" horiz-adv-x="1173" d="M59 1211q0 86 32.5 161t71.5 101q168 42 472 42q81 0 154.5 -13t139 -40.5t104.5 -78t39 -118.5q0 -63 -23 -124t-56.5 -107t-85.5 -96t-95.5 -84t-100.5 -78.5t-88 -71.5h35q36 0 63 3t68 14t74.5 39.5t54.5 73.5q55 25 97 25q31 0 65 -17t34 -52q0 -53 -40.5 -165 t-68.5 -164q-60 -44 -567 -44q-64 0 -163.5 0.5t-127.5 0.5q-24 9 -50 48t-29 77q1 19 24 54t69 86t78 84.5t87 89.5q255 259 255 398q0 98 -62 98q-46 0 -120 -52t-124.5 -102t-56.5 -61q-44 0 -101.5 24t-57.5 49z" />
<glyph unicode="&#xb3;" horiz-adv-x="1175" d="M53 634q0 38 51.5 75.5t97.5 37.5q5 0 26.5 -16.5t50 -36.5t81.5 -36.5t114 -16.5q188 0 188 133q0 144 -192 144q-26 0 -73 -2t-56 -2q-17 2 -25 22.5t-8 73.5q0 77 40 94q28 -2 42 -2q122 1 179.5 35.5t57.5 92.5q0 51 -31.5 84.5t-76.5 33.5t-83.5 -19.5t-63.5 -47.5 t-46 -56t-38.5 -47.5t-31.5 -19.5q-64 0 -112 26.5t-48 47.5q0 104 60 186t132 89q77 8 331 8q189 0 280.5 -70.5t91.5 -171.5q0 -69 -45 -129t-116 -80q119 -9 204.5 -100t85.5 -192q0 -124 -74.5 -211.5t-194.5 -128t-274 -40.5q-170 0 -365 29q-52 26 -105.5 93 t-53.5 120z" />
<glyph unicode="&#xb4;" horiz-adv-x="671" d="M50 1149q143 210 252 383q34 54 68.5 73.5t103.5 19.5q80 0 113 -14.5t33 -46.5q0 -14 -13.5 -29t-48.5 -46t-56 -51q-35 -34 -148.5 -131.5t-191.5 -157.5h-112z" />
<glyph unicode="&#xb5;" horiz-adv-x="1722" d="M73 863q0 69 17 140.5t47 90.5q151 -27 325 -27q58 0 131 6.5t92 6.5q45 0 59 -16.5t14 -70.5q0 -4 -3 -72.5t-5.5 -159.5t-2.5 -147q0 -84 0.5 -123.5t4.5 -94t12.5 -78t23 -49t38 -34t56.5 -8.5q27 0 48 9t35.5 23.5t24.5 41.5t15.5 54t8.5 70t4 80.5t1 93.5 q0 34 -1 53t-8.5 50t-21 48.5t-41 33t-67.5 19.5q-32 3 -41 15t-9 45q0 69 17 140.5t47 90.5q157 -27 335 -27q52 0 119 6.5t84 6.5q45 0 59 -16.5t14 -70.5q0 -3 -3 -72.5t-6 -163t-3 -155.5v-60t1.5 -54t4 -51.5t6.5 -43t11 -39t17 -29t23.5 -23.5t31.5 -12q2 0 12.5 -1 t17.5 -3.5t16 -9t13.5 -22.5t4.5 -39q0 -21 -5 -66.5t-25.5 -105t-51.5 -69.5q-6 1 -28 6t-30 6.5t-31.5 5t-44.5 5t-56 2.5t-77 1q-66 0 -133 -5t-84 -5q-84 0 -84 135q-96 -106 -317 -125q3 -71 23.5 -111t69.5 -49q1 0 12.5 -1t18 -3t15.5 -8t13.5 -19.5t4.5 -33.5 q0 -16 -5 -51.5t-25.5 -83t-51.5 -55.5q-6 1 -23 5t-23.5 5.5t-23.5 4.5t-31 4.5t-36 3t-49 2t-61 0.5q-57 0 -114.5 -5t-72.5 -5q-44 0 -63.5 33.5t-20.5 101.5l1 864q0 29 -1 44t-4 42t-11 43t-20.5 33.5t-34 27.5t-49.5 13q-32 4 -41 16t-9 45z" />
<glyph unicode="&#xb6;" horiz-adv-x="1581" d="M41 1116q0 76 31 142.5t95.5 122t177.5 88t262 32.5q14 0 65.5 -3t176.5 -6t319 -3q60 0 306 12q7 0 20 -24t25.5 -82.5t12.5 -132.5q0 -24 -14.5 -35.5t-36.5 -12.5t-47 -7t-47 -17t-36.5 -45t-14.5 -88v-405q0 -185 1.5 -290t6 -159.5t9.5 -69t15 -17.5q9 -2 28.5 -4.5 t30 -4.5t25.5 -7t23 -11t14 -17t6 -25q0 -75 -20.5 -155t-57.5 -99q-116 17 -229 17q-44 0 -106 1.5t-68 1.5q-3 0 -4.5 20t-2.5 65t-2 95t-1 132.5t0.5 152.5t0.5 180.5v193.5v545q0 5 -94 5h-16.5t-16.5 -0.5t-14.5 -1.5t-4.5 -3v-545q0 -227 1.5 -477t1.5 -288 q0 -79 -26 -79q-12 0 -74.5 1t-106.5 1q-97 0 -199 -17q-37 19 -57.5 99t-20.5 155q0 14 6 25t14 17t23 11t25.5 7t30 4.5t28.5 4.5q6 1 10 5t8 14.5t5.5 28.5t3.5 48t3 73.5t1.5 105t1 140.5t0.5 183v8q-264 0 -380.5 98.5t-116.5 295.5z" />
<glyph unicode="&#xb7;" horiz-adv-x="612" d="M67 877q0 92 62 155.5t181 63.5q117 0 176 -64.5t59 -154.5t-59 -154.5t-176 -64.5q-119 0 -181 63.5t-62 155.5z" />
<glyph unicode="&#xb8;" horiz-adv-x="542" d="M66 -480l32 172q49 -15 92 -15q47 0 72.5 21.5t25.5 51.5q0 34 -31 60t-85 26q-24 0 -52 -6v181h104v-76q69 -2 121 -24t79 -56.5t39.5 -70t12.5 -71.5q0 -87 -71.5 -146.5t-204.5 -59.5q-66 0 -134 13z" />
<glyph unicode="&#xb9;" horiz-adv-x="719" d="M53 1314q0 46 18.5 111t40.5 80q141 -9 220 -9q53 0 114.5 9.5t73.5 10.5q46 0 46 -54v-624q0 -40 1.5 -67.5t6.5 -61t17 -52.5t31 -21q16 -4 24 -6.5t17 -13.5t9 -29q0 -54 -13.5 -111t-38.5 -71q-106 19 -211 19q-139 0 -272 -19q-24 14 -37.5 71t-13.5 111q0 18 9 29 t17 13.5t24 6.5q33 3 44 54t11 134v384q0 28 -21.5 39t-47.5 10.5t-47.5 12.5t-21.5 44z" />
<glyph unicode="&#xba;" horiz-adv-x="929" d="M48 1161q0 163 110 258.5t296 95.5q88 0 162 -20.5t131.5 -61.5t90 -108.5t32.5 -154.5q0 -168 -113 -263t-295 -95q-114 0 -206.5 39t-150 119.5t-57.5 190.5zM395 1160q0 -119 14.5 -173.5t54.5 -54.5t51.5 59.5t11.5 179.5q0 29 -0.5 47.5t-2 50t-6 52t-11 42 t-18.5 32t-27 10.5q-41 0 -54 -56.5t-13 -188.5z" />
<glyph unicode="&#xbb;" horiz-adv-x="1442" d="M57 203q0 16 13 29q248 224 318 302q-30 35 -107 110.5t-139 133.5l-62 58q-13 13 -13 29q0 45 70.5 124.5t100.5 79.5q10 0 20 -8q10 -9 28 -25t70 -63t99 -91.5t104.5 -101.5t99 -102.5t70 -85.5t28.5 -58q0 -40 -124.5 -171.5t-248.5 -243.5l-125 -112q-11 -8 -21 -8 q-19 0 -63 37.5t-81 87.5t-37 79zM693 203q0 16 13 29q248 224 318 302q-30 35 -107 110.5t-139 133.5l-62 58q-13 13 -13 29q0 45 70.5 124.5t100.5 79.5q10 0 20 -8q3 0 125.5 -112t248 -243.5t125.5 -171.5t-124.5 -171.5t-248.5 -243.5l-125 -112q-11 -8 -21 -8 q-19 0 -63 37.5t-81 87.5t-37 79z" />
<glyph unicode="&#xbc;" horiz-adv-x="2723" d="M47 1314q0 46 18.5 111t40.5 80q141 -9 220 -9q53 0 114 9.5t74 10.5q46 0 46 -54v-624q0 -40 1.5 -67.5t6.5 -61t17 -52.5t31 -21q16 -4 24 -6.5t17 -13.5t9 -29q0 -54 -13.5 -111t-38.5 -71q-106 19 -211 19q-139 0 -272 -19q-24 14 -37.5 71t-13.5 111q0 18 9 29 t17 13.5t24 6.5q33 3 44 54t11 134v384q0 28 -21.5 39t-47.5 10.5t-47.5 12.5t-21.5 44zM763 117q0 18 7 36q54 132 287 669t292 688q30 77 146 77q114 0 163.5 -20t49.5 -61q0 -13 -4.5 -27t-16.5 -41.5t-16 -37.5q-209 -533 -514 -1261q-14 -32 -21 -46.5t-21.5 -36 t-30.5 -30.5t-42 -16t-61 -7q-33 0 -67.5 5.5t-70 17t-58 35.5t-22.5 56zM1504 573q0 17 8 34q35 62 88 128.5t92.5 108t114 115.5t104.5 105q18 15 52 22t61 8t80 1h232q87 0 87 -52q-13 -193 -13 -336v-67q0 -14 13 -14h47q26 0 77 3.5t73 3.5q31 0 44 -17t17 -52 q-1 -54 -14 -91t-48 -62q-47 -15 -81.5 -19t-114.5 -7h-14q0 -30 1.5 -51t7 -46t19 -39.5t33.5 -17.5q16 -2 26 -5t19.5 -13.5t9.5 -28.5q0 -54 -15 -112t-42 -72q-103 20 -230 20q-172 0 -295 -20q-27 14 -42 72t-15 112q0 18 9.5 28.5t19.5 13.5t26 5q36 5 48 44t12 103 q-21 0 -86 -1t-86 -1h-20q-64 0 -98 1t-78.5 7t-65.5 18q-29 28 -46 86.5t-17 84.5zM1797 637q0 -16 111 -16q58 0 84 2q1 36 1 159v12q0 91 2 117q-6 -4 -15.5 -14.5t-26.5 -31.5t-29 -35q-69 -78 -119 -171q-8 -16 -8 -22z" />
<glyph unicode="&#xbd;" horiz-adv-x="2672" d="M47 1314q0 46 18.5 111t40.5 80q141 -9 220 -9q53 0 114 9.5t74 10.5q46 0 46 -54v-624q0 -40 1.5 -67.5t6.5 -61t17 -52.5t31 -21q16 -4 24 -6.5t17 -13.5t9 -29q0 -54 -13.5 -111t-38.5 -71q-106 19 -211 19q-139 0 -272 -19q-24 14 -37.5 71t-13.5 111q0 18 9 29 t17 13.5t24 6.5q33 3 44 54t11 134v384q0 28 -21.5 39t-47.5 10.5t-47.5 12.5t-21.5 44zM717 117q0 18 7 36q54 132 287 669t292 688q30 77 146 77q114 0 163.5 -20t49.5 -61q0 -13 -4.5 -27t-16.5 -41.5t-16 -37.5q-209 -533 -514 -1261q-14 -32 -21 -46.5t-21.5 -36 t-30.5 -30.5t-42 -16t-61 -7q-33 0 -67.5 5.5t-70 17t-58 35.5t-22.5 56zM1581 795q0 86 32.5 161t71.5 101q168 42 472 42q81 0 154.5 -13t139 -40.5t104.5 -78t39 -118.5q0 -63 -23 -124t-56.5 -107t-85.5 -96t-95.5 -84t-100.5 -78.5t-88 -71.5h35q36 0 63 3t68 14 t74.5 39.5t54.5 73.5q55 25 97 25q31 0 65 -17t34 -52q0 -53 -40.5 -165t-68.5 -164q-60 -44 -567 -44q-64 0 -163.5 0.5t-127.5 0.5q-24 9 -50 48t-29 77q1 19 24 54t69 86t78 84.5t87 89.5q255 259 255 398q0 98 -62 98q-46 0 -120 -52t-124.5 -102t-56.5 -61 q-44 0 -101.5 24t-57.5 49z" />
<glyph unicode="&#xbe;" horiz-adv-x="3067" d="M49 634q0 38 51.5 75.5t97.5 37.5q5 0 26.5 -16.5t50 -36.5t81.5 -36.5t114 -16.5q188 0 188 133q0 144 -192 144q-26 0 -73 -2t-56 -2q-17 2 -25 22.5t-8 73.5q0 77 40 94q28 -2 42 -2q122 1 179.5 35.5t57.5 92.5q0 51 -31.5 84.5t-76.5 33.5t-83.5 -19.5t-63.5 -47.5 t-46 -56t-38.5 -47.5t-31.5 -19.5q-64 0 -112 26.5t-48 47.5q0 104 60 186t132 89q77 8 331 8q189 0 280.5 -70.5t91.5 -171.5q0 -69 -45 -129t-116 -80q119 -9 204.5 -100t85.5 -192q0 -124 -74.5 -211.5t-194.5 -128t-274 -40.5q-170 0 -365 29q-52 26 -105.5 93 t-53.5 120zM1121 117q0 18 7 36q54 132 287 669t292 688q30 77 146 77q114 0 163.5 -20t49.5 -61q0 -13 -4.5 -27t-16.5 -41.5t-16 -37.5q-209 -533 -514 -1261q-14 -32 -21 -46.5t-21.5 -36t-30.5 -30.5t-42 -16t-61 -7q-33 0 -67.5 5.5t-70 17t-58 35.5t-22.5 56z M1848 572q0 17 8 34q35 62 88 128.5t92.5 108t114 115.5t104.5 105q18 15 52 22t61 8t80 1h232q87 0 87 -52q-13 -193 -13 -336v-67q0 -14 13 -14h47q26 0 77 3.5t73 3.5q31 0 44 -17t17 -52q-1 -54 -14 -91t-48 -62q-47 -15 -81.5 -19t-114.5 -7h-14q0 -30 1.5 -51t7 -46 t19 -39.5t33.5 -17.5q16 -2 26 -5t19.5 -13.5t9.5 -28.5q0 -54 -15 -112t-42 -72q-103 20 -230 20q-172 0 -295 -20q-27 14 -42 72t-15 112q0 18 9.5 28.5t19.5 13.5t26 5q36 5 48 44t12 103q-21 0 -86 -1t-86 -1h-20q-64 0 -98 1t-78.5 7t-65.5 18q-29 28 -46 86.5 t-17 84.5zM2141 636q0 -16 111 -16q58 0 84 2q1 36 1 159v12q0 91 2 117q-6 -4 -15.5 -14.5t-26.5 -31.5t-29 -35q-69 -78 -119 -171q-8 -16 -8 -22z" />
<glyph unicode="&#xbf;" horiz-adv-x="1313" d="M42 334q0 49 24 92t62.5 74.5t85 59.5t93.5 50.5t85.5 43t62.5 42.5t24 43q0 25 -17.5 81t-17.5 80q0 81 188 81q25 0 61 -1.5t43 -1.5q95 0 170.5 -65.5t75.5 -152.5q0 -40 -19 -63t-64 -42q-36 -15 -61 -26.5t-66 -37.5t-66.5 -53t-45.5 -68.5t-20 -87.5 q0 -88 42.5 -151t107.5 -63q53 0 107.5 30.5t89.5 72.5q24 47 77 86.5t103 39.5q111 0 111 -143q-1 -120 -47.5 -187.5t-112.5 -85.5q-41 0 -74 10t-49 22t-30.5 22t-23.5 10q-20 -6 -63.5 -22.5t-70 -24.5t-78 -16t-111.5 -8q-125 0 -227.5 21t-181.5 63.5t-123 112.5 t-44 163zM509 1323q0 90 59 154.5t176 64.5q119 0 181 -63.5t62 -155.5t-62 -155.5t-181 -63.5q-117 0 -176 64.5t-59 154.5z" />
<glyph unicode="&#xc0;" d="M58 196q0 47 18.5 70t49 30t63 14t66 34t52.5 78l245 641q24 63 24 92q0 23 -9 33.5t-21 13t-24.5 6t-21.5 18.5t-9 44q0 98 21 160t46 73q170 -14 376 -14q189 0 287 14q21 -7 41 -60l312 -839q45 -122 97.5 -216t86.5 -94q18 -3 27.5 -5.5t23 -9.5t19.5 -20t6 -32 q0 -71 -20.5 -146.5t-57.5 -93.5q-112 13 -319 13q-274 0 -409 -13q-37 18 -57.5 93.5t-20.5 146.5q0 19 6.5 32t19 20t23 10t27.5 5q52 1 52 88q0 75 -34 153h-428q-32 -106 -32 -141q0 -37 17 -59t41 -30t48.5 -13t41.5 -14t17 -27q0 -218 -93 -264q-99 13 -269 13 t-269 -13q-60 39 -60 209zM405 2033q0 32 36 46.5t121 14.5q80 0 118.5 -19t72.5 -74q26 -42 109 -195t103 -188h-151q-69 59 -167.5 155t-133.5 134q-19 20 -51.5 51t-44.5 46t-12 29zM681 705h319q-19 59 -103 298q-4 12 -12 34q-9 27 -13.5 39t-10 25.5t-9.5 18.5t-7 5 q-9 0 -40 -83z" />
<glyph unicode="&#xc1;" d="M58 196q0 47 18.5 70t49 30t63 14t66 34t52.5 78l245 641q24 63 24 92q0 23 -9 33.5t-21 13t-24.5 6t-21.5 18.5t-9 44q0 98 21 160t46 73q170 -14 376 -14q189 0 287 14q21 -7 41 -60l312 -839q45 -122 97.5 -216t86.5 -94q18 -3 27.5 -5.5t23 -9.5t19.5 -20t6 -32 q0 -71 -20.5 -146.5t-57.5 -93.5q-112 13 -319 13q-274 0 -409 -13q-37 18 -57.5 93.5t-20.5 146.5q0 19 6.5 32t19 20t23 10t27.5 5q52 1 52 88q0 75 -34 153h-428q-32 -106 -32 -141q0 -37 17 -59t41 -30t48.5 -13t41.5 -14t17 -27q0 -218 -93 -264q-99 13 -269 13 t-269 -13q-60 39 -60 209zM681 705h319q-19 59 -103 298q-4 12 -12 34q-9 27 -13.5 39t-10 25.5t-9.5 18.5t-7 5q-9 0 -40 -83zM831 1618q143 210 252 383q34 54 68.5 73.5t103.5 19.5q80 0 113 -14.5t33 -46.5q0 -14 -13.5 -29t-48.5 -46t-56 -51q-35 -34 -148.5 -131.5 t-191.5 -157.5h-112z" />
<glyph unicode="&#xc2;" d="M58 196q0 47 18.5 70t49 30t63 14t66 34t52.5 78l245 641q24 63 24 92q0 23 -9 33.5t-21 13t-24.5 6t-21.5 18.5t-9 44q0 98 21 160t46 73q170 -14 376 -14q189 0 287 14q21 -7 41 -60l312 -839q45 -122 97.5 -216t86.5 -94q18 -3 27.5 -5.5t23 -9.5t19.5 -20t6 -32 q0 -71 -20.5 -146.5t-57.5 -93.5q-112 13 -319 13q-274 0 -409 -13q-37 18 -57.5 93.5t-20.5 146.5q0 19 6.5 32t19 20t23 10t27.5 5q52 1 52 88q0 75 -34 153h-428q-32 -106 -32 -141q0 -37 17 -59t41 -30t48.5 -13t41.5 -14t17 -27q0 -218 -93 -264q-99 13 -269 13 t-269 -13q-60 39 -60 209zM445 1679q0 9 4 18.5t13 22t18 23t25.5 29.5t27.5 33q27 33 120.5 130.5t160.5 158.5h150q67 -61 160.5 -158.5t120.5 -130.5q11 -14 27.5 -33t25.5 -29.5t18 -23t13 -22t4 -18.5q0 -32 -31.5 -46.5t-105.5 -14.5q-58 0 -86.5 15.5t-69.5 57.5 l-151 191l-151 -191q-41 -42 -69.5 -57.5t-86.5 -15.5q-74 0 -105.5 14.5t-31.5 46.5zM681 705h319q-19 59 -103 298q-4 12 -12 34q-9 27 -13.5 39t-10 25.5t-9.5 18.5t-7 5q-9 0 -40 -83z" />
<glyph unicode="&#xc3;" d="M58 196q0 47 18.5 70t49 30t63 14t66 34t52.5 78l245 641q24 63 24 92q0 23 -9 33.5t-21 13t-24.5 6t-21.5 18.5t-9 44q0 98 21 160t46 73q170 -14 376 -14q189 0 287 14q21 -7 41 -60l312 -839q45 -122 97.5 -216t86.5 -94q18 -3 27.5 -5.5t23 -9.5t19.5 -20t6 -32 q0 -71 -20.5 -146.5t-57.5 -93.5q-112 13 -319 13q-274 0 -409 -13q-37 18 -57.5 93.5t-20.5 146.5q0 19 6.5 32t19 20t23 10t27.5 5q52 1 52 88q0 75 -34 153h-428q-32 -106 -32 -141q0 -37 17 -59t41 -30t48.5 -13t41.5 -14t17 -27q0 -218 -93 -264q-99 13 -269 13 t-269 -13q-60 39 -60 209zM450 1761q0 46 11.5 84.5t36.5 71t69.5 51t105.5 18.5q55 0 134 -27.5t144 -55.5t86 -28t35 11.5t14 32.5v69q0 1 16 2.5t44.5 3.5t53.5 2q60 0 97 -6q31 -80 31 -143q0 -100 -50.5 -161t-157.5 -61q-62 0 -145 30.5t-150 61t-90 30.5 q-46 0 -46 -50l1 -64q-4 -15 -99 -15q-123 0 -126 15q-15 68 -15 128zM681 705h319q-19 59 -103 298q-4 12 -12 34q-9 27 -13.5 39t-10 25.5t-9.5 18.5t-7 5q-9 0 -40 -83z" />
<glyph unicode="&#xc4;" d="M58 196q0 47 18.5 70t49 30t63 14t66 34t52.5 78l245 641q24 63 24 92q0 23 -9 33.5t-21 13t-24.5 6t-21.5 18.5t-9 44q0 98 21 160t46 73q170 -14 376 -14q189 0 287 14q21 -7 41 -60l312 -839q45 -122 97.5 -216t86.5 -94q18 -3 27.5 -5.5t23 -9.5t19.5 -20t6 -32 q0 -71 -20.5 -146.5t-57.5 -93.5q-112 13 -319 13q-274 0 -409 -13q-37 18 -57.5 93.5t-20.5 146.5q0 19 6.5 32t19 20t23 10t27.5 5q52 1 52 88q0 75 -34 153h-428q-32 -106 -32 -141q0 -37 17 -59t41 -30t48.5 -13t41.5 -14t17 -27q0 -218 -93 -264q-99 13 -269 13 t-269 -13q-60 39 -60 209zM437 1802q0 77 52 130t153 53q99 0 148.5 -53.5t49.5 -129.5t-49.5 -130t-148.5 -54q-101 0 -153 53.5t-52 130.5zM681 705h319q-19 59 -103 298q-4 12 -12 34q-9 27 -13.5 39t-10 25.5t-9.5 18.5t-7 5q-9 0 -40 -83zM950 1802q0 77 52 130t153 53 q99 0 148.5 -53.5t49.5 -129.5t-49.5 -130t-148.5 -54q-101 0 -153 53.5t-52 130.5z" />
<glyph unicode="&#xc5;" d="M58 196q0 47 18.5 70t49 30t63 14t66 34t52.5 78l245 641q24 63 24 92q0 23 -9 33.5t-21 13t-24.5 6t-21.5 18.5t-9 44q0 98 21 160t46 73q170 -14 376 -14q189 0 287 14q21 -7 41 -60l312 -839q45 -122 97.5 -216t86.5 -94q18 -3 27.5 -5.5t23 -9.5t19.5 -20t6 -32 q0 -71 -20.5 -146.5t-57.5 -93.5q-112 13 -319 13q-274 0 -409 -13q-37 18 -57.5 93.5t-20.5 146.5q0 19 6.5 32t19 20t23 10t27.5 5q52 1 52 88q0 75 -34 153h-428q-32 -106 -32 -141q0 -37 17 -59t41 -30t48.5 -13t41.5 -14t17 -27q0 -218 -93 -264q-99 13 -269 13 t-269 -13q-60 39 -60 209zM664 1754q0 103 71 163.5t183 60.5q110 0 178 -62.5t68 -158.5q0 -99 -71.5 -164t-176.5 -65q-104 0 -178 61t-74 165zM681 705h319q-19 59 -103 298q-4 12 -12 34q-9 27 -13.5 39t-10 25.5t-9.5 18.5t-7 5q-9 0 -40 -83zM767 1753 q0 -74 43 -115.5t102 -41.5t102.5 42t43.5 116q0 73 -43 113.5t-102 40.5t-102.5 -41t-43.5 -114z" />
<glyph unicode="&#xc6;" horiz-adv-x="2401" d="M40 -13v209q0 47 23.5 70t61.5 30t79 14t83 34t66 78l427 641q51 65 51 92q0 28 -8.5 39t-18 10.5t-18 15t-8.5 50.5q0 98 42.5 160t91.5 73q171 -16 373 -16q124 2 188 2q329 0 589 14q50 -64 102.5 -179t52.5 -187q0 -28 -18 -50t-45.5 -33t-53.5 -16t-49 -5 q-7 0 -30 25t-57.5 60.5t-76.5 71.5t-97 61t-108 25q-17 0 -27.5 -3t-23.5 -13.5t-19.5 -36.5t-6.5 -68q0 -55 9 -118l30 -218q116 149 251 149q93 0 148 -56.5t55 -129.5q0 -80 -48 -134.5t-112 -54.5q-40 42 -92.5 69.5t-102.5 27.5q-47 0 -76 -49l36 -263q0 -184 67 -184 h88q48 11 87.5 43.5t73 89t58.5 113.5t55 142q11 4 29 4q53 0 120 -24t86 -55q10 -10 10 -34q0 -113 -33 -346q-20 -96 -44 -138q-273 9 -506 9q-143 0 -366.5 -5.5t-361.5 -5.5q-45 19 -69 101.5t-24 158.5q0 19 6 32t19.5 19.5t24.5 9t31 4.5q16 3 26.5 16t16.5 38.5 t8.5 47t6 61t5.5 60.5h-423q-4 -7 -17 -25.5t-18 -25.5t-14 -22.5t-12.5 -24.5t-7 -21t-3.5 -22q0 -37 13 -59t31 -30t36 -13t31 -14t13 -27q0 -98 -40 -169t-128 -95q-96 13 -265 13q-172 0 -273 -13zM807 705h319q-2 34 -18 298q-14 122 -17 122q-10 0 -23 -18t-41 -65z " />
<glyph unicode="&#xc7;" horiz-adv-x="1536" d="M37 759q0 115 28.5 224.5t87 206t140.5 169.5t197 115t248 42q110 0 190.5 -20t177.5 -75q-2 24 -2 31q0 31 22.5 41t96.5 10q66 0 98.5 -6t60.5 -33t41.5 -75t27.5 -139q14 -95 14 -134q0 -29 -3.5 -46.5t-9 -28t-21.5 -16t-29 -7.5t-45 -5q-97 -9 -105 -9q-48 0 -75 53 q-54 86 -124.5 130.5t-142.5 44.5q-107 0 -179.5 -90.5t-72.5 -256.5q0 -113 34 -207.5t92 -158t135.5 -98.5t164.5 -35q188 0 360 97q37 -67 37 -140q0 -72 -40 -138t-114.5 -118t-191.5 -83t-260 -31q-166 0 -306 44.5t-236.5 120t-164.5 176.5t-99.5 213.5t-31.5 231.5z M766 -501l32 172q49 -15 92 -15q47 0 72.5 21.5t25.5 51.5q0 34 -31 60t-85 26q-24 0 -52 -6v181h104v-76q69 -2 121 -24t79 -56.5t39.5 -70t12.5 -71.5q0 -87 -71.5 -146.5t-204.5 -59.5q-66 0 -134 13z" />
<glyph unicode="&#xc8;" horiz-adv-x="1513" d="M65 247q0 19 7 32t21.5 19.5t26.5 9t34 4.5q30 3 49.5 23t28.5 54.5t12 67.5t3 78v439q0 39 -1.5 65t-6.5 55t-14.5 46.5t-26.5 30t-41 15.5q-21 2 -33.5 5t-27 9.5t-21.5 19.5t-7 32q0 73 15 153t43 98q270 -14 606 -14q328 0 590 14q34 -64 70 -179t36 -187 q0 -29 -19.5 -50.5t-49.5 -32.5t-58 -16t-53 -5q-6 0 -27 25t-52.5 60.5t-70 71.5t-88.5 61t-98 25q-25 0 -37 -2.5t-26.5 -14t-21 -36.5t-11 -70.5t-4.5 -115.5v-218q126 149 272 149q82 0 130 -56.5t48 -129.5q0 -80 -56 -134.5t-130 -54.5q-37 42 -86.5 69.5t-95.5 27.5 q-50 0 -82 -49v-263q0 -184 43 -184h88q57 11 104 43.5t87 89t69.5 113.5t65.5 142q11 4 29 4q50 0 114 -24t82 -55q5 -10 5 -34q0 -49 -25 -154.5t-54 -191.5q-13 -41 -40.5 -90.5t-47.5 -49.5q-79 7 -180.5 10.5t-170.5 4t-198 -0.5t-178 -1q-287 0 -482 -13 q-28 19 -43 101.5t-15 158.5zM239 2033q0 32 36 46.5t121 14.5q80 0 118.5 -19t72.5 -74q26 -42 109 -195t103 -188h-151q-69 59 -167.5 155t-133.5 134q-19 20 -51.5 51t-44.5 46t-12 29z" />
<glyph unicode="&#xc9;" horiz-adv-x="1513" d="M65 247q0 19 7 32t21.5 19.5t26.5 9t34 4.5q30 3 49.5 23t28.5 54.5t12 67.5t3 78v439q0 39 -1.5 65t-6.5 55t-14.5 46.5t-26.5 30t-41 15.5q-21 2 -33.5 5t-27 9.5t-21.5 19.5t-7 32q0 73 15 153t43 98q270 -14 606 -14q328 0 590 14q34 -64 70 -179t36 -187 q0 -29 -19.5 -50.5t-49.5 -32.5t-58 -16t-53 -5q-6 0 -27 25t-52.5 60.5t-70 71.5t-88.5 61t-98 25q-25 0 -37 -2.5t-26.5 -14t-21 -36.5t-11 -70.5t-4.5 -115.5v-218q126 149 272 149q82 0 130 -56.5t48 -129.5q0 -80 -56 -134.5t-130 -54.5q-37 42 -86.5 69.5t-95.5 27.5 q-50 0 -82 -49v-263q0 -184 43 -184h88q57 11 104 43.5t87 89t69.5 113.5t65.5 142q11 4 29 4q50 0 114 -24t82 -55q5 -10 5 -34q0 -49 -25 -154.5t-54 -191.5q-13 -41 -40.5 -90.5t-47.5 -49.5q-79 7 -180.5 10.5t-170.5 4t-198 -0.5t-178 -1q-287 0 -482 -13 q-28 19 -43 101.5t-15 158.5zM666 1618q143 210 252 383q34 54 68.5 73.5t103.5 19.5q80 0 113 -14.5t33 -46.5q0 -14 -13.5 -29t-48.5 -46t-56 -51q-35 -34 -148.5 -131.5t-191.5 -157.5h-112z" />
<glyph unicode="&#xca;" horiz-adv-x="1513" d="M65 247q0 19 7 32t21.5 19.5t26.5 9t34 4.5q30 3 49.5 23t28.5 54.5t12 67.5t3 78v439q0 39 -1.5 65t-6.5 55t-14.5 46.5t-26.5 30t-41 15.5q-21 2 -33.5 5t-27 9.5t-21.5 19.5t-7 32q0 73 15 153t43 98q270 -14 606 -14q328 0 590 14q34 -64 70 -179t36 -187 q0 -29 -19.5 -50.5t-49.5 -32.5t-58 -16t-53 -5q-6 0 -27 25t-52.5 60.5t-70 71.5t-88.5 61t-98 25q-25 0 -37 -2.5t-26.5 -14t-21 -36.5t-11 -70.5t-4.5 -115.5v-218q126 149 272 149q82 0 130 -56.5t48 -129.5q0 -80 -56 -134.5t-130 -54.5q-37 42 -86.5 69.5t-95.5 27.5 q-50 0 -82 -49v-263q0 -184 43 -184h88q57 11 104 43.5t87 89t69.5 113.5t65.5 142q11 4 29 4q50 0 114 -24t82 -55q5 -10 5 -34q0 -49 -25 -154.5t-54 -191.5q-13 -41 -40.5 -90.5t-47.5 -49.5q-79 7 -180.5 10.5t-170.5 4t-198 -0.5t-178 -1q-287 0 -482 -13 q-28 19 -43 101.5t-15 158.5zM280 1679q0 9 4 18.5t13 22t18 23t25.5 29.5t27.5 33q27 33 120.5 130.5t160.5 158.5h150q67 -61 160.5 -158.5t120.5 -130.5q11 -14 27.5 -33t25.5 -29.5t18 -23t13 -22t4 -18.5q0 -32 -31.5 -46.5t-105.5 -14.5q-58 0 -86.5 15.5t-69.5 57.5 l-151 191l-151 -191q-41 -42 -69.5 -57.5t-86.5 -15.5q-74 0 -105.5 14.5t-31.5 46.5z" />
<glyph unicode="&#xcb;" horiz-adv-x="1513" d="M65 247q0 19 7 32t21.5 19.5t26.5 9t34 4.5q30 3 49.5 23t28.5 54.5t12 67.5t3 78v439q0 39 -1.5 65t-6.5 55t-14.5 46.5t-26.5 30t-41 15.5q-21 2 -33.5 5t-27 9.5t-21.5 19.5t-7 32q0 73 15 153t43 98q270 -14 606 -14q328 0 590 14q34 -64 70 -179t36 -187 q0 -29 -19.5 -50.5t-49.5 -32.5t-58 -16t-53 -5q-6 0 -27 25t-52.5 60.5t-70 71.5t-88.5 61t-98 25q-25 0 -37 -2.5t-26.5 -14t-21 -36.5t-11 -70.5t-4.5 -115.5v-218q126 149 272 149q82 0 130 -56.5t48 -129.5q0 -80 -56 -134.5t-130 -54.5q-37 42 -86.5 69.5t-95.5 27.5 q-50 0 -82 -49v-263q0 -184 43 -184h88q57 11 104 43.5t87 89t69.5 113.5t65.5 142q11 4 29 4q50 0 114 -24t82 -55q5 -10 5 -34q0 -49 -25 -154.5t-54 -191.5q-13 -41 -40.5 -90.5t-47.5 -49.5q-79 7 -180.5 10.5t-170.5 4t-198 -0.5t-178 -1q-287 0 -482 -13 q-28 19 -43 101.5t-15 158.5zM271 1802q0 77 52 130t153 53q99 0 148.5 -53.5t49.5 -129.5t-49.5 -130t-148.5 -54q-101 0 -153 53.5t-52 130.5zM784 1802q0 77 52 130t153 53q99 0 148.5 -53.5t49.5 -129.5t-49.5 -130t-148.5 -54q-101 0 -153 53.5t-52 130.5z" />
<glyph unicode="&#xcc;" horiz-adv-x="1045" d="M38 2033q0 32 36 46.5t121 14.5q80 0 118.5 -19t72.5 -74q26 -42 109 -195t103 -188h-151q-69 59 -167.5 155t-133.5 134q-19 20 -51.5 51t-44.5 46t-12 29zM58 247q0 19 7 32t21.5 19.5t26.5 9t34 4.5q30 3 49.5 23t28.5 54.5t12 67.5t3 78v439q0 39 -1.5 65t-6.5 55 t-14.5 46.5t-26.5 30t-41 15.5q-21 2 -33.5 5t-27 9.5t-21.5 19.5t-7 32q0 73 15 153t43 98q82 -14 413 -14q282 0 394 14q28 -18 43 -98t15 -153q0 -19 -7 -32t-21.5 -19.5t-27 -9.5t-33.5 -5q-24 -3 -41 -15.5t-26.5 -30t-14.5 -46.5t-6.5 -55t-1.5 -65v-439q0 -45 3 -78 t12 -67.5t28.5 -54.5t49.5 -23q22 -2 34 -4.5t26.5 -9t21.5 -19.5t7 -32q0 -76 -15 -158t-43 -101q-71 12 -401 12q-340 0 -412 -12q-28 19 -43 101t-15 158z" />
<glyph unicode="&#xcd;" horiz-adv-x="1045" d="M58 247q0 19 7 32t21.5 19.5t26.5 9t34 4.5q30 3 49.5 23t28.5 54.5t12 67.5t3 78v439q0 39 -1.5 65t-6.5 55t-14.5 46.5t-26.5 30t-41 15.5q-21 2 -33.5 5t-27 9.5t-21.5 19.5t-7 32q0 73 15 153t43 98q82 -14 413 -14q282 0 394 14q28 -18 43 -98t15 -153q0 -19 -7 -32 t-21.5 -19.5t-27 -9.5t-33.5 -5q-24 -3 -41 -15.5t-26.5 -30t-14.5 -46.5t-6.5 -55t-1.5 -65v-439q0 -45 3 -78t12 -67.5t28.5 -54.5t49.5 -23q22 -2 34 -4.5t26.5 -9t21.5 -19.5t7 -32q0 -76 -15 -158t-43 -101q-71 12 -401 12q-340 0 -412 -12q-28 19 -43 101t-15 158z M464 1618q143 210 252 383q34 54 68.5 73.5t103.5 19.5q80 0 113 -14.5t33 -46.5q0 -14 -13.5 -29t-48.5 -46t-56 -51q-35 -34 -148.5 -131.5t-191.5 -157.5h-112z" />
<glyph unicode="&#xce;" horiz-adv-x="1045" d="M58 247q0 19 7 32t21.5 19.5t26.5 9t34 4.5q30 3 49.5 23t28.5 54.5t12 67.5t3 78v439q0 39 -1.5 65t-6.5 55t-14.5 46.5t-26.5 30t-41 15.5q-21 2 -33.5 5t-27 9.5t-21.5 19.5t-7 32q0 73 15 153t43 98q82 -14 413 -14q282 0 394 14q28 -18 43 -98t15 -153q0 -19 -7 -32 t-21.5 -19.5t-27 -9.5t-33.5 -5q-24 -3 -41 -15.5t-26.5 -30t-14.5 -46.5t-6.5 -55t-1.5 -65v-439q0 -45 3 -78t12 -67.5t28.5 -54.5t49.5 -23q22 -2 34 -4.5t26.5 -9t21.5 -19.5t7 -32q0 -76 -15 -158t-43 -101q-71 12 -401 12q-340 0 -412 -12q-28 19 -43 101t-15 158z M78 1679q0 9 4 18.5t13 22t18 23t25.5 29.5t27.5 33q27 33 120.5 130.5t160.5 158.5h150q67 -61 160.5 -158.5t120.5 -130.5q11 -14 27.5 -33t25.5 -29.5t18 -23t13 -22t4 -18.5q0 -32 -31.5 -46.5t-105.5 -14.5q-58 0 -86.5 15.5t-69.5 57.5l-151 191l-151 -191 q-41 -42 -69.5 -57.5t-86.5 -15.5q-74 0 -105.5 14.5t-31.5 46.5z" />
<glyph unicode="&#xcf;" horiz-adv-x="1045" d="M58 247q0 19 7 32t21.5 19.5t26.5 9t34 4.5q30 3 49.5 23t28.5 54.5t12 67.5t3 78v439q0 39 -1.5 65t-6.5 55t-14.5 46.5t-26.5 30t-41 15.5q-21 2 -33.5 5t-27 9.5t-21.5 19.5t-7 32q0 73 15 153t43 98q82 -14 413 -14q282 0 394 14q28 -18 43 -98t15 -153q0 -19 -7 -32 t-21.5 -19.5t-27 -9.5t-33.5 -5q-24 -3 -41 -15.5t-26.5 -30t-14.5 -46.5t-6.5 -55t-1.5 -65v-439q0 -45 3 -78t12 -67.5t28.5 -54.5t49.5 -23q22 -2 34 -4.5t26.5 -9t21.5 -19.5t7 -32q0 -76 -15 -158t-43 -101q-71 12 -401 12q-340 0 -412 -12q-28 19 -43 101t-15 158z M70 1802q0 77 52 130t153 53q99 0 148.5 -53.5t49.5 -129.5t-49.5 -130t-148.5 -54q-101 0 -153 53.5t-52 130.5zM583 1802q0 77 52 130t153 53q99 0 148.5 -53.5t49.5 -129.5t-49.5 -130t-148.5 -54q-101 0 -153 53.5t-52 130.5z" />
<glyph unicode="&#xd0;" horiz-adv-x="1766" d="M65 245q0 19 7 32t21.5 19.5t26.5 9t34 4.5q30 3 49.5 23t28.5 54.5t12 67.5t3 78v439q0 39 -1.5 65t-6.5 55t-14.5 46.5t-26.5 30t-41 15.5q-21 2 -33.5 5t-27 9.5t-21.5 19.5t-7 32q0 73 15 154t43 99q378 -14 438 -14q58 0 178 7t183 7q149 0 276 -43t215.5 -116.5 t151.5 -171.5t92.5 -208t29.5 -226q0 -114 -29 -222.5t-89 -204.5t-145 -168t-205.5 -114t-261.5 -42q-55 0 -160.5 6.5t-162.5 6.5q-107 0 -514 -13q-28 18 -43 100t-15 158zM67 774q0 71 36 85q39 -3 143 -3q148 2 537 2q104 0 143 3q36 -14 36 -85q0 -95 -55 -95 q-5 2 -62 3.5t-111 1.5l-54 1h-103q-442 -3 -455 -8q-55 0 -55 95zM812 623q0 -128 4 -227.5t8 -135.5l3 -36q21 -2 67 -2q70 0 122.5 75t77.5 189t25 246q0 135 -26.5 250t-86 192.5t-142.5 77.5q-32 0 -47 -3q-5 -24 -5 -459v-167z" />
<glyph unicode="&#xd1;" horiz-adv-x="1881" d="M46 187q0 21 17 33t35 15t50 6q38 3 62.5 25t35 62.5t14 77.5t3.5 92v553q0 50 -21.5 79.5t-52.5 39t-61.5 15.5t-52 18.5t-21.5 39.5q0 32 3.5 72.5t23 102t51.5 85.5q133 -14 371 -14q74 0 128 3.5t80 7t31 3.5q13 0 24.5 -6.5t25.5 -22t27 -32.5t37 -49t48 -60 q417 -496 418 -495q9 -7 24 -7v190q0 40 -1.5 67.5t-8 57.5t-17.5 48t-31 31t-48 15q-23 2 -37 4t-31 7.5t-25.5 16t-8.5 26.5q0 62 16.5 127.5t47.5 81.5q147 -14 326 -14q130 0 253 14q31 -16 47.5 -81.5t16.5 -127.5q0 -16 -8.5 -26.5t-25.5 -16t-31.5 -7.5t-37.5 -4 q-36 -3 -59.5 -23.5t-34 -56t-14 -67t-3.5 -72.5v-91q0 -762 19 -886q-119 -71 -209 -71q-67 0 -136 39.5t-153 125.5q-89 97 -526 632q-53 64 -67 64q-12 0 -12 -31v-330q0 -223 113 -232q23 -2 37.5 -4t31.5 -7.5t25.5 -16t8.5 -26.5q0 -59 -17 -122t-48 -78 q-110 13 -252 13q-200 0 -336 -13q-31 15 -47.5 77.5t-16.5 122.5zM518 1761q0 46 11.5 84.5t36.5 71t69.5 51t105.5 18.5q55 0 134 -27.5t144 -55.5t86 -28t35 11.5t14 32.5v69q0 1 16 2.5t44.5 3.5t53.5 2q60 0 97 -6q31 -80 31 -143q0 -100 -50.5 -161t-157.5 -61 q-62 0 -145 30.5t-150 61t-90 30.5q-46 0 -46 -50l1 -64q-4 -15 -99 -15q-123 0 -126 15q-15 68 -15 128z" />
<glyph unicode="&#xd2;" horiz-adv-x="1826" d="M38 748q0 360 236.5 564t650.5 204q170 0 312 -37t244 -104t172.5 -159.5t104.5 -204t34 -238.5q0 -165 -45 -299t-124 -226.5t-189.5 -155t-239.5 -91t-276 -28.5q-405 0 -642.5 204.5t-237.5 570.5zM441 2033q0 32 36 46.5t121 14.5q80 0 118.5 -19t72.5 -74 q26 -42 109 -195t103 -188h-151q-69 59 -167.5 155t-133.5 134q-19 20 -51.5 51t-44.5 46t-12 29zM771 733q0 -513 160 -513q27 0 49.5 13.5t38 42t27 58.5t18 77t11 82.5t6 90.5t2 86t0.5 83q0 63 -2 113.5t-7.5 116t-17.5 114t-30 92.5t-47.5 67t-67.5 23 q-140 0 -140 -546z" />
<glyph unicode="&#xd3;" horiz-adv-x="1826" d="M38 748q0 360 236.5 564t650.5 204q170 0 312 -37t244 -104t172.5 -159.5t104.5 -204t34 -238.5q0 -165 -45 -299t-124 -226.5t-189.5 -155t-239.5 -91t-276 -28.5q-405 0 -642.5 204.5t-237.5 570.5zM771 733q0 -513 160 -513q27 0 49.5 13.5t38 42t27 58.5t18 77 t11 82.5t6 90.5t2 86t0.5 83q0 63 -2 113.5t-7.5 116t-17.5 114t-30 92.5t-47.5 67t-67.5 23q-140 0 -140 -546zM866 1618q143 210 252 383q34 54 68.5 73.5t103.5 19.5q80 0 113 -14.5t33 -46.5q0 -14 -13.5 -29t-48.5 -46t-56 -51q-35 -34 -148.5 -131.5t-191.5 -157.5 h-112z" />
<glyph unicode="&#xd4;" horiz-adv-x="1826" d="M38 748q0 360 236.5 564t650.5 204q170 0 312 -37t244 -104t172.5 -159.5t104.5 -204t34 -238.5q0 -165 -45 -299t-124 -226.5t-189.5 -155t-239.5 -91t-276 -28.5q-405 0 -642.5 204.5t-237.5 570.5zM481 1679q0 9 4 18.5t13 22t18 23t25.5 29.5t27.5 33 q27 33 120.5 130.5t160.5 158.5h150q67 -61 160.5 -158.5t120.5 -130.5q11 -14 27.5 -33t25.5 -29.5t18 -23t13 -22t4 -18.5q0 -32 -31.5 -46.5t-105.5 -14.5q-58 0 -86.5 15.5t-69.5 57.5l-151 191l-151 -191q-41 -42 -69.5 -57.5t-86.5 -15.5q-74 0 -105.5 14.5 t-31.5 46.5zM771 733q0 -513 160 -513q27 0 49.5 13.5t38 42t27 58.5t18 77t11 82.5t6 90.5t2 86t0.5 83q0 63 -2 113.5t-7.5 116t-17.5 114t-30 92.5t-47.5 67t-67.5 23q-140 0 -140 -546z" />
<glyph unicode="&#xd5;" horiz-adv-x="1826" d="M38 748q0 360 236.5 564t650.5 204q170 0 312 -37t244 -104t172.5 -159.5t104.5 -204t34 -238.5q0 -165 -45 -299t-124 -226.5t-189.5 -155t-239.5 -91t-276 -28.5q-405 0 -642.5 204.5t-237.5 570.5zM486 1761q0 46 11.5 84.5t36.5 71t69.5 51t105.5 18.5 q55 0 134 -27.5t144 -55.5t86 -28t35 11.5t14 32.5v69q0 1 16 2.5t44.5 3.5t53.5 2q60 0 97 -6q31 -80 31 -143q0 -100 -50.5 -161t-157.5 -61q-62 0 -145 30.5t-150 61t-90 30.5q-46 0 -46 -50l1 -64q-4 -15 -99 -15q-123 0 -126 15q-15 68 -15 128zM771 733 q0 -513 160 -513q27 0 49.5 13.5t38 42t27 58.5t18 77t11 82.5t6 90.5t2 86t0.5 83q0 63 -2 113.5t-7.5 116t-17.5 114t-30 92.5t-47.5 67t-67.5 23q-140 0 -140 -546z" />
<glyph unicode="&#xd6;" horiz-adv-x="1826" d="M38 748q0 360 236.5 564t650.5 204q170 0 312 -37t244 -104t172.5 -159.5t104.5 -204t34 -238.5q0 -165 -45 -299t-124 -226.5t-189.5 -155t-239.5 -91t-276 -28.5q-405 0 -642.5 204.5t-237.5 570.5zM472 1802q0 77 52 130t153 53q99 0 148.5 -53.5t49.5 -129.5 t-49.5 -130t-148.5 -54q-101 0 -153 53.5t-52 130.5zM771 733q0 -513 160 -513q27 0 49.5 13.5t38 42t27 58.5t18 77t11 82.5t6 90.5t2 86t0.5 83q0 63 -2 113.5t-7.5 116t-17.5 114t-30 92.5t-47.5 67t-67.5 23q-140 0 -140 -546zM985 1802q0 77 52 130t153 53 q99 0 148.5 -53.5t49.5 -129.5t-49.5 -130t-148.5 -54q-101 0 -153 53.5t-52 130.5z" />
<glyph unicode="&#xd7;" horiz-adv-x="1068" d="M59 288q0 30 145 169q140 135 140 137q-243 243 -256 248q-25 23 -25 51q0 15 27.5 56.5t68 79.5t70.5 38q10 0 24 -8.5t33 -26.5t34 -33t39 -40.5t36 -37.5l136 -138l193 195q2 2 19.5 21t30 31t31 24.5t30.5 13.5q44 0 105 -71.5t61 -101.5q0 -27 -24 -51 q-22 -10 -258 -246l222 -220q67 -55 67 -87q0 -44 -71.5 -104.5t-101.5 -60.5q-26 0 -50 21q-5 12 -113.5 126.5t-136.5 136.5l-7 -8q-237 -238 -245 -256q-26 -23 -49 -23q-28 0 -101.5 60.5t-73.5 104.5z" />
<glyph unicode="&#xd8;" horiz-adv-x="1853" d="M38 748q0 360 236.5 564t650.5 204q214 0 380 -57q71 113 97 159q9 26 45 26h7q6 1 13 1t18 -0.5t20.5 -2t19.5 -4t17 -7t11.5 -11t4.5 -15.5q0 -26 -15 -52q-37 -61 -96 -157q170 -96 257.5 -258t87.5 -365q0 -165 -45 -299t-124 -226.5t-189.5 -155t-239.5 -91 t-276 -28.5q-173 0 -322 40q-15 -24 -43.5 -69t-38.5 -60q-27 -47 -91 -47q-53 0 -75.5 17t-22.5 52q0 9 8.5 21t24.5 31t26 36q10 16 49 79q-189 93 -292 265t-103 410zM771 733q0 -72 2 -120q135 215 289 458q-39 208 -151 208q-140 0 -140 -546zM809 353 q40 -133 122 -133q27 0 49.5 13.5t38 42t27 58.5t18 77t11 82.5t6 90.5t2 86t0.5 83v47q-228 -373 -274 -447z" />
<glyph unicode="&#xd9;" horiz-adv-x="1841" d="M52 1248q0 75 20.5 155.5t57.5 99.5q143 -14 402 -14q206 0 329 14q37 -19 57.5 -99.5t20.5 -155.5q0 -19 -6 -32t-19.5 -20t-23 -9.5t-27.5 -5.5q-90 -10 -90 -267v-291q0 -73 3.5 -125t16 -105.5t33.5 -86t58 -53t89 -20.5q33 0 61 8t48 19.5t35.5 33t25.5 40.5 t17.5 50t11 53t5 58.5t2 57.5t0.5 59v377q0 44 -2.5 73t-10 58.5t-24 45.5t-42.5 18q-17 3 -27 6t-19.5 14t-9.5 30q0 78 20 163.5t57 105.5q112 -14 314 -14q185 0 286 14q32 -20 50 -105.5t18 -163.5q0 -19 -10 -30t-20 -14t-27 -6q-84 -8 -84 -195v-291 q0 -175 -34.5 -304t-93.5 -209t-151.5 -128t-195 -66t-238.5 -18q-72 0 -126 2.5t-119 10.5t-113.5 22t-101.5 38.5t-90.5 59t-72.5 84.5t-56.5 113t-34.5 147t-13 185v279q0 61 -2.5 100.5t-10 80.5t-24 62t-43.5 24q-18 3 -27.5 5.5t-23 9.5t-19.5 20t-6 32zM441 2033 q0 32 36 46.5t121 14.5q80 0 118.5 -19t72.5 -74q26 -42 109 -195t103 -188h-151q-69 59 -167.5 155t-133.5 134q-19 20 -51.5 51t-44.5 46t-12 29z" />
<glyph unicode="&#xda;" horiz-adv-x="1841" d="M52 1248q0 75 20.5 155.5t57.5 99.5q143 -14 402 -14q206 0 329 14q37 -19 57.5 -99.5t20.5 -155.5q0 -19 -6 -32t-19.5 -20t-23 -9.5t-27.5 -5.5q-90 -10 -90 -267v-291q0 -73 3.5 -125t16 -105.5t33.5 -86t58 -53t89 -20.5q33 0 61 8t48 19.5t35.5 33t25.5 40.5 t17.5 50t11 53t5 58.5t2 57.5t0.5 59v377q0 44 -2.5 73t-10 58.5t-24 45.5t-42.5 18q-17 3 -27 6t-19.5 14t-9.5 30q0 78 20 163.5t57 105.5q112 -14 314 -14q185 0 286 14q32 -20 50 -105.5t18 -163.5q0 -19 -10 -30t-20 -14t-27 -6q-84 -8 -84 -195v-291 q0 -175 -34.5 -304t-93.5 -209t-151.5 -128t-195 -66t-238.5 -18q-72 0 -126 2.5t-119 10.5t-113.5 22t-101.5 38.5t-90.5 59t-72.5 84.5t-56.5 113t-34.5 147t-13 185v279q0 61 -2.5 100.5t-10 80.5t-24 62t-43.5 24q-18 3 -27.5 5.5t-23 9.5t-19.5 20t-6 32zM867 1618 q143 210 252 383q34 54 68.5 73.5t103.5 19.5q80 0 113 -14.5t33 -46.5q0 -14 -13.5 -29t-48.5 -46t-56 -51q-35 -34 -148.5 -131.5t-191.5 -157.5h-112z" />
<glyph unicode="&#xdb;" horiz-adv-x="1841" d="M52 1248q0 75 20.5 155.5t57.5 99.5q143 -14 402 -14q206 0 329 14q37 -19 57.5 -99.5t20.5 -155.5q0 -19 -6 -32t-19.5 -20t-23 -9.5t-27.5 -5.5q-90 -10 -90 -267v-291q0 -73 3.5 -125t16 -105.5t33.5 -86t58 -53t89 -20.5q33 0 61 8t48 19.5t35.5 33t25.5 40.5 t17.5 50t11 53t5 58.5t2 57.5t0.5 59v377q0 44 -2.5 73t-10 58.5t-24 45.5t-42.5 18q-17 3 -27 6t-19.5 14t-9.5 30q0 78 20 163.5t57 105.5q112 -14 314 -14q185 0 286 14q32 -20 50 -105.5t18 -163.5q0 -19 -10 -30t-20 -14t-27 -6q-84 -8 -84 -195v-291 q0 -175 -34.5 -304t-93.5 -209t-151.5 -128t-195 -66t-238.5 -18q-72 0 -126 2.5t-119 10.5t-113.5 22t-101.5 38.5t-90.5 59t-72.5 84.5t-56.5 113t-34.5 147t-13 185v279q0 61 -2.5 100.5t-10 80.5t-24 62t-43.5 24q-18 3 -27.5 5.5t-23 9.5t-19.5 20t-6 32zM482 1679 q0 9 4 18.5t13 22t18 23t25.5 29.5t27.5 33q27 33 120.5 130.5t160.5 158.5h150q67 -61 160.5 -158.5t120.5 -130.5q11 -14 27.5 -33t25.5 -29.5t18 -23t13 -22t4 -18.5q0 -32 -31.5 -46.5t-105.5 -14.5q-58 0 -86.5 15.5t-69.5 57.5l-151 191l-151 -191 q-41 -42 -69.5 -57.5t-86.5 -15.5q-74 0 -105.5 14.5t-31.5 46.5z" />
<glyph unicode="&#xdc;" horiz-adv-x="1841" d="M52 1248q0 75 20.5 155.5t57.5 99.5q143 -14 402 -14q206 0 329 14q37 -19 57.5 -99.5t20.5 -155.5q0 -19 -6 -32t-19.5 -20t-23 -9.5t-27.5 -5.5q-90 -10 -90 -267v-291q0 -73 3.5 -125t16 -105.5t33.5 -86t58 -53t89 -20.5q33 0 61 8t48 19.5t35.5 33t25.5 40.5 t17.5 50t11 53t5 58.5t2 57.5t0.5 59v377q0 44 -2.5 73t-10 58.5t-24 45.5t-42.5 18q-17 3 -27 6t-19.5 14t-9.5 30q0 78 20 163.5t57 105.5q112 -14 314 -14q185 0 286 14q32 -20 50 -105.5t18 -163.5q0 -19 -10 -30t-20 -14t-27 -6q-84 -8 -84 -195v-291 q0 -175 -34.5 -304t-93.5 -209t-151.5 -128t-195 -66t-238.5 -18q-72 0 -126 2.5t-119 10.5t-113.5 22t-101.5 38.5t-90.5 59t-72.5 84.5t-56.5 113t-34.5 147t-13 185v279q0 61 -2.5 100.5t-10 80.5t-24 62t-43.5 24q-18 3 -27.5 5.5t-23 9.5t-19.5 20t-6 32zM502 1802 q0 77 52 130t153 53q99 0 148.5 -53.5t49.5 -129.5t-49.5 -130t-148.5 -54q-101 0 -153 53.5t-52 130.5zM1015 1802q0 77 52 130t153 53q99 0 148.5 -53.5t49.5 -129.5t-49.5 -130t-148.5 -54q-101 0 -153 53.5t-52 130.5z" />
<glyph unicode="&#xdd;" horiz-adv-x="1609" d="M-20 1335v14q0 49 11 101.5t31 52.5q172 -14 418 -14q174 0 370 14q14 0 33 -94.5t19 -149.5q0 -17 -12.5 -26t-28 -11t-28 -9t-12.5 -21q0 -20 18 -48l115 -178q123 183 142 212q8 12 8 22t-20 17.5t-39.5 20t-19.5 34.5v15q0 196 45 216q102 -14 265 -14q44 0 159 7 t147 7q28 0 28 -174v-34q0 -40 -16.5 -58t-45.5 -22t-61.5 -7.5t-72 -24t-69.5 -61.5q-43 -59 -101.5 -137.5t-84.5 -114.5t-52.5 -74.5t-40.5 -62.5v-128q0 -66 2.5 -111.5t10 -94.5t25 -75.5t43.5 -29.5q18 -3 27.5 -5.5t23 -9.5t19.5 -20t6 -32q0 -71 -17.5 -146.5 t-50.5 -93.5q-115 13 -371 13t-371 -13q-33 18 -50.5 93.5t-17.5 146.5q0 19 6 32t19.5 20t23 9.5t27.5 5.5q26 3 43.5 29.5t24.5 75.5t9.5 94t2.5 112v132l-134 183q-35 47 -60 78t-63.5 71.5t-80 67.5t-85.5 39q-12 3 -33.5 7.5t-29.5 7t-21.5 12t-18.5 24.5t-9.5 42 t-4.5 66zM753 1618q143 210 252 383q34 54 68.5 73.5t103.5 19.5q80 0 113 -14.5t33 -46.5q0 -14 -13.5 -29t-48.5 -46t-56 -51q-35 -34 -148.5 -131.5t-191.5 -157.5h-112z" />
<glyph unicode="&#xde;" horiz-adv-x="1652" d="M65 227q0 10 1.5 18t5.5 14t6.5 10.5t10.5 8.5t10 6t13 4.5t12.5 3t14.5 2.5l13 2q23 2 38 20t22 49.5t9.5 63t2.5 73.5v514q0 75 -17 124t-54 53q-2 0 -12 2l-12.5 2.5t-11.5 2.5t-12 3.5t-10 4.5t-10 6t-7.5 8t-6.5 10.5t-3.5 13t-1.5 16.5q0 75 20.5 155t57.5 99 q145 -27 319 -27q116 0 231 27q34 -18 55.5 -88.5t26.5 -146.5q85 0 157 -3t160 -13t157 -27t137.5 -47.5t114.5 -71t74 -101t28 -135.5q0 -114 -53.5 -198t-147.5 -131t-206.5 -69t-246.5 -22q-30 0 -84.5 4.5t-76.5 4.5q0 -76 14 -123.5t59 -52.5q2 0 12 -2l12.5 -2.5 t11.5 -2.5t12 -3.5t10 -4.5t10 -6t7.5 -8t6.5 -10.5t3.5 -13t1.5 -16.5q0 -75 -20.5 -155t-57.5 -99q-145 27 -319 27q-234 0 -409 -27q-37 19 -57.5 99t-20.5 155zM777 652q40 -11 79 -11q122 0 122 241q0 236 -121 236q-38 0 -80 -7v-459z" />
<glyph unicode="&#xdf;" horiz-adv-x="1677" d="M55 227q0 25 13 40t27 19.5t36 7.5q23 3 38.5 26.5t22 65.5t9 82t2.5 97v515q0 436 616 436q641 0 641 -378q0 -244 -286 -331q463 -90 463 -400q0 -93 -33 -167.5t-89 -123.5t-134 -82t-164 -47t-182 -14q-60 0 -135 7v239q104 0 161 52t57 128q0 100 -93 179t-256 79 v-29q0 -275 14 -377q6 -54 6 -78q0 -78 -19 -131.5t-49 -53.5q-2 0 -91.5 6t-192.5 6q-102 0 -354 -12q-14 18 -21 93.5t-7 145.5zM768 1040q0 -18 0.5 -52t0.5 -47v-29q0 -12 6 -17.5t24 -5.5q73 0 108.5 42t35.5 144q0 40 -8.5 84.5t-31.5 82t-55 37.5q-25 0 -42 -20 t-25 -57.5t-10.5 -74.5t-2.5 -87z" />
<glyph unicode="&#xe0;" horiz-adv-x="1363" d="M51 310q0 67 13.5 120.5t36 91.5t58.5 66t75 44.5t91.5 26.5t102.5 13.5t112 3.5q37 0 75.5 -3t58.5 -7l20 -3v118q0 59 -23 83t-78 24q-48 0 -101 -15t-94 -36.5t-76 -43t-54 -36.5l-18 -15q-47 0 -71.5 30t-24.5 86q0 46 19.5 82.5t50 61t78 42t92.5 27t105 15t105 7 t102 1.5q102 0 177.5 -15t127.5 -48.5t85.5 -77.5t51.5 -111.5t25 -140t7 -173.5v-46t1 -41.5t3 -40t5.5 -33t9 -30t13 -22t18.5 -17.5t25 -9q1 0 12.5 -0.5t18 -3t15.5 -9.5t13.5 -22.5t4.5 -39.5q0 -21 -5 -66.5t-25.5 -105t-51.5 -69.5q-5 1 -28 7.5t-32.5 8t-34.5 5 t-55.5 4.5t-73.5 1q-70 0 -129.5 -5t-78.5 -5q-37 0 -76 135q-60 -74 -150 -112.5t-185 -38.5q-91 0 -159 27.5t-107 76t-58 107t-19 126.5zM222 1612q0 32 36 46.5t121 14.5q80 0 118.5 -19t72.5 -74q26 -42 109 -195t103 -188h-151q-69 59 -167.5 155t-133.5 134 q-19 20 -51.5 51t-44.5 46t-12 29zM503 394q0 -68 24 -125t67 -57q26 0 54.5 19.5t35.5 39.5q10 49 10 221q0 32 -12.5 41t-71.5 9q-51 0 -79 -38.5t-28 -109.5z" />
<glyph unicode="&#xe1;" horiz-adv-x="1363" d="M51 310q0 67 13.5 120.5t36 91.5t58.5 66t75 44.5t91.5 26.5t102.5 13.5t112 3.5q37 0 75.5 -3t58.5 -7l20 -3v118q0 59 -23 83t-78 24q-48 0 -101 -15t-94 -36.5t-76 -43t-54 -36.5l-18 -15q-47 0 -71.5 30t-24.5 86q0 46 19.5 82.5t50 61t78 42t92.5 27t105 15t105 7 t102 1.5q102 0 177.5 -15t127.5 -48.5t85.5 -77.5t51.5 -111.5t25 -140t7 -173.5v-46t1 -41.5t3 -40t5.5 -33t9 -30t13 -22t18.5 -17.5t25 -9q1 0 12.5 -0.5t18 -3t15.5 -9.5t13.5 -22.5t4.5 -39.5q0 -21 -5 -66.5t-25.5 -105t-51.5 -69.5q-5 1 -28 7.5t-32.5 8t-34.5 5 t-55.5 4.5t-73.5 1q-70 0 -129.5 -5t-78.5 -5q-37 0 -76 135q-60 -74 -150 -112.5t-185 -38.5q-91 0 -159 27.5t-107 76t-58 107t-19 126.5zM503 394q0 -68 24 -125t67 -57q26 0 54.5 19.5t35.5 39.5q10 49 10 221q0 32 -12.5 41t-71.5 9q-51 0 -79 -38.5t-28 -109.5z M647 1197q143 210 252 383q34 54 68.5 73.5t103.5 19.5q80 0 113 -14.5t33 -46.5q0 -14 -13.5 -29t-48.5 -46t-56 -51q-35 -34 -148.5 -131.5t-191.5 -157.5h-112z" />
<glyph unicode="&#xe2;" horiz-adv-x="1363" d="M51 310q0 67 13.5 120.5t36 91.5t58.5 66t75 44.5t91.5 26.5t102.5 13.5t112 3.5q37 0 75.5 -3t58.5 -7l20 -3v118q0 59 -23 83t-78 24q-48 0 -101 -15t-94 -36.5t-76 -43t-54 -36.5l-18 -15q-47 0 -71.5 30t-24.5 86q0 46 19.5 82.5t50 61t78 42t92.5 27t105 15t105 7 t102 1.5q102 0 177.5 -15t127.5 -48.5t85.5 -77.5t51.5 -111.5t25 -140t7 -173.5v-46t1 -41.5t3 -40t5.5 -33t9 -30t13 -22t18.5 -17.5t25 -9q1 0 12.5 -0.5t18 -3t15.5 -9.5t13.5 -22.5t4.5 -39.5q0 -21 -5 -66.5t-25.5 -105t-51.5 -69.5q-5 1 -28 7.5t-32.5 8t-34.5 5 t-55.5 4.5t-73.5 1q-70 0 -129.5 -5t-78.5 -5q-37 0 -76 135q-60 -74 -150 -112.5t-185 -38.5q-91 0 -159 27.5t-107 76t-58 107t-19 126.5zM262 1258q0 9 4 18.5t13 22t18 23t25.5 29.5t27.5 33q27 33 120.5 130.5t160.5 158.5h150q67 -61 160.5 -158.5t120.5 -130.5 q11 -14 27.5 -33t25.5 -29.5t18 -23t13 -22t4 -18.5q0 -32 -31.5 -46.5t-105.5 -14.5q-58 0 -86.5 15.5t-69.5 57.5l-151 191l-151 -191q-41 -42 -69.5 -57.5t-86.5 -15.5q-74 0 -105.5 14.5t-31.5 46.5zM503 394q0 -68 24 -125t67 -57q26 0 54.5 19.5t35.5 39.5 q10 49 10 221q0 32 -12.5 41t-71.5 9q-51 0 -79 -38.5t-28 -109.5z" />
<glyph unicode="&#xe3;" horiz-adv-x="1363" d="M51 310q0 67 13.5 120.5t36 91.5t58.5 66t75 44.5t91.5 26.5t102.5 13.5t112 3.5q37 0 75.5 -3t58.5 -7l20 -3v118q0 59 -23 83t-78 24q-48 0 -101 -15t-94 -36.5t-76 -43t-54 -36.5l-18 -15q-47 0 -71.5 30t-24.5 86q0 46 19.5 82.5t50 61t78 42t92.5 27t105 15t105 7 t102 1.5q102 0 177.5 -15t127.5 -48.5t85.5 -77.5t51.5 -111.5t25 -140t7 -173.5v-46t1 -41.5t3 -40t5.5 -33t9 -30t13 -22t18.5 -17.5t25 -9q1 0 12.5 -0.5t18 -3t15.5 -9.5t13.5 -22.5t4.5 -39.5q0 -21 -5 -66.5t-25.5 -105t-51.5 -69.5q-5 1 -28 7.5t-32.5 8t-34.5 5 t-55.5 4.5t-73.5 1q-70 0 -129.5 -5t-78.5 -5q-37 0 -76 135q-60 -74 -150 -112.5t-185 -38.5q-91 0 -159 27.5t-107 76t-58 107t-19 126.5zM267 1340q0 46 11.5 84.5t36.5 71t69.5 51t105.5 18.5q55 0 134 -27.5t144 -55.5t86 -28t35 11.5t14 32.5v69q0 1 16 2.5t44.5 3.5 t53.5 2q60 0 97 -6q31 -80 31 -143q0 -100 -50.5 -161t-157.5 -61q-62 0 -145 30.5t-150 61t-90 30.5q-46 0 -46 -50l1 -64q-4 -15 -99 -15q-123 0 -126 15q-15 68 -15 128zM503 394q0 -68 24 -125t67 -57q26 0 54.5 19.5t35.5 39.5q10 49 10 221q0 32 -12.5 41t-71.5 9 q-51 0 -79 -38.5t-28 -109.5z" />
<glyph unicode="&#xe4;" horiz-adv-x="1363" d="M51 310q0 67 13.5 120.5t36 91.5t58.5 66t75 44.5t91.5 26.5t102.5 13.5t112 3.5q37 0 75.5 -3t58.5 -7l20 -3v118q0 59 -23 83t-78 24q-48 0 -101 -15t-94 -36.5t-76 -43t-54 -36.5l-18 -15q-47 0 -71.5 30t-24.5 86q0 46 19.5 82.5t50 61t78 42t92.5 27t105 15t105 7 t102 1.5q102 0 177.5 -15t127.5 -48.5t85.5 -77.5t51.5 -111.5t25 -140t7 -173.5v-46t1 -41.5t3 -40t5.5 -33t9 -30t13 -22t18.5 -17.5t25 -9q1 0 12.5 -0.5t18 -3t15.5 -9.5t13.5 -22.5t4.5 -39.5q0 -21 -5 -66.5t-25.5 -105t-51.5 -69.5q-5 1 -28 7.5t-32.5 8t-34.5 5 t-55.5 4.5t-73.5 1q-70 0 -129.5 -5t-78.5 -5q-37 0 -76 135q-60 -74 -150 -112.5t-185 -38.5q-91 0 -159 27.5t-107 76t-58 107t-19 126.5zM253 1381q0 77 52 130t153 53q99 0 148.5 -53.5t49.5 -129.5t-49.5 -130t-148.5 -54q-101 0 -153 53.5t-52 130.5zM503 394 q0 -68 24 -125t67 -57q26 0 54.5 19.5t35.5 39.5q10 49 10 221q0 32 -12.5 41t-71.5 9q-51 0 -79 -38.5t-28 -109.5zM766 1381q0 77 52 130t153 53q99 0 148.5 -53.5t49.5 -129.5t-49.5 -130t-148.5 -54q-101 0 -153 53.5t-52 130.5z" />
<glyph unicode="&#xe5;" horiz-adv-x="1363" d="M51 310q0 67 13.5 120.5t36 91.5t58.5 66t75 44.5t91.5 26.5t102.5 13.5t112 3.5q37 0 75.5 -3t58.5 -7l20 -3v118q0 59 -23 83t-78 24q-48 0 -101 -15t-94 -36.5t-76 -43t-54 -36.5l-18 -15q-47 0 -71.5 30t-24.5 86q0 46 19.5 82.5t50 61t78 42t92.5 27t105 15t105 7 t102 1.5q102 0 177.5 -15t127.5 -48.5t85.5 -77.5t51.5 -111.5t25 -140t7 -173.5v-46t1 -41.5t3 -40t5.5 -33t9 -30t13 -22t18.5 -17.5t25 -9q1 0 12.5 -0.5t18 -3t15.5 -9.5t13.5 -22.5t4.5 -39.5q0 -21 -5 -66.5t-25.5 -105t-51.5 -69.5q-5 1 -28 7.5t-32.5 8t-34.5 5 t-55.5 4.5t-73.5 1q-70 0 -129.5 -5t-78.5 -5q-37 0 -76 135q-60 -74 -150 -112.5t-185 -38.5q-91 0 -159 27.5t-107 76t-58 107t-19 126.5zM456 1423q0 103 71 163.5t183 60.5q110 0 178 -62.5t68 -158.5q0 -99 -71.5 -164t-176.5 -65q-104 0 -178 61t-74 165zM503 394 q0 -68 24 -125t67 -57q26 0 54.5 19.5t35.5 39.5q10 49 10 221q0 32 -12.5 41t-71.5 9q-51 0 -79 -38.5t-28 -109.5zM559 1422q0 -74 43 -115.5t102 -41.5t102.5 42t43.5 116q0 73 -43 113.5t-102 40.5t-102.5 -41t-43.5 -114z" />
<glyph unicode="&#xe6;" horiz-adv-x="1902" d="M69 310q0 67 13.5 120.5t36 91.5t58.5 66t75 44.5t91.5 26.5t102.5 13.5t112 3.5q40 0 81.5 -3t63.5 -7l22 -3v118q0 59 -27 83t-87 24q-48 0 -101 -15t-94 -36.5t-76 -43t-54 -36.5l-18 -15q-47 0 -71.5 30t-24.5 86q0 46 19 83t49 61.5t76.5 42t91 27t103.5 15t103 7 t100 1.5q100 0 182.5 -34.5t121.5 -92.5q54 60 141.5 93.5t180.5 33.5q209 0 347.5 -117.5t154.5 -284.5q-6 -40 -33.5 -69.5t-63.5 -46t-88 -27t-94 -14t-94 -4.5q-139 -3 -231 -3q8 -116 69.5 -171.5t149.5 -55.5q90 0 182 29t162 77q34 -15 34 -59q0 -69 -27.5 -146.5 t-56.5 -104.5q-131 -125 -424 -125q-113 0 -211 46t-169 133q-103 -89 -243 -134t-292 -45q-91 0 -159 27.5t-107 76t-58 107t-19 126.5zM521 394q0 -68 24 -125t67 -57q29 0 62 12.5t41 26.5q10 53 10 238q0 24 -4.5 33t-25 14.5t-67.5 5.5q-51 0 -79 -38.5t-28 -109.5z M1220 700q27 0 84 -1.5t88 -1.5q40 0 54.5 16.5t14.5 55.5q0 73 -30 112t-87 39q-76 0 -100 -52t-24 -168z" />
<glyph unicode="&#xe7;" horiz-adv-x="1154" d="M38 519q0 114 39 216t114 183t195.5 128.5t272.5 47.5q206 0 311 -71.5t105 -167.5q0 -74 -61 -127.5t-159 -53.5l-112 234q-11 11 -60 11t-82 -42.5t-46.5 -106t-13.5 -141.5q0 -152 70 -237t175 -85q161 0 303 83l31 -50q0 -175 -112 -271t-348 -96q-151 0 -272 46.5 t-196 124t-114.5 174t-39.5 201.5zM551 -501l32 172q49 -15 92 -15q47 0 72.5 21.5t25.5 51.5q0 34 -31 60t-85 26q-24 0 -52 -6v181h104v-76q69 -2 121 -24t79 -56.5t39.5 -70t12.5 -71.5q0 -87 -71.5 -146.5t-204.5 -59.5q-66 0 -134 13z" />
<glyph unicode="&#xe8;" horiz-adv-x="1229" d="M48 538q0 262 169 409t446 147q218 0 362 -117t160 -284q-23 -154 -373 -161q-101 -3 -251 -3q10 -116 76.5 -171.5t162.5 -55.5q90 0 182 29t162 77q34 -15 34 -59q0 -69 -27.5 -146.5t-56.5 -104.5q-131 -125 -424 -125q-171 0 -311.5 66.5t-225.5 197t-85 301.5z M179 1612q0 32 36 46.5t121 14.5q80 0 118.5 -19t72.5 -74q26 -42 109 -195t103 -188h-151q-69 59 -167.5 155t-133.5 134q-19 20 -51.5 51t-44.5 46t-12 29zM543 700q29 0 89 -1.5t93 -1.5q40 0 54.5 16.5t14.5 55.5q0 73 -30 112t-87 39q-82 0 -108 -51.5t-26 -168.5z" />
<glyph unicode="&#xe9;" horiz-adv-x="1229" d="M48 538q0 262 169 409t446 147q218 0 362 -117t160 -284q-23 -154 -373 -161q-101 -3 -251 -3q10 -116 76.5 -171.5t162.5 -55.5q90 0 182 29t162 77q34 -15 34 -59q0 -69 -27.5 -146.5t-56.5 -104.5q-131 -125 -424 -125q-171 0 -311.5 66.5t-225.5 197t-85 301.5z M543 700q29 0 89 -1.5t93 -1.5q40 0 54.5 16.5t14.5 55.5q0 73 -30 112t-87 39q-82 0 -108 -51.5t-26 -168.5zM604 1197q143 210 252 383q34 54 68.5 73.5t103.5 19.5q80 0 113 -14.5t33 -46.5q0 -14 -13.5 -29t-48.5 -46t-56 -51q-35 -34 -148.5 -131.5t-191.5 -157.5h-112 z" />
<glyph unicode="&#xea;" horiz-adv-x="1229" d="M48 538q0 262 169 409t446 147q218 0 362 -117t160 -284q-23 -154 -373 -161q-101 -3 -251 -3q10 -116 76.5 -171.5t162.5 -55.5q90 0 182 29t162 77q34 -15 34 -59q0 -69 -27.5 -146.5t-56.5 -104.5q-131 -125 -424 -125q-171 0 -311.5 66.5t-225.5 197t-85 301.5z M219 1258q0 9 4 18.5t13 22t18 23t25.5 29.5t27.5 33q27 33 120.5 130.5t160.5 158.5h150q67 -61 160.5 -158.5t120.5 -130.5q11 -14 27.5 -33t25.5 -29.5t18 -23t13 -22t4 -18.5q0 -32 -31.5 -46.5t-105.5 -14.5q-58 0 -86.5 15.5t-69.5 57.5l-151 191l-151 -191 q-41 -42 -69.5 -57.5t-86.5 -15.5q-74 0 -105.5 14.5t-31.5 46.5zM543 700q29 0 89 -1.5t93 -1.5q40 0 54.5 16.5t14.5 55.5q0 73 -30 112t-87 39q-82 0 -108 -51.5t-26 -168.5z" />
<glyph unicode="&#xeb;" horiz-adv-x="1229" d="M48 538q0 262 169 409t446 147q218 0 362 -117t160 -284q-23 -154 -373 -161q-101 -3 -251 -3q10 -116 76.5 -171.5t162.5 -55.5q90 0 182 29t162 77q34 -15 34 -59q0 -69 -27.5 -146.5t-56.5 -104.5q-131 -125 -424 -125q-171 0 -311.5 66.5t-225.5 197t-85 301.5z M210 1381q0 77 52 130t153 53q99 0 148.5 -53.5t49.5 -129.5t-49.5 -130t-148.5 -54q-101 0 -153 53.5t-52 130.5zM543 700q29 0 89 -1.5t93 -1.5q40 0 54.5 16.5t14.5 55.5q0 73 -30 112t-87 39q-82 0 -108 -51.5t-26 -168.5zM723 1381q0 77 52 130t153 53 q99 0 148.5 -53.5t49.5 -129.5t-49.5 -130t-148.5 -54q-101 0 -153 53.5t-52 130.5z" />
<glyph unicode="&#xec;" horiz-adv-x="927" d="M55 863q0 69 17 140.5t47 90.5q162 -27 345 -27q52 0 119 6.5t84 6.5q45 0 59 -16.5t14 -70.5q0 -4 -2.5 -82t-5 -175.5t-2.5 -148.5q0 -44 1 -76.5t6 -75t13.5 -70t24.5 -48t39 -23.5q18 -3 27.5 -5.5t23 -9.5t19.5 -20t6 -32q0 -75 -20.5 -155t-57.5 -99 q-145 27 -319 27q-181 0 -329 -27q-37 19 -57.5 99t-20.5 155q0 19 6 32t19.5 20t23 9.5t27.5 5.5q28 3 46 27t25.5 65.5t10 76.5t2.5 84v52q0 33 -1.5 53t-9 50t-21.5 48t-41.5 33.5t-67.5 19.5q-32 3 -41 15t-9 45zM55 1611q0 32 36 46.5t121 14.5q80 0 118.5 -19 t72.5 -74q26 -42 109 -195t103 -188h-151q-69 59 -167.5 155t-133.5 134q-19 20 -51.5 51t-44.5 46t-12 29z" />
<glyph unicode="&#xed;" horiz-adv-x="927" d="M55 863q0 69 17 140.5t47 90.5q162 -27 345 -27q52 0 119 6.5t84 6.5q45 0 59 -16.5t14 -70.5q0 -4 -2.5 -82t-5 -175.5t-2.5 -148.5q0 -44 1 -76.5t6 -75t13.5 -70t24.5 -48t39 -23.5q18 -3 27.5 -5.5t23 -9.5t19.5 -20t6 -32q0 -75 -20.5 -155t-57.5 -99 q-145 27 -319 27q-181 0 -329 -27q-37 19 -57.5 99t-20.5 155q0 19 6 32t19.5 20t23 9.5t27.5 5.5q28 3 46 27t25.5 65.5t10 76.5t2.5 84v52q0 33 -1.5 53t-9 50t-21.5 48t-41.5 33.5t-67.5 19.5q-32 3 -41 15t-9 45zM258 1196q143 210 252 383q34 54 68.5 73.5t103.5 19.5 q80 0 113 -14.5t33 -46.5q0 -14 -13.5 -29t-48.5 -46t-56 -51q-35 -34 -148.5 -131.5t-191.5 -157.5h-112z" />
<glyph unicode="&#xee;" horiz-adv-x="927" d="M17 1257q0 9 4 18.5t13 22t18 23t25.5 29.5t27.5 33q27 33 120.5 130.5t160.5 158.5h150q67 -61 160.5 -158.5t120.5 -130.5q11 -14 27.5 -33t25.5 -29.5t18 -23t13 -22t4 -18.5q0 -32 -31.5 -46.5t-105.5 -14.5q-58 0 -86.5 15.5t-69.5 57.5l-151 191l-151 -191 q-41 -42 -69.5 -57.5t-86.5 -15.5q-74 0 -105.5 14.5t-31.5 46.5zM55 863q0 69 17 140.5t47 90.5q162 -27 345 -27q52 0 119 6.5t84 6.5q45 0 59 -16.5t14 -70.5q0 -4 -2.5 -82t-5 -175.5t-2.5 -148.5q0 -44 1 -76.5t6 -75t13.5 -70t24.5 -48t39 -23.5q18 -3 27.5 -5.5 t23 -9.5t19.5 -20t6 -32q0 -75 -20.5 -155t-57.5 -99q-145 27 -319 27q-181 0 -329 -27q-37 19 -57.5 99t-20.5 155q0 19 6 32t19.5 20t23 9.5t27.5 5.5q28 3 46 27t25.5 65.5t10 76.5t2.5 84v52q0 33 -1.5 53t-9 50t-21.5 48t-41.5 33.5t-67.5 19.5q-32 3 -41 15t-9 45z " />
<glyph unicode="&#xef;" horiz-adv-x="927" d="M6 1380q0 77 52 130t153 53q99 0 148.5 -53.5t49.5 -129.5t-49.5 -130t-148.5 -54q-101 0 -153 53.5t-52 130.5zM55 863q0 69 17 140.5t47 90.5q162 -27 345 -27q52 0 119 6.5t84 6.5q45 0 59 -16.5t14 -70.5q0 -4 -2.5 -82t-5 -175.5t-2.5 -148.5q0 -44 1 -76.5t6 -75 t13.5 -70t24.5 -48t39 -23.5q18 -3 27.5 -5.5t23 -9.5t19.5 -20t6 -32q0 -75 -20.5 -155t-57.5 -99q-145 27 -319 27q-181 0 -329 -27q-37 19 -57.5 99t-20.5 155q0 19 6 32t19.5 20t23 9.5t27.5 5.5q28 3 46 27t25.5 65.5t10 76.5t2.5 84v52q0 33 -1.5 53t-9 50t-21.5 48 t-41.5 33.5t-67.5 19.5q-32 3 -41 15t-9 45zM519 1380q0 77 52 130t153 53q99 0 148.5 -53.5t49.5 -129.5t-49.5 -130t-148.5 -54q-101 0 -153 53.5t-52 130.5z" />
<glyph unicode="&#xf0;" horiz-adv-x="1707" d="M33 517q0 87 35.5 158t93.5 118t134 79t155 46t159 14q208 0 359 -92v28q0 101 -15 180q-132 -24 -236 -46q-68 0 -68 112q0 43 35.5 64.5t122.5 36.5q7 1 22 4t29 5.5t26 4.5q-56 79 -145 79q-58 0 -108.5 -20.5t-83 -51.5t-61 -67.5t-45.5 -67.5t-33.5 -51.5 t-29.5 -20.5q-71 0 -165 33t-94 68q0 125 75 237t159 124q105 28 386 28q394 0 633 -199q21 4 66.5 13t66.5 13q62 13 97 0t35 -39q0 -61 -23.5 -99.5t-92.5 -56.5q130 -203 130 -479q0 -150 -49 -274.5t-146 -218.5t-252 -147t-356 -56q-133 0 -250 18t-222 59.5 t-180.5 103t-119.5 153.5t-44 207zM633 471q0 -44 2.5 -78t13.5 -76.5t29.5 -70t54 -47t83.5 -19.5q68 0 115 59.5t47 186.5q0 37 -0.5 57t-3.5 53.5t-9.5 52t-19 42.5t-30 36t-45 21t-62.5 9q-77 0 -126 -57t-49 -169z" />
<glyph unicode="&#xf1;" horiz-adv-x="1618" d="M30 879q0 53 11.5 104.5t26.5 81t26 29.5q176 -27 316 -27q64 0 134 7t90 7q43 0 58 -15.5t15 -72.5l-2 -63q76 80 170 122t191 42q75 0 140.5 -23t117 -68.5t81 -120.5t29.5 -172q0 -24 -3 -73t-3 -75q0 -35 0.5 -59t2.5 -57.5t7 -56.5t12.5 -45t20 -34t29.5 -14 q2 0 12 -2l12.5 -2.5t11.5 -2.5t12 -3.5t10 -4.5t10 -6t7.5 -8t6.5 -10.5t3.5 -13t1.5 -16.5q0 -75 -20.5 -155t-57.5 -99q-121 27 -249 27q-24 0 -86.5 -8t-93.5 -8q-65 0 -102.5 22.5t-37.5 81.5q0 44 1.5 136t1.5 183q0 226 -19.5 319.5t-85.5 93.5q-132 0 -132 -165v-78 q0 -44 0.5 -68.5t2.5 -61.5t6.5 -58t12.5 -44t21 -35t31 -16q30 0 53 -17t23 -50q0 -75 -20.5 -155t-57.5 -99q-142 27 -309 27q-181 0 -329 -27q-37 19 -57.5 99t-20.5 155q0 33 23 50t53 17q52 10 67.5 71t15.5 182v27q0 127 -28.5 172.5t-125.5 58.5q-24 5 -30.5 18.5 t-6.5 55.5zM369 1340q0 46 11.5 84.5t36.5 71t69.5 51t105.5 18.5q55 0 134 -27.5t144 -55.5t86 -28t35 11.5t14 32.5v69q0 1 16 2.5t44.5 3.5t53.5 2q60 0 97 -6q31 -80 31 -143q0 -100 -50.5 -161t-157.5 -61q-62 0 -145 30.5t-150 61t-90 30.5q-46 0 -46 -50l1 -64 q-4 -15 -99 -15q-123 0 -126 15q-15 68 -15 128z" />
<glyph unicode="&#xf2;" horiz-adv-x="1398" d="M60 530q0 264 161.5 414t466.5 150q148 0 266 -33t204.5 -99t133 -172t46.5 -246q0 -274 -168 -422.5t-470 -148.5q-289 0 -464.5 146t-175.5 411zM203 1612q0 32 36 46.5t121 14.5q80 0 118.5 -19t72.5 -74q26 -42 109 -195t103 -188h-151q-69 59 -167.5 155t-133.5 134 q-19 20 -51.5 51t-44.5 46t-12 29zM594 529q0 -189 22.5 -277t86.5 -88q23 0 40.5 13t28 41t17.5 58.5t10 79.5t4 89t1 101q0 46 -0.5 75.5t-3.5 80t-9.5 83t-17.5 66.5t-29.5 51t-43.5 17q-66 0 -86 -89t-20 -301z" />
<glyph unicode="&#xf3;" horiz-adv-x="1398" d="M60 530q0 264 161.5 414t466.5 150q148 0 266 -33t204.5 -99t133 -172t46.5 -246q0 -274 -168 -422.5t-470 -148.5q-289 0 -464.5 146t-175.5 411zM594 529q0 -189 22.5 -277t86.5 -88q23 0 40.5 13t28 41t17.5 58.5t10 79.5t4 89t1 101q0 46 -0.5 75.5t-3.5 80t-9.5 83 t-17.5 66.5t-29.5 51t-43.5 17q-66 0 -86 -89t-20 -301zM630 1197q143 210 252 383q34 54 68.5 73.5t103.5 19.5q80 0 113 -14.5t33 -46.5q0 -14 -13.5 -29t-48.5 -46t-56 -51q-35 -34 -148.5 -131.5t-191.5 -157.5h-112z" />
<glyph unicode="&#xf4;" horiz-adv-x="1398" d="M60 530q0 264 161.5 414t466.5 150q148 0 266 -33t204.5 -99t133 -172t46.5 -246q0 -274 -168 -422.5t-470 -148.5q-289 0 -464.5 146t-175.5 411zM244 1258q0 9 4 18.5t13 22t18 23t25.5 29.5t27.5 33q27 33 120.5 130.5t160.5 158.5h150q67 -61 160.5 -158.5 t120.5 -130.5q11 -14 27.5 -33t25.5 -29.5t18 -23t13 -22t4 -18.5q0 -32 -31.5 -46.5t-105.5 -14.5q-58 0 -86.5 15.5t-69.5 57.5l-151 191l-151 -191q-41 -42 -69.5 -57.5t-86.5 -15.5q-74 0 -105.5 14.5t-31.5 46.5zM594 529q0 -189 22.5 -277t86.5 -88q23 0 40.5 13 t28 41t17.5 58.5t10 79.5t4 89t1 101q0 46 -0.5 75.5t-3.5 80t-9.5 83t-17.5 66.5t-29.5 51t-43.5 17q-66 0 -86 -89t-20 -301z" />
<glyph unicode="&#xf5;" horiz-adv-x="1398" d="M60 530q0 264 161.5 414t466.5 150q148 0 266 -33t204.5 -99t133 -172t46.5 -246q0 -274 -168 -422.5t-470 -148.5q-289 0 -464.5 146t-175.5 411zM249 1340q0 46 11.5 84.5t36.5 71t69.5 51t105.5 18.5q55 0 134 -27.5t144 -55.5t86 -28t35 11.5t14 32.5v69q0 1 16 2.5 t44.5 3.5t53.5 2q60 0 97 -6q31 -80 31 -143q0 -100 -50.5 -161t-157.5 -61q-62 0 -145 30.5t-150 61t-90 30.5q-46 0 -46 -50l1 -64q-4 -15 -99 -15q-123 0 -126 15q-15 68 -15 128zM594 529q0 -189 22.5 -277t86.5 -88q23 0 40.5 13t28 41t17.5 58.5t10 79.5t4 89t1 101 q0 46 -0.5 75.5t-3.5 80t-9.5 83t-17.5 66.5t-29.5 51t-43.5 17q-66 0 -86 -89t-20 -301z" />
<glyph unicode="&#xf6;" horiz-adv-x="1398" d="M60 530q0 264 161.5 414t466.5 150q148 0 266 -33t204.5 -99t133 -172t46.5 -246q0 -274 -168 -422.5t-470 -148.5q-289 0 -464.5 146t-175.5 411zM235 1381q0 77 52 130t153 53q99 0 148.5 -53.5t49.5 -129.5t-49.5 -130t-148.5 -54q-101 0 -153 53.5t-52 130.5z M594 529q0 -189 22.5 -277t86.5 -88q23 0 40.5 13t28 41t17.5 58.5t10 79.5t4 89t1 101q0 46 -0.5 75.5t-3.5 80t-9.5 83t-17.5 66.5t-29.5 51t-43.5 17q-66 0 -86 -89t-20 -301zM748 1381q0 77 52 130t153 53q99 0 148.5 -53.5t49.5 -129.5t-49.5 -130t-148.5 -54 q-101 0 -153 53.5t-52 130.5z" />
<glyph unicode="&#xf7;" horiz-adv-x="1060" d="M37 614q0 71 36 85q26 -2 143 -2q52 1 625 1q104 0 143 3q36 -14 36 -85q0 -95 -55 -95q-5 2 -62 3.5t-111 1.5l-54 1h-501q-138 -4 -145 -8q-55 0 -55 95zM337 238q0 72 49 122.5t143 50.5q93 0 139.5 -51t46.5 -122t-46.5 -122t-139.5 -51q-94 0 -143 50t-49 123z M337 978q0 73 49 123t143 50q93 0 139.5 -51t46.5 -122t-46.5 -122t-139.5 -51q-94 0 -143 50.5t-49 122.5z" />
<glyph unicode="&#xf8;" horiz-adv-x="1373" d="M42 530q0 264 161.5 414t466.5 150q147 0 262 -31q47 75 73 121q9 26 45 26h6q7 1 14 1t18 -0.5t20.5 -2t19.5 -4t17 -7t11.5 -11t4.5 -15.5q0 -26 -15 -52q-9 -15 -32.5 -53t-37.5 -61q244 -137 244 -461q0 -274 -168 -422.5t-470 -148.5q-119 0 -223 26 q-15 -24 -38.5 -61t-31.5 -50q-30 -47 -91 -47q-48 0 -68 17t-20 52q0 10 5.5 20.5t21 33t22.5 34.5q3 5 16.5 26.5t23.5 37.5q-123 69 -190 187.5t-67 280.5zM576 497q109 171 193 306q-24 116 -87 116q-66 0 -86 -89t-20 -301v-32zM605 234q26 -70 80 -70q22 0 39 12.5 t28 38.5t18 56t10.5 75t4.5 85.5t1 97.5q-124 -202 -181 -295z" />
<glyph unicode="&#xf9;" horiz-adv-x="1639" d="M40 863q0 69 17 140.5t47 90.5q140 -27 306 -27q57 0 130.5 7t92.5 7q45 0 59 -17t14 -71q0 -4 -3 -72.5t-5.5 -159.5t-2.5 -147q0 -84 0.5 -123.5t4.5 -94t12.5 -78t23 -49t38 -34t56.5 -8.5q27 0 48 9t35.5 23.5t24.5 41.5t15.5 54t8.5 70t4 80.5t1 93.5q0 34 -1 53 t-8.5 50t-21 48.5t-41 33t-67.5 19.5q-32 3 -41 15t-9 45q0 69 17 140.5t47 90.5q157 -27 335 -27q55 0 125.5 7t88.5 7q44 0 55.5 -16t11.5 -72q0 -3 -1.5 -73t-3 -166t-1.5 -163q0 -60 0.5 -91.5t5 -75t13 -66.5t25 -42.5t40.5 -25.5q2 0 12.5 -1t17.5 -3.5t16 -9 t13.5 -22.5t4.5 -39q0 -21 -5 -66.5t-25.5 -105t-51.5 -69.5q-6 1 -28 6t-30 6.5t-31.5 5t-44.5 5t-56 2.5t-77 1q-66 0 -133 -5t-84 -5q-84 0 -84 135q-55 -85 -141.5 -118.5t-211.5 -33.5q-63 0 -114.5 11.5t-90 36t-68 55.5t-49.5 75.5t-33 91t-20 107.5t-9.5 118.5 t-2.5 130.5q0 42 -2.5 67t-13 59t-36.5 53t-68 24q-32 4 -41 16t-9 45zM319 1612q0 32 36 46.5t121 14.5q80 0 118.5 -19t72.5 -74q26 -42 109 -195t103 -188h-151q-69 59 -167.5 155t-133.5 134q-19 20 -51.5 51t-44.5 46t-12 29z" />
<glyph unicode="&#xfa;" horiz-adv-x="1639" d="M40 863q0 69 17 140.5t47 90.5q140 -27 306 -27q57 0 130.5 7t92.5 7q45 0 59 -17t14 -71q0 -4 -3 -72.5t-5.5 -159.5t-2.5 -147q0 -84 0.5 -123.5t4.5 -94t12.5 -78t23 -49t38 -34t56.5 -8.5q27 0 48 9t35.5 23.5t24.5 41.5t15.5 54t8.5 70t4 80.5t1 93.5q0 34 -1 53 t-8.5 50t-21 48.5t-41 33t-67.5 19.5q-32 3 -41 15t-9 45q0 69 17 140.5t47 90.5q157 -27 335 -27q55 0 125.5 7t88.5 7q44 0 55.5 -16t11.5 -72q0 -3 -1.5 -73t-3 -166t-1.5 -163q0 -60 0.5 -91.5t5 -75t13 -66.5t25 -42.5t40.5 -25.5q2 0 12.5 -1t17.5 -3.5t16 -9 t13.5 -22.5t4.5 -39q0 -21 -5 -66.5t-25.5 -105t-51.5 -69.5q-6 1 -28 6t-30 6.5t-31.5 5t-44.5 5t-56 2.5t-77 1q-66 0 -133 -5t-84 -5q-84 0 -84 135q-55 -85 -141.5 -118.5t-211.5 -33.5q-63 0 -114.5 11.5t-90 36t-68 55.5t-49.5 75.5t-33 91t-20 107.5t-9.5 118.5 t-2.5 130.5q0 42 -2.5 67t-13 59t-36.5 53t-68 24q-32 4 -41 16t-9 45zM618 1197q143 210 252 383q34 54 68.5 73.5t103.5 19.5q80 0 113 -14.5t33 -46.5q0 -14 -13.5 -29t-48.5 -46t-56 -51q-35 -34 -148.5 -131.5t-191.5 -157.5h-112z" />
<glyph unicode="&#xfb;" horiz-adv-x="1639" d="M40 863q0 69 17 140.5t47 90.5q140 -27 306 -27q57 0 130.5 7t92.5 7q45 0 59 -17t14 -71q0 -4 -3 -72.5t-5.5 -159.5t-2.5 -147q0 -84 0.5 -123.5t4.5 -94t12.5 -78t23 -49t38 -34t56.5 -8.5q27 0 48 9t35.5 23.5t24.5 41.5t15.5 54t8.5 70t4 80.5t1 93.5q0 34 -1 53 t-8.5 50t-21 48.5t-41 33t-67.5 19.5q-32 3 -41 15t-9 45q0 69 17 140.5t47 90.5q157 -27 335 -27q55 0 125.5 7t88.5 7q44 0 55.5 -16t11.5 -72q0 -3 -1.5 -73t-3 -166t-1.5 -163q0 -60 0.5 -91.5t5 -75t13 -66.5t25 -42.5t40.5 -25.5q2 0 12.5 -1t17.5 -3.5t16 -9 t13.5 -22.5t4.5 -39q0 -21 -5 -66.5t-25.5 -105t-51.5 -69.5q-6 1 -28 6t-30 6.5t-31.5 5t-44.5 5t-56 2.5t-77 1q-66 0 -133 -5t-84 -5q-84 0 -84 135q-55 -85 -141.5 -118.5t-211.5 -33.5q-63 0 -114.5 11.5t-90 36t-68 55.5t-49.5 75.5t-33 91t-20 107.5t-9.5 118.5 t-2.5 130.5q0 42 -2.5 67t-13 59t-36.5 53t-68 24q-32 4 -41 16t-9 45zM353 1258q0 9 4 18.5t13 22t18 23t25.5 29.5t27.5 33q27 33 120.5 130.5t160.5 158.5h150q67 -61 160.5 -158.5t120.5 -130.5q11 -14 27.5 -33t25.5 -29.5t18 -23t13 -22t4 -18.5q0 -32 -31.5 -46.5 t-105.5 -14.5q-58 0 -86.5 15.5t-69.5 57.5l-151 191l-151 -191q-41 -42 -69.5 -57.5t-86.5 -15.5q-74 0 -105.5 14.5t-31.5 46.5z" />
<glyph unicode="&#xfc;" horiz-adv-x="1639" d="M40 863q0 69 17 140.5t47 90.5q140 -27 306 -27q57 0 130.5 7t92.5 7q45 0 59 -17t14 -71q0 -4 -3 -72.5t-5.5 -159.5t-2.5 -147q0 -84 0.5 -123.5t4.5 -94t12.5 -78t23 -49t38 -34t56.5 -8.5q27 0 48 9t35.5 23.5t24.5 41.5t15.5 54t8.5 70t4 80.5t1 93.5q0 34 -1 53 t-8.5 50t-21 48.5t-41 33t-67.5 19.5q-32 3 -41 15t-9 45q0 69 17 140.5t47 90.5q157 -27 335 -27q55 0 125.5 7t88.5 7q44 0 55.5 -16t11.5 -72q0 -3 -1.5 -73t-3 -166t-1.5 -163q0 -60 0.5 -91.5t5 -75t13 -66.5t25 -42.5t40.5 -25.5q2 0 12.5 -1t17.5 -3.5t16 -9 t13.5 -22.5t4.5 -39q0 -21 -5 -66.5t-25.5 -105t-51.5 -69.5q-6 1 -28 6t-30 6.5t-31.5 5t-44.5 5t-56 2.5t-77 1q-66 0 -133 -5t-84 -5q-84 0 -84 135q-55 -85 -141.5 -118.5t-211.5 -33.5q-63 0 -114.5 11.5t-90 36t-68 55.5t-49.5 75.5t-33 91t-20 107.5t-9.5 118.5 t-2.5 130.5q0 42 -2.5 67t-13 59t-36.5 53t-68 24q-32 4 -41 16t-9 45zM306 1381q0 77 52 130t153 53q99 0 148.5 -53.5t49.5 -129.5t-49.5 -130t-148.5 -54q-101 0 -153 53.5t-52 130.5zM819 1381q0 77 52 130t153 53q99 0 148.5 -53.5t49.5 -129.5t-49.5 -130t-148.5 -54 q-101 0 -153 53.5t-52 130.5z" />
<glyph unicode="&#xfd;" horiz-adv-x="1422" d="M23 868q0 122 8 164t33 62q189 -27 317 -27q182 0 305 28q23 -8 32.5 -56.5t9.5 -167.5q0 -25 -11 -37t-25 -13.5t-25 -12t-11 -33.5q0 -2 13 -28l31.5 -63t37 -73.5t33.5 -65.5t17 -33q19 -37 31 -37t28 37q3 7 38 84.5t55.5 125.5t20.5 54q0 16 -15.5 25.5t-34 13 t-34 16.5t-15.5 37q0 212 65 227q149 -28 255 -28q87 0 168 27q1 1 6 1q11 0 17.5 -16.5t9 -52.5t3 -61.5t0.5 -73.5q0 -34 -7 -54t-17.5 -26.5t-25.5 -11t-30.5 -7.5t-32.5 -16.5t-30 -36.5q-43 -76 -87.5 -161t-101 -197.5t-80.5 -159.5q-142 -249 -203 -334 q-116 -164 -231 -206q-50 -19 -106 -19q-59 0 -124.5 21.5t-117 68t-51.5 105.5q0 44 15.5 81.5t49.5 37.5q126 -24 165 -24h52t38 8t32.5 16.5t31 36.5t38 56t49.5 87l-91 1q-225 389 -327 560q-26 43 -53.5 66.5t-47.5 28t-36.5 7.5t-25 13t-8.5 36zM627 1197 q143 210 252 383q34 54 68.5 73.5t103.5 19.5q80 0 113 -14.5t33 -46.5q0 -14 -13.5 -29t-48.5 -46t-56 -51q-35 -34 -148.5 -131.5t-191.5 -157.5h-112z" />
<glyph unicode="&#xfe;" horiz-adv-x="1474" d="M35 -183q0 33 9 45t41 15q40 4 67.5 19.5t41.5 33.5t21.5 48t8.5 50t1 53q0 71 -2 223.5t-2 224.5q0 76 2 244.5t2 247.5q0 33 -1 53t-8.5 50t-21.5 48t-41.5 33.5t-67.5 19.5q-32 3 -41 15t-9 45q0 69 17 140.5t47 90.5q162 -27 345 -27q52 0 119 6.5t84 6.5 q45 0 59 -16.5t14 -70.5q0 -4 -2.5 -74.5t-5 -161t-2.5 -141.5q114 57 241 57q94 0 180 -33.5t153 -94t106.5 -153.5t39.5 -205q0 -114 -33 -213t-91.5 -170.5t-135.5 -123t-167 -77t-185 -25.5q-57 0 -107 7q1 -58 3.5 -136t4 -128.5t1.5 -55.5q0 -54 -14 -70.5t-59 -16.5 q-17 0 -84 6.5t-119 6.5q-183 0 -345 -27q-30 19 -47 90.5t-17 140.5zM710 527q0 -44 0.5 -71t3 -71.5t8.5 -72.5t16 -57.5t26.5 -43.5t38.5 -14q93 0 93 357q0 65 -3 112.5t-12 100t-29.5 81t-52.5 28.5q-89 0 -89 -317v-32z" />
<glyph unicode="&#xff;" horiz-adv-x="1422" d="M23 868q0 122 8 164t33 62q189 -27 317 -27q182 0 305 28q23 -8 32.5 -56.5t9.5 -167.5q0 -25 -11 -37t-25 -13.5t-25 -12t-11 -33.5q0 -2 13 -28l31.5 -63t37 -73.5t33.5 -65.5t17 -33q19 -37 31 -37t28 37q3 7 38 84.5t55.5 125.5t20.5 54q0 16 -15.5 25.5t-34 13 t-34 16.5t-15.5 37q0 212 65 227q149 -28 255 -28q87 0 168 27q1 1 6 1q11 0 17.5 -16.5t9 -52.5t3 -61.5t0.5 -73.5q0 -34 -7 -54t-17.5 -26.5t-25.5 -11t-30.5 -7.5t-32.5 -16.5t-30 -36.5q-43 -76 -87.5 -161t-101 -197.5t-80.5 -159.5q-142 -249 -203 -334 q-116 -164 -231 -206q-50 -19 -106 -19q-59 0 -124.5 21.5t-117 68t-51.5 105.5q0 44 15.5 81.5t49.5 37.5q126 -24 165 -24h52t38 8t32.5 16.5t31 36.5t38 56t49.5 87l-91 1q-225 389 -327 560q-26 43 -53.5 66.5t-47.5 28t-36.5 7.5t-25 13t-8.5 36zM321 1381q0 77 52 130 t153 53q99 0 148.5 -53.5t49.5 -129.5t-49.5 -130t-148.5 -54q-101 0 -153 53.5t-52 130.5zM834 1381q0 77 52 130t153 53q99 0 148.5 -53.5t49.5 -129.5t-49.5 -130t-148.5 -54q-101 0 -153 53.5t-52 130.5z" />
<glyph unicode="&#x152;" horiz-adv-x="2401" d="M45 748q0 360 236.5 564t650.5 204q50 -3 144.5 -9t153 -9t141.5 -6t156 -3q455 0 661 27q34 -65 70 -185t36 -194q0 -29 -19.5 -50.5t-49.5 -32.5t-58 -16t-53 -5q-6 0 -27 25t-52.5 60.5t-70 71.5t-88.5 61t-98 25q-22 0 -33 -2.5t-24 -14t-19 -36.5t-10 -70.5 t-4 -115.5v-218q121 149 262 149q82 0 130 -56.5t48 -129.5q0 -80 -56 -134.5t-130 -54.5q-37 42 -86.5 69.5t-95.5 27.5q-50 0 -82 -49v-263q0 -184 43 -184h88q57 11 104 43.5t87 89t69.5 113.5t65.5 142q11 4 29 4q50 0 114 -24t82 -55q5 -10 5 -34q0 -97 -79 -346 q-16 -49 -42 -101.5t-46 -52.5q-182 27 -581 27q-121 0 -352 -13.5t-340 -13.5q-405 0 -642.5 204.5t-237.5 570.5zM778 733q0 -49 0.5 -78t2.5 -81.5t7.5 -87t13.5 -80t22.5 -75t34 -57t47.5 -41t62 -13.5q24 0 54.5 3.5t49.5 6.5l18 4v1029q-64 16 -122 16 q-54 0 -91.5 -37t-59 -110.5t-30.5 -170t-9 -228.5z" />
<glyph unicode="&#x153;" horiz-adv-x="2012" d="M50 530q0 260 176 412.5t473 152.5q209 0 351 -117q153 117 380 117q218 0 362 -117.5t160 -284.5q-23 -154 -373 -161q-101 -3 -251 -3q10 -116 76.5 -171.5t162.5 -55.5q90 0 182 29t162 77q34 -15 34 -59q0 -69 -27.5 -146.5t-56.5 -104.5q-131 -125 -424 -125 q-221 0 -380 126q-153 -126 -376 -126q-129 0 -242.5 37t-200.5 105.5t-137.5 175.5t-50.5 239zM605 529q0 -189 22.5 -277t86.5 -88q23 0 40.5 13t28 41t17.5 58.5t10 79.5t4 89t1 101q0 46 -0.5 75.5t-3.5 80t-9.5 83t-17.5 66.5t-29.5 51t-43.5 17q-66 0 -86 -89 t-20 -301zM1310 700q29 0 89 -1.5t93 -1.5q40 0 54.5 16.5t14.5 55.5q0 73 -30 112t-87 39q-82 0 -108 -51.5t-26 -168.5z" />
<glyph unicode="&#x178;" horiz-adv-x="1609" d="M-20 1335v14q0 49 11 101.5t31 52.5q172 -14 418 -14q174 0 370 14q14 0 33 -94.5t19 -149.5q0 -17 -12.5 -26t-28 -11t-28 -9t-12.5 -21q0 -20 18 -48l115 -178q123 183 142 212q8 12 8 22t-20 17.5t-39.5 20t-19.5 34.5v15q0 196 45 216q102 -14 265 -14q44 0 159 7 t147 7q28 0 28 -174v-34q0 -40 -16.5 -58t-45.5 -22t-61.5 -7.5t-72 -24t-69.5 -61.5q-43 -59 -101.5 -137.5t-84.5 -114.5t-52.5 -74.5t-40.5 -62.5v-128q0 -66 2.5 -111.5t10 -94.5t25 -75.5t43.5 -29.5q18 -3 27.5 -5.5t23 -9.5t19.5 -20t6 -32q0 -71 -17.5 -146.5 t-50.5 -93.5q-115 13 -371 13t-371 -13q-33 18 -50.5 93.5t-17.5 146.5q0 19 6 32t19.5 20t23 9.5t27.5 5.5q26 3 43.5 29.5t24.5 75.5t9.5 94t2.5 112v132l-134 183q-35 47 -60 78t-63.5 71.5t-80 67.5t-85.5 39q-12 3 -33.5 7.5t-29.5 7t-21.5 12t-18.5 24.5t-9.5 42 t-4.5 66zM354 1802q0 77 52 130t153 53q99 0 148.5 -53.5t49.5 -129.5t-49.5 -130t-148.5 -54q-101 0 -153 53.5t-52 130.5zM867 1802q0 77 52 130t153 53q99 0 148.5 -53.5t49.5 -129.5t-49.5 -130t-148.5 -54q-101 0 -153 53.5t-52 130.5z" />
<glyph unicode="&#x2c6;" horiz-adv-x="1057" d="M83 1210q0 9 4 18.5t13 22t18 23t25.5 29.5t27.5 33q27 33 120.5 130.5t160.5 158.5h150q67 -61 160.5 -158.5t120.5 -130.5q11 -14 27.5 -33t25.5 -29.5t18 -23t13 -22t4 -18.5q0 -32 -31.5 -46.5t-105.5 -14.5q-58 0 -86.5 15.5t-69.5 57.5l-151 191l-151 -191 q-41 -42 -69.5 -57.5t-86.5 -15.5q-74 0 -105.5 14.5t-31.5 46.5z" />
<glyph unicode="&#x2dc;" horiz-adv-x="1067" d="M94 1306q0 46 11.5 84.5t36.5 71t69.5 51t105.5 18.5q55 0 134 -27.5t144 -55.5t86 -28t35 11.5t14 32.5v69q0 1 16 2.5t44.5 3.5t53.5 2q60 0 97 -6q31 -80 31 -143q0 -100 -50.5 -161t-157.5 -61q-62 0 -145 30.5t-150 61t-90 30.5q-46 0 -46 -50l1 -64q-4 -15 -99 -15 q-123 0 -126 15q-15 68 -15 128z" />
<glyph unicode="&#x2000;" horiz-adv-x="1047" />
<glyph unicode="&#x2001;" horiz-adv-x="2094" />
<glyph unicode="&#x2002;" horiz-adv-x="1047" />
<glyph unicode="&#x2003;" horiz-adv-x="2094" />
<glyph unicode="&#x2004;" horiz-adv-x="698" />
<glyph unicode="&#x2005;" horiz-adv-x="523" />
<glyph unicode="&#x2006;" horiz-adv-x="349" />
<glyph unicode="&#x2007;" horiz-adv-x="349" />
<glyph unicode="&#x2008;" horiz-adv-x="261" />
<glyph unicode="&#x2009;" horiz-adv-x="418" />
<glyph unicode="&#x200a;" horiz-adv-x="116" />
<glyph unicode="&#x2010;" horiz-adv-x="963" d="M68 679q0 125 52 197.5t164 72.5q42 0 142.5 -10.5t158.5 -10.5q48 0 132 9t104 9q37 0 52.5 -9.5t15.5 -35.5q0 -44 -2.5 -79t-9.5 -75t-21 -70t-35 -55t-54 -38t-75 -13q-50 0 -159 7t-160 7q-147 0 -237 -18q-68 0 -68 112z" />
<glyph unicode="&#x2011;" horiz-adv-x="963" d="M68 679q0 125 52 197.5t164 72.5q42 0 142.5 -10.5t158.5 -10.5q48 0 132 9t104 9q37 0 52.5 -9.5t15.5 -35.5q0 -44 -2.5 -79t-9.5 -75t-21 -70t-35 -55t-54 -38t-75 -13q-50 0 -159 7t-160 7q-147 0 -237 -18q-68 0 -68 112z" />
<glyph unicode="&#x2012;" horiz-adv-x="963" d="M68 679q0 125 52 197.5t164 72.5q42 0 142.5 -10.5t158.5 -10.5q48 0 132 9t104 9q37 0 52.5 -9.5t15.5 -35.5q0 -44 -2.5 -79t-9.5 -75t-21 -70t-35 -55t-54 -38t-75 -13q-50 0 -159 7t-160 7q-147 0 -237 -18q-68 0 -68 112z" />
<glyph unicode="&#x2013;" horiz-adv-x="1168" d="M93 646q0 71 36 85q26 -2 143 -2q52 1 625 1q104 0 143 3q36 -14 36 -85q0 -95 -55 -95q-5 2 -62 3.5t-111 1.5l-54 1h-501q-138 -4 -145 -8q-55 0 -55 95z" />
<glyph unicode="&#x2014;" horiz-adv-x="1714" d="M93 646q0 71 36 85q26 -2 143 -2q52 1 1171 1q104 0 143 3q36 -14 36 -85q0 -95 -55 -95q-5 2 -62 3.5t-111 1.5l-54 1h-1047q-138 -4 -145 -8q-55 0 -55 95z" />
<glyph unicode="&#x2018;" horiz-adv-x="634" d="M73 1161q0 60 31 132.5t80.5 135t117.5 104.5t134 42q37 0 59.5 -17t22.5 -38q0 -18 -29 -47.5t-57.5 -62t-28.5 -57.5q0 -11 26 -22t56.5 -24.5t56.5 -54t26 -101.5q0 -102 -68 -165t-178 -63q-104 0 -176.5 69t-72.5 169z" />
<glyph unicode="&#x2019;" horiz-adv-x="637" d="M72 1347q0 102 68 165t178 63q104 0 176.5 -69t72.5 -169q0 -60 -31 -132.5t-80.5 -135t-117.5 -104.5t-134 -42q-37 0 -59.5 17t-22.5 38q0 18 29 47.5t57.5 62t28.5 57.5q0 11 -26 22t-56.5 24.5t-56.5 54t-26 101.5z" />
<glyph unicode="&#x201a;" horiz-adv-x="671" d="M92 181q0 102 68 165t178 63q104 0 176.5 -69t72.5 -169q0 -60 -31 -132.5t-80.5 -135t-117.5 -104.5t-134 -42q-38 0 -60 17t-22 38q0 18 29 47.5t57.5 62t28.5 57.5q0 11 -26 22t-56.5 24.5t-56.5 54t-26 101.5z" />
<glyph unicode="&#x201c;" horiz-adv-x="1183" d="M73 1161q0 60 31 132.5t80.5 135t117.5 104.5t134 42q37 0 59.5 -17t22.5 -38q0 -18 -29 -47.5t-57.5 -62t-28.5 -57.5q0 -11 26 -22t56.5 -24.5t56.5 -54t26 -101.5q0 -102 -68 -165t-178 -63q-104 0 -176.5 69t-72.5 169zM622 1161q0 60 31 132.5t80.5 135t117.5 104.5 t134 42q37 0 59.5 -17t22.5 -38q0 -14 -18 -36t-39.5 -41.5t-39.5 -44.5t-18 -45q0 -11 26 -22t56.5 -24.5t56.5 -54t26 -101.5q0 -102 -68 -165t-178 -63q-104 0 -176.5 69t-72.5 169z" />
<glyph unicode="&#x201d;" horiz-adv-x="1186" d="M72 1347q0 102 68 165t178 63q104 0 176.5 -69t72.5 -169q0 -60 -31 -132.5t-80.5 -135t-117.5 -104.5t-134 -42q-37 0 -59.5 17t-22.5 38q0 18 29 47.5t57.5 62t28.5 57.5q0 11 -26 22t-56.5 24.5t-56.5 54t-26 101.5zM621 1347q0 102 68 165t178 63q104 0 176.5 -69 t72.5 -169q0 -60 -31 -132.5t-80.5 -135t-117.5 -104.5t-134 -42q-37 0 -59.5 17t-22.5 38q0 14 18 36t39.5 41.5t39.5 44.5t18 45q0 11 -26 22t-56.5 24.5t-56.5 54t-26 101.5z" />
<glyph unicode="&#x201e;" horiz-adv-x="1220" d="M92 181q0 102 68 165t178 63q104 0 176.5 -69t72.5 -169q0 -60 -31 -132.5t-80.5 -135t-117.5 -104.5t-134 -42q-38 0 -60 17t-22 38q0 18 29 47.5t57.5 62t28.5 57.5q0 11 -26 22t-56.5 24.5t-56.5 54t-26 101.5zM641 181q0 102 68 165t178 63q104 0 176.5 -69 t72.5 -169q0 -60 -31 -132.5t-80.5 -135t-117.5 -104.5t-134 -42q-38 0 -60 17t-22 38q0 14 18 36t39.5 41.5t39.5 44.5t18 45q0 11 -26 22t-56.5 24.5t-56.5 54t-26 101.5z" />
<glyph unicode="&#x2022;" horiz-adv-x="939" d="M52 690q0 73 26.5 139t77.5 120t133.5 86t185.5 32q101 0 181.5 -31.5t129.5 -85t75 -119t26 -138.5q0 -74 -27 -143.5t-77.5 -125.5t-131.5 -90t-179 -34q-100 0 -181.5 33.5t-132.5 89t-78.5 124.5t-27.5 143z" />
<glyph unicode="&#x202f;" horiz-adv-x="418" />
<glyph unicode="&#x2039;" horiz-adv-x="848" d="M37 534q0 40 134.5 171.5t268.5 243.5l135 112q11 8 21 8q21 0 69.5 -43t90 -100t41.5 -91q0 -16 -13 -29q-248 -203 -318 -272q32 -31 114 -99t148 -121l66 -52q13 -13 13 -29q0 -34 -43.5 -91t-94.5 -100t-73 -43q-10 0 -21 8q-11 9 -30.5 25t-75.5 63.5t-106.5 91.5 t-113 101.5t-107 103t-75 85t-30.5 57.5z" />
<glyph unicode="&#x203a;" horiz-adv-x="853" d="M48 233q0 16 13 29q256 203 328 272q-31 31 -110.5 99t-143.5 121l-64 52q-13 13 -13 29q0 34 41.5 91t90 100t69.5 43q10 0 21 -8q11 -9 30.5 -25t75.5 -63.5t106.5 -91.5t113 -101.5t107 -103t75 -85t30.5 -57.5q0 -40 -134.5 -171.5t-269.5 -243.5l-134 -112 q-11 -8 -21 -8q-22 0 -73 43t-94.5 100t-43.5 91z" />
<glyph unicode="&#x205f;" horiz-adv-x="523" />
<glyph unicode="&#x20ac;" horiz-adv-x="1674" d="M50 711q0 71 36 85q30 -3 99 -3q0 47 8 101q-74 -4 -78 -6q-55 0 -55 95q0 71 36 85q26 -2 143 -2h1q40 96 107.5 176t163 142t227.5 96.5t288 34.5q261 0 424 -86t163 -233q0 -24 -1.5 -39.5t-8 -27t-11.5 -17t-21.5 -10t-27 -5.5t-38.5 -4q-97 -9 -105 -9 q-26 0 -41.5 12.5t-33.5 40.5q-40 48 -101.5 71.5t-125.5 23.5q-79 0 -146 -42.5t-105 -122.5h165q104 0 143 3q36 -14 36 -85q0 -95 -55 -95q-5 2 -62 3.5t-111 2.5h-54h-102q-1 -11 -1 -34q0 -35 3 -68h173q91 0 143 4q36 -14 36 -85q0 -95 -55 -95q-5 2 -61.5 3.5 t-110.5 2.5h-55h-27q50 -113 143 -175.5t207 -62.5q205 0 390 97q37 -67 37 -140q0 -72 -40 -138t-114.5 -118t-191.5 -83t-260 -31q-144 0 -268.5 34.5t-216.5 94.5t-162.5 143t-113.5 177.5t-62 199.5q-87 -2 -95 -6q-55 0 -55 95z" />
<glyph unicode="&#x2122;" horiz-adv-x="2185" d="M56 1287q0 29 6 71t15 90t10 53q117 -8 398 -8q273 0 385 8v-6q30 -127 30 -208q0 -12 -2 -17q-7 -10 -51.5 -21t-72.5 -11q-8 0 -10 1q-14 33 -22.5 52.5t-24.5 49t-31.5 44.5t-30.5 15q-21 0 -21 -39v-343q0 -162 45 -167q15 0 28 -9t13 -27q0 -41 -11 -84t-31 -53 q-84 15 -193 15t-196 -15q-20 10 -30.5 53.5t-10.5 83.5q0 13 6 20.5t12.5 9.5t18.5 5q49 0 49 168v343q0 39 -23 39q-7 0 -14.5 -3.5t-15 -10.5t-14.5 -14.5t-14.5 -19.5t-13 -21.5t-13 -24t-12 -23t-11.5 -23.5t-10 -21q-3 -1 -9 -1q-29 0 -73.5 11t-51.5 21q-3 15 -3 17z M941 793q0 26 54 30q29 2 46 25t22 53t5 74q0 5 -0.5 86t-0.5 193q0 32 -12.5 49.5t-30.5 22t-36 7.5t-30.5 11t-12.5 27q0 34 10.5 79.5t31.5 57.5q96 -14 218 -14q104 0 195 14q30 -7 30 -37q0 -6 -1 -19.5t-1 -20.5q0 -20 7 -38q42 -110 119 -274q67 172 90 301q1 7 1 29 t3 37.5t12 21.5q139 -15 226 -15q92 0 188 15q14 0 27.5 -43t13.5 -86q0 -28 -10 -37.5t-24.5 -10.5t-29 -6t-24.5 -34t-10 -85v-204q0 -146 46 -151q15 0 28 -9t13 -27q0 -40 -11 -83.5t-31 -53.5q-69 15 -172 15q-134 0 -221 -15q-20 10 -30.5 53.5t-10.5 83.5 q0 12 5.5 19.5t11.5 9.5t18 5q51 0 51 169v81q0 56 -7 59q-6 0 -11 -8q-82 -183 -153 -374l-21 -57q-36 -15 -62 -18q-17 2 -32 22q-26 50 -99.5 213t-103.5 212q-6 8 -11 8q-9 0 -9 -111v-41q0 -37 2 -63.5t8 -55t20 -44.5t35 -18q54 -4 54 -30q0 -34 -9 -69t-25 -43 q-54 12 -139 12q-110 0 -176 -12q-16 8 -25 43t-9 69z" />
<glyph unicode="&#x25fc;" horiz-adv-x="1095" d="M0 0v1095h1095v-1095h-1095z" />
</font>
</defs>
</svg>
