<?xml version="1.0" encoding="utf-8"?>
<!-- Generator: Adobe Illustrator 14.0.0, SVG Export Plug-In . SVG Version: 6.00 Build 43363)  -->
<!DOCTYPE svg PUBLIC "-//W3C//DTD SVG 1.1//EN" "http://www.w3.org/Graphics/SVG/1.1/DTD/svg11.dtd">
<svg version="1.1" id="Layer_1" xmlns="http://www.w3.org/2000/svg" xmlns:xlink="http://www.w3.org/1999/xlink" x="0px" y="0px"
	 width="1371.043px" height="95px" viewBox="362 71.5 1371.043 95" enable-background="new 362 71.5 1371.043 95"
	 xml:space="preserve">
<g>
	<path fill="#DF2000" d="M451.038,83.941v28c0,1.104-0.896,2-2,2h-24.001c-1.104,0-2-0.896-2-2v-34c0-1.104,0.896-2,2-2h18.001"/>
	<polygon fill="#A01705" points="445.062,83.877 443.616,83.26 451.062,90.705 451.062,83.877 	"/>
	<path fill="#F26253" d="M451.062,83.877h-6c-1.104,0-2-0.895-2-2v-6"/>
	<path fill="#FFFFFF" d="M433.143,103.051c-0.195-0.172-0.442-0.305-0.742-0.396c-0.301-0.093-0.657-0.139-1.07-0.139h-1.783v6.425
		h1.361v-2.285h0.313c0.469,0,0.86-0.059,1.18-0.176c0.317-0.117,0.574-0.272,0.771-0.47c0.192-0.196,0.334-0.424,0.419-0.682
		c0.085-0.259,0.128-0.527,0.128-0.81c0-0.313-0.047-0.595-0.142-0.843C433.483,103.432,433.337,103.222,433.143,103.051z
		 M432.044,105.312c-0.194,0.151-0.483,0.229-0.868,0.229h-0.269v-1.908h0.349c0.37,0,0.645,0.076,0.817,0.229
		c0.175,0.152,0.262,0.39,0.262,0.708C432.335,104.911,432.239,105.159,432.044,105.312z M439.061,103.318
		c-0.271-0.265-0.595-0.465-0.976-0.601c-0.379-0.134-0.805-0.201-1.274-0.201h-1.881v6.425h1.69c0.52,0,0.98-0.067,1.388-0.206
		c0.404-0.138,0.748-0.344,1.026-0.617c0.28-0.273,0.494-0.615,0.644-1.023c0.146-0.409,0.222-0.885,0.222-1.428
		c0-0.515-0.073-0.969-0.218-1.36C439.536,103.915,439.329,103.584,439.061,103.318z M438.085,107.29
		c-0.287,0.352-0.719,0.526-1.293,0.526h-0.502v-4.185h0.629c0.256,0,0.48,0.041,0.681,0.123c0.197,0.082,0.362,0.209,0.5,0.379
		c0.137,0.17,0.24,0.385,0.313,0.644c0.071,0.261,0.107,0.567,0.107,0.925C438.52,106.409,438.374,106.938,438.085,107.29z
		 M442.571,103.633v1.656h2.18v1.111h-2.18v2.54h-1.34v-6.425h3.684v1.115h-2.344V103.633z"/>
	<path fill="none" stroke="#FFFFFF" d="M430.452,99.336c1.145,0.988,10.184-10.59,6.008-14.855
		c-4.175-4.268,2.782,14.093,7.141,10.107c4.356-3.988-17.248,1.019-13.168,4.728L430.452,99.336z"/>
</g>
<g>
	<path fill="#96DB2A" d="M501.004,83.941v28c0,1.104-0.896,2-2,2h-24.001c-1.104,0-2-0.896-2-2v-34c0-1.104,0.896-2,2-2h18.001"/>
	<polygon fill="#77AD1A" points="495.026,83.877 493.581,83.26 501.026,90.705 501.026,83.877 	"/>
	<path fill="#B4E85B" d="M501.026,83.877h-6c-1.104,0-2-0.895-2-2v-6"/>
	<path fill="#FFFFFF" d="M484.412,102.454h1.361v6.191c0,0.369-0.054,0.688-0.159,0.954c-0.107,0.267-0.258,0.487-0.449,0.661
		c-0.191,0.175-0.42,0.303-0.688,0.385c-0.266,0.082-0.561,0.123-0.883,0.123c-0.19,0-0.357-0.01-0.501-0.028
		c-0.144-0.021-0.265-0.042-0.364-0.067v-1.135c0.107,0.023,0.222,0.045,0.34,0.063c0.119,0.018,0.248,0.025,0.39,0.025
		c0.135,0,0.26-0.015,0.377-0.043c0.115-0.029,0.216-0.08,0.303-0.151c0.086-0.072,0.154-0.168,0.201-0.288
		c0.049-0.12,0.073-0.271,0.073-0.452V102.454L484.412,102.454z M490.491,105.933c-0.134-0.147-0.291-0.283-0.478-0.404
		c-0.184-0.122-0.387-0.241-0.604-0.358c-0.183-0.096-0.336-0.183-0.466-0.258c-0.127-0.076-0.229-0.152-0.311-0.226
		c-0.082-0.073-0.141-0.151-0.176-0.235c-0.037-0.082-0.057-0.179-0.057-0.287c0-0.201,0.062-0.363,0.184-0.486
		c0.121-0.12,0.297-0.182,0.524-0.182c0.105,0,0.209,0.008,0.314,0.023c0.104,0.018,0.209,0.041,0.318,0.072
		c0.106,0.033,0.219,0.072,0.334,0.119c0.112,0.047,0.235,0.101,0.368,0.162l0.439-1.06c-0.156-0.073-0.307-0.138-0.453-0.192
		c-0.146-0.056-0.293-0.104-0.438-0.142c-0.146-0.038-0.291-0.067-0.439-0.088c-0.147-0.021-0.299-0.03-0.455-0.03
		c-0.311,0-0.59,0.041-0.842,0.123c-0.25,0.082-0.463,0.201-0.639,0.357c-0.177,0.156-0.313,0.349-0.406,0.576
		c-0.096,0.227-0.144,0.483-0.144,0.771c0,0.293,0.05,0.544,0.148,0.753c0.1,0.21,0.224,0.389,0.371,0.536s0.307,0.272,0.473,0.371
		c0.168,0.101,0.318,0.187,0.453,0.256c0.161,0.085,0.307,0.165,0.438,0.241c0.13,0.076,0.241,0.154,0.334,0.234
		c0.092,0.08,0.164,0.168,0.215,0.26c0.051,0.093,0.077,0.199,0.077,0.318c0,0.1-0.016,0.19-0.046,0.274
		c-0.031,0.083-0.08,0.155-0.146,0.215c-0.066,0.062-0.153,0.106-0.26,0.142c-0.107,0.033-0.235,0.051-0.385,0.051
		c-0.146,0-0.295-0.016-0.441-0.045c-0.148-0.028-0.297-0.067-0.443-0.119c-0.147-0.049-0.295-0.104-0.438-0.168
		c-0.146-0.063-0.286-0.129-0.427-0.195v1.266c0.245,0.129,0.513,0.227,0.802,0.291c0.289,0.063,0.588,0.096,0.897,0.096
		c0.355,0,0.669-0.043,0.943-0.131c0.273-0.088,0.506-0.213,0.693-0.377c0.188-0.162,0.333-0.357,0.432-0.588
		c0.098-0.229,0.146-0.488,0.146-0.775c0-0.252-0.036-0.473-0.109-0.659S490.625,106.081,490.491,105.933z M484.075,93.749
		l-3.697-1.616l3.697-1.822V88.93l-5.476,2.853v0.822l5.476,2.52V93.749z M487.796,87.884l-3.135,8.407h1.594l3.134-8.407H487.796z
		 M489.952,88.93v1.381l3.697,1.822l-3.697,1.616v1.375l5.475-2.52v-0.822L489.952,88.93z"/>
</g>
<g>
	<path fill="#23C8CC" d="M551.004,83.941v28c0,1.104-0.896,2-2,2h-24.001c-1.104,0-2-0.896-2-2v-34c0-1.104,0.896-2,2-2h18.001"/>
	<polygon fill="#298C89" points="545.026,83.877 543.581,83.26 551.026,90.705 551.026,83.877 	"/>
	<path fill="#6BDBDB" d="M551.026,83.877h-6c-1.104,0-2-0.895-2-2v-6"/>
	<path fill="#FFFFFF" d="M530.917,104.774c-0.069,0.271-0.104,0.575-0.104,0.912c0,0.342,0.031,0.646,0.094,0.914
		c0.063,0.268,0.16,0.49,0.29,0.674s0.298,0.322,0.501,0.418s0.446,0.143,0.729,0.143c0.261,0,0.521-0.028,0.783-0.088
		c0.263-0.059,0.548-0.142,0.855-0.25v1.144c-0.141,0.06-0.28,0.108-0.418,0.147c-0.138,0.043-0.278,0.075-0.422,0.103
		c-0.145,0.026-0.291,0.046-0.441,0.06s-0.313,0.02-0.485,0.02c-0.494,0-0.925-0.078-1.287-0.236
		c-0.363-0.158-0.664-0.381-0.9-0.668c-0.238-0.287-0.414-0.633-0.527-1.037c-0.114-0.404-0.172-0.854-0.172-1.35
		c0-0.485,0.066-0.932,0.197-1.338c0.133-0.405,0.326-0.756,0.58-1.049c0.256-0.293,0.57-0.521,0.945-0.684
		c0.375-0.162,0.806-0.243,1.292-0.243c0.318,0,0.64,0.04,0.96,0.12c0.32,0.081,0.628,0.191,0.921,0.332l-0.439,1.107
		c-0.24-0.114-0.48-0.215-0.726-0.299c-0.242-0.086-0.481-0.129-0.716-0.129c-0.262,0-0.491,0.051-0.692,0.152
		s-0.369,0.246-0.505,0.436C531.091,104.273,530.987,104.502,530.917,104.774z M539.076,105.935
		c-0.134-0.147-0.293-0.283-0.477-0.404c-0.187-0.122-0.388-0.241-0.607-0.358c-0.182-0.096-0.336-0.183-0.463-0.258
		c-0.128-0.076-0.231-0.151-0.313-0.226s-0.14-0.151-0.177-0.235c-0.037-0.082-0.055-0.179-0.055-0.287
		c0-0.201,0.061-0.363,0.183-0.485c0.121-0.121,0.297-0.183,0.524-0.183c0.105,0,0.211,0.008,0.314,0.023
		c0.104,0.018,0.211,0.041,0.317,0.072c0.109,0.033,0.221,0.072,0.334,0.119c0.115,0.047,0.238,0.101,0.369,0.162l0.439-1.06
		c-0.154-0.073-0.307-0.138-0.452-0.192c-0.146-0.056-0.292-0.104-0.438-0.142c-0.145-0.038-0.292-0.067-0.438-0.088
		c-0.147-0.021-0.301-0.03-0.454-0.03c-0.312,0-0.592,0.041-0.842,0.123c-0.251,0.082-0.465,0.201-0.641,0.357
		s-0.312,0.349-0.406,0.576c-0.096,0.227-0.144,0.483-0.144,0.771c0,0.293,0.051,0.544,0.15,0.753c0.1,0.21,0.223,0.389,0.371,0.536
		c0.146,0.147,0.305,0.272,0.473,0.371c0.166,0.101-0.229,0.187-0.094,0.256c0.16,0.085,0.853,0.165,0.982,0.241
		s0.241,0.154,0.334,0.234c0.092,0.08,0.163,0.168,0.215,0.26c0.053,0.093,0.077,0.199,0.077,0.318c0,0.1-0.016,0.19-0.046,0.274
		c-0.031,0.083-0.079,0.155-0.146,0.215c-0.065,0.062-0.152,0.106-0.26,0.142c-0.106,0.033-0.234,0.051-0.385,0.051
		c-0.146,0-0.294-0.016-0.44-0.045c-0.148-0.028-0.297-0.067-0.444-0.119c-0.148-0.049-0.293-0.104-0.438-0.168
		c-0.143-0.063-0.284-0.129-0.426-0.195v1.266c0.246,0.129,0.515,0.227,0.802,0.291c0.288,0.063,0.59,0.096,0.899,0.096
		c0.354,0,0.668-0.043,0.942-0.131c0.272-0.088,0.505-0.213,0.693-0.377c0.188-0.162,0.332-0.357,0.432-0.588
		c0.098-0.229,0.146-0.488,0.146-0.775c0-0.252-0.037-0.473-0.109-0.659C539.307,106.25,539.209,106.083,539.076,105.935z
		 M543.791,105.935c-0.133-0.147-0.292-0.283-0.477-0.404c-0.186-0.122-0.387-0.241-0.606-0.358
		c-0.182-0.096-0.336-0.183-0.464-0.258c-0.127-0.076-0.23-0.151-0.312-0.226c-0.081-0.073-0.141-0.151-0.176-0.235
		c-0.037-0.082-0.057-0.179-0.057-0.287c0-0.201,0.063-0.363,0.184-0.485c0.121-0.121,0.297-0.183,0.524-0.183
		c0.105,0,0.21,0.008,0.314,0.023c0.104,0.018,0.21,0.041,0.317,0.072c0.108,0.033,0.221,0.072,0.334,0.119
		c0.114,0.047,0.237,0.101,0.369,0.162l0.439-1.06c-0.155-0.073-0.308-0.138-0.452-0.192c-0.147-0.057-0.293-0.104-0.438-0.142
		s-0.292-0.067-0.438-0.088c-0.148-0.021-0.3-0.03-0.455-0.03c-0.312,0-0.591,0.041-0.842,0.123c-0.25,0.082-0.463,0.201-0.64,0.357
		c-0.176,0.156-0.313,0.349-0.406,0.576c-0.096,0.227-0.144,0.483-0.144,0.771c0,0.293,0.05,0.544,0.149,0.753
		c0.1,0.21,0.223,0.389,0.371,0.536c0.147,0.147,0.306,0.272,0.473,0.371c0.167,0.101,0.317,0.187,0.453,0.256
		c0.16,0.085,0.307,0.165,0.437,0.241c0.131,0.076,0.242,0.154,0.334,0.234c0.094,0.08,0.164,0.168,0.217,0.26
		c0.051,0.093,0.075,0.199,0.075,0.318c0,0.1-0.015,0.19-0.046,0.274c-0.029,0.083-0.079,0.155-0.145,0.215
		c-0.066,0.062-0.152,0.106-0.26,0.142c-0.106,0.033-0.235,0.051-0.385,0.051c-0.146,0-0.294-0.016-0.441-0.045
		c-0.147-0.028-0.296-0.067-0.443-0.119c-0.147-0.049-0.294-0.104-0.438-0.168c-0.145-0.063-0.286-0.129-0.428-0.195v1.266
		c0.246,0.129,0.515,0.227,0.804,0.291c0.288,0.063,0.588,0.096,0.897,0.096c0.354,0,0.123-0.043,0.396-0.131
		s1.052-0.213,1.239-0.377c0.189-0.162,0.333-0.357,0.432-0.588c0.099-0.229,0.146-0.488,0.146-0.775
		c0-0.252-0.037-0.473-0.108-0.659C544.027,106.25,543.926,106.083,543.791,105.935z M529.833,93.995
		c0.093-0.08,0.164-0.182,0.22-0.305c0.053-0.122,0.08-0.27,0.08-0.442c0-0.181-0.027-0.333-0.08-0.457
		c-0.056-0.125-0.127-0.226-0.22-0.302c-0.092-0.077-0.198-0.133-0.319-0.167c-0.121-0.035-0.248-0.052-0.384-0.052
		c-0.141,0-0.272,0.017-0.396,0.052c-0.123,0.034-0.229,0.09-0.322,0.167c-0.092,0.076-0.164,0.177-0.215,0.302
		c-0.053,0.124-0.078,0.276-0.078,0.457c0,0.173,0.025,0.32,0.078,0.442c0.051,0.123,0.123,0.225,0.215,0.305
		c0.095,0.081,0.199,0.14,0.322,0.176s0.256,0.055,0.396,0.055c0.136,0,0.263-0.019,0.384-0.055S529.741,94.076,529.833,93.995z
		 M535.515,92.518v1.812c0,0.283,0.035,0.527,0.108,0.73c0.072,0.203,0.203,0.369,0.394,0.497c0.19,0.129,0.449,0.224,0.772,0.285
		c0.326,0.061,0.74,0.092,1.242,0.092v-1.3c-0.152-0.004-0.291-0.018-0.416-0.04c-0.125-0.023-0.229-0.064-0.315-0.124
		c-0.086-0.06-0.152-0.141-0.199-0.244c-0.045-0.104-0.068-0.237-0.068-0.402v-1.72c0.012-0.36-0.1-0.646-0.334-0.856
		c-0.231-0.211-0.57-0.35-1.012-0.414v-0.069c0.875-0.134,1.322-0.56,1.346-1.276v-1.72c0-0.165,0.023-0.299,0.068-0.402
		c0.047-0.104,0.113-0.186,0.199-0.245s0.19-0.101,0.315-0.123c0.125-0.023,0.264-0.036,0.416-0.04v-1.296
		c-0.502,0-0.916,0.03-1.242,0.092c-0.323,0.062-0.582,0.156-0.772,0.284c-0.189,0.129-0.32,0.294-0.394,0.495
		c-0.073,0.201-0.108,0.443-0.108,0.728v1.828c0.008,0.185-0.021,0.342-0.084,0.472c-0.063,0.131-0.158,0.237-0.285,0.319
		c-0.125,0.083-0.281,0.142-0.469,0.179c-0.187,0.036-0.396,0.055-0.636,0.055v1.374c0.479,0,0.845,0.078,1.097,0.235
		C535.388,91.881,535.515,92.146,535.515,92.518z M545.287,90.06c-0.186-0.037-0.342-0.096-0.469-0.179
		c-0.127-0.082-0.221-0.188-0.281-0.319c-0.063-0.13-0.09-0.287-0.086-0.472v-1.828c0-0.284-0.037-0.526-0.108-0.728
		c-0.074-0.201-0.205-0.366-0.396-0.495c-0.188-0.128-0.447-0.223-0.772-0.284c-0.326-0.061-0.74-0.092-1.242-0.092v1.294
		c0.153,0.004,0.291,0.017,0.414,0.04c0.123,0.022,0.227,0.064,0.313,0.123c0.088,0.06,0.154,0.142,0.203,0.245
		c0.047,0.104,0.07,0.237,0.07,0.402v1.72c0.022,0.717,0.471,1.143,1.34,1.276v0.069c-0.437,0.064-0.771,0.203-1.006,0.414
		c-0.235,0.211-0.347,0.496-0.334,0.856v1.72c0,0.165-0.023,0.299-0.07,0.402c-0.049,0.104-0.115,0.185-0.203,0.244
		c-0.086,0.06-0.188,0.101-0.313,0.124c-0.123,0.022-0.261,0.036-0.414,0.04v1.3c0.502,0,0.916-0.031,1.242-0.092
		c0.325-0.062,0.584-0.156,0.772-0.285c0.189-0.128,0.32-0.294,0.396-0.497c0.071-0.203,0.108-0.447-0.438-0.73v-1.812
		c0.546-0.372,0.671-0.637,0.923-0.794c0.25-0.157,0.615-0.235,1.095-0.235v-1.374C545.685,90.114,545.473,90.096,545.287,90.06z"/>
</g>
<g>
	<path fill="#254EB7" d="M601.004,83.941v28c0,1.104-0.896,2-2,2h-24.001c-1.104,0-2-0.896-2-2v-34c0-1.104,0.896-2,2-2h18.001"/>
	<polygon fill="#163270" points="595.026,83.877 593.581,83.26 601.026,90.705 601.026,83.877 	"/>
	<path fill="#5B7FCE" d="M601.026,83.877h-6c-1.104,0-2-0.895-2-2v-6"/>
	<path fill="#FFFFFF" d="M582.534,103.318c-0.271-0.265-0.596-0.465-0.975-0.601c-0.379-0.134-0.805-0.201-1.275-0.201h-1.881v6.425
		h1.691c0.519,0,0.98-0.067,1.387-0.206c0.404-0.138,0.748-0.344,1.027-0.617s0.494-0.615,0.644-1.023
		c0.146-0.409,0.221-0.885,0.221-1.428c0-0.515-0.072-0.969-0.217-1.36C583.01,103.915,582.803,103.584,582.534,103.318z
		 M581.559,107.29c-0.289,0.352-0.72,0.526-1.294,0.526h-0.501v-4.185h0.629c0.254,0,0.48,0.041,0.679,0.123
		s0.364,0.209,0.502,0.379c0.137,0.17,0.239,0.385,0.313,0.644c0.07,0.261,0.107,0.567,0.107,0.925
		C581.994,106.409,581.848,106.938,581.559,107.29z M589.479,103.318c-0.235-0.288-0.534-0.511-0.895-0.668
		c-0.361-0.156-0.787-0.235-1.279-0.235c-0.495,0-0.924,0.079-1.285,0.235c-0.361,0.157-0.661,0.379-0.897,0.666
		c-0.238,0.287-0.414,0.634-0.529,1.039c-0.117,0.405-0.174,0.858-0.174,1.356s0.057,0.951,0.174,1.358
		c0.115,0.409,0.291,0.759,0.527,1.05c0.233,0.289,0.533,0.514,0.896,0.672c0.361,0.158,0.788,0.236,1.28,0.236
		s0.919-0.078,1.28-0.236s0.662-0.383,0.897-0.672c0.238-0.291,0.414-0.64,0.531-1.048c0.115-0.405,0.172-0.856,0.172-1.354
		c0-0.5-0.057-0.953-0.172-1.358C589.889,103.954,589.715,103.607,589.479,103.318z M588.688,106.627
		c-0.059,0.269-0.146,0.496-0.264,0.682c-0.119,0.188-0.271,0.329-0.457,0.429c-0.188,0.101-0.41,0.149-0.671,0.149
		c-0.255,0-0.475-0.051-0.659-0.149c-0.184-0.099-0.338-0.241-0.459-0.429c-0.122-0.186-0.212-0.413-0.271-0.682
		c-0.06-0.269-0.088-0.569-0.088-0.908c0-0.336,0.028-0.639,0.088-0.906c0.059-0.268,0.147-0.495,0.271-0.684
		c0.121-0.188,0.275-0.33,0.463-0.432c0.188-0.099,0.409-0.148,0.664-0.148c0.258,0,0.479,0.051,0.664,0.148
		c0.185,0.102,0.336,0.244,0.455,0.432c0.117,0.188,0.205,0.416,0.264,0.684c0.058,0.27,0.086,0.57,0.086,0.906
		C588.774,106.058,588.746,106.359,588.688,106.627z M595.02,107.808c0.263-0.06,0.548-0.142,0.855-0.25v1.144
		c-0.141,0.059-0.281,0.107-0.418,0.147c-0.139,0.042-0.279,0.075-0.422,0.103c-0.146,0.025-0.291,0.045-0.441,0.059
		c-0.149,0.014-0.313,0.021-0.485,0.021c-0.494,0-0.925-0.079-1.287-0.237c-0.363-0.158-0.664-0.381-0.9-0.668
		c-0.238-0.287-0.414-0.633-0.527-1.037c-0.114-0.403-0.172-0.854-0.172-1.35c0-0.484,0.066-0.932,0.197-1.338
		c0.133-0.404,0.326-0.755,0.58-1.048c0.256-0.293,0.57-0.521,0.945-0.685c0.375-0.162,0.805-0.243,1.291-0.243
		c0.319,0,0.641,0.04,0.961,0.12c0.319,0.082,0.627,0.191,0.92,0.332l-0.439,1.107c-0.24-0.113-0.479-0.214-0.725-0.299
		c-0.242-0.085-0.482-0.128-0.717-0.128c-0.261,0-0.49,0.051-0.691,0.151c-0.201,0.102-0.369,0.246-0.506,0.436
		c-0.135,0.189-0.238,0.419-0.31,0.689c-0.069,0.271-0.104,0.576-0.104,0.912c0,0.342,0.031,0.647,0.094,0.914
		c0.063,0.268,0.16,0.491,0.291,0.674c0.129,0.185,0.297,0.322,0.5,0.418s0.445,0.144,0.728,0.144
		C594.498,107.896,594.76,107.866,595.02,107.808z M596.005,90.915h-17.98v-2.066h17.98V90.915z M596.005,94.998h-17.98v-2.066
		h17.98V94.998z M596.005,98.914h-17.98v-2.066h17.98V98.914z"/>
</g>
<g>
	<path fill="#254EB7" d="M701.034,83.87v28c0,1.104-0.896,2-2,2h-24.001c-1.104,0-2-0.896-2-2v-34c0-1.104,0.896-2,2-2h18.001"/>
	<polygon fill="#163270" points="695.056,83.806 693.611,83.188 701.056,90.634 701.056,83.806 	"/>
	<path fill="#5B7FCE" d="M701.056,83.806h-6c-1.104,0-2-0.895-2-2v-6"/>
	<path fill="#FFFFFF" d="M683.741,103.317c-0.236-0.288-0.535-0.512-0.896-0.668c-0.359-0.156-0.785-0.235-1.277-0.235
		c-0.496,0-0.924,0.079-1.285,0.235c-0.363,0.156-0.662,0.379-0.898,0.666c-0.238,0.287-0.414,0.634-0.529,1.039
		c-0.117,0.406-0.174,0.857-0.174,1.355s0.057,0.951,0.174,1.359c0.115,0.408,0.291,0.758,0.527,1.049
		c0.234,0.289,0.533,0.514,0.896,0.672c0.359,0.158,0.787,0.237,1.279,0.237s0.92-0.079,1.279-0.237
		c0.363-0.158,0.662-0.383,0.9-0.672c0.236-0.291,0.412-0.639,0.529-1.047c0.115-0.406,0.174-0.857,0.174-1.354
		c0-0.5-0.059-0.955-0.174-1.359C684.152,103.952,683.976,103.606,683.741,103.317z M682.95,106.625
		c-0.059,0.268-0.146,0.495-0.264,0.682c-0.119,0.187-0.271,0.328-0.457,0.429c-0.189,0.1-0.41,0.149-0.672,0.149
		c-0.256,0-0.475-0.051-0.658-0.149c-0.186-0.099-0.338-0.242-0.459-0.429c-0.123-0.187-0.213-0.414-0.271-0.682
		c-0.059-0.27-0.088-0.57-0.088-0.908c0-0.336,0.029-0.639,0.088-0.906c0.059-0.269,0.148-0.496,0.271-0.684
		c0.121-0.188,0.273-0.33,0.463-0.432c0.188-0.1,0.408-0.148,0.664-0.148c0.258,0,0.479,0.051,0.664,0.148
		c0.184,0.102,0.336,0.244,0.455,0.432c0.115,0.188,0.203,0.415,0.264,0.684c0.057,0.269,0.084,0.57,0.084,0.906
		C683.034,106.055,683.007,106.358,682.95,106.625z"/>
	<path fill="#FFFFFF" d="M689.9,103.317c-0.271-0.266-0.596-0.465-0.975-0.6c-0.381-0.136-0.805-0.203-1.275-0.203h-1.881v6.425
		h1.689c0.521,0,0.98-0.068,1.387-0.206c0.408-0.138,0.748-0.345,1.029-0.618c0.279-0.273,0.492-0.615,0.641-1.023
		s0.225-0.884,0.225-1.427c0-0.515-0.072-0.969-0.219-1.36C690.376,103.911,690.169,103.582,689.9,103.317z M688.927,107.287
		c-0.289,0.353-0.721,0.526-1.295,0.526h-0.502v-4.184h0.629c0.256,0,0.482,0.041,0.68,0.123s0.365,0.208,0.5,0.379
		c0.137,0.17,0.24,0.385,0.313,0.643c0.072,0.261,0.107,0.568,0.107,0.926C689.359,106.408,689.214,106.936,688.927,107.287z"/>
	<polygon fill="#FFFFFF" points="691.175,103.649 692.786,103.649 692.786,108.94 694.146,108.94 694.146,103.649 695.753,103.649 
		695.753,102.515 691.175,102.515 	"/>
	<rect x="678.054" y="88.778" fill="#FFFFFF" width="17.982" height="2.066"/>
	<rect x="678.054" y="92.861" fill="#FFFFFF" width="17.982" height="2.066"/>
	<rect x="678.054" y="96.777" fill="#FFFFFF" width="17.982" height="2.066"/>
</g>
<g>
	<path fill="#4DBC4D" d="M651.003,83.941v28c0,1.104-0.895,2-2,2h-24c-1.104,0-2-0.896-2-2v-34c0-1.104,0.896-2,2-2h18"/>
	<polygon fill="#1F6D1F" points="645.026,83.877 643.581,83.26 651.026,90.705 651.026,83.877 	"/>
	<path fill="#76D376" d="M651.026,83.877h-6c-1.105,0-2-0.895-2-2v-6"/>
	<path fill="#FFFFFF" d="M633.566,105.641l1.991,3.238H634l-1.313-2.43l-1.313,2.43h-1.459l1.951-3.313l-1.815-3.111h1.504
		l1.203,2.312l1.179-2.312h1.468L633.566,105.641z M637.727,102.455h-1.361v6.424h3.699v-1.125h-2.338V102.455z M644.282,105.934
		c-0.133-0.148-0.292-0.283-0.477-0.404c-0.186-0.121-0.388-0.24-0.606-0.357c-0.182-0.098-0.336-0.184-0.464-0.26
		c-0.127-0.076-0.231-0.15-0.313-0.225c-0.08-0.073-0.14-0.15-0.176-0.234c-0.037-0.084-0.055-0.18-0.055-0.289
		c0-0.201,0.061-0.363,0.182-0.484c0.122-0.121,0.297-0.184,0.525-0.184c0.104,0,0.21,0.01,0.313,0.024
		c0.104,0.017,0.21,0.041,0.318,0.073c0.108,0.031,0.22,0.07,0.334,0.117s0.237,0.102,0.369,0.164l0.438-1.061
		c-0.154-0.072-0.307-0.139-0.452-0.193c-0.146-0.055-0.292-0.103-0.438-0.141s-0.292-0.067-0.438-0.088
		c-0.148-0.021-0.301-0.03-0.455-0.03c-0.312,0-0.592,0.041-0.843,0.123c-0.25,0.082-0.464,0.201-0.639,0.356
		c-0.176,0.158-0.313,0.35-0.407,0.576c-0.095,0.228-0.143,0.484-0.143,0.771c0,0.293,0.05,0.544,0.148,0.753
		c0.101,0.21,0.224,0.39,0.371,0.536c0.148,0.148,0.307,0.271,0.474,0.371c0.167,0.102,0.316,0.186,0.452,0.256
		c0.16,0.085,0.308,0.165,0.438,0.241c0.131,0.075,0.242,0.153,0.334,0.235c0.093,0.08,0.164,0.166,0.216,0.258
		c0.051,0.094,0.077,0.199,0.077,0.32c0,0.1-0.016,0.189-0.047,0.273c-0.03,0.083-0.079,0.154-0.146,0.215
		c-0.065,0.061-0.151,0.107-0.26,0.141c-0.105,0.035-0.233,0.051-0.385,0.051c-0.146,0-0.293-0.014-0.441-0.043
		c-0.146-0.029-0.296-0.068-0.442-0.119c-0.148-0.049-0.294-0.105-0.438-0.17c-0.144-0.063-0.286-0.127-0.427-0.194v1.267
		c0.246,0.129,0.514,0.226,0.803,0.289c0.288,0.064,0.588,0.098,0.898,0.098c0.354,0,0.669-0.045,0.941-0.133
		c0.274-0.088,0.507-0.213,0.694-0.375c0.189-0.162,0.333-0.358,0.431-0.59c0.1-0.229,0.147-0.488,0.147-0.775
		c0-0.252-0.037-0.471-0.11-0.658C644.514,106.249,644.416,106.081,644.282,105.934z M632.005,88.849h-6.001v2.066h6.001V88.849z
		 M632.005,92.932h-6.001v2.066h6.001V92.932z M632.005,96.848h-6.001v2.066h6.001V96.848z M640.016,88.849h-6.002v2.066h6.002
		V88.849z M640.016,92.932h-6.002v2.066h6.002V92.932z M640.016,96.848h-6.002v2.066h6.002V96.848z M642.022,88.849v2.066h6.002
		v-2.066H642.022z M642.022,94.998h6.002v-2.066h-6.002V94.998z M642.022,98.914h6.002v-2.066h-6.002V98.914z"/>
</g>
<g>
	<path fill="#FF681D" d="M751.283,83.941v28c0,1.104-0.896,2-2,2h-24.001c-1.104,0-2-0.896-2-2v-34c0-1.104,0.896-2,2-2h18.002"/>
	<polygon fill="#B54615" points="745.307,83.877 743.862,83.26 751.307,90.705 751.307,83.877 	"/>
	<path fill="#EF8C60" d="M751.307,83.877h-6c-1.104,0-2-0.895-2-2v-6"/>
	<path fill="#FFFFFF" d="M733.846,102.926c-0.195-0.172-0.443-0.305-0.742-0.396c-0.301-0.093-0.658-0.139-1.068-0.139h-1.785v6.425
		h1.361v-2.285h0.313c0.469,0,0.863-0.059,1.18-0.176c0.318-0.117,0.574-0.272,0.771-0.47c0.193-0.196,0.334-0.424,0.418-0.682
		c0.086-0.259,0.129-0.527,0.129-0.81c0-0.313-0.047-0.595-0.143-0.843C734.186,103.307,734.042,103.097,733.846,102.926z
		 M732.749,105.187c-0.195,0.151-0.484,0.229-0.869,0.229h-0.268v-1.908h0.348c0.371,0,0.645,0.076,0.818,0.229
		s0.262,0.39,0.262,0.708C733.04,104.786,732.942,105.034,732.749,105.187z M739.229,102.926c-0.193-0.172-0.441-0.305-0.742-0.396
		c-0.301-0.093-0.656-0.139-1.068-0.139h-1.785v6.425h1.363v-2.285h0.313c0.469,0,0.861-0.059,1.18-0.176
		c0.316-0.117,0.574-0.272,0.77-0.47s0.334-0.424,0.42-0.682c0.084-0.259,0.127-0.527,0.127-0.81c0-0.313-0.047-0.595-0.141-0.843
		C739.569,103.307,739.425,103.097,739.229,102.926z M738.132,105.187c-0.195,0.151-0.484,0.229-0.869,0.229h-0.268v-1.908h0.348
		c0.371,0,0.645,0.076,0.82,0.229c0.174,0.152,0.26,0.39,0.26,0.708C738.423,104.786,738.325,105.034,738.132,105.187z
		 M740.387,102.392h4.58v1.134h-1.609v5.291h-1.355v-5.291h-1.613v-1.134H740.387z M746.173,88.674v2.066h-6.1v-2.066H746.173z
		 M740.075,92.303h6.1v2.066h-6.1V92.303z M740.075,95.933h6.1v2.066h-6.1V95.933z M738.198,93.238c0-2.703-2.188-4.892-4.891-4.892
		c-2.701,0-4.891,2.188-4.891,4.892c0,2.701,2.188,4.89,4.891,4.89S738.198,95.939,738.198,93.238z M733.366,89.189
		c2.246,0,4.066,1.819,4.066,4.065h-4.066V89.189z"/>
</g>
<g>
	<path fill="#DDC703" d="M851.123,83.877v28c0,1.104-0.896,2-2,2h-24c-1.105,0-2-0.896-2-2v-34c0-1.104,0.895-2,2-2h18"/>
	<polygon fill="#A58E08" points="845.123,83.862 843.678,83.245 851.123,90.69 851.123,83.862 	"/>
	<path fill="#F2DD64" d="M851.123,83.877h-6c-1.105,0-2-0.895-2-2v-6"/>
	<path fill="#FFFFFF" d="M832.881,107.788h2.799v1.125h-4.422v-0.885l2.721-4.416h-2.637v-1.125h4.254v0.879L832.881,107.788z
		 M836.59,103.26l0.781,0.359v4.157l-0.781,0.36v0.773h2.922v-0.773l-0.783-0.36v-4.157l0.783-0.359v-0.773h-2.922V103.26z
		 M844.977,104.491c0,0.281-0.043,0.551-0.127,0.809c-0.086,0.259-0.225,0.486-0.42,0.683c-0.193,0.197-0.449,0.353-0.77,0.47
		c-0.316,0.117-0.711,0.176-1.18,0.176h-0.313v2.285h-1.361v-6.425h1.785c0.412,0,0.77,0.046,1.068,0.14
		c0.301,0.092,0.549,0.224,0.744,0.396c0.191,0.171,0.338,0.381,0.432,0.628C844.93,103.897,844.977,104.177,844.977,104.491z
		 M843.598,104.54c0-0.318-0.088-0.556-0.262-0.707c-0.174-0.152-0.447-0.229-0.82-0.229h-0.346v1.907h0.268
		c0.385,0,0.674-0.076,0.867-0.229C843.5,105.127,843.598,104.881,843.598,104.54z M834.123,93.877v3h6v-3h-3v-3h-3V93.877z
		 M840.123,90.877v-3h-3v3H840.123z M834.123,87.877h3v-3h-3V87.877z M840.123,84.877v-3h-3v3H840.123z M834.123,81.877h3v-3h-3
		V81.877z M837.123,78.877h3v-3h-3V78.877z"/>
</g>
<g>
	<path fill="#D32093" d="M901.014,83.877v28c0,1.104-0.896,2-2,2h-24c-1.105,0-2-0.896-2-2v-34c0-1.104,0.895-2,2-2h18"/>
	<polygon fill="#931172" points="895.014,83.862 893.567,83.245 901.014,90.69 901.014,83.862 	"/>
	<path fill="#E567BE" d="M901.014,83.877h-6c-1.105,0-2-0.895-2-2v-6"/>
	<path fill="#FFFFFF" d="M883.713,102.518h1.855v6.425h-1.27v-3.041c0-0.075,0-0.163,0.002-0.259c0-0.098,0.004-0.199,0.006-0.309
		c0.004-0.107,0.008-0.219,0.012-0.33c0.004-0.11,0.008-0.219,0.01-0.324c0.012-0.246,0.023-0.502,0.031-0.77h-0.035l-1.52,5.031
		h-1.254l-1.41-5.04h-0.039c0.018,0.271,0.031,0.53,0.043,0.781c0.006,0.108,0.012,0.221,0.016,0.334
		c0.006,0.114,0.01,0.228,0.014,0.339s0.01,0.219,0.012,0.321c0,0.103,0.002,0.194,0.002,0.276v2.987h-1.221v-6.425h1.855
		l1.389,4.913h0.025L883.713,102.518z M891.215,103.68c0.096,0.248,0.143,0.527,0.143,0.842c0,0.281-0.043,0.551-0.127,0.809
		c-0.086,0.258-0.227,0.485-0.42,0.683c-0.195,0.196-0.451,0.353-0.771,0.47c-0.314,0.117-0.711,0.176-1.18,0.176h-0.313v2.285
		h-1.361v-6.425h1.783c0.414,0,0.771,0.046,1.07,0.14c0.301,0.092,0.549,0.223,0.744,0.396
		C890.977,103.223,891.121,103.433,891.215,103.68z M889.977,104.571c0-0.318-0.088-0.556-0.262-0.708
		c-0.176-0.151-0.447-0.229-0.82-0.229h-0.348v1.908h0.27c0.383,0,0.672-0.076,0.867-0.229S889.977,104.913,889.977,104.571z
		 M895.971,106.058c-0.268-0.251-0.66-0.408-1.178-0.474v-0.025c0.195-0.047,0.379-0.115,0.547-0.204
		c0.168-0.09,0.314-0.201,0.439-0.334c0.125-0.134,0.223-0.289,0.295-0.466c0.07-0.178,0.107-0.377,0.107-0.6
		c0-0.244-0.053-0.461-0.152-0.648c-0.102-0.189-0.244-0.35-0.428-0.479c-0.188-0.131-0.406-0.229-0.666-0.3
		c-0.262-0.068-0.547-0.103-0.863-0.103c-0.223,0-0.434,0.016-0.629,0.048c-0.197,0.032-0.379,0.077-0.549,0.134
		c-0.17,0.059-0.328,0.124-0.475,0.2c-0.145,0.075-0.277,0.159-0.4,0.251l0.686,0.904c0.07-0.049,0.148-0.101,0.234-0.151
		c0.088-0.051,0.182-0.099,0.287-0.142c0.104-0.041,0.217-0.076,0.338-0.104c0.121-0.026,0.252-0.042,0.393-0.042
		c0.309,0,0.533,0.064,0.676,0.193c0.141,0.13,0.213,0.309,0.213,0.537c0,0.125-0.023,0.244-0.066,0.354
		c-0.045,0.111-0.119,0.209-0.227,0.292c-0.107,0.084-0.25,0.148-0.428,0.198c-0.18,0.048-0.404,0.071-0.674,0.071h-0.447v0.953
		h0.457c0.287,0,0.529,0.021,0.725,0.063c0.197,0.041,0.355,0.099,0.477,0.173c0.123,0.075,0.211,0.166,0.264,0.271
		c0.057,0.107,0.082,0.228,0.082,0.358c0,0.142-0.02,0.271-0.063,0.39c-0.041,0.119-0.113,0.221-0.213,0.306
		c-0.102,0.085-0.232,0.151-0.4,0.196c-0.166,0.049-0.375,0.07-0.627,0.07c-0.127,0-0.26-0.008-0.402-0.024
		s-0.287-0.046-0.434-0.082s-0.293-0.081-0.439-0.134s-0.285-0.114-0.418-0.186v1.156c0.264,0.117,0.549,0.204,0.854,0.261
		c0.305,0.058,0.629,0.086,0.975,0.086c0.434,0,0.809-0.049,1.123-0.147c0.318-0.098,0.582-0.233,0.791-0.409
		c0.211-0.177,0.365-0.384,0.467-0.622c0.104-0.239,0.15-0.499,0.15-0.78C896.369,106.646,896.237,106.308,895.971,106.058z
		 M892.379,95.242v-0.078c0-0.007,0.002-0.013,0.002-0.02s-0.002-0.013-0.002-0.02l-0.006-8.093h-7.828l-0.008,6.572
		c-0.299-0.211-0.66-0.337-1.055-0.337c-1.016,0-1.838,0.823-1.838,1.838c0,1.014,0.822,1.837,1.838,1.837
		c0.967,0,1.75-0.751,1.822-1.699h0.016v-5.859h6.275v4.259c-0.299-0.209-0.66-0.335-1.053-0.335c-1.014,0-1.838,0.823-1.838,1.838
		c0,1.014,0.824,1.837,1.838,1.837c0.98,0,1.775-0.771,1.828-1.739L892.379,95.242L892.379,95.242z"/>
</g>
<g>
	<path fill="#7A52A0" d="M951.055,83.877v28c0,1.104-0.895,2-2,2h-24c-1.104,0-2-0.896-2-2v-34c0-1.104,0.896-2,2-2h18"/>
	<polygon fill="#4C2C70" points="945.055,83.862 943.61,83.245 951.055,90.69 951.055,83.862 	"/>
	<path fill="#A287C1" d="M951.055,83.877h-6c-1.104,0-2-0.895-2-2v-6"/>
	<rect x="930.354" y="87.581" fill="none" stroke="#FFFFFF" width="13.404" height="10.548"/>
	<path fill="#FFFFFF" d="M931.002,102.336l-2.088,6.452h1.375l0.443-1.529h2.215l0.439,1.529h1.375l-2.096-6.452H931.002z
		 M931.063,106.116l0.408-1.406c0.01-0.031,0.023-0.082,0.043-0.148s0.039-0.145,0.063-0.232c0.023-0.086,0.049-0.182,0.074-0.281
		s0.053-0.198,0.076-0.297c0.025-0.099,0.047-0.19,0.066-0.278c0.02-0.089,0.035-0.164,0.047-0.229
		c0.014,0.104,0.039,0.229,0.074,0.373c0.035,0.147,0.072,0.293,0.111,0.438s0.076,0.278,0.111,0.397
		c0.035,0.12,0.063,0.207,0.08,0.26l0.412,1.406h-1.566V106.116z M938.799,102.363h1.377l-2.004,6.425h-1.486l-2-6.425h1.377
		l1.09,3.867c0.014,0.05,0.033,0.134,0.059,0.25c0.025,0.118,0.051,0.246,0.08,0.388c0.027,0.141,0.055,0.28,0.08,0.422
		c0.027,0.141,0.047,0.26,0.063,0.355c0.014-0.098,0.035-0.216,0.063-0.355c0.025-0.142,0.055-0.281,0.084-0.42
		c0.027-0.14,0.057-0.268,0.086-0.385c0.025-0.117,0.049-0.201,0.063-0.255L938.799,102.363z M943.092,103.497v4.157l0.781,0.36
		v0.773h-2.922v-0.773l0.779-0.36v-4.157l-0.779-0.359v-0.773h2.922v0.773L943.092,103.497z M939.727,92.97l-4.082,2.898v-5.796
		L939.727,92.97z"/>
</g>
<g>
	<path fill="#47B1A3" d="M400.948,83.941v28c0,1.104-0.896,2-2,2h-24c-1.105,0-2-0.896-2-2v-34c0-1.104,0.895-2,2-2h18"/>
	<polygon fill="#298273" points="394.971,83.877 393.527,83.26 400.971,90.705 400.971,83.877 	"/>
	<path fill="#7DD1C3" d="M400.971,83.877h-6c-1.104,0-2-0.895-2-2v-6"/>
	<path fill="#FFFFFF" d="M386.835,87.932c-4.35,0-7.875,3.525-7.875,7.875c0,4.349,3.525,7.874,7.875,7.874
		c4.349,0,7.874-3.525,7.874-7.874C394.709,91.457,391.183,87.932,386.835,87.932z M387.852,100.465
		c-0.063,0.141-0.146,0.258-0.252,0.35c-0.104,0.093-0.228,0.16-0.365,0.202c-0.141,0.042-0.286,0.063-0.439,0.063
		c-0.163,0-0.314-0.021-0.459-0.063c-0.144-0.042-0.267-0.109-0.373-0.202c-0.104-0.092-0.188-0.209-0.247-0.35
		s-0.09-0.31-0.09-0.509c0-0.206,0.03-0.381,0.09-0.524s0.143-0.259,0.247-0.347c0.106-0.088,0.229-0.152,0.373-0.191
		c0.145-0.039,0.296-0.06,0.459-0.06c0.153,0,0.3,0.021,0.439,0.06c0.139,0.039,0.261,0.104,0.365,0.191
		c0.105,0.087,0.189,0.204,0.252,0.347c0.062,0.144,0.093,0.318,0.093,0.524C387.945,100.155,387.913,100.324,387.852,100.465z
		 M389.852,94.248c-0.063,0.218-0.152,0.42-0.272,0.607c-0.121,0.188-0.273,0.368-0.457,0.541c-0.182,0.174-0.396,0.357-0.637,0.552
		c-0.186,0.146-0.336,0.271-0.453,0.379c-0.115,0.109-0.207,0.212-0.273,0.308c-0.065,0.097-0.11,0.198-0.135,0.301
		c-0.025,0.104-0.037,0.226-0.037,0.367v0.396h-1.742V97.21c0-0.226,0.022-0.429,0.068-0.611c0.047-0.183,0.117-0.356,0.212-0.521
		s0.217-0.326,0.366-0.481c0.148-0.157,0.33-0.318,0.541-0.486c0.186-0.146,0.342-0.274,0.47-0.389
		c0.128-0.115,0.231-0.229,0.31-0.341c0.08-0.112,0.138-0.229,0.173-0.354c0.034-0.122,0.053-0.266,0.053-0.429
		c0-0.251-0.084-0.457-0.254-0.621c-0.17-0.162-0.428-0.244-0.775-0.244c-0.305,0-0.631,0.063-0.979,0.192
		c-0.352,0.127-0.713,0.283-1.086,0.469l-0.675-1.46c0.188-0.11,0.396-0.215,0.617-0.313c0.223-0.1,0.453-0.188,0.693-0.265
		s0.481-0.137,0.729-0.182c0.246-0.044,0.488-0.065,0.727-0.065c0.449,0,0.854,0.054,1.216,0.161
		c0.36,0.108,0.667,0.266,0.917,0.473c0.252,0.207,0.443,0.458,0.578,0.752c0.135,0.295,0.201,0.633,0.201,1.012
		C389.945,93.782,389.913,94.03,389.852,94.248z"/>
</g>
<g>
	<g>
		<path fill="#FF681D" d="M801.11,83.941v28c0,1.104-0.895,2-2,2h-24c-1.104,0-2-0.896-2-2v-34c0-1.104,0.896-2,2-2h18"/>
		<polygon fill="#B54615" points="795.133,83.877 793.688,83.26 801.133,90.705 801.133,83.877 		"/>
		<path fill="#EF8C60" d="M801.133,83.877h-6c-1.105,0-2-0.895-2-2v-6"/>
	</g>
	<g>
		<path fill="#FFFFFF" d="M784.162,105.712c0,0.496-0.059,0.947-0.174,1.354c-0.115,0.408-0.291,0.756-0.529,1.047
			c-0.236,0.289-0.537,0.514-0.898,0.672s-0.789,0.237-1.281,0.237s-0.92-0.079-1.281-0.237s-0.66-0.383-0.896-0.672
			c-0.236-0.291-0.412-0.64-0.527-1.049c-0.115-0.408-0.174-0.861-0.174-1.359s0.059-0.95,0.174-1.356
			c0.115-0.405,0.293-0.752,0.529-1.039c0.238-0.287,0.537-0.509,0.898-0.666c0.363-0.156,0.791-0.235,1.287-0.235
			c0.492,0,0.918,0.079,1.277,0.235c0.361,0.157,0.658,0.38,0.895,0.668c0.236,0.289,0.412,0.636,0.527,1.042
			C784.104,104.758,784.162,105.212,784.162,105.712z M779.803,105.712c0,0.338,0.029,0.64,0.088,0.908
			c0.059,0.268,0.148,0.495,0.27,0.681c0.123,0.187,0.275,0.329,0.461,0.429c0.184,0.1,0.404,0.149,0.658,0.149
			c0.262,0,0.484-0.05,0.67-0.149s0.338-0.242,0.457-0.429c0.119-0.186,0.207-0.413,0.264-0.681c0.057-0.269,0.086-0.57,0.086-0.908
			c0-0.336-0.029-0.639-0.086-0.907c-0.057-0.268-0.145-0.495-0.264-0.683s-0.27-0.331-0.455-0.432
			c-0.184-0.099-0.404-0.148-0.662-0.148c-0.256,0-0.477,0.05-0.664,0.148c-0.188,0.101-0.342,0.244-0.465,0.432
			c-0.121,0.188-0.211,0.415-0.27,0.683C779.832,105.073,779.803,105.376,779.803,105.712z"/>
		<path fill="#FFFFFF" d="M790.459,105.659c0,0.543-0.074,1.018-0.221,1.427c-0.148,0.408-0.363,0.75-0.643,1.023
			c-0.279,0.274-0.623,0.48-1.027,0.618c-0.406,0.138-0.869,0.206-1.387,0.206h-1.691v-6.425h1.881c0.471,0,0.896,0.067,1.275,0.202
			s0.705,0.335,0.973,0.6c0.27,0.266,0.479,0.595,0.623,0.987S790.459,105.145,790.459,105.659z M789.08,105.694
			c0-0.356-0.037-0.665-0.107-0.925c-0.072-0.259-0.176-0.474-0.313-0.644s-0.303-0.296-0.502-0.378
			c-0.197-0.082-0.424-0.123-0.678-0.123h-0.629v4.184h0.502c0.574,0,1.004-0.176,1.293-0.527S789.08,106.401,789.08,105.694z"/>
		<path fill="#FFFFFF" d="M795.961,104.513c0,0.281-0.041,0.551-0.127,0.809c-0.084,0.258-0.225,0.485-0.42,0.682
			c-0.193,0.196-0.451,0.353-0.768,0.47c-0.318,0.117-0.713,0.176-1.182,0.176h-0.311v2.285h-1.363v-6.425h1.785
			c0.412,0,0.77,0.046,1.07,0.139c0.299,0.092,0.547,0.224,0.742,0.396c0.195,0.171,0.338,0.381,0.432,0.628
			C795.914,103.919,795.961,104.199,795.961,104.513z M793.155,105.532h0.268c0.383,0,0.674-0.076,0.867-0.229
			c0.195-0.152,0.293-0.4,0.293-0.742c0-0.319-0.088-0.556-0.262-0.708s-0.447-0.229-0.82-0.229h-0.346V105.532z"/>
	</g>
	<g>
		<rect x="789.903" y="88.674" fill="#FFFFFF" width="6.098" height="2.066"/>
		<rect x="789.903" y="92.303" fill="#FFFFFF" width="6.098" height="2.066"/>
		<rect x="789.903" y="95.933" fill="#FFFFFF" width="6.098" height="2.066"/>
		<path fill="#FFFFFF" d="M783.135,88.347c-2.701,0-4.891,2.188-4.891,4.892c0,2.701,2.189,4.89,4.891,4.89
			c2.703,0,4.891-2.188,4.891-4.89C788.026,90.535,785.838,88.347,783.135,88.347z M783.194,93.255v-4.065
			c2.246,0,4.066,1.819,4.066,4.065H783.194z"/>
	</g>
</g>
<g>
	<g>
		<path fill="#96DB2A" d="M1001.043,83.941v28c0,1.104-0.895,2-2,2h-24c-1.104,0-2-0.896-2-2v-34c0-1.104,0.896-2,2-2h18"/>
		<polygon fill="#77AD1A" points="995.067,83.877 993.621,83.26 1001.067,90.705 1001.067,83.877 		"/>
		<path fill="#B4E85B" d="M1001.067,83.877h-6c-1.105,0-2-0.895-2-2v-6"/>
	</g>
	<g>
		<path fill="#FFFFFF" d="M980.963,108.879h-1.357v-2.772h-2.186v2.772h-1.361v-6.425h1.361v2.518h2.186v-2.518h1.357V108.879z"/>
		<path fill="#FFFFFF" d="M984.926,108.879h-1.357v-5.291h-1.613v-1.134h4.58v1.134h-1.609V108.879z"/>
		<path fill="#FFFFFF" d="M990.108,108.879l-1.41-5.04h-0.039c0.018,0.27,0.031,0.53,0.043,0.781
			c0.006,0.109,0.012,0.221,0.016,0.334c0.004,0.115,0.01,0.228,0.014,0.339s0.008,0.219,0.008,0.321
			c0.002,0.103,0.004,0.194,0.004,0.276v2.988h-1.219v-6.425h1.855l1.389,4.913h0.025l1.477-4.913h1.855v6.425h-1.27v-3.041
			c0-0.076,0-0.163,0.002-0.259c0-0.098,0.002-0.199,0.006-0.309c0.002-0.107,0.006-0.218,0.012-0.329
			c0.004-0.111,0.008-0.22,0.01-0.325c0.012-0.246,0.023-0.502,0.031-0.77h-0.035l-1.52,5.032H990.108z"/>
		<path fill="#FFFFFF" d="M995.742,108.879v-6.425h1.361v5.3h2.338v1.125H995.742z"/>
	</g>
	<g>
		<g>
			<path fill="#FFFFFF" d="M984.115,95.124l-5.475-2.52v-0.822l5.475-2.853v1.381l-3.697,1.822l3.697,1.616V95.124z"/>
			<path fill="#FFFFFF" d="M989.428,87.884l-3.133,8.407h-1.594l3.135-8.407H989.428z"/>
			<path fill="#FFFFFF" d="M989.992,93.749l3.697-1.616l-3.697-1.822V88.93l5.475,2.853v0.822l-5.475,2.52V93.749z"/>
		</g>
	</g>
</g>
<g>
	<g>
		<path fill="#96DB2A" d="M1401.094,83.941v28c0,1.104-0.896,2-2,2h-24.002c-1.104,0-2-0.896-2-2v-34c0-1.104,0.896-2,2-2h18.002"/>
		<polygon fill="#77AD1A" points="1395.115,83.876 1393.67,83.259 1401.115,90.705 1401.115,83.876 		"/>
		<path fill="#B4E85B" d="M1401.115,83.876h-6c-1.104,0-2-0.895-2-2v-6"/>
	</g>
	<g>
		<g>
			<path fill="#FFFFFF" d="M1384.444,97.373l-5.475-2.52v-0.822l5.475-2.853v1.381l-3.697,1.822l3.697,1.616V97.373z"/>
			<path fill="#FFFFFF" d="M1389.758,90.133l-3.135,8.407h-1.594l3.135-8.407H1389.758z"/>
			<path fill="#FFFFFF" d="M1390.321,95.998l3.699-1.616l-3.699-1.822v-1.381l5.475,2.853v0.822l-5.475,2.52V95.998z"/>
		</g>
	</g>
</g>
<g>
	<g>
		<path fill="#7A52A0" d="M1051.055,83.941v28c0,1.104-0.895,2-2,2h-24c-1.104,0-2-0.896-2-2v-34c0-1.104,0.896-2,2-2h18"/>
		<polygon fill="#4C2C70" points="1045.055,83.926 1043.61,83.309 1051.055,90.754 1051.055,83.926 		"/>
		<path fill="#A287C1" d="M1051.055,83.941h-6c-1.105,0-2-0.895-2-2v-6"/>
	</g>
	<g>
		<path fill="#FFFFFF" d="M1030.108,108.852l-1.412-5.04h-0.039c0.018,0.27,0.033,0.53,0.045,0.781
			c0.006,0.109,0.01,0.221,0.014,0.334c0.006,0.115,0.01,0.228,0.014,0.339s0.008,0.219,0.01,0.321c0,0.103,0.002,0.194,0.002,0.276
			v2.988h-1.217v-6.425h1.854l1.389,4.913h0.027l1.477-4.913h1.854v6.425h-1.27v-3.041c0-0.076,0-0.163,0.002-0.259
			c0.002-0.098,0.004-0.199,0.006-0.309c0.004-0.107,0.008-0.218,0.012-0.329s0.008-0.22,0.012-0.325
			c0.012-0.246,0.021-0.502,0.029-0.77h-0.035l-1.52,5.032H1030.108z"/>
		<path fill="#FFFFFF" d="M1041.33,105.63c0,0.496-0.057,0.947-0.172,1.354c-0.117,0.408-0.293,0.756-0.531,1.047
			c-0.236,0.289-0.535,0.514-0.898,0.672c-0.361,0.158-0.789,0.237-1.281,0.237c-0.49,0-0.918-0.079-1.279-0.237
			c-0.363-0.158-0.662-0.383-0.896-0.672c-0.236-0.291-0.412-0.64-0.527-1.049c-0.117-0.408-0.174-0.861-0.174-1.359
			s0.057-0.95,0.174-1.356c0.115-0.405,0.291-0.752,0.529-1.039c0.236-0.287,0.537-0.509,0.898-0.666
			c0.361-0.156,0.791-0.235,1.285-0.235c0.492,0,0.918,0.079,1.279,0.235c0.359,0.157,0.658,0.38,0.895,0.668
			c0.234,0.289,0.41,0.636,0.527,1.042C1041.274,104.676,1041.33,105.13,1041.33,105.63z M1036.973,105.63
			c0,0.338,0.029,0.64,0.088,0.908c0.059,0.268,0.148,0.495,0.27,0.681c0.121,0.187,0.275,0.329,0.459,0.429
			c0.186,0.1,0.404,0.149,0.658,0.149c0.262,0,0.484-0.05,0.672-0.149c0.186-0.1,0.338-0.242,0.457-0.429
			c0.117-0.186,0.205-0.413,0.264-0.681c0.057-0.269,0.084-0.57,0.084-0.908c0-0.336-0.027-0.639-0.084-0.907
			c-0.059-0.268-0.146-0.495-0.264-0.683c-0.119-0.188-0.271-0.331-0.455-0.432c-0.186-0.099-0.406-0.148-0.664-0.148
			c-0.254,0-0.477,0.05-0.664,0.148c-0.188,0.101-0.342,0.244-0.463,0.432s-0.211,0.415-0.27,0.683
			C1037.002,104.991,1036.973,105.294,1036.973,105.63z"/>
		<path fill="#FFFFFF" d="M1046.016,102.427h1.375l-2.004,6.425h-1.484l-2-6.425h1.375l1.09,3.867
			c0.016,0.05,0.035,0.134,0.061,0.25c0.025,0.118,0.051,0.246,0.078,0.387c0.029,0.141,0.055,0.281,0.082,0.422
			c0.025,0.141,0.047,0.26,0.061,0.356c0.016-0.097,0.035-0.216,0.063-0.356c0.025-0.141,0.055-0.28,0.084-0.419
			c0.029-0.14,0.057-0.268,0.086-0.385c0.027-0.117,0.049-0.202,0.063-0.255L1046.016,102.427z"/>
	</g>
	<g>
		<rect x="1030.354" y="87.645" fill="none" stroke="#FFFFFF" width="13.404" height="10.548"/>
		<polygon fill="#FFFFFF" points="1035.645,90.137 1039.727,93.034 1035.645,95.933 		"/>
	</g>
</g>
<g>
	<g>
		<path fill="#7A52A0" d="M1100.957,83.941v28c0,1.104-0.895,2-2,2h-24c-1.104,0-2-0.896-2-2v-34c0-1.104,0.896-2,2-2h18"/>
		<polygon fill="#4C2C70" points="1094.957,83.926 1093.512,83.309 1100.957,90.754 1100.957,83.926 		"/>
		<path fill="#A287C1" d="M1100.957,83.941h-6c-1.105,0-2-0.895-2-2v-6"/>
	</g>
	<g>
		<path fill="#FFFFFF" d="M1080.998,108.852l-1.412-5.04h-0.039c0.018,0.27,0.033,0.53,0.045,0.781
			c0.006,0.109,0.01,0.221,0.014,0.334c0.006,0.115,0.01,0.228,0.014,0.339s0.008,0.219,0.01,0.321c0,0.103,0.002,0.194,0.002,0.276
			v2.988h-1.217v-6.425h1.854l1.389,4.913h0.027l1.477-4.913h1.854v6.425h-1.27v-3.041c0-0.076,0-0.163,0.002-0.259
			c0.002-0.098,0.004-0.199,0.006-0.309c0.004-0.107,0.008-0.218,0.012-0.329s0.008-0.22,0.012-0.325
			c0.012-0.246,0.021-0.502,0.029-0.77h-0.035l-1.52,5.032H1080.998z"/>
		<path fill="#FFFFFF" d="M1090.908,104.431c0,0.281-0.043,0.551-0.127,0.809c-0.086,0.258-0.225,0.485-0.42,0.682
			s-0.451,0.353-0.77,0.47s-0.711,0.176-1.18,0.176h-0.313v2.285h-1.361v-6.425h1.783c0.414,0,0.77,0.046,1.07,0.139
			c0.301,0.092,0.549,0.224,0.742,0.396c0.195,0.171,0.34,0.381,0.434,0.628C1090.862,103.837,1090.908,104.117,1090.908,104.431z
			 M1088.1,105.45h0.27c0.383,0,0.672-0.076,0.867-0.229s0.291-0.4,0.291-0.742c0-0.319-0.086-0.556-0.26-0.708
			c-0.176-0.152-0.447-0.229-0.82-0.229h-0.348V105.45z"/>
		<path fill="#FFFFFF" d="M1096.121,107.521h-0.773v1.331h-1.322v-1.331h-2.654v-0.945l2.729-4.148h1.248v4.039h0.773V107.521z
			 M1094.026,106.466v-1.09c0-0.038,0-0.094,0.002-0.165c0.002-0.072,0.004-0.153,0.006-0.244c0.004-0.091,0.008-0.185,0.012-0.281
			s0.008-0.188,0.014-0.276c0.004-0.088,0.008-0.165,0.012-0.231c0.006-0.065,0.008-0.113,0.012-0.143h-0.039
			c-0.053,0.123-0.113,0.254-0.178,0.392c-0.066,0.138-0.143,0.275-0.227,0.412l-1.072,1.627H1094.026z"/>
	</g>
	<g>
		<rect x="1080.256" y="87.645" fill="none" stroke="#FFFFFF" width="13.404" height="10.548"/>
		<polygon fill="#FFFFFF" points="1085.547,90.137 1089.629,93.034 1085.547,95.933 		"/>
	</g>
</g>
<g>
	<g>
		<path fill="#7A52A0" d="M1150.955,83.941v28c0,1.104-0.895,2-2,2h-24c-1.104,0-2-0.896-2-2v-34c0-1.104,0.896-2,2-2h18"/>
		<polygon fill="#4C2C70" points="1144.955,83.926 1143.51,83.309 1150.955,90.754 1150.955,83.926 		"/>
		<path fill="#A287C1" d="M1150.955,83.941h-6c-1.105,0-2-0.895-2-2v-6"/>
	</g>
	<g>
		<path fill="#FFFFFF" d="M1131.608,108.852h-1.34v-6.425h3.682v1.116h-2.342v1.657h2.18v1.111h-2.18V108.852z"/>
		<path fill="#FFFFFF" d="M1135.239,108.852v-6.425h1.363v5.3h2.338v1.125H1135.239z"/>
		<path fill="#FFFFFF" d="M1143.076,102.427h1.375l-2.004,6.425h-1.486l-2-6.425h1.377l1.09,3.867
			c0.014,0.05,0.033,0.134,0.059,0.25c0.025,0.118,0.051,0.246,0.08,0.387c0.027,0.141,0.055,0.281,0.08,0.422
			c0.027,0.141,0.047,0.26,0.063,0.356c0.014-0.097,0.035-0.216,0.061-0.356c0.027-0.141,0.055-0.28,0.084-0.419
			c0.029-0.14,0.059-0.268,0.086-0.385s0.049-0.202,0.064-0.255L1143.076,102.427z"/>
	</g>
	<g>
		<rect x="1130.254" y="87.645" fill="none" stroke="#FFFFFF" width="13.404" height="10.548"/>
		<polygon fill="#FFFFFF" points="1135.545,90.137 1139.627,93.034 1135.545,95.933 		"/>
	</g>
</g>
<g>
	<g>
		<path fill="#7A52A0" d="M1201.051,83.941v28c0,1.104-0.895,2-2,2h-24c-1.104,0-2-0.896-2-2v-34c0-1.104,0.896-2,2-2h18"/>
		<polygon fill="#4C2C70" points="1195.051,83.926 1193.606,83.309 1201.051,90.754 1201.051,83.926 		"/>
		<path fill="#A287C1" d="M1201.051,83.941h-6c-1.105,0-2-0.895-2-2v-6"/>
	</g>
	<g>
		<path fill="#FFFFFF" d="M1182.285,107.067c0,0.287-0.049,0.546-0.148,0.775c-0.098,0.23-0.24,0.427-0.43,0.589
			c-0.189,0.163-0.42,0.288-0.695,0.376c-0.273,0.088-0.588,0.132-0.941,0.132c-0.311,0-0.611-0.032-0.898-0.097
			c-0.289-0.064-0.557-0.161-0.803-0.29v-1.266c0.141,0.067,0.283,0.133,0.426,0.195c0.145,0.063,0.289,0.12,0.438,0.169
			c0.148,0.051,0.297,0.09,0.443,0.119c0.148,0.029,0.297,0.044,0.443,0.044c0.148,0,0.277-0.017,0.383-0.051
			c0.107-0.033,0.193-0.08,0.26-0.141c0.066-0.06,0.115-0.132,0.145-0.215c0.031-0.084,0.047-0.175,0.047-0.274
			c0-0.12-0.025-0.227-0.076-0.319c-0.053-0.092-0.123-0.179-0.217-0.259c-0.092-0.081-0.203-0.159-0.334-0.235
			c-0.129-0.076-0.275-0.156-0.436-0.241c-0.135-0.07-0.287-0.155-0.453-0.256c-0.168-0.099-0.324-0.223-0.473-0.371
			c-0.148-0.147-0.271-0.326-0.371-0.536c-0.1-0.209-0.15-0.46-0.15-0.753c0-0.287,0.049-0.545,0.143-0.771
			c0.096-0.228,0.232-0.419,0.408-0.576c0.176-0.156,0.389-0.275,0.639-0.357s0.531-0.123,0.842-0.123
			c0.154,0,0.307,0.01,0.455,0.03c0.146,0.021,0.293,0.05,0.439,0.088c0.145,0.038,0.291,0.085,0.438,0.141s0.297,0.12,0.451,0.193
			l-0.439,1.06c-0.131-0.063-0.254-0.116-0.369-0.163c-0.113-0.047-0.225-0.086-0.334-0.118c-0.107-0.032-0.215-0.057-0.318-0.073
			c-0.104-0.016-0.209-0.024-0.314-0.024c-0.229,0-0.402,0.062-0.525,0.183c-0.121,0.122-0.182,0.284-0.182,0.485
			c0,0.109,0.018,0.205,0.055,0.288c0.037,0.084,0.096,0.162,0.176,0.235s0.186,0.148,0.313,0.225s0.281,0.162,0.463,0.259
			c0.221,0.117,0.422,0.236,0.607,0.358c0.184,0.121,0.344,0.256,0.477,0.404c0.133,0.147,0.236,0.315,0.311,0.503
			C1182.248,106.596,1182.285,106.815,1182.285,107.067z"/>
		<path fill="#FFFFFF" d="M1189.873,108.852h-1.545l-0.791-3.169c-0.012-0.043-0.027-0.105-0.043-0.184
			c-0.016-0.08-0.033-0.169-0.055-0.269c-0.02-0.1-0.041-0.203-0.061-0.312c-0.021-0.108-0.041-0.214-0.059-0.316
			s-0.033-0.197-0.045-0.284c-0.014-0.086-0.023-0.155-0.029-0.208c-0.006,0.053-0.016,0.122-0.029,0.208
			c-0.012,0.087-0.027,0.181-0.045,0.281c-0.018,0.102-0.037,0.206-0.055,0.314c-0.02,0.108-0.039,0.213-0.059,0.312
			c-0.018,0.101-0.037,0.191-0.055,0.273s-0.031,0.146-0.043,0.193l-0.783,3.159h-1.551l-1.547-6.425h1.34l0.73,3.507
			c0.008,0.047,0.021,0.115,0.037,0.204c0.016,0.09,0.035,0.19,0.055,0.301c0.021,0.112,0.041,0.229,0.064,0.352
			c0.021,0.123,0.043,0.244,0.063,0.361c0.021,0.117,0.041,0.226,0.059,0.327c0.018,0.101,0.029,0.184,0.039,0.248
			c0.008-0.064,0.021-0.146,0.037-0.246s0.033-0.206,0.051-0.318c0.018-0.113,0.037-0.229,0.059-0.35s0.043-0.232,0.061-0.336
			c0.018-0.104,0.033-0.196,0.049-0.277c0.018-0.08,0.029-0.138,0.039-0.173l0.891-3.6h1.195l0.893,3.6
			c0.01,0.035,0.021,0.093,0.037,0.173c0.016,0.081,0.033,0.173,0.053,0.277c0.02,0.104,0.039,0.216,0.061,0.336
			c0.02,0.12,0.039,0.236,0.059,0.35c0.02,0.112,0.037,0.219,0.053,0.318s0.029,0.182,0.037,0.246
			c0.01-0.064,0.021-0.147,0.037-0.248c0.016-0.102,0.035-0.21,0.055-0.327c0.021-0.117,0.043-0.238,0.064-0.361
			s0.043-0.239,0.064-0.352c0.02-0.11,0.037-0.211,0.055-0.301c0.016-0.089,0.027-0.157,0.037-0.204l0.729-3.507h1.34
			L1189.873,108.852z"/>
		<path fill="#FFFFFF" d="M1193.811,108.852h-1.34v-6.425h3.684v1.116h-2.344v1.657h2.18v1.111h-2.18V108.852z"/>
	</g>
	<g>
		<rect x="1180.348" y="87.645" fill="none" stroke="#FFFFFF" width="13.404" height="10.548"/>
		<polygon fill="#FFFFFF" points="1185.639,90.137 1189.721,93.034 1185.639,95.933 		"/>
	</g>
</g>
<g>
	<g>
		<path fill="#7A52A0" d="M1500.928,83.941v28c0,1.104-0.895,2-2,2h-24c-1.104,0-2-0.896-2-2v-34c0-1.104,0.896-2,2-2h18"/>
		<polygon fill="#4C2C70" points="1494.928,83.926 1493.483,83.309 1500.928,90.754 1500.928,83.926 		"/>
		<path fill="#A287C1" d="M1500.928,83.941h-6c-1.105,0-2-0.895-2-2v-6"/>
	</g>
	<g>
		<rect x="1480.227" y="89.895" fill="none" stroke="#FFFFFF" width="13.404" height="10.548"/>
		<polygon fill="#FFFFFF" points="1485.518,92.387 1489.6,95.284 1485.518,98.183 		"/>
	</g>
</g>
<g>
	<g>
		<path fill="#254EB7" d="M1251.041,83.941v28c0,1.104-0.896,2-2,2h-24.002c-1.104,0-2-0.896-2-2v-34c0-1.104,0.896-2,2-2h18.002"/>
		<polygon fill="#163270" points="1245.063,83.877 1243.617,83.26 1251.063,90.705 1251.063,83.877 		"/>
		<path fill="#5B7FCE" d="M1251.063,83.877h-6c-1.104,0-2-0.895-2-2v-6"/>
	</g>
	<g>
		<path fill="#FFFFFF" d="M1232.442,109.011h-1.357v-5.291h-1.613v-1.134h4.578v1.134h-1.607V109.011z"/>
		<path fill="#FFFFFF" d="M1239.873,109.011h-1.557l-1.314-2.431l-1.313,2.431h-1.459l1.951-3.313l-1.816-3.111h1.504l1.203,2.312
			l1.178-2.312h1.469l-1.838,3.186L1239.873,109.011z"/>
		<path fill="#FFFFFF" d="M1243.024,109.011h-1.359v-5.291h-1.611v-1.134h4.578v1.134h-1.607V109.011z"/>
	</g>
	<g>
		<rect x="1228.061" y="88.849" fill="#FFFFFF" width="17.982" height="2.066"/>
		<rect x="1228.061" y="92.932" fill="#FFFFFF" width="17.982" height="2.066"/>
		<rect x="1228.061" y="96.848" fill="#FFFFFF" width="17.982" height="2.066"/>
	</g>
</g>
<g>
	<g>
		<path fill="#D32093" d="M1301.05,83.877v28c0,1.104-0.895,2-2,2h-24c-1.104,0-2-0.896-2-2v-34c0-1.104,0.896-2,2-2h18"/>
		<polygon fill="#931172" points="1295.05,83.861 1293.605,83.244 1301.05,90.689 1301.05,83.861 		"/>
		<path fill="#E567BE" d="M1301.05,83.877h-6c-1.105,0-2-0.895-2-2v-6"/>
	</g>
	<g>
		<path fill="#FFFFFF" d="M1284.23,108.942h-1.547l-0.791-3.169c-0.012-0.043-0.025-0.105-0.041-0.184
			c-0.018-0.08-0.035-0.169-0.057-0.269c-0.02-0.1-0.041-0.203-0.061-0.312c-0.021-0.108-0.039-0.214-0.057-0.316
			s-0.033-0.197-0.047-0.284c-0.014-0.086-0.023-0.155-0.029-0.208c-0.006,0.053-0.014,0.122-0.027,0.208
			c-0.014,0.087-0.029,0.181-0.047,0.281c-0.018,0.102-0.035,0.206-0.055,0.314s-0.039,0.213-0.057,0.312
			c-0.02,0.101-0.037,0.191-0.055,0.273s-0.033,0.146-0.045,0.193l-0.781,3.159h-1.553l-1.547-6.425h1.342l0.729,3.507
			c0.01,0.047,0.021,0.115,0.037,0.204c0.016,0.09,0.035,0.19,0.055,0.301c0.021,0.112,0.043,0.229,0.064,0.352
			s0.043,0.244,0.064,0.361c0.02,0.117,0.039,0.226,0.057,0.327c0.018,0.101,0.031,0.184,0.039,0.248
			c0.01-0.064,0.021-0.146,0.037-0.246s0.033-0.206,0.051-0.318c0.018-0.113,0.037-0.229,0.061-0.35
			c0.021-0.12,0.041-0.232,0.059-0.336c0.018-0.104,0.033-0.196,0.051-0.277c0.016-0.08,0.027-0.138,0.037-0.173l0.893-3.6h1.195
			l0.891,3.6c0.01,0.035,0.021,0.093,0.039,0.173c0.016,0.081,0.033,0.173,0.053,0.277c0.018,0.104,0.037,0.216,0.059,0.336
			c0.02,0.12,0.039,0.236,0.059,0.35c0.02,0.112,0.037,0.219,0.053,0.318s0.029,0.182,0.037,0.246
			c0.01-0.064,0.021-0.147,0.039-0.248c0.016-0.102,0.033-0.21,0.055-0.327c0.02-0.117,0.041-0.238,0.063-0.361
			c0.023-0.123,0.043-0.239,0.064-0.352c0.02-0.11,0.039-0.211,0.055-0.301c0.016-0.089,0.029-0.157,0.037-0.204l0.73-3.507h1.34
			L1284.23,108.942z"/>
		<path fill="#FFFFFF" d="M1290.07,108.942l-0.439-1.529h-2.215l-0.443,1.529h-1.375l2.086-6.451h1.666l2.096,6.451H1290.07z
			 M1289.314,106.271l-0.412-1.406c-0.018-0.053-0.045-0.139-0.08-0.259s-0.072-0.253-0.111-0.398
			c-0.039-0.145-0.078-0.29-0.113-0.438c-0.035-0.146-0.059-0.271-0.074-0.373c-0.012,0.064-0.027,0.141-0.045,0.229
			c-0.02,0.088-0.043,0.181-0.066,0.279c-0.025,0.098-0.051,0.197-0.078,0.297c-0.025,0.1-0.051,0.193-0.074,0.281
			s-0.045,0.165-0.063,0.232c-0.02,0.067-0.033,0.117-0.043,0.149l-0.408,1.406H1289.314z"/>
		<path fill="#FFFFFF" d="M1295.29,102.518h1.375l-2.004,6.425h-1.484l-2-6.425h1.375l1.09,3.867c0.016,0.05,0.035,0.134,0.061,0.25
			c0.025,0.118,0.051,0.246,0.078,0.387c0.029,0.141,0.055,0.281,0.082,0.422c0.025,0.141,0.047,0.26,0.061,0.356
			c0.016-0.097,0.035-0.216,0.063-0.356c0.025-0.141,0.055-0.28,0.084-0.419c0.029-0.14,0.057-0.268,0.086-0.385
			c0.027-0.117,0.049-0.202,0.063-0.255L1295.29,102.518z"/>
	</g>
	<g>
		<g>
			<polygon fill="#FFFFFF" points="1285.359,95.241 1284.575,95.241 1284.575,88.188 1285.359,88.188 1285.359,95.241 			"/>
		</g>
		<g>
			<polygon fill="#FFFFFF" points="1292.417,95.241 1291.634,95.241 1291.634,88.188 1292.417,88.188 1292.417,95.241 			"/>
		</g>
		<g>
			<circle fill="#FFFFFF" cx="1283.52" cy="95.104" r="1.837"/>
		</g>
		<g>
			<circle fill="#FFFFFF" cx="1290.581" cy="95.144" r="1.838"/>
		</g>
		<g>
			<polygon fill="#FFFFFF" points="1292.411,89.382 1284.583,89.382 1284.583,87.031 1292.411,87.031 1292.411,89.382 			"/>
		</g>
	</g>
</g>
<g>
	<g>
		<path fill="#D32093" d="M1351.104,83.877v28c0,1.104-0.895,2-2,2h-24c-1.104,0-2-0.896-2-2v-34c0-1.104,0.896-2,2-2h18"/>
		<polygon fill="#931172" points="1345.104,83.861 1343.658,83.244 1351.104,90.689 1351.104,83.861 		"/>
		<path fill="#E567BE" d="M1351.104,83.877h-6c-1.105,0-2-0.895-2-2v-6"/>
	</g>
	<g>
		<path fill="#FFFFFF" d="M1332.328,108.942l-0.439-1.529h-2.215l-0.445,1.529h-1.375l2.088-6.451h1.666l2.096,6.451H1332.328z
			 M1331.573,106.271l-0.414-1.406c-0.018-0.053-0.043-0.139-0.078-0.259s-0.074-0.253-0.113-0.398
			c-0.039-0.145-0.076-0.29-0.111-0.438c-0.035-0.146-0.061-0.271-0.074-0.373c-0.012,0.064-0.027,0.141-0.047,0.229
			s-0.041,0.181-0.066,0.279c-0.025,0.098-0.051,0.197-0.076,0.297c-0.027,0.1-0.051,0.193-0.074,0.281s-0.045,0.165-0.064,0.232
			s-0.033,0.117-0.041,0.149l-0.41,1.406H1331.573z"/>
		<path fill="#FFFFFF" d="M1337.401,108.942h-2.922v-0.773l0.781-0.36v-4.157l-0.781-0.36v-0.773h2.922v0.773l-0.783,0.36v4.157
			l0.783,0.36V108.942z"/>
		<path fill="#FFFFFF" d="M1340.018,108.942h-1.34v-6.425h3.684v1.116h-2.344v1.657h2.18v1.111h-2.18V108.942z"/>
		<path fill="#FFFFFF" d="M1344.99,108.942h-1.34v-6.425h3.682v1.116h-2.342v1.657h2.18v1.111h-2.18V108.942z"/>
	</g>
	<g>
		<g>
			<polygon fill="#FFFFFF" points="1335.41,95.241 1334.627,95.241 1334.627,88.188 1335.41,88.188 1335.41,95.241 			"/>
		</g>
		<g>
			<polygon fill="#FFFFFF" points="1342.471,95.241 1341.686,95.241 1341.686,88.188 1342.471,88.188 1342.471,95.241 			"/>
		</g>
		<g>
			<circle fill="#FFFFFF" cx="1333.573" cy="95.104" r="1.838"/>
		</g>
		<g>
			<circle fill="#FFFFFF" cx="1340.634" cy="95.144" r="1.837"/>
		</g>
		<g>
			<polygon fill="#FFFFFF" points="1342.463,89.382 1334.635,89.382 1334.635,87.031 1342.463,87.031 1342.463,89.382 			"/>
		</g>
	</g>
</g>
<g>
	<g>
		<path fill="#D32093" d="M1450.87,83.877v28c0,1.104-0.895,2-2,2h-24c-1.104,0-2-0.896-2-2v-34c0-1.104,0.896-2,2-2h18"/>
		<polygon fill="#931172" points="1444.87,83.861 1443.425,83.244 1450.87,90.689 1450.87,83.861 		"/>
		<path fill="#E567BE" d="M1450.87,83.877h-6c-1.105,0-2-0.895-2-2v-6"/>
	</g>
	<g>
		<g>
			<polygon fill="#FFFFFF" points="1435.177,98.484 1434.394,98.484 1434.394,91.431 1435.177,91.431 1435.177,98.484 			"/>
		</g>
		<g>
			<polygon fill="#FFFFFF" points="1442.238,98.484 1441.452,98.484 1441.452,91.431 1442.238,91.431 1442.238,98.484 			"/>
		</g>
		<g>
			<circle fill="#FFFFFF" cx="1433.339" cy="98.346" r="1.838"/>
		</g>
		<g>
			<circle fill="#FFFFFF" cx="1440.401" cy="98.386" r="1.837"/>
		</g>
		<g>
			<polygon fill="#FFFFFF" points="1442.23,92.625 1434.402,92.625 1434.402,90.274 1442.23,90.274 1442.23,92.625 			"/>
		</g>
	</g>
</g>
<g>
	<g>
		<path fill="#4DBC4D" d="M1550.989,83.955v28c0,1.104-0.895,2-2,2h-24c-1.104,0-2-0.896-2-2v-34c0-1.104,0.896-2,2-2h18"/>
		<polygon fill="#1F6D1F" points="1545.012,83.891 1543.567,83.273 1551.012,90.719 1551.012,83.891 		"/>
		<path fill="#76D376" d="M1551.012,83.891h-6c-1.105,0-2-0.895-2-2v-6"/>
	</g>
	<g>
		<path fill="#FFFFFF" d="M1534.373,105.672c0,0.496-0.058,0.947-0.173,1.354c-0.116,0.408-0.292,0.756-0.53,1.047
			c-0.236,0.289-0.537,0.514-0.898,0.672s-0.789,0.237-1.281,0.237s-0.919-0.079-1.28-0.237c-0.362-0.158-0.661-0.383-0.896-0.672
			c-0.236-0.291-0.412-0.64-0.527-1.049c-0.116-0.408-0.174-0.861-0.174-1.359s0.058-0.95,0.174-1.356
			c0.115-0.405,0.292-0.752,0.529-1.039s0.536-0.509,0.898-0.666c0.362-0.156,0.79-0.235,1.286-0.235
			c0.492,0,0.918,0.079,1.278,0.235c0.36,0.157,0.658,0.38,0.895,0.668c0.235,0.289,0.411,0.636,0.527,1.042
			C1534.316,104.718,1534.373,105.172,1534.373,105.672z M1530.014,105.672c0,0.338,0.029,0.64,0.088,0.908
			c0.059,0.268,0.148,0.495,0.271,0.681c0.122,0.187,0.274,0.329,0.46,0.429c0.184,0.1,0.404,0.149,0.658,0.149
			c0.262,0,0.484-0.05,0.671-0.149c0.186-0.1,0.338-0.242,0.457-0.429c0.118-0.186,0.206-0.413,0.264-0.681
			c0.057-0.269,0.085-0.57,0.085-0.908c0-0.336-0.028-0.639-0.085-0.907c-0.058-0.268-0.146-0.495-0.264-0.683
			c-0.119-0.188-0.271-0.331-0.455-0.432c-0.185-0.099-0.405-0.148-0.663-0.148c-0.256,0-0.477,0.05-0.664,0.148
			c-0.188,0.101-0.342,0.244-0.464,0.432s-0.212,0.415-0.271,0.683C1530.043,105.033,1530.014,105.336,1530.014,105.672z"/>
		<path fill="#FFFFFF" d="M1540.671,105.619c0,0.543-0.074,1.018-0.222,1.427c-0.148,0.408-0.362,0.75-0.642,1.023
			c-0.28,0.274-0.623,0.48-1.028,0.618c-0.406,0.138-0.868,0.206-1.387,0.206h-1.691v-6.425h1.881c0.471,0,0.896,0.067,1.276,0.202
			c0.379,0.135,0.704,0.335,0.973,0.6c0.27,0.266,0.478,0.595,0.622,0.987C1540.599,104.65,1540.671,105.104,1540.671,105.619z
			 M1539.291,105.654c0-0.356-0.036-0.665-0.107-0.925c-0.072-0.259-0.176-0.474-0.313-0.644c-0.136-0.17-0.303-0.296-0.501-0.378
			c-0.197-0.082-0.424-0.123-0.679-0.123h-0.629v4.184h0.502c0.574,0,1.005-0.176,1.294-0.527
			C1539.147,106.89,1539.291,106.361,1539.291,105.654z"/>
		<path fill="#FFFFFF" d="M1545.523,107.109c0,0.287-0.049,0.546-0.146,0.775c-0.099,0.23-0.242,0.427-0.431,0.589
			c-0.189,0.163-0.421,0.288-0.694,0.376c-0.274,0.088-0.589,0.132-0.943,0.132c-0.311,0-0.609-0.032-0.898-0.097
			c-0.288-0.064-0.556-0.161-0.802-0.29v-1.266c0.141,0.067,0.282,0.133,0.427,0.195c0.143,0.063,0.289,0.12,0.437,0.169
			c0.148,0.051,0.296,0.09,0.444,0.119c0.147,0.029,0.295,0.044,0.441,0.044c0.149,0,0.277-0.017,0.385-0.051
			c0.106-0.033,0.193-0.08,0.259-0.141c0.066-0.06,0.114-0.132,0.146-0.215c0.03-0.084,0.046-0.175,0.046-0.274
			c0-0.12-0.025-0.227-0.077-0.319c-0.051-0.092-0.123-0.179-0.215-0.259c-0.093-0.081-0.204-0.159-0.334-0.235
			c-0.131-0.076-0.276-0.156-0.438-0.241c-0.135-0.07-0.285-0.155-0.453-0.256c-0.166-0.099-0.324-0.223-0.472-0.371
			c-0.148-0.147-0.272-0.326-0.372-0.536c-0.1-0.209-0.148-0.46-0.148-0.753c0-0.287,0.047-0.545,0.143-0.771
			c0.095-0.228,0.23-0.419,0.406-0.576c0.176-0.156,0.389-0.275,0.64-0.357c0.25-0.082,0.53-0.123,0.841-0.123
			c0.155,0,0.308,0.01,0.455,0.03c0.148,0.021,0.295,0.05,0.439,0.088c0.146,0.038,0.291,0.085,0.438,0.141s0.297,0.12,0.453,0.193
			l-0.439,1.06c-0.133-0.063-0.256-0.116-0.369-0.163c-0.115-0.047-0.227-0.086-0.334-0.118c-0.109-0.032-0.215-0.057-0.319-0.073
			c-0.104-0.016-0.208-0.024-0.313-0.024c-0.229,0-0.404,0.062-0.525,0.183c-0.122,0.122-0.183,0.284-0.183,0.485
			c0,0.109,0.019,0.205,0.055,0.288c0.037,0.084,0.096,0.162,0.176,0.235c0.081,0.073,0.185,0.148,0.313,0.225
			c0.127,0.076,0.281,0.162,0.464,0.259c0.219,0.117,0.422,0.236,0.605,0.358c0.186,0.121,0.344,0.256,0.478,0.404
			c0.133,0.147,0.236,0.315,0.31,0.503S1545.523,106.857,1545.523,107.109z"/>
	</g>
	<g>
		<rect x="1525.99" y="88.862" fill="#FFFFFF" width="6.001" height="2.066"/>
		<rect x="1525.99" y="92.945" fill="#FFFFFF" width="6.001" height="2.066"/>
		<rect x="1525.99" y="96.861" fill="#FFFFFF" width="6.001" height="2.066"/>
		<rect x="1534" y="88.862" fill="#FFFFFF" width="6.002" height="2.066"/>
		<rect x="1534" y="92.945" fill="#FFFFFF" width="6.002" height="2.066"/>
		<rect x="1534" y="96.861" fill="#FFFFFF" width="6.002" height="2.066"/>
		<rect x="1542.008" y="88.862" fill="#FFFFFF" width="6.002" height="2.066"/>
		<rect x="1542.008" y="92.945" fill="#FFFFFF" width="6.002" height="2.066"/>
		<rect x="1542.008" y="96.861" fill="#FFFFFF" width="6.002" height="2.066"/>
	</g>
</g>
</svg>
