<?xml version="1.0" encoding="utf-8"?>
<!-- Generator: Adobe Illustrator 14.0.0, SVG Export Plug-In  -->
<!DOCTYPE svg PUBLIC "-//W3C//DTD SVG 1.1//EN" "http://www.w3.org/Graphics/SVG/1.1/DTD/svg11.dtd" [
	<!ENTITY ns_flows "http://ns.adobe.com/Flows/1.0/">
]>
<svg version="1.1"
	 xmlns="http://www.w3.org/2000/svg" xmlns:xlink="http://www.w3.org/1999/xlink" xmlns:a="http://ns.adobe.com/AdobeSVGViewerExtensions/3.0/"
	 x="0px" y="0px" width="129px" height="494px" viewBox="-36.741 -16.751 129 494" enable-background="new -36.741 -16.751 129 494"
	 xml:space="preserve">
<defs>
</defs>
<g>
	<g>
		<path fill-rule="evenodd" clip-rule="evenodd" fill="#FDE4DF" d="M27.178,8.473l-13.673,2.12l-1.891,13.444l22.697,22.698
			L49.875,31.17L27.178,8.473z M24.686,21.221c-0.985,0.985-2.582,0.985-3.566,0c-0.985-0.985-0.985-2.582,0-3.566
			c0.985-0.985,2.582-0.985,3.566,0S25.671,20.236,24.686,21.221z"/>
	</g>
	<g>
		<path fill="none" stroke="#4C4D57" stroke-width="2" stroke-linecap="round" stroke-linejoin="round" d="M27.178,8.473
			l-13.673,2.12l-1.891,13.444l22.697,22.698L49.875,31.17L27.178,8.473z M24.686,21.221c-0.985,0.985-2.582,0.985-3.566,0
			c-0.985-0.985-0.985-2.582,0-3.566c0.985-0.985,2.582-0.985,3.566,0S25.671,20.236,24.686,21.221z"/>
	</g>
</g>
<ellipse fill-rule="evenodd" clip-rule="evenodd" fill="#FFFFFF" cx="22.903" cy="11.965" rx="5.738" ry="5.115"/>
<g>
	<g>
		<path fill-rule="evenodd" clip-rule="evenodd" fill="#FDE4DF" d="M27.178,1L13.504,3.12l-1.891,13.444l22.697,22.698
			l15.563-15.564L27.178,1z M24.686,13.748c-0.985,0.985-2.582,0.985-3.566,0c-0.985-0.985-0.985-2.582,0-3.566
			c0.985-0.985,2.582-0.985,3.566,0S25.671,12.763,24.686,13.748z"/>
	</g>
	<g>
		<path fill="none" stroke="#4C4D57" stroke-width="2" stroke-linecap="round" stroke-linejoin="round" d="M27.178,1L13.504,3.12
			l-1.891,13.444l22.697,22.698l15.563-15.564L27.178,1z M24.686,13.748c-0.985,0.985-2.582,0.985-3.566,0
			c-0.985-0.985-0.985-2.582,0-3.566c0.985-0.985,2.582-0.985,3.566,0S25.671,12.763,24.686,13.748z"/>
	</g>
</g>
<polygon fill="#FFFFFF" points="19.952,177.439 31.025,164.222 38.756,158.875 45.053,150.159 42.107,131.143 45.581,124.619 
	40.529,129.133 31.271,128.314 26.042,124.699 29.352,131.361 26.354,140.832 24.113,140.004 15.229,163.579 16.814,170.869 
	18.562,168.857 "/>
<polygon fill="#E5DB1F" points="35.254,135.432 43.198,130.46 45.709,123.397 39.891,127.207 30.47,128.242 24.713,124.043 
	28.102,131.311 "/>
<path fill="#393B40" d="M44.33,124.271c0-0.573,0.463-1.032,1.03-1.032c0.569,0,1.03,0.459,1.03,1.032
	c0,0.565-0.461,1.028-1.03,1.028C44.792,125.298,44.33,124.836,44.33,124.271z"/>
<path fill="#393B40" d="M24.595,124.271c0-0.573,0.461-1.032,1.029-1.032c0.57,0,1.031,0.459,1.031,1.032
	c0,0.565-0.461,1.028-1.031,1.028C25.056,125.298,24.595,124.836,24.595,124.271z"/>
<path fill="#393B40" d="M39.037,139.387c0-0.569,0.459-1.032,1.028-1.032c0.569,0,1.029,0.463,1.029,1.032
	c0,0.565-0.459,1.028-1.029,1.028C39.496,140.415,39.037,139.952,39.037,139.387z"/>
<circle fill="#393B40" cx="42.124" cy="131.01" r="1.03"/>
<circle fill="#393B40" cx="29.131" cy="130.9" r="1.029"/>
<circle fill="#393B40" cx="22.863" cy="163.869" r="1.029"/>
<circle fill="#393B40" cx="19.73" cy="177.086" r="1.029"/>
<circle fill="#393B40" cx="16.593" cy="170.217" r="1.031"/>
<circle fill="#393B40" cx="45.451" cy="150.001" r="1.03"/>
<circle fill="#393B40" cx="38.756" cy="158.875" r="1.029"/>
<path fill="#393B40" d="M37.085,147.032c0-0.573,0.461-1.032,1.03-1.032c0.568,0,1.03,0.459,1.03,1.032
	c0,0.565-0.462,1.028-1.03,1.028C37.546,148.06,37.085,147.598,37.085,147.032z"/>
<path fill="#393B40" d="M22.861,139.655c0-0.569,0.462-1.032,1.03-1.032c0.568,0,1.031,0.462,1.031,1.032
	c0,0.566-0.462,1.028-1.031,1.028C23.324,140.683,22.861,140.221,22.861,139.655z"/>
<circle fill="#393B40" cx="26.739" cy="141.175" r="1.03"/>
<path fill="#393B40" d="M34.912,136.113L28.835,131l-1.458-2.7l-2.05-3.496l0.493-0.456l5.229,3.616l9.017,0.126l5.076-4.088
	l0.53,0.411l-3.145,6.827l-3.178,2.128L34.912,136.113L34.912,136.113z M29.378,130.557l5.595,4.709l4.003-2.478l3.006-2.011
	l2.45-5.32l-4.125,3.324l-9.479-0.129l-4.117-2.849l1.266,2.157L29.378,130.557L29.378,130.557z"/>
<polygon fill="#393B40" points="30.98,164.583 21.83,164.583 37.556,147.135 25.989,141.359 28.772,130.69 29.438,130.864 
	26.797,140.991 38.673,146.925 23.377,163.895 30.769,163.895 38.521,158.62 45.088,150.496 44.217,144.842 42.19,130.949 
	42.871,130.849 44.899,144.738 45.814,150.69 38.992,159.13 30.98,164.583 "/>
<path fill="#393B40" d="M16.554,170.948l-1.546-7.72l8.693-24.061l14.973,7.765L16.554,170.948L16.554,170.948z M15.721,163.283
	l1.244,6.203l20.591-22.357l-13.473-6.989L15.721,163.283L15.721,163.283z"/>
<polygon fill="#393B40" points="28.014,136.324 27.347,136.156 27.351,136.139 28.019,136.307 28.014,136.324 "/>
<path fill="#393B40" d="M19.646,178.134l-1.894-9.504l4.707-5.11l9.128,0.404L19.646,178.134L19.646,178.134z M18.496,168.839
	l1.545,7.752l10.12-12.041l-7.411-0.33L18.496,168.839L18.496,168.839z"/>
<polygon fill="#393B40" points="20.066,176.873 19.395,176.718 22.269,164.163 22.939,164.315 20.066,176.873 "/>
<polygon fill="#393B40" points="31.192,164.373 30.558,164.104 37.796,146.896 38.433,147.164 31.192,164.373 "/>
<polygon fill="#393B40" points="38.413,158.891 37.771,146.149 38.458,146.113 39.1,158.859 38.413,158.891 "/>
<polygon fill="#393B40" points="39.852,139.919 28.456,130.838 28.886,130.301 40.28,139.383 39.852,139.919 "/>
<polygon fill="#393B40" points="35.589,135.852 35.211,135.275 42.342,130.612 42.717,131.188 35.589,135.852 "/>
<polygon fill="#393B40" points="22.949,164.257 22.26,164.217 23.547,139.636 24.234,139.671 22.949,164.257 "/>
<polygon fill="#393B40" points="26.432,141.518 26.354,140.832 40.027,139.309 40.104,139.994 26.432,141.518 "/>
<polygon fill="#393B40" points="38.447,147.119 37.782,146.938 42.199,130.81 42.863,130.991 38.447,147.119 "/>
<polygon fill="#393B40" points="45.053,150.159 39.76,139.81 40.372,139.496 45.665,149.845 45.053,150.159 "/>
<polygon fill-rule="evenodd" clip-rule="evenodd" fill="#EFF4F4" stroke="#4C4D57" stroke-width="2" stroke-linecap="round" stroke-linejoin="round" points="
	1.62,256.596 1.62,296.196 4.957,298.415 59.868,298.415 59.868,263.738 53.714,263.738 53.714,290.706 53.714,256.596 "/>
<rect x="7.994" y="262.66" fill-rule="evenodd" clip-rule="evenodd" fill="#EFF4F4" stroke="#4C4D57" stroke-width="2" stroke-linecap="round" stroke-linejoin="round" width="39.656" height="6.065"/>
<rect x="30.916" y="273.669" fill-rule="evenodd" clip-rule="evenodd" fill="#EFF4F4" stroke="#4C4D57" stroke-width="2" stroke-linecap="round" stroke-linejoin="round" width="16.734" height="3.486"/>
<rect x="30.916" y="280.335" fill-rule="evenodd" clip-rule="evenodd" fill="#EFF4F4" stroke="#4C4D57" stroke-width="2" stroke-linecap="round" stroke-linejoin="round" width="16.734" height="3.487"/>
<rect x="30.916" y="287.003" fill-rule="evenodd" clip-rule="evenodd" fill="#EFF4F4" stroke="#4C4D57" stroke-width="2" stroke-linejoin="round" width="16.734" height="3.487"/>
<rect x="7.994" y="273.669" fill-rule="evenodd" clip-rule="evenodd" fill="#4C4D57" stroke="#4C4D57" stroke-width="2" stroke-linecap="round" stroke-linejoin="round" width="18.719" height="16.821"/>
<rect x="21.516" y="376.071" fill-rule="evenodd" clip-rule="evenodd" fill="#EFF4F4" stroke="#4C4D57" stroke-width="2" stroke-linecap="round" stroke-linejoin="round" width="11.751" height="56.506"/>
<polygon fill-rule="evenodd" clip-rule="evenodd" fill="#EFF4F4" stroke="#4C4D57" stroke-width="2" stroke-linecap="round" stroke-linejoin="round" points="
	60.488,396.485 52.601,404.943 1.232,404.943 1,385.62 52.369,385.62 "/>
<text transform="matrix(1 0 0 1 12.7192 399.0767)" fill="#4C4D57" font-family="'Coustard'" font-size="9.1486">START</text>
<polygon fill-rule="evenodd" clip-rule="evenodd" fill="#4C4D57" points="33.267,408.992 21.516,413.479 21.516,404.74 
	33.267,404.74 "/>
</svg>
